o Default
v 1 0 1
v 0 0 1
v 0 0 0
v 1 0 0
v 0 0 -1
v 1 0 -1
v 0 0 -2
v 1 0 -2
v -1 0 -1
v -1 0 -2
v -2 0 -1
v -2 0 -2
v -3 0 -1
v -3 0 -2
v -4 0 -1
v -4 0 -2
v -3 0 0
v -4 0 0
v -3 0 1
v -4 0 1
v -2 0 1
v -2 0 0
v -1 0 1
v -1 0 0
vt 0.5666666666666667 0.6333333333333333
vt 0.6 0.6666666666666667
vt 0.5666666666666667 0.6666666666666667
vt 0.5666666666666667 0.6333333333333333
vt 0.6 0.6333333333333333
vt 0.6 0.6666666666666667
vt 0.6 0.6333333333333333
vt 0.6333333333333333 0.6666666666666667
vt 0.6 0.6666666666666667
vt 0.6 0.6333333333333333
vt 0.6333333333333333 0.6333333333333333
vt 0.6333333333333333 0.6666666666666667
vt 0.6666666666666666 0.6333333333333333
vt 0.7 0.6666666666666667
vt 0.6666666666666666 0.6666666666666667
vt 0.6666666666666666 0.6333333333333333
vt 0.7 0.6333333333333333
vt 0.7 0.6666666666666667
vt 0.6666666666666666 0.6666666666666667
vt 0.7 0.7
vt 0.6666666666666666 0.7
vt 0.6666666666666666 0.6666666666666667
vt 0.7 0.6666666666666667
vt 0.7 0.7
vt 0.6666666666666666 0.6666666666666667
vt 0.7 0.7
vt 0.6666666666666666 0.7
vt 0.6666666666666666 0.6666666666666667
vt 0.7 0.6666666666666667
vt 0.7 0.7
vt 0.6666666666666666 0.6666666666666667
vt 0.7 0.7
vt 0.6666666666666666 0.7
vt 0.6666666666666666 0.6666666666666667
vt 0.7 0.6666666666666667
vt 0.7 0.7
vt 0.6666666666666666 0.7333333333333334
vt 0.7 0.7666666666666666
vt 0.6666666666666666 0.7666666666666666
vt 0.6666666666666666 0.7333333333333334
vt 0.7 0.7333333333333334
vt 0.7 0.7666666666666666
vt 0.6333333333333333 0.7333333333333334
vt 0.6666666666666666 0.7666666666666666
vt 0.6333333333333333 0.7666666666666666
vt 0.6333333333333333 0.7333333333333334
vt 0.6666666666666666 0.7333333333333334
vt 0.6666666666666666 0.7666666666666666
vt 0.5666666666666667 0.7333333333333334
vt 0.6 0.7666666666666666
vt 0.5666666666666667 0.7666666666666666
vt 0.5666666666666667 0.7333333333333334
vt 0.6 0.7333333333333334
vt 0.6 0.7666666666666666
vt 0.5666666666666667 0.7
vt 0.6 0.7333333333333334
vt 0.5666666666666667 0.7333333333333334
vt 0.5666666666666667 0.7
vt 0.6 0.7
vt 0.6 0.7333333333333334
vt 0.5666666666666667 0.7
vt 0.6 0.7333333333333334
vt 0.5666666666666667 0.7333333333333334
vt 0.5666666666666667 0.7
vt 0.6 0.7
vt 0.6 0.7333333333333334
vt 0.5666666666666667 0.7
vt 0.6 0.7333333333333334
vt 0.5666666666666667 0.7333333333333334
vt 0.5666666666666667 0.7
vt 0.6 0.7
vt 0.6 0.7333333333333334
vt 0.7333333333333333 0.6333333333333333
vt 0.7666666666666667 0.6666666666666667
vt 0.7333333333333333 0.6666666666666667
vt 0.7333333333333333 0.6333333333333333
vt 0.7666666666666667 0.6333333333333333
vt 0.7666666666666667 0.6666666666666667
vt 0.7333333333333333 0.6333333333333333
vt 0.7666666666666667 0.6666666666666667
vt 0.7333333333333333 0.6666666666666667
vt 0.7333333333333333 0.6333333333333333
vt 0.7666666666666667 0.6333333333333333
vt 0.7666666666666667 0.6666666666666667
vt 0.7333333333333333 0.6333333333333333
vt 0.7666666666666667 0.6666666666666667
vt 0.7333333333333333 0.6666666666666667
vt 0.7333333333333333 0.6333333333333333
vt 0.7666666666666667 0.6333333333333333
vt 0.7666666666666667 0.6666666666666667
vn 0.00009998999980817563 0.9999999950010001 -4.998999965579578e-13
vn 0.0000166650001300177 0.9999999997222779 0.000016664999796767703
vn -0.000033330000084162245 0.9999999994445555 1.666333329264304e-13
vn 0.00009998999980817563 0.9999999950010001 -4.998999965579578e-13
vn 0.0000999899998081756 0.9999999950009999 -1.6663333218598588e-13
vn 0.0000166650001300177 0.9999999997222779 0.000016664999796767703
vn 0.0000999899998081756 0.9999999950009999 -1.6663333218598588e-13
vn 0.00004999499996656905 0.9999999987502499 0
vn 0.0000166650001300177 0.9999999997222779 0.000016664999796767703
vn 0.0000999899998081756 0.9999999950009999 -1.6663333218598588e-13
vn 0.0000999899998081756 0.9999999950009999 0
vn 0.00004999499996656905 0.9999999987502499 0
vn 0.0000999899998081756 0.9999999950009999 0
vn 0.00006665999994616892 0.9999999977782221 0
vn 0.00004999499996656905 0.9999999987502499 0
vn 0.0000999899998081756 0.9999999950009999 0
vn 0.00009998999980817563 0.9999999950010001 0
vn 0.00006665999994616892 0.9999999977782221 0
vn 0.00004999499996656905 0.9999999987502499 0
vn 0 1 0
vn -0.000016664999914804502 0.9999999993056944 0.00003332999982960067
vn 0.00004999499996656905 0.9999999987502499 0
vn 0.00006665999994616892 0.9999999977782221 0
vn 0 1 0
vn -0.000016664999914804502 0.9999999993056944 0.00003332999982960067
vn 0 1 0
vn 0 0.9999999987502499 0.00004999499996656906
vn -0.000016664999914804502 0.9999999993056944 0.00003332999982960067
vn 0 1 0
vn 0 1 0
vn 0 0.9999999987502499 0.00004999499996656906
vn 0 1 0
vn 0 0.9999999987502499 0.00004999499996656906
vn 0 0.9999999987502499 0.00004999499996656906
vn 0 1 0
vn 0 1 0
vn 0 0.9999999987502499 0.00004999499996656906
vn 0 1 0
vn 0.00003333000001011038 0.999999998889111 0.00003333000001011038
vn 0 0.9999999987502499 0.00004999499996656906
vn 0 1 0
vn 0 1 0
vn 0.00003333000001011038 0.999999998889111 0.00003333000001011038
vn 0.00003333000001011038 0.999999998889111 0.00003333000001011038
vn 0.0000999899998081756 0.9999999950009999 0
vn 0.00003333000001011038 0.999999998889111 0.00003333000001011038
vn 0 0.9999999987502499 0.00004999499996656906
vn 0.00003333000001011038 0.999999998889111 0.00003333000001011038
vn 0.00006665999994616892 0.9999999977782221 0
vn 0.0000999899998081756 0.9999999950009999 0
vn 0.00009998999980817563 0.9999999950010001 0
vn 0.00006665999994616892 0.9999999977782221 0
vn 0.00003333000001011038 0.999999998889111 0.00003333000001011038
vn 0.0000999899998081756 0.9999999950009999 0
vn 0 1 0
vn 0.00003333000001011038 0.999999998889111 0.00003333000001011038
vn 0.00006665999994616892 0.9999999977782221 0
vn 0 1 0
vn 0 0.9999999987502499 0.000049994999966569065
vn 0.00003333000001011038 0.999999998889111 0.00003333000001011038
vn -0.000033329999973084465 0.9999999994445555 1.6663333237109703e-13
vn 0 0.9999999987502499 0.000049994999966569065
vn 0 1 0
vn -0.000033329999973084465 0.9999999994445555 1.6663333237109703e-13
vn -0.000049994999945741975 0.9999999975005001 0.00004999500002905864
vn 0 0.9999999987502499 0.000049994999966569065
vn -0.000033330000084162245 0.9999999994445555 1.666333329264304e-13
vn -0.000049994999945741975 0.9999999975005001 0.00004999500002905864
vn -0.000033329999973084465 0.9999999994445555 1.6663333237109703e-13
vn -0.000033330000084162245 0.9999999994445555 1.666333329264304e-13
vn 0.0000166650001300177 0.9999999997222779 0.000016664999796767703
vn -0.000049994999945741975 0.9999999975005001 0.00004999500002905864
vn 0 0.9999999987502499 0.000049994999966569065
vn 0 0.9999999987502499 0.00004999499996656906
vn 0.00003333000001011038 0.999999998889111 0.00003333000001011038
vn 0 0.9999999987502499 0.000049994999966569065
vn 0 0.9999999987502499 0.00004999499996656906
vn 0 0.9999999987502499 0.00004999499996656906
vn -0.000049994999945741975 0.9999999975005001 0.00004999500002905864
vn 0 0.9999999987502499 0.00004999499996656906
vn 0 0.9999999987502499 0.000049994999966569065
vn -0.000049994999945741975 0.9999999975005001 0.00004999500002905864
vn -0.000016664999914804502 0.9999999993056944 0.00003332999982960067
vn 0 0.9999999987502499 0.00004999499996656906
vn 0.0000166650001300177 0.9999999997222779 0.000016664999796767703
vn -0.000016664999914804502 0.9999999993056944 0.00003332999982960067
vn -0.000049994999945741975 0.9999999975005001 0.00004999500002905864
vn 0.0000166650001300177 0.9999999997222779 0.000016664999796767703
vn 0.00004999499996656905 0.9999999987502499 0
vn -0.000016664999914804502 0.9999999993056944 0.00003332999982960067
g Scene
f 1/1/1 3/2/2 2/3/3
f 1/4/4 4/5/5 3/6/6
f 4/7/7 5/8/8 3/9/9
f 4/10/10 6/11/11 5/12/12
f 6/13/13 7/14/14 5/15/15
f 6/16/16 8/17/17 7/18/18
f 5/19/19 10/20/20 9/21/21
f 5/22/22 7/23/23 10/24/24
f 9/25/25 12/26/26 11/27/27
f 9/28/28 10/29/29 12/30/30
f 11/31/31 14/32/32 13/33/33
f 11/34/34 12/35/35 14/36/36
f 13/37/37 16/38/38 15/39/39
f 13/40/40 14/41/41 16/42/42
f 17/43/43 15/44/44 18/45/45
f 17/46/46 13/47/47 15/48/48
f 19/49/49 18/50/50 20/51/51
f 19/52/52 17/53/53 18/54/54
f 21/55/55 17/56/56 19/57/57
f 21/58/58 22/59/59 17/60/60
f 23/61/61 22/62/62 21/63/63
f 23/64/64 24/65/65 22/66/66
f 2/67/67 24/68/68 23/69/69
f 2/70/70 3/71/71 24/72/72
f 22/73/73 13/74/74 17/75/75
f 22/76/76 11/77/77 13/78/78
f 24/79/79 11/80/80 22/81/81
f 24/82/82 9/83/83 11/84/84
f 3/85/85 9/86/86 24/87/87
f 3/88/88 5/89/89 9/90/90
