o Default
v 0 0 -1
v -1 0 -1
v -1 0 -2
v 0 0 -2
v -2 0 -1
v -2 0 -2
v -3 0 -1
v -3 0 -2
v -4 0 -1
v -4 0 -2
v -3 0 0
v -4 0 0
v -3 0 1
v -4 0 1
v -2 0 1
v -2 0 0
v -1 0 1
v -1 0 0
v 0 0 1
v 0 0 0
v 3 0 0
v 2 0 0
v 2 0 -2
v 3 0 -2
v 3 0 1
v 2 0 1
v 1 0 1
v 1 0 0
v 1 0 -1
v 1 0 -2
v 2 0 -1
vt 0.6666666666666666 0.6666666666666667
vt 0.7 0.7
vt 0.6666666666666666 0.7
vt 0.6666666666666666 0.6666666666666667
vt 0.7 0.6666666666666667
vt 0.7 0.7
vt 0.6666666666666666 0.6666666666666667
vt 0.7 0.7
vt 0.6666666666666666 0.7
vt 0.6666666666666666 0.6666666666666667
vt 0.7 0.6666666666666667
vt 0.7 0.7
vt 0.6666666666666666 0.6666666666666667
vt 0.7 0.7
vt 0.6666666666666666 0.7
vt 0.6666666666666666 0.6666666666666667
vt 0.7 0.6666666666666667
vt 0.7 0.7
vt 0.6666666666666666 0.7333333333333334
vt 0.7 0.7666666666666666
vt 0.6666666666666666 0.7666666666666666
vt 0.6666666666666666 0.7333333333333334
vt 0.7 0.7333333333333334
vt 0.7 0.7666666666666666
vt 0.6333333333333333 0.7333333333333334
vt 0.6666666666666666 0.7666666666666666
vt 0.6333333333333333 0.7666666666666666
vt 0.6333333333333333 0.7333333333333334
vt 0.6666666666666666 0.7333333333333334
vt 0.6666666666666666 0.7666666666666666
vt 0.5666666666666667 0.7333333333333334
vt 0.6 0.7666666666666666
vt 0.5666666666666667 0.7666666666666666
vt 0.5666666666666667 0.7333333333333334
vt 0.6 0.7333333333333334
vt 0.6 0.7666666666666666
vt 0.5666666666666667 0.7
vt 0.6 0.7333333333333334
vt 0.5666666666666667 0.7333333333333334
vt 0.5666666666666667 0.7
vt 0.6 0.7
vt 0.6 0.7333333333333334
vt 0.5666666666666667 0.7
vt 0.6 0.7333333333333334
vt 0.5666666666666667 0.7333333333333334
vt 0.5666666666666667 0.7
vt 0.6 0.7
vt 0.6 0.7333333333333334
vt 0.5666666666666667 0.7
vt 0.6 0.7333333333333334
vt 0.5666666666666667 0.7333333333333334
vt 0.5666666666666667 0.7
vt 0.6 0.7
vt 0.6 0.7333333333333334
vt 0.7333333333333333 0.6333333333333333
vt 0.7666666666666667 0.6666666666666667
vt 0.7333333333333333 0.6666666666666667
vt 0.7333333333333333 0.6333333333333333
vt 0.7666666666666667 0.6333333333333333
vt 0.7666666666666667 0.6666666666666667
vt 0.7333333333333333 0.6333333333333333
vt 0.7666666666666667 0.6666666666666667
vt 0.7333333333333333 0.6666666666666667
vt 0.7333333333333333 0.6333333333333333
vt 0.7666666666666667 0.6333333333333333
vt 0.7666666666666667 0.6666666666666667
vt 0.7333333333333333 0.6333333333333333
vt 0.7666666666666667 0.6666666666666667
vt 0.7333333333333333 0.6666666666666667
vt 0.7333333333333333 0.6333333333333333
vt 0.7666666666666667 0.6333333333333333
vt 0.7666666666666667 0.6666666666666667
vt 0.6333333333333333 0.6333333333333333
vt 0.7 0.6666666666666667
vt 0.6333333333333333 0.6666666666666667
vt 0.6333333333333333 0.6333333333333333
vt 0.7 0.6333333333333333
vt 0.7 0.6666666666666667
vt 0.5666666666666667 0.6333333333333333
vt 0.6 0.6666666666666667
vt 0.5666666666666667 0.6666666666666667
vt 0.5666666666666667 0.6333333333333333
vt 0.6 0.6333333333333333
vt 0.6 0.6666666666666667
vt 0.5666666666666667 0.6666666666666667
vt 0.6 0.7
vt 0.5666666666666667 0.7
vt 0.5666666666666667 0.6666666666666667
vt 0.6 0.6666666666666667
vt 0.6 0.7
vt 0.5666666666666667 0.6666666666666667
vt 0.6 0.7
vt 0.5666666666666667 0.7
vt 0.5666666666666667 0.6666666666666667
vt 0.6 0.6666666666666667
vt 0.6 0.7
vt 0.6666666666666666 0.6666666666666667
vt 0.7 0.7
vt 0.6666666666666666 0.7
vt 0.6666666666666666 0.6666666666666667
vt 0.7 0.6666666666666667
vt 0.7 0.7
vt 0.6666666666666666 0.6666666666666667
vt 0.7 0.7
vt 0.6666666666666666 0.7
vt 0.6666666666666666 0.6666666666666667
vt 0.7 0.6666666666666667
vt 0.7 0.7
vt 0.7333333333333333 0.6333333333333333
vt 0.7666666666666667 0.6666666666666667
vt 0.7333333333333333 0.6666666666666667
vt 0.7333333333333333 0.6333333333333333
vt 0.7666666666666667 0.6333333333333333
vt 0.7666666666666667 0.6666666666666667
vt 0.7333333333333333 0.6333333333333333
vt 0.7666666666666667 0.6666666666666667
vt 0.7333333333333333 0.6666666666666667
vt 0.7333333333333333 0.6333333333333333
vt 0.7666666666666667 0.6333333333333333
vt 0.7666666666666667 0.6666666666666667
vn 0.00003333000005176456 0.9999999993056944 -0.00001666500019251561
vn 0.00006665999994616892 0.9999999977782221 -3.33266664742194e-13
vn 0.00003333000001011039 0.999999998889111 0.000033330000010110396
vn 0.00003333000005176456 0.9999999993056944 -0.00001666500019251561
vn 0.000033329999973084465 0.9999999994445555 -1.6663333237109703e-13
vn 0.00006665999994616892 0.9999999977782221 -3.33266664742194e-13
vn 0.00003333000001011039 0.999999998889111 0.000033330000010110396
vn 0 1 0
vn 0 0.9999999987502499 0.00004999499996656906
vn 0.00003333000001011039 0.999999998889111 0.000033330000010110396
vn 0.00006665999994616892 0.9999999977782221 -3.33266664742194e-13
vn 0 1 0
vn 0 0.9999999987502499 0.00004999499996656906
vn 0 1 0
vn 0 0.9999999987502499 0.00004999499996656906
vn 0 0.9999999987502499 0.00004999499996656906
vn 0 1 0
vn 0 1 0
vn 0 0.9999999987502499 0.00004999499996656906
vn 0 1 0
vn 0.00003333000001011038 0.999999998889111 0.00003333000001011038
vn 0 0.9999999987502499 0.00004999499996656906
vn 0 1 0
vn 0 1 0
vn 0.00003333000001011038 0.999999998889111 0.00003333000001011038
vn 0.00003333000001011038 0.999999998889111 0.00003333000001011038
vn 0.0000999899998081756 0.9999999950009999 0
vn 0.00003333000001011038 0.999999998889111 0.00003333000001011038
vn 0 0.9999999987502499 0.00004999499996656906
vn 0.00003333000001011038 0.999999998889111 0.00003333000001011038
vn 0.00006665999994616892 0.9999999977782221 0
vn 0.0000999899998081756 0.9999999950009999 0
vn 0.00009998999980817563 0.9999999950010001 0
vn 0.00006665999994616892 0.9999999977782221 0
vn 0.00003333000001011038 0.999999998889111 0.00003333000001011038
vn 0.0000999899998081756 0.9999999950009999 0
vn 0 1 0
vn 0.00003333000001011038 0.999999998889111 0.00003333000001011038
vn 0.00006665999994616892 0.9999999977782221 0
vn 0 1 0
vn 0 0.9999999987502499 0.000049994999966569065
vn 0.00003333000001011038 0.999999998889111 0.00003333000001011038
vn 0 1 0
vn 0 0.9999999987502499 0.000049994999966569065
vn 0 1 0
vn 0 1 0
vn 0 0.9999999987502499 0.00004999499996656906
vn 0 0.9999999987502499 0.000049994999966569065
vn -0.000033329999973084465 0.9999999994445555 1.6663333237109703e-13
vn 0 0.9999999987502499 0.00004999499996656906
vn 0 1 0
vn -0.000033329999973084465 0.9999999994445555 1.6663333237109703e-13
vn -0.000033330000051764556 0.9999999993056944 0.00001666500019251561
vn 0 0.9999999987502499 0.00004999499996656906
vn 0 0.9999999987502499 0.000049994999966569065
vn 0 0.9999999987502499 0.00004999499996656906
vn 0.00003333000001011038 0.999999998889111 0.00003333000001011038
vn 0 0.9999999987502499 0.000049994999966569065
vn 0 0.9999999987502499 0.00004999499996656906
vn 0 0.9999999987502499 0.00004999499996656906
vn 0 0.9999999987502499 0.00004999499996656906
vn 0 0.9999999987502499 0.00004999499996656906
vn 0 0.9999999987502499 0.000049994999966569065
vn 0 0.9999999987502499 0.00004999499996656906
vn 0.00003333000001011039 0.999999998889111 0.000033330000010110396
vn 0 0.9999999987502499 0.00004999499996656906
vn -0.000033330000051764556 0.9999999993056944 0.00001666500019251561
vn 0.00003333000001011039 0.999999998889111 0.000033330000010110396
vn 0 0.9999999987502499 0.00004999499996656906
vn -0.000033330000051764556 0.9999999993056944 0.00001666500019251561
vn 0.00003333000005176456 0.9999999993056944 -0.00001666500019251561
vn 0.00003333000001011039 0.999999998889111 0.000033330000010110396
vn 0.0000999899998081756 0.9999999950009999 -3.332666606715985e-13
vn 0.00003333000012117152 0.999999998889111 0.000033329999954571496
vn 0.00004999500002210795 0.9999999981948055 -0.00003333000009805529
vn 0.0000999899998081756 0.9999999950009999 -3.332666606715985e-13
vn 0.00009998999980817566 0.9999999950010001 -4.998999965579579e-13
vn 0.00003333000012117152 0.999999998889111 0.000033329999954571496
vn 0.00009998999980817563 0.9999999950010001 0
vn 0.00004999500002210795 0.9999999981948055 -0.00003333000009805529
vn 0.000033329999973084465 0.9999999994445555 0
vn 0.00009998999980817563 0.9999999950010001 0
vn 0.0000999899998081756 0.9999999950009999 -3.332666606715985e-13
vn 0.00004999500002210795 0.9999999981948055 -0.00003333000009805529
vn 0.000033329999973084465 0.9999999994445555 0
vn -0.00003333000001011039 0.999999998889111 -0.00003333000001011039
vn -0.00006665999994616892 0.9999999977782221 3.33266664742194e-13
vn 0.000033329999973084465 0.9999999994445555 0
vn 0.00004999500002210795 0.9999999981948055 -0.00003333000009805529
vn -0.00003333000001011039 0.999999998889111 -0.00003333000001011039
vn -0.00006665999994616892 0.9999999977782221 3.33266664742194e-13
vn -0.000033330000051764556 0.9999999993056944 0.00001666500019251561
vn -0.000033329999973084465 0.9999999994445555 1.6663333237109703e-13
vn -0.00006665999994616892 0.9999999977782221 3.33266664742194e-13
vn -0.00003333000001011039 0.999999998889111 -0.00003333000001011039
vn -0.000033330000051764556 0.9999999993056944 0.00001666500019251561
vn 0 0.9999999987502499 -0.00004999499996656906
vn 0.000033329999973084465 0.9999999994445555 -1.6663333237109703e-13
vn 0.00003333000005176456 0.9999999993056944 -0.00001666500019251561
vn 0 0.9999999987502499 -0.00004999499996656906
vn -0.000033330000010127046 0.999999998889111 0.000033330000176760375
vn 0.000033329999973084465 0.9999999994445555 -1.6663333237109703e-13
vn -0.0000333300000841789 0.9999999994445555 1.6664998809779796e-13
vn -0.000033330000010127046 0.999999998889111 0.000033330000176760375
vn 0 0.9999999987502499 -0.00004999499996656906
vn -0.0000333300000841789 0.9999999994445555 1.6664998809779796e-13
vn 0.00003333000012117152 0.999999998889111 0.000033329999954571496
vn -0.000033330000010127046 0.999999998889111 0.000033330000176760375
vn -0.00003333000001011039 0.999999998889111 -0.00003333000001011039
vn 0.00003333000005176456 0.9999999993056944 -0.00001666500019251561
vn -0.000033330000051764556 0.9999999993056944 0.00001666500019251561
vn -0.00003333000001011039 0.999999998889111 -0.00003333000001011039
vn 0 0.9999999987502499 -0.00004999499996656906
vn 0.00003333000005176456 0.9999999993056944 -0.00001666500019251561
vn 0.00004999500002210795 0.9999999981948055 -0.00003333000009805529
vn 0 0.9999999987502499 -0.00004999499996656906
vn -0.00003333000001011039 0.999999998889111 -0.00003333000001011039
vn 0.00004999500002210795 0.9999999981948055 -0.00003333000009805529
vn -0.0000333300000841789 0.9999999994445555 1.6664998809779796e-13
vn 0 0.9999999987502499 -0.00004999499996656906
g Scene
f 1/1/1 3/2/2 2/3/3
f 1/4/4 4/5/5 3/6/6
f 2/7/7 6/8/8 5/9/9
f 2/10/10 3/11/11 6/12/12
f 5/13/13 8/14/14 7/15/15
f 5/16/16 6/17/17 8/18/18
f 7/19/19 10/20/20 9/21/21
f 7/22/22 8/23/23 10/24/24
f 11/25/25 9/26/26 12/27/27
f 11/28/28 7/29/29 9/30/30
f 13/31/31 12/32/32 14/33/33
f 13/34/34 11/35/35 12/36/36
f 15/37/37 11/38/38 13/39/39
f 15/40/40 16/41/41 11/42/42
f 17/43/43 16/44/44 15/45/45
f 17/46/46 18/47/47 16/48/48
f 19/49/49 18/50/50 17/51/51
f 19/52/52 20/53/53 18/54/54
f 16/55/55 7/56/56 11/57/57
f 16/58/58 5/59/59 7/60/60
f 18/61/61 5/62/62 16/63/63
f 18/64/64 2/65/65 5/66/66
f 20/67/67 2/68/68 18/69/69
f 20/70/70 1/71/71 2/72/72
f 21/73/73 23/74/74 22/75/75
f 21/76/76 24/77/77 23/78/78
f 25/79/79 22/80/80 26/81/81
f 25/82/82 21/83/83 22/84/84
f 26/85/85 28/86/86 27/87/87
f 26/88/88 22/89/89 28/90/90
f 27/91/91 20/92/92 19/93/93
f 27/94/94 28/95/95 20/96/96
f 29/97/97 4/98/98 1/99/99
f 29/100/100 30/101/101 4/102/102
f 31/103/103 30/104/104 29/105/105
f 31/106/106 23/107/107 30/108/108
f 28/109/109 1/110/110 20/111/111
f 28/112/112 29/113/113 1/114/114
f 22/115/115 29/116/116 28/117/117
f 22/118/118 31/119/119 29/120/120
