mtllib material.mtl
o Default
v 7 0 -1
v 6 0 -1
v 6 0 -2
v 7 0 -2
v 6 0 -1
v 5 0 -1
v 5 0 -2
v 6 0 -2
v 5 0 -1
v 4 0 -1
v 4 0 -2
v 5 0 -2
v 4 0 -1
v 3 0 -1
v 3 0 -2
v 4 0 -2
v 3 0 -1
v 2 0 -1
v 2 0 -2
v 3 0 -2
v 2 0 -1
v 1 0 -1
v 1 0 -2
v 2 0 -2
v 2 0 0
v 1 0 0
v 3 0 0
v 2 0 0
v 4 0 0
v 3 0 0
v 5 0 0
v 4 0 0
v 6 0 0
v 5 0 0
v 7 0 0
v 6 0 0
vt 0.36666666666666664 0.6
vt 0.4 0.6333333333333333
vt 0.36666666666666664 0.6333333333333333
vt 0.36666666666666664 0.6
vt 0.4 0.6
vt 0.4 0.6333333333333333
vt 0.36666666666666664 0.6
vt 0.4 0.6333333333333333
vt 0.36666666666666664 0.6333333333333333
vt 0.36666666666666664 0.6
vt 0.4 0.6
vt 0.4 0.6333333333333333
vt 0.36666666666666664 0.6
vt 0.4 0.6333333333333333
vt 0.36666666666666664 0.6333333333333333
vt 0.36666666666666664 0.6
vt 0.4 0.6
vt 0.4 0.6333333333333333
vt 0.36666666666666664 0.6
vt 0.4 0.6333333333333333
vt 0.36666666666666664 0.6333333333333333
vt 0.36666666666666664 0.6
vt 0.4 0.6
vt 0.4 0.6333333333333333
vt 0.36666666666666664 0.6
vt 0.4 0.6333333333333333
vt 0.36666666666666664 0.6333333333333333
vt 0.36666666666666664 0.6
vt 0.4 0.6
vt 0.4 0.6333333333333333
vt 0.36666666666666664 0.6
vt 0.4 0.6333333333333333
vt 0.36666666666666664 0.6333333333333333
vt 0.36666666666666664 0.6
vt 0.4 0.6
vt 0.4 0.6333333333333333
vt 0.36666666666666664 0.6
vt 0.4 0.6333333333333333
vt 0.36666666666666664 0.6333333333333333
vt 0.36666666666666664 0.6
vt 0.4 0.6
vt 0.4 0.6333333333333333
vt 0.36666666666666664 0.6
vt 0.4 0.6333333333333333
vt 0.36666666666666664 0.6333333333333333
vt 0.36666666666666664 0.6
vt 0.4 0.6
vt 0.4 0.6333333333333333
vt 0.36666666666666664 0.6
vt 0.4 0.6333333333333333
vt 0.36666666666666664 0.6333333333333333
vt 0.36666666666666664 0.6
vt 0.4 0.6
vt 0.4 0.6333333333333333
vt 0.36666666666666664 0.6
vt 0.4 0.6333333333333333
vt 0.36666666666666664 0.6333333333333333
vt 0.36666666666666664 0.6
vt 0.4 0.6
vt 0.4 0.6333333333333333
vt 0.36666666666666664 0.6
vt 0.4 0.6333333333333333
vt 0.36666666666666664 0.6333333333333333
vt 0.36666666666666664 0.6
vt 0.4 0.6
vt 0.4 0.6333333333333333
vt 0.36666666666666664 0.6
vt 0.4 0.6333333333333333
vt 0.36666666666666664 0.6333333333333333
vt 0.36666666666666664 0.6
vt 0.4 0.6
vt 0.4 0.6333333333333333
vn 0.0000999899998081756 0.9999999950009999 -3.332666347689851e-13
vn 0.00009998999980817563 0.9999999950010001 -4.998999521534778e-13
vn 0.0000999899998081756 0.9999999950009999 -1.6663331738449254e-13
vn 0.0000999899998081756 0.9999999950009999 -3.332666347689851e-13
vn 0.00009998999980817563 0.9999999950010001 -4.998999521534778e-13
vn 0.00009998999980817563 0.9999999950010001 -4.998999521534778e-13
vn 0.0000999899998081756 0.9999999950009999 -3.332666347689851e-13
vn 0.00009998999980817563 0.9999999950010001 -4.998999521534778e-13
vn 0.0000999899998081756 0.9999999950009999 -1.6663331738449254e-13
vn 0.0000999899998081756 0.9999999950009999 -3.332666347689851e-13
vn 0.00009998999980817563 0.9999999950010001 -4.998999521534778e-13
vn 0.00009998999980817563 0.9999999950010001 -4.998999521534778e-13
vn 0.0000999899998081756 0.9999999950009999 -3.332666347689851e-13
vn 0.00009998999980817563 0.9999999950010001 -4.998999521534778e-13
vn 0.0000999899998081756 0.9999999950009999 -1.6663331738449254e-13
vn 0.0000999899998081756 0.9999999950009999 -3.332666347689851e-13
vn 0.00009998999980817563 0.9999999950010001 -4.998999521534778e-13
vn 0.00009998999980817563 0.9999999950010001 -4.998999521534778e-13
vn 0.0000999899998081756 0.9999999950009999 -3.332666347689851e-13
vn 0.00009998999980817563 0.9999999950010001 -4.998999521534778e-13
vn 0.0000999899998081756 0.9999999950009999 -1.6663331738449254e-13
vn 0.0000999899998081756 0.9999999950009999 -3.332666347689851e-13
vn 0.00009998999980817563 0.9999999950010001 -4.998999521534778e-13
vn 0.00009998999980817563 0.9999999950010001 -4.998999521534778e-13
vn 0.0000999899998081756 0.9999999950009999 -3.3326664216973176e-13
vn 0.00009998999980817563 0.9999999950010001 -4.998999632545977e-13
vn 0.0000999899998081756 0.9999999950009999 -1.6663332478523921e-13
vn 0.0000999899998081756 0.9999999950009999 -3.3326664216973176e-13
vn 0.00009998999980817562 0.9999999950010001 -4.998999521534777e-13
vn 0.00009998999980817563 0.9999999950010001 -4.998999632545977e-13
vn 0.0000999899998081756 0.9999999950009999 -3.3326665697122515e-13
vn 0.00009998999980817564 0.9999999950010001 -4.998999854568378e-13
vn 0.00009998999980817563 0.9999999950009999 -1.6663333218598594e-13
vn 0.0000999899998081756 0.9999999950009999 -3.3326665697122515e-13
vn 0.00009998999980817563 0.9999999950010001 -4.998999743557178e-13
vn 0.00009998999980817564 0.9999999950010001 -4.998999854568378e-13
vn 0.00009998999980817566 0.9999999950010001 0
vn 0.00009998999980817563 0.9999999950009999 -1.6663333218598594e-13
vn 0.00009998999980817566 0.9999999950010001 0
vn 0.00009998999980817566 0.9999999950010001 0
vn 0.0000999899998081756 0.9999999950009999 -3.3326665697122515e-13
vn 0.00009998999980817563 0.9999999950009999 -1.6663333218598594e-13
vn 0.00009998999980817563 0.9999999950010001 0
vn 0.0000999899998081756 0.9999999950009999 -1.6663332478523921e-13
vn 0.00009998999980817563 0.9999999950010001 0
vn 0.00009998999980817563 0.9999999950010001 0
vn 0.0000999899998081756 0.9999999950009999 -3.3326664216973176e-13
vn 0.0000999899998081756 0.9999999950009999 -1.6663332478523921e-13
vn 0.00009998999980817563 0.9999999950010001 0
vn 0.0000999899998081756 0.9999999950009999 -1.6663331738449254e-13
vn 0.00009998999980817563 0.9999999950010001 0
vn 0.00009998999980817563 0.9999999950010001 0
vn 0.0000999899998081756 0.9999999950009999 -3.332666347689851e-13
vn 0.0000999899998081756 0.9999999950009999 -1.6663331738449254e-13
vn 0.00009998999980817563 0.9999999950010001 0
vn 0.0000999899998081756 0.9999999950009999 -1.6663331738449254e-13
vn 0.00009998999980817563 0.9999999950010001 0
vn 0.00009998999980817563 0.9999999950010001 0
vn 0.0000999899998081756 0.9999999950009999 -3.332666347689851e-13
vn 0.0000999899998081756 0.9999999950009999 -1.6663331738449254e-13
vn 0.00009998999980817563 0.9999999950010001 0
vn 0.0000999899998081756 0.9999999950009999 -1.6663331738449254e-13
vn 0.00009998999980817563 0.9999999950010001 0
vn 0.00009998999980817563 0.9999999950010001 0
vn 0.0000999899998081756 0.9999999950009999 -3.332666347689851e-13
vn 0.0000999899998081756 0.9999999950009999 -1.6663331738449254e-13
vn 0.00009998999980817563 0.9999999950010001 0
vn 0.0000999899998081756 0.9999999950009999 -1.6663331738449254e-13
vn 0.00009998999980817563 0.9999999950010001 0
vn 0.00009998999980817563 0.9999999950010001 0
vn 0.0000999899998081756 0.9999999950009999 -3.332666347689851e-13
vn 0.0000999899998081756 0.9999999950009999 -1.6663331738449254e-13
g Scene
f 1/1/1 3/2/2 2/3/3
f 1/4/4 4/5/5 3/6/6
f 5/7/7 7/8/8 6/9/9
f 5/10/10 8/11/11 7/12/12
f 9/13/13 11/14/14 10/15/15
f 9/16/16 12/17/17 11/18/18
f 13/19/19 15/20/20 14/21/21
f 13/22/22 16/23/23 15/24/24
f 17/25/25 19/26/26 18/27/27
f 17/28/28 20/29/29 19/30/30
f 21/31/31 23/32/32 22/33/33
f 21/34/34 24/35/35 23/36/36
f 25/37/37 22/38/38 26/39/39
f 25/40/40 21/41/41 22/42/42
f 27/43/43 18/44/44 28/45/45
f 27/46/46 17/47/47 18/48/48
f 29/49/49 14/50/50 30/51/51
f 29/52/52 13/53/53 14/54/54
f 31/55/55 10/56/56 32/57/57
f 31/58/58 9/59/59 10/60/60
f 33/61/61 6/62/62 34/63/63
f 33/64/64 5/65/65 6/66/66
f 35/67/67 2/68/68 36/69/69
f 35/70/70 1/71/71 2/72/72
