mtllib material.mtl
o Default
v 0.5 0 0.5
v -0.5 0 0.5
v -0.5 0 -0.5
v 0.5 0 -0.5
v 0.5 0 1.5
v -0.5 0 1.5
v 1.5 0 1.5
v 0.5 0 1.5
v 0.5 0 0.5
v 1.5 0 0.5
v 0.5 0 -0.5
v 1.5 0 -0.5
v 0.5 0 -1.5
v 1.5 0 -1.5
v -0.5 0 -1.5
v 0.5 0 -1.5
v -0.5 0 -0.5
v -1.5 0 -0.5
v -1.5 0 -1.5
v -0.5 0 -1.5
v -0.5 0 0.5
v -1.5 0 0.5
v -0.5 0 1.5
v -1.5 0 1.5
v 1.5 -1 1.5
v 1.5 0 1.5
v 1.5 0 -1.5
v 1.5 -1 -1.5
vt 0 0.9666666666666667
vt 0.03333333333333333 1
vt 0 1
vt 0 0.9666666666666667
vt 0.03333333333333333 0.9666666666666667
vt 0.03333333333333333 1
vt 0 0.9666666666666667
vt 0.03333333333333333 1
vt 0 1
vt 0 0.9666666666666667
vt 0.03333333333333333 0.9666666666666667
vt 0.03333333333333333 1
vt 0 0.9666666666666667
vt 0.03333333333333333 1
vt 0 1
vt 0 0.9666666666666667
vt 0.03333333333333333 0.9666666666666667
vt 0.03333333333333333 1
vt 0 0.9666666666666667
vt 0.03333333333333333 1
vt 0 1
vt 0 0.9666666666666667
vt 0.03333333333333333 0.9666666666666667
vt 0.03333333333333333 1
vt 0 0.9666666666666667
vt 0.03333333333333333 1
vt 0 1
vt 0 0.9666666666666667
vt 0.03333333333333333 0.9666666666666667
vt 0.03333333333333333 1
vt 0 0.9666666666666667
vt 0.03333333333333333 1
vt 0 1
vt 0 0.9666666666666667
vt 0.03333333333333333 0.9666666666666667
vt 0.03333333333333333 1
vt 0 0.9666666666666667
vt 0.03333333333333333 1
vt 0 1
vt 0 0.9666666666666667
vt 0.03333333333333333 0.9666666666666667
vt 0.03333333333333333 1
vt 0 0.9666666666666667
vt 0.03333333333333333 1
vt 0 1
vt 0 0.9666666666666667
vt 0.03333333333333333 0.9666666666666667
vt 0.03333333333333333 1
vt 0 0.9666666666666667
vt 0.03333333333333333 1
vt 0 1
vt 0 0.9666666666666667
vt 0.03333333333333333 0.9666666666666667
vt 0.03333333333333333 1
vt 0.7333333333333333 0.7
vt 0.8333333333333334 0.7333333333333334
vt 0.7333333333333333 0.7333333333333334
vt 0.7333333333333333 0.7
vt 0.8333333333333334 0.7
vt 0.8333333333333334 0.7333333333333334
vn 0.0000999899998081756 0.9999999950009999 -3.332666347689851e-13
vn 0.0000999899998081756 0.9999999950009999 -3.332666347689851e-13
vn 0.0000999899998081756 0.9999999950009999 -1.6663331738449254e-13
vn 0.0000999899998081756 0.9999999950009999 -3.332666347689851e-13
vn 0.0000999899998081756 0.9999999950009999 -1.6663331738449254e-13
vn 0.0000999899998081756 0.9999999950009999 -3.332666347689851e-13
vn 0.00009998999980817563 0.9999999950010001 0
vn 0.0000999899998081756 0.9999999950009999 -1.6663331738449254e-13
vn 0.00009998999980817563 0.9999999950010001 0
vn 0.00009998999980817563 0.9999999950010001 0
vn 0.0000999899998081756 0.9999999950009999 -3.332666347689851e-13
vn 0.0000999899998081756 0.9999999950009999 -1.6663331738449254e-13
vn 0.00009998999980817563 0.9999999950010001 -4.998999521534778e-13
vn 0.0000999899998081756 0.9999999950009999 -3.332666347689851e-13
vn 0.00009998999980817563 0.9999999950010001 -4.998999521534778e-13
vn 0.00009998999980817563 0.9999999950010001 -4.998999521534778e-13
vn 0.0000999899998081756 0.9999999950009999 -1.6663331738449254e-13
vn 0.0000999899998081756 0.9999999950009999 -3.332666347689851e-13
vn 0.0000999899998081756 0.9999999950009999 -1.6663331738449254e-13
vn 0.0000999899998081756 0.9999999950009999 0
vn 0.0000999899998081756 0.9999999950009999 -3.332666347689851e-13
vn 0.0000999899998081756 0.9999999950009999 -1.6663331738449254e-13
vn 0.0000999899998081756 0.9999999950009999 0
vn 0.0000999899998081756 0.9999999950009999 0
vn 0.0000999899998081756 0.9999999950009999 0
vn 0.00009998999980817563 0.9999999950010001 0
vn 0.0000999899998081756 0.9999999950009999 0
vn 0.0000999899998081756 0.9999999950009999 0
vn 0.00009998999980817563 0.9999999950010001 0
vn 0.00009998999980817563 0.9999999950010001 0
vn 0.0000999899998081756 0.9999999950009999 -1.6663331738449254e-13
vn 0.00009998999980817563 0.9999999950010001 0
vn 0.0000999899998081756 0.9999999950009999 -3.332666347689851e-13
vn 0.0000999899998081756 0.9999999950009999 -1.6663331738449254e-13
vn 0.00009998999980817563 0.9999999950010001 0
vn 0.00009998999980817563 0.9999999950010001 0
vn 0.0000999899998081756 0.9999999950009999 -3.332666347689851e-13
vn 0.00009998999980817563 0.9999999950010001 -4.998999521534778e-13
vn 0.0000999899998081756 0.9999999950009999 -1.6663331738449254e-13
vn 0.0000999899998081756 0.9999999950009999 -3.332666347689851e-13
vn 0.00009998999980817563 0.9999999950010001 -4.998999521534778e-13
vn 0.00009998999980817563 0.9999999950010001 -4.998999521534778e-13
vn 0.0000999899998081756 0.9999999950009999 0
vn 0.0000999899998081756 0.9999999950009999 -1.6663331738449254e-13
vn 0.0000999899998081756 0.9999999950009999 0
vn 0.0000999899998081756 0.9999999950009999 0
vn 0.0000999899998081756 0.9999999950009999 -3.332666347689851e-13
vn 0.0000999899998081756 0.9999999950009999 -1.6663331738449254e-13
vn 0.00009998999980817563 0.9999999950010001 0
vn 0.0000999899998081756 0.9999999950009999 0
vn 0.00009998999980817563 0.9999999950010001 0
vn 0.00009998999980817563 0.9999999950010001 0
vn 0.0000999899998081756 0.9999999950009999 0
vn 0.0000999899998081756 0.9999999950009999 0
vn 1 0 0
vn 1 0 0
vn 1 0 0
vn 1 0 0
vn 1 0 0
vn 1 0 0
g Scene
f 1/1/1 3/2/2 2/3/3
f 1/4/4 4/5/5 3/6/6
f 5/7/7 2/8/8 6/9/9
f 5/10/10 1/11/11 2/12/12
f 7/13/13 9/14/14 8/15/15
f 7/16/16 10/17/17 9/18/18
f 10/19/19 11/20/20 9/21/21
f 10/22/22 12/23/23 11/24/24
f 12/25/25 13/26/26 11/27/27
f 12/28/28 14/29/29 13/30/30
f 4/31/31 15/32/32 3/33/33
f 4/34/34 16/35/35 15/36/36
f 17/37/37 19/38/38 18/39/39
f 17/40/40 20/41/41 19/42/42
f 21/43/43 18/44/44 22/45/45
f 21/46/46 17/47/47 18/48/48
f 23/49/49 22/50/50 24/51/51
f 23/52/52 21/53/53 22/54/54
f 25/55/55 27/56/56 26/57/57
f 25/58/58 28/59/59 27/60/60
