o Default
v 0 0 1
v -1 0 1
v -1 0 0
v 0 0 0
v -2 0 1
v -2 0 0
v -2 0 -1
v -1 0 -1
v 0 0 -1
v 1 0 2
v 0 0 2
v 1 0 1
v -1 0 2
v -2 0 2
v -1 -1 -1
v -2 -1 -1
v 0 -1 -1
v -1 0 3
v -2 0 3
v 0 0 3
v 1 0 3
v 2 0 3
v 2 0 2
v 2 0 1
v 1 0 0
v 2 0 0
v 1 0 -1
v 2 0 -1
v 2 -1 -1
v 1 -1 -1
vt 0.43333333333333335 0.6
vt 0.4666666666666667 0.6333333333333333
vt 0.43333333333333335 0.6333333333333333
vt 0.43333333333333335 0.6
vt 0.4666666666666667 0.6
vt 0.4666666666666667 0.6333333333333333
vt 0.43333333333333335 0.6
vt 0.4666666666666667 0.6333333333333333
vt 0.43333333333333335 0.6333333333333333
vt 0.43333333333333335 0.6
vt 0.4666666666666667 0.6
vt 0.4666666666666667 0.6333333333333333
vt 0.43333333333333335 0.6
vt 0.4666666666666667 0.6333333333333333
vt 0.43333333333333335 0.6333333333333333
vt 0.43333333333333335 0.6
vt 0.4666666666666667 0.6
vt 0.4666666666666667 0.6333333333333333
vt 0.43333333333333335 0.6
vt 0.4666666666666667 0.6333333333333333
vt 0.43333333333333335 0.6333333333333333
vt 0.43333333333333335 0.6
vt 0.4666666666666667 0.6
vt 0.4666666666666667 0.6333333333333333
vt 0.43333333333333335 0.6
vt 0.4666666666666667 0.6333333333333333
vt 0.43333333333333335 0.6333333333333333
vt 0.43333333333333335 0.6
vt 0.4666666666666667 0.6
vt 0.4666666666666667 0.6333333333333333
vt 0.43333333333333335 0.6
vt 0.4666666666666667 0.6333333333333333
vt 0.43333333333333335 0.6333333333333333
vt 0.43333333333333335 0.6
vt 0.4666666666666667 0.6
vt 0.4666666666666667 0.6333333333333333
vt 0.43333333333333335 0.6
vt 0.4666666666666667 0.6333333333333333
vt 0.43333333333333335 0.6333333333333333
vt 0.43333333333333335 0.6
vt 0.4666666666666667 0.6
vt 0.4666666666666667 0.6333333333333333
vt 0.8 0.7
vt 0.8333333333333334 0.7333333333333334
vt 0.8 0.7333333333333334
vt 0.8 0.7
vt 0.8333333333333334 0.7
vt 0.8333333333333334 0.7333333333333334
vt 0.7666666666666667 0.7
vt 0.8 0.7333333333333334
vt 0.7666666666666667 0.7333333333333334
vt 0.7666666666666667 0.7
vt 0.8 0.7
vt 0.8 0.7333333333333334
vt 0.4666666666666667 0.6
vt 0.5 0.6333333333333333
vt 0.4666666666666667 0.6333333333333333
vt 0.4666666666666667 0.6
vt 0.5 0.6
vt 0.5 0.6333333333333333
vt 0.4666666666666667 0.6
vt 0.5 0.6333333333333333
vt 0.4666666666666667 0.6333333333333333
vt 0.4666666666666667 0.6
vt 0.5 0.6
vt 0.5 0.6333333333333333
vt 0.4666666666666667 0.6
vt 0.5 0.6333333333333333
vt 0.4666666666666667 0.6333333333333333
vt 0.4666666666666667 0.6
vt 0.5 0.6
vt 0.5 0.6333333333333333
vt 0.4666666666666667 0.6
vt 0.5 0.6333333333333333
vt 0.4666666666666667 0.6333333333333333
vt 0.4666666666666667 0.6
vt 0.5 0.6
vt 0.5 0.6333333333333333
vt 0.4666666666666667 0.6
vt 0.5 0.6333333333333333
vt 0.4666666666666667 0.6333333333333333
vt 0.4666666666666667 0.6
vt 0.5 0.6
vt 0.5 0.6333333333333333
vt 0.4666666666666667 0.6
vt 0.5 0.6333333333333333
vt 0.4666666666666667 0.6333333333333333
vt 0.4666666666666667 0.6
vt 0.5 0.6
vt 0.5 0.6333333333333333
vt 0.4666666666666667 0.6
vt 0.5 0.6333333333333333
vt 0.4666666666666667 0.6333333333333333
vt 0.4666666666666667 0.6
vt 0.5 0.6
vt 0.5 0.6333333333333333
vt 0.43333333333333335 0.6
vt 0.4666666666666667 0.6333333333333333
vt 0.43333333333333335 0.6333333333333333
vt 0.43333333333333335 0.6
vt 0.4666666666666667 0.6
vt 0.4666666666666667 0.6333333333333333
vt 0.43333333333333335 0.6
vt 0.4666666666666667 0.6333333333333333
vt 0.43333333333333335 0.6333333333333333
vt 0.43333333333333335 0.6
vt 0.4666666666666667 0.6
vt 0.4666666666666667 0.6333333333333333
vt 0.7333333333333333 0.7
vt 0.7666666666666667 0.7333333333333334
vt 0.7333333333333333 0.7333333333333334
vt 0.7333333333333333 0.7
vt 0.7666666666666667 0.7
vt 0.7666666666666667 0.7333333333333334
vt 0.7666666666666667 0.7
vt 0.8 0.7333333333333334
vt 0.7666666666666667 0.7333333333333334
vt 0.7666666666666667 0.7
vt 0.8 0.7
vt 0.8 0.7333333333333334
vn 0.0000666599998536041 0.9999999972227777 -0.000033330000010127046
vn 0.0000666599998536041 0.9999999972227777 -0.000033330000010127046
vn 0.00003332999991291733 0.9999999993056944 -0.000016664999998121163
vn 0.0000666599998536041 0.9999999972227777 -0.000033330000010127046
vn 2.2587545373029814e-21 0.9999999999999999 -8.331666606720234e-14
vn 0.0000666599998536041 0.9999999972227777 -0.000033330000010127046
vn 0.00003332999991291733 0.9999999993056944 -0.000016664999998121163
vn 0 1 0
vn 0 1 0
vn 0.00003332999991291733 0.9999999993056944 -0.000016664999998121163
vn 0.0000666599998536041 0.9999999972227777 -0.000033330000010127046
vn 0 1 0
vn 0.0000666599998536041 0.9999999972227777 -0.000033330000010127046
vn 0.00003535091965149313 0.7070891032965614 -0.7071244577509515
vn 0 1 0
vn 0.0000666599998536041 0.9999999972227777 -0.000033330000010127046
vn 0.00004713416680460671 0.7070832105683968 -0.7071303494481469
vn 0.00003535091965149313 0.7070891032965614 -0.7071244577509515
vn 2.2587545373029814e-21 0.9999999999999999 -8.331666606720234e-14
vn 0.00004713416680460671 0.7070832105683968 -0.7071303494481469
vn 0.0000666599998536041 0.9999999972227777 -0.000033330000010127046
vn 2.2587545373029814e-21 0.9999999999999999 -8.331666606720234e-14
vn -0.00004713573796964966 0.7071067792227549 -0.7071067815793062
vn 0.00004713416680460671 0.7070832105683968 -0.7071303494481469
vn 0.00003332999991291733 0.9999999993056944 -0.0000166649999148045
vn 0.0000666599998536041 0.9999999972227777 -0.000033330000010127046
vn 0.000049994999966569065 0.9999999987502499 1.6661667149152785e-13
vn 0.00003332999991291733 0.9999999993056944 -0.0000166649999148045
vn -0.0000166649999148045 0.9999999993056944 0.00003332999991291733
vn 0.0000666599998536041 0.9999999972227777 -0.000033330000010127046
vn 0.000049994999966569065 0.9999999987502499 1.6661667149152785e-13
vn 0.00003332999991291733 0.9999999993056944 -0.000016664999998121163
vn 0 0.9999999987502499 0.00004999499996656906
vn 0.000049994999966569065 0.9999999987502499 1.6661667149152785e-13
vn 0.0000666599998536041 0.9999999972227777 -0.000033330000010127046
vn 0.00003332999991291733 0.9999999993056944 -0.000016664999998121163
vn 0 0.9999999987502499 0.00004999499996656906
vn 0 1 0
vn 0.00003333000001011038 0.999999998889111 0.00003333000001011038
vn 0 0.9999999987502499 0.00004999499996656906
vn 0.00003332999991291733 0.9999999993056944 -0.000016664999998121163
vn 0 1 0
vn 0 0 -1
vn 0.00003535091965149313 0.7070891032965614 -0.7071244577509515
vn 0.00004713416680460671 0.7070832105683968 -0.7071303494481469
vn 0 0 -1
vn 0 0 -1
vn 0.00003535091965149313 0.7070891032965614 -0.7071244577509515
vn 0 0 -1
vn 0.00004713416680460671 0.7070832105683968 -0.7071303494481469
vn -0.00004713573796964966 0.7071067792227549 -0.7071067815793062
vn 0 0 -1
vn 0 0 -1
vn 0.00004713416680460671 0.7070832105683968 -0.7071303494481469
vn 0.00003333000001011038 0.9999999972227777 0.00006666000002022077
vn 0.00003333000001011038 0.999999998889111 0.00003333000001011038
vn 0.00009998999980817563 0.9999999950010001 0
vn 0.00003333000001011038 0.9999999972227777 0.00006666000002022077
vn 0 0.9999999987502499 0.00004999499996656906
vn 0.00003333000001011038 0.999999998889111 0.00003333000001011038
vn 0 0.9999999950009999 0.0000999899998081756
vn 0 0.9999999987502499 0.00004999499996656906
vn 0.00003333000001011038 0.9999999972227777 0.00006666000002022077
vn 0 0.9999999950009999 0.0000999899998081756
vn 0.000049994999966569065 0.9999999987502499 1.6661667149152785e-13
vn 0 0.9999999987502499 0.00004999499996656906
vn 0.00003333000001011038 0.999999998889111 0.00003333000001011038
vn 0.000049994999966569065 0.9999999987502499 1.6661667149152785e-13
vn 0 0.9999999950009999 0.0000999899998081756
vn 0.00003333000001011038 0.999999998889111 0.00003333000001011038
vn 0.00003332999991291733 0.9999999993056944 -0.0000166649999148045
vn 0.000049994999966569065 0.9999999987502499 1.6661667149152785e-13
vn 0 1 0
vn 0.00003332999991291733 0.9999999993056944 -0.0000166649999148045
vn 0.00003333000001011038 0.999999998889111 0.00003333000001011038
vn 0 1 0
vn 0 1 0
vn 0.00003332999991291733 0.9999999993056944 -0.0000166649999148045
vn 0 1 0
vn -0.0000166649999148045 0.9999999993056944 0.00003332999991291733
vn 0.00003332999991291733 0.9999999993056944 -0.0000166649999148045
vn 0 1 0
vn 0.00003333000001011038 0.999999998889111 0.00003333000001011038
vn -0.0000166649999148045 0.9999999993056944 0.00003332999991291733
vn 0.00003333000001011038 0.999999998889111 0.00003333000001011038
vn -0.000016664999970343388 0.9999999993056945 0.000033330000023995116
vn -0.0000166649999148045 0.9999999993056944 0.00003332999991291733
vn 0.00003333000001011038 0.999999998889111 0.00003333000001011038
vn 0.0000999899998081756 0.9999999950009999 0
vn -0.000016664999970343388 0.9999999993056945 0.000033330000023995116
vn 0.0000999899998081756 0.9999999950009999 0
vn 0.00002356786902409675 0.7071067792227548 -0.7071067827575815
vn -0.000016664999970343388 0.9999999993056945 0.000033330000023995116
vn 0.0000999899998081756 0.9999999950009999 0
vn 0.00007070360691520255 0.7071067776517206 -0.7071067811865475
vn 0.00002356786902409675 0.7071067792227548 -0.7071067827575815
vn -0.000016664999970343388 0.9999999993056945 0.000033330000023995116
vn -0.00004713573796964966 0.7071067792227549 -0.7071067815793062
vn 2.2587545373029814e-21 0.9999999999999999 -8.331666606720234e-14
vn -0.000016664999970343388 0.9999999993056945 0.000033330000023995116
vn 0.00002356786902409675 0.7071067792227548 -0.7071067827575815
vn -0.00004713573796964966 0.7071067792227549 -0.7071067815793062
vn -0.0000166649999148045 0.9999999993056944 0.00003332999991291733
vn 2.2587545373029814e-21 0.9999999999999999 -8.331666606720234e-14
vn 0.0000666599998536041 0.9999999972227777 -0.000033330000010127046
vn -0.0000166649999148045 0.9999999993056944 0.00003332999991291733
vn -0.000016664999970343388 0.9999999993056945 0.000033330000023995116
vn 2.2587545373029814e-21 0.9999999999999999 -8.331666606720234e-14
vn 0 0 -1
vn 0.00002356786902409675 0.7071067792227548 -0.7071067827575815
vn 0.00007070360691520255 0.7071067776517206 -0.7071067811865475
vn 0 0 -1
vn 0 0 -1
vn 0.00002356786902409675 0.7071067792227548 -0.7071067827575815
vn 0 0 -1
vn -0.00004713573796964966 0.7071067792227549 -0.7071067815793062
vn 0.00002356786902409675 0.7071067792227548 -0.7071067827575815
vn 0 0 -1
vn 0 0 -1
vn -0.00004713573796964966 0.7071067792227549 -0.7071067815793062
g Scene
f 1/1/1 3/2/2 2/3/3
f 1/4/4 4/5/5 3/6/6
f 2/7/7 6/8/8 5/9/9
f 2/10/10 3/11/11 6/12/12
f 3/13/13 7/14/14 6/15/15
f 3/16/16 8/17/17 7/18/18
f 4/19/19 8/20/20 3/21/21
f 4/22/22 9/23/23 8/24/24
f 10/25/25 1/26/26 11/27/27
f 10/28/28 12/29/29 1/30/30
f 11/31/31 2/32/32 13/33/33
f 11/34/34 1/35/35 2/36/36
f 13/37/37 5/38/38 14/39/39
f 13/40/40 2/41/41 5/42/42
f 15/43/43 7/44/44 8/45/45
f 15/46/46 16/47/47 7/48/48
f 17/49/49 8/50/50 9/51/51
f 17/52/52 15/53/53 8/54/54
f 18/55/55 14/56/56 19/57/57
f 18/58/58 13/59/59 14/60/60
f 20/61/61 13/62/62 18/63/63
f 20/64/64 11/65/65 13/66/66
f 21/67/67 11/68/68 20/69/69
f 21/70/70 10/71/71 11/72/72
f 22/73/73 10/74/74 21/75/75
f 22/76/76 23/77/77 10/78/78
f 23/79/79 12/80/80 10/81/81
f 23/82/82 24/83/83 12/84/84
f 24/85/85 25/86/86 12/87/87
f 24/88/88 26/89/89 25/90/90
f 26/91/91 27/92/92 25/93/93
f 26/94/94 28/95/95 27/96/96
f 25/97/97 9/98/98 4/99/99
f 25/100/100 27/101/101 9/102/102
f 12/103/103 4/104/104 1/105/105
f 12/106/106 25/107/107 4/108/108
f 29/109/109 27/110/110 28/111/111
f 29/112/112 30/113/113 27/114/114
f 30/115/115 9/116/116 27/117/117
f 30/118/118 17/119/119 9/120/120
