o Default
v 1 0 1
v 0 0 1
v 0 0 0
v 1 0 0
v 1 0 2
v 0 0 2
v 1 0 4
v 0 0 4
v 0 0 3
v 1 0 3
v 1 0 5
v 0 0 5
v 1 0 6
v 0 0 6
v 0 0 -1
v 1 0 -1
v 0 0 -2
v 1 0 -2
v 0 0 -3
v 1 0 -3
v 0 0 -4
v 1 0 -4
v 0 0 -5
v 1 0 -5
v -1 0 -4
v -1 0 -5
v -1 0 -3
v -1 0 -2
v -1 0 -1
v -1 0 0
v -1 0 1
v -1 0 2
v -1 0 3
v -1 0 4
v -1 0 5
v -1 0 6
v -2 0 6
v -2 0 5
v -2 0 4
v -2 0 3
v -2 0 2
v -2 0 1
v -2 0 0
v -2 0 -1
v -2 0 -2
v -2 0 -3
v -2 0 -4
v -2 0 -5
v -3 0 -4
v -3 0 -5
v -3 0 -3
v -3 0 -2
v -3 0 -1
v -3 0 0
v -3 0 1
v -3 0 2
v -3 0 3
v -3 0 4
v -3 0 5
v -3 0 6
vt 0.40625 0.90625
vt 0.4375 0.9375
vt 0.40625 0.9375
vt 0.40625 0.90625
vt 0.4375 0.90625
vt 0.4375 0.9375
vt 0.40625 0.90625
vt 0.4375 0.9375
vt 0.40625 0.9375
vt 0.40625 0.90625
vt 0.4375 0.90625
vt 0.4375 0.9375
vt 0.40625 0.90625
vt 0.4375 0.9375
vt 0.40625 0.9375
vt 0.40625 0.90625
vt 0.4375 0.90625
vt 0.4375 0.9375
vt 0.40625 0.90625
vt 0.4375 0.9375
vt 0.40625 0.9375
vt 0.40625 0.90625
vt 0.4375 0.90625
vt 0.4375 0.9375
vt 0.40625 0.90625
vt 0.4375 0.9375
vt 0.40625 0.9375
vt 0.40625 0.90625
vt 0.4375 0.90625
vt 0.4375 0.9375
vt 0.40625 0.90625
vt 0.4375 0.9375
vt 0.40625 0.9375
vt 0.40625 0.90625
vt 0.4375 0.90625
vt 0.4375 0.9375
vt 0.40625 0.90625
vt 0.4375 0.9375
vt 0.40625 0.9375
vt 0.40625 0.90625
vt 0.4375 0.90625
vt 0.4375 0.9375
vt 0.40625 0.90625
vt 0.4375 0.9375
vt 0.40625 0.9375
vt 0.40625 0.90625
vt 0.4375 0.90625
vt 0.4375 0.9375
vt 0.40625 0.90625
vt 0.4375 0.9375
vt 0.40625 0.9375
vt 0.40625 0.90625
vt 0.4375 0.90625
vt 0.4375 0.9375
vt 0.40625 0.90625
vt 0.4375 0.9375
vt 0.40625 0.9375
vt 0.40625 0.90625
vt 0.4375 0.90625
vt 0.4375 0.9375
vt 0.40625 0.90625
vt 0.4375 0.9375
vt 0.40625 0.9375
vt 0.40625 0.90625
vt 0.4375 0.90625
vt 0.4375 0.9375
vt 0.40625 0.90625
vt 0.4375 0.9375
vt 0.40625 0.9375
vt 0.40625 0.90625
vt 0.4375 0.90625
vt 0.4375 0.9375
vt 0.40625 0.90625
vt 0.4375 0.9375
vt 0.40625 0.9375
vt 0.40625 0.90625
vt 0.4375 0.90625
vt 0.4375 0.9375
vt 0.40625 0.90625
vt 0.4375 0.9375
vt 0.40625 0.9375
vt 0.40625 0.90625
vt 0.4375 0.90625
vt 0.4375 0.9375
vt 0.40625 0.90625
vt 0.4375 0.9375
vt 0.40625 0.9375
vt 0.40625 0.90625
vt 0.4375 0.90625
vt 0.4375 0.9375
vt 0.40625 0.90625
vt 0.4375 0.9375
vt 0.40625 0.9375
vt 0.40625 0.90625
vt 0.4375 0.90625
vt 0.4375 0.9375
vt 0.40625 0.90625
vt 0.4375 0.9375
vt 0.40625 0.9375
vt 0.40625 0.90625
vt 0.4375 0.90625
vt 0.4375 0.9375
vt 0.40625 0.90625
vt 0.4375 0.9375
vt 0.40625 0.9375
vt 0.40625 0.90625
vt 0.4375 0.90625
vt 0.4375 0.9375
vt 0.40625 0.90625
vt 0.4375 0.9375
vt 0.40625 0.9375
vt 0.40625 0.90625
vt 0.4375 0.90625
vt 0.4375 0.9375
vt 0.40625 0.90625
vt 0.4375 0.9375
vt 0.40625 0.9375
vt 0.40625 0.90625
vt 0.4375 0.90625
vt 0.4375 0.9375
vt 0.40625 0.90625
vt 0.4375 0.9375
vt 0.40625 0.9375
vt 0.40625 0.90625
vt 0.4375 0.90625
vt 0.4375 0.9375
vt 0.40625 0.90625
vt 0.4375 0.9375
vt 0.40625 0.9375
vt 0.40625 0.90625
vt 0.4375 0.90625
vt 0.4375 0.9375
vt 0.40625 0.90625
vt 0.4375 0.9375
vt 0.40625 0.9375
vt 0.40625 0.90625
vt 0.4375 0.90625
vt 0.4375 0.9375
vt 0.40625 0.90625
vt 0.4375 0.9375
vt 0.40625 0.9375
vt 0.40625 0.90625
vt 0.4375 0.90625
vt 0.4375 0.9375
vt 0.40625 0.90625
vt 0.4375 0.9375
vt 0.40625 0.9375
vt 0.40625 0.90625
vt 0.4375 0.90625
vt 0.4375 0.9375
vt 0.40625 0.90625
vt 0.4375 0.9375
vt 0.40625 0.9375
vt 0.40625 0.90625
vt 0.4375 0.90625
vt 0.4375 0.9375
vt 0.40625 0.90625
vt 0.4375 0.9375
vt 0.40625 0.9375
vt 0.40625 0.90625
vt 0.4375 0.90625
vt 0.4375 0.9375
vt 0.40625 0.90625
vt 0.4375 0.9375
vt 0.40625 0.9375
vt 0.40625 0.90625
vt 0.4375 0.90625
vt 0.4375 0.9375
vt 0.40625 0.90625
vt 0.4375 0.9375
vt 0.40625 0.9375
vt 0.40625 0.90625
vt 0.4375 0.90625
vt 0.4375 0.9375
vt 0.40625 0.90625
vt 0.4375 0.9375
vt 0.40625 0.9375
vt 0.40625 0.90625
vt 0.4375 0.90625
vt 0.4375 0.9375
vt 0.40625 0.90625
vt 0.4375 0.9375
vt 0.40625 0.9375
vt 0.40625 0.90625
vt 0.4375 0.90625
vt 0.4375 0.9375
vt 0.40625 0.90625
vt 0.4375 0.9375
vt 0.40625 0.9375
vt 0.40625 0.90625
vt 0.4375 0.90625
vt 0.4375 0.9375
vt 0.40625 0.90625
vt 0.4375 0.9375
vt 0.40625 0.9375
vt 0.40625 0.90625
vt 0.4375 0.90625
vt 0.4375 0.9375
vt 0.40625 0.90625
vt 0.4375 0.9375
vt 0.40625 0.9375
vt 0.40625 0.90625
vt 0.4375 0.90625
vt 0.4375 0.9375
vt 0.40625 0.90625
vt 0.4375 0.9375
vt 0.40625 0.9375
vt 0.40625 0.90625
vt 0.4375 0.90625
vt 0.4375 0.9375
vt 0.40625 0.90625
vt 0.4375 0.9375
vt 0.40625 0.9375
vt 0.40625 0.90625
vt 0.4375 0.90625
vt 0.4375 0.9375
vt 0.40625 0.90625
vt 0.4375 0.9375
vt 0.40625 0.9375
vt 0.40625 0.90625
vt 0.4375 0.90625
vt 0.4375 0.9375
vt 0.40625 0.90625
vt 0.4375 0.9375
vt 0.40625 0.9375
vt 0.40625 0.90625
vt 0.4375 0.90625
vt 0.4375 0.9375
vt 0.40625 0.90625
vt 0.4375 0.9375
vt 0.40625 0.9375
vt 0.40625 0.90625
vt 0.4375 0.90625
vt 0.4375 0.9375
vt 0.40625 0.90625
vt 0.4375 0.9375
vt 0.40625 0.9375
vt 0.40625 0.90625
vt 0.4375 0.90625
vt 0.4375 0.9375
vt 0.40625 0.90625
vt 0.4375 0.9375
vt 0.40625 0.9375
vt 0.40625 0.90625
vt 0.4375 0.90625
vt 0.4375 0.9375
vt 0.40625 0.90625
vt 0.4375 0.9375
vt 0.40625 0.9375
vt 0.40625 0.90625
vt 0.4375 0.90625
vt 0.4375 0.9375
vt 0.40625 0.90625
vt 0.4375 0.9375
vt 0.40625 0.9375
vt 0.40625 0.90625
vt 0.4375 0.90625
vt 0.4375 0.9375
vt 0.40625 0.90625
vt 0.4375 0.9375
vt 0.40625 0.9375
vt 0.40625 0.90625
vt 0.4375 0.90625
vt 0.4375 0.9375
vn 0.0000999899998081756 0.9999999950009999 -3.3326666437197177e-13
vn 0.00004999499996656905 0.9999999987502499 -1.666333323942359e-13
vn 0.00004999499996656905 0.9999999987502499 -8.331666619711795e-14
vn 0.0000999899998081756 0.9999999950009999 -3.3326666437197177e-13
vn 0.0000999899998081756 0.9999999950009999 -1.6663333218598588e-13
vn 0.00004999499996656905 0.9999999987502499 -1.666333323942359e-13
vn 0.0000999899998081756 0.9999999950009999 1.6663333218598588e-13
vn 0.00004999499996656905 0.9999999987502499 -8.331666619711795e-14
vn 0.00004999499996656905 0.9999999987502499 1.666333323942359e-13
vn 0.0000999899998081756 0.9999999950009999 1.6663333218598588e-13
vn 0.0000999899998081756 0.9999999950009999 -3.3326666437197177e-13
vn 0.00004999499996656905 0.9999999987502499 -8.331666619711795e-14
vn 0.0000999899998081756 0.9999999950009999 -3.3326666437197177e-13
vn 0.00004999499996656905 0.9999999987502499 -8.331666619711795e-14
vn 0.00004999499996656905 0.9999999987502499 -8.331666619711795e-14
vn 0.0000999899998081756 0.9999999950009999 -3.3326666437197177e-13
vn 0.0000999899998081756 0.9999999950009999 1.6663333218598588e-13
vn 0.00004999499996656905 0.9999999987502499 -8.331666619711795e-14
vn 0.0000999899998081756 0.9999999950009999 1.6663333218598588e-13
vn 0.00004999499996656905 0.9999999987502499 1.666333323942359e-13
vn 0.00004999499996656905 0.9999999987502499 -8.331666619711795e-14
vn 0.0000999899998081756 0.9999999950009999 1.6663333218598588e-13
vn 0.0000999899998081756 0.9999999950009999 1.6663333218598588e-13
vn 0.00004999499996656905 0.9999999987502499 1.666333323942359e-13
vn 0.0000999899998081756 0.9999999950009999 0
vn 0.00004999499996656905 0.9999999987502499 -8.331666619711795e-14
vn 0.00004999499996656905 0.9999999987502499 0
vn 0.0000999899998081756 0.9999999950009999 0
vn 0.0000999899998081756 0.9999999950009999 -3.3326666437197177e-13
vn 0.00004999499996656905 0.9999999987502499 -8.331666619711795e-14
vn 0.00009998999980817563 0.9999999950010001 0
vn 0.00004999499996656905 0.9999999987502499 0
vn 0.000033329999973084465 0.9999999994445555 0
vn 0.00009998999980817563 0.9999999950010001 0
vn 0.0000999899998081756 0.9999999950009999 0
vn 0.00004999499996656905 0.9999999987502499 0
vn 0.0000999899998081756 0.9999999950009999 -1.6663333218598588e-13
vn 0.00004999499996656905 0.9999999987502499 0
vn 0.00004999499996656905 0.9999999987502499 -1.666333323942359e-13
vn 0.0000999899998081756 0.9999999950009999 -1.6663333218598588e-13
vn 0.0000999899998081756 0.9999999950009999 0
vn 0.00004999499996656905 0.9999999987502499 0
vn 0.0000999899998081756 0.9999999950009999 0
vn 0.00004999499996656905 0.9999999987502499 0
vn 0.00004999499996656905 0.9999999987502499 0
vn 0.0000999899998081756 0.9999999950009999 0
vn 0.0000999899998081756 0.9999999950009999 0
vn 0.00004999499996656905 0.9999999987502499 0
vn 0.0000999899998081756 0.9999999950009999 0
vn 0.00004999499996656905 0.9999999987502499 0
vn 0.00004999499996656905 0.9999999987502499 0
vn 0.0000999899998081756 0.9999999950009999 0
vn 0.0000999899998081756 0.9999999950009999 0
vn 0.00004999499996656905 0.9999999987502499 0
vn 0.0000999899998081756 0.9999999950009999 0
vn 0.00004999499996656905 0.9999999987502499 0
vn 0.00004999499996656905 0.9999999987502499 0
vn 0.0000999899998081756 0.9999999950009999 0
vn 0.0000999899998081756 0.9999999950009999 0
vn 0.00004999499996656905 0.9999999987502499 0
vn 0.0000999899998081756 0.9999999950009999 0
vn 0.00006665999994616892 0.9999999977782221 0
vn 0.00004999499996656905 0.9999999987502499 0
vn 0.0000999899998081756 0.9999999950009999 0
vn 0.00009998999980817563 0.9999999950010001 0
vn 0.00006665999994616892 0.9999999977782221 0
vn 0.00004999499996656905 0.9999999987502499 0
vn 0 1 0
vn 0 1 0
vn 0.00004999499996656905 0.9999999987502499 0
vn 0.00006665999994616892 0.9999999977782221 0
vn 0 1 0
vn 0.00004999499996656905 0.9999999987502499 0
vn 0 1 0
vn 0 1 0
vn 0.00004999499996656905 0.9999999987502499 0
vn 0.00004999499996656905 0.9999999987502499 0
vn 0 1 0
vn 0.00004999499996656905 0.9999999987502499 0
vn 0 1 0
vn 0 1 0
vn 0.00004999499996656905 0.9999999987502499 0
vn 0.00004999499996656905 0.9999999987502499 0
vn 0 1 0
vn 0.00004999499996656905 0.9999999987502499 0
vn 0 1 0
vn 0 1 0
vn 0.00004999499996656905 0.9999999987502499 0
vn 0.00004999499996656905 0.9999999987502499 0
vn 0 1 0
vn 0.00004999499996656905 0.9999999987502499 -1.666333323942359e-13
vn 0 1 0
vn 0 1 0
vn 0.00004999499996656905 0.9999999987502499 -1.666333323942359e-13
vn 0.00004999499996656905 0.9999999987502499 0
vn 0 1 0
vn 0.00004999499996656905 0.9999999987502499 -8.331666619711795e-14
vn 0 1 0
vn 0 1 0
vn 0.00004999499996656905 0.9999999987502499 -8.331666619711795e-14
vn 0.00004999499996656905 0.9999999987502499 -1.666333323942359e-13
vn 0 1 0
vn 0.00004999499996656905 0.9999999987502499 1.666333323942359e-13
vn 0 1 0
vn 0 1 0
vn 0.00004999499996656905 0.9999999987502499 1.666333323942359e-13
vn 0.00004999499996656905 0.9999999987502499 -8.331666619711795e-14
vn 0 1 0
vn 0.00004999499996656905 0.9999999987502499 -8.331666619711795e-14
vn 0 1 0
vn 0 1 0
vn 0.00004999499996656905 0.9999999987502499 -8.331666619711795e-14
vn 0.00004999499996656905 0.9999999987502499 1.666333323942359e-13
vn 0 1 0
vn 0.00004999499996656905 0.9999999987502499 -8.331666619711795e-14
vn 0 1 0
vn 0 1 0
vn 0.00004999499996656905 0.9999999987502499 -8.331666619711795e-14
vn 0.00004999499996656905 0.9999999987502499 -8.331666619711795e-14
vn 0 1 0
vn 0.00004999499996656905 0.9999999987502499 0
vn 0 1 0
vn 0 1 0
vn 0.00004999499996656905 0.9999999987502499 0
vn 0.00004999499996656905 0.9999999987502499 -8.331666619711795e-14
vn 0 1 0
vn 0.000033329999973084465 0.9999999994445555 0
vn 0 1 0
vn 0 1 0
vn 0.000033329999973084465 0.9999999994445555 0
vn 0.00004999499996656905 0.9999999987502499 0
vn 0 1 0
vn 0 1 0
vn 0 1 0
vn 0 1 0
vn 0 1 0
vn 0 1 0
vn 0 1 0
vn 0 1 0
vn 0 1 0
vn 0 1 0
vn 0 1 0
vn 0 1 0
vn 0 1 0
vn 0 1 0
vn 0 1 0
vn 0 1 0
vn 0 1 0
vn 0 1 0
vn 0 1 0
vn 0 1 0
vn 0 1 0
vn 0 1 0
vn 0 1 0
vn 0 1 0
vn 0 1 0
vn 0 1 0
vn 0 1 0
vn 0 1 0
vn 0 1 0
vn 0 1 0
vn 0 1 0
vn 0 1 0
vn 0 1 0
vn 0 1 0
vn 0 1 0
vn 0 1 0
vn 0 1 0
vn 0 1 0
vn 0 1 0
vn 0 1 0
vn 0 1 0
vn 0 1 0
vn 0 1 0
vn 0 1 0
vn 0 1 0
vn 0 1 0
vn 0 1 0
vn 0 1 0
vn 0 1 0
vn 0 1 0
vn 0 1 0
vn 0 1 0
vn 0 1 0
vn 0 1 0
vn 0 1 0
vn 0 1 0
vn 0 1 0
vn 0 1 0
vn 0 1 0
vn 0 1 0
vn 0 1 0
vn 0 1 0
vn 0 1 0
vn 0 1 0
vn 0 1 0
vn 0 1 0
vn 0 1 0
vn 0 1 0
vn 0 1 0
vn 0 1 0
vn 0 1 0
vn 0 1 0
vn 0 1 0
vn 0 1 0
vn 0 1 0
vn 0 1 0
vn 0 1 0
vn 0 1 0
vn 0 1 0
vn 0 1 0
vn 0 1 0
vn 0 1 0
vn 0 1 0
vn 0 1 0
vn 0 1 0
vn 0 1 0
vn 0 1 0
vn 0 1 0
vn 0 1 0
vn 0 1 0
vn 0 1 0
vn 0 1 0
vn 0 1 0
vn 0 1 0
vn 0 1 0
vn 0 1 0
vn 0 1 0
vn 0 1 0
vn 0 1 0
vn 0 1 0
vn 0 1 0
vn 0 1 0
vn 0 1 0
vn 0 1 0
vn 0 1 0
vn 0 1 0
vn 0 1 0
vn 0 1 0
vn 0 1 0
vn 0 1 0
vn 0 1 0
vn 0 1 0
vn 0 1 0
vn 0 1 0
vn 0 1 0
vn 0 1 0
vn 0 1 0
vn 0 1 0
vn 0 1 0
vn 0 1 0
vn 0 1 0
vn 0 1 0
vn 0 1 0
vn 0 1 0
vn 0 1 0
vn 0 1 0
vn 0 1 0
vn 0 1 0
vn 0 1 0
vn 0 1 0
vn 0 1 0
vn 0 1 0
vn 0 1 0
g Scene
f 1/1/1 3/2/2 2/3/3
f 1/4/4 4/5/5 3/6/6
f 5/7/7 2/8/8 6/9/9
f 5/10/10 1/11/11 2/12/12
f 7/13/13 9/14/14 8/15/15
f 7/16/16 10/17/17 9/18/18
f 10/19/19 6/20/20 9/21/21
f 10/22/22 5/23/23 6/24/24
f 11/25/25 8/26/26 12/27/27
f 11/28/28 7/29/29 8/30/30
f 13/31/31 12/32/32 14/33/33
f 13/34/34 11/35/35 12/36/36
f 4/37/37 15/38/38 3/39/39
f 4/40/40 16/41/41 15/42/42
f 16/43/43 17/44/44 15/45/45
f 16/46/46 18/47/47 17/48/48
f 18/49/49 19/50/50 17/51/51
f 18/52/52 20/53/53 19/54/54
f 20/55/55 21/56/56 19/57/57
f 20/58/58 22/59/59 21/60/60
f 22/61/61 23/62/62 21/63/63
f 22/64/64 24/65/65 23/66/66
f 21/67/67 26/68/68 25/69/69
f 21/70/70 23/71/71 26/72/72
f 19/73/73 25/74/74 27/75/75
f 19/76/76 21/77/77 25/78/78
f 17/79/79 27/80/80 28/81/81
f 17/82/82 19/83/83 27/84/84
f 15/85/85 28/86/86 29/87/87
f 15/88/88 17/89/89 28/90/90
f 3/91/91 29/92/92 30/93/93
f 3/94/94 15/95/95 29/96/96
f 2/97/97 30/98/98 31/99/99
f 2/100/100 3/101/101 30/102/102
f 6/103/103 31/104/104 32/105/105
f 6/106/106 2/107/107 31/108/108
f 9/109/109 32/110/110 33/111/111
f 9/112/112 6/113/113 32/114/114
f 8/115/115 33/116/116 34/117/117
f 8/118/118 9/119/119 33/120/120
f 12/121/121 34/122/122 35/123/123
f 12/124/124 8/125/125 34/126/126
f 14/127/127 35/128/128 36/129/129
f 14/130/130 12/131/131 35/132/132
f 36/133/133 38/134/134 37/135/135
f 36/136/136 35/137/137 38/138/138
f 35/139/139 39/140/140 38/141/141
f 35/142/142 34/143/143 39/144/144
f 34/145/145 40/146/146 39/147/147
f 34/148/148 33/149/149 40/150/150
f 33/151/151 41/152/152 40/153/153
f 33/154/154 32/155/155 41/156/156
f 32/157/157 42/158/158 41/159/159
f 32/160/160 31/161/161 42/162/162
f 31/163/163 43/164/164 42/165/165
f 31/166/166 30/167/167 43/168/168
f 30/169/169 44/170/170 43/171/171
f 30/172/172 29/173/173 44/174/174
f 29/175/175 45/176/176 44/177/177
f 29/178/178 28/179/179 45/180/180
f 28/181/181 46/182/182 45/183/183
f 28/184/184 27/185/185 46/186/186
f 27/187/187 47/188/188 46/189/189
f 27/190/190 25/191/191 47/192/192
f 25/193/193 48/194/194 47/195/195
f 25/196/196 26/197/197 48/198/198
f 47/199/199 50/200/200 49/201/201
f 47/202/202 48/203/203 50/204/204
f 46/205/205 49/206/206 51/207/207
f 46/208/208 47/209/209 49/210/210
f 45/211/211 51/212/212 52/213/213
f 45/214/214 46/215/215 51/216/216
f 44/217/217 52/218/218 53/219/219
f 44/220/220 45/221/221 52/222/222
f 43/223/223 53/224/224 54/225/225
f 43/226/226 44/227/227 53/228/228
f 42/229/229 54/230/230 55/231/231
f 42/232/232 43/233/233 54/234/234
f 41/235/235 55/236/236 56/237/237
f 41/238/238 42/239/239 55/240/240
f 40/241/241 56/242/242 57/243/243
f 40/244/244 41/245/245 56/246/246
f 39/247/247 57/248/248 58/249/249
f 39/250/250 40/251/251 57/252/252
f 38/253/253 58/254/254 59/255/255
f 38/256/256 39/257/257 58/258/258
f 37/259/259 59/260/260 60/261/261
f 37/262/262 38/263/263 59/264/264
