o Default
v -14 0 0
v -14 1 0
v -11 1 0
v -11 0 0
v -8 1 0
v -8 0 0
v -5 1 0
v -5 0 0
v -2 1 0
v -2 0 0
v 1 1 0
v 1 0 0
v 4 1 0
v 4 0 0
v 7 1 0
v 7 0 0
v 4 1 0
v 4 1 -1
v 7 1 -1
v 1 1 0
v 1 1 -1
v 4 1 -1
v -2 1 0
v -2 1 -1
v 1 1 -1
v -5 1 0
v -5 1 -1
v -2 1 -1
v -8 1 0
v -8 1 -1
v -5 1 -1
v -11 1 0
v -11 1 -1
v -8 1 -1
v -14 1 0
v -14 1 -1
v -11 1 -1
v -14 1 -2
v -11 1 -2
v -11 1 -2
v -8 1 -2
v -8 1 -2
v -5 1 -2
v -5 1 -2
v -2 1 -2
v -2 1 -2
v 1 1 -2
v 1 1 -2
v 4 1 -2
v 4 1 -2
v 7 1 -2
v 6 1 -2
v 6 1 -5
v 7 1 -5
v 5 1 -2
v 5 1 -5
v 5 1 -8
v 6 1 -8
v 7 1 -8
v 6 1 -11
v 7 1 -11
v 5 1 -11
v 5 1 -14
v 6 1 -14
v 7 1 -14
vt 0.03125 0.1875
vt 0.125 0.21875
vt 0.03125 0.21875
vt 0.03125 0.1875
vt 0.125 0.1875
vt 0.125 0.21875
vt 0.03125 0.1875
vt 0.125 0.21875
vt 0.03125 0.21875
vt 0.03125 0.1875
vt 0.125 0.1875
vt 0.125 0.21875
vt 0.03125 0.1875
vt 0.125 0.21875
vt 0.03125 0.21875
vt 0.03125 0.1875
vt 0.125 0.1875
vt 0.125 0.21875
vt 0.03125 0.1875
vt 0.125 0.21875
vt 0.03125 0.21875
vt 0.03125 0.1875
vt 0.125 0.1875
vt 0.125 0.21875
vt 0.03125 0.1875
vt 0.125 0.21875
vt 0.03125 0.21875
vt 0.03125 0.1875
vt 0.125 0.1875
vt 0.125 0.21875
vt 0.03125 0.1875
vt 0.125 0.21875
vt 0.03125 0.21875
vt 0.03125 0.1875
vt 0.125 0.1875
vt 0.125 0.21875
vt 0.03125 0.1875
vt 0.125 0.21875
vt 0.03125 0.21875
vt 0.03125 0.1875
vt 0.125 0.1875
vt 0.125 0.21875
vt 0.03125 0.21875
vt 0.125 0.1875
vt 0.125 0.21875
vt 0.03125 0.21875
vt 0.03125 0.1875
vt 0.125 0.1875
vt 0.03125 0.21875
vt 0.125 0.1875
vt 0.125 0.21875
vt 0.03125 0.21875
vt 0.03125 0.1875
vt 0.125 0.1875
vt 0.03125 0.21875
vt 0.125 0.1875
vt 0.125 0.21875
vt 0.03125 0.21875
vt 0.03125 0.1875
vt 0.125 0.1875
vt 0.03125 0.21875
vt 0.125 0.1875
vt 0.125 0.21875
vt 0.03125 0.21875
vt 0.03125 0.1875
vt 0.125 0.1875
vt 0.03125 0.21875
vt 0.125 0.1875
vt 0.125 0.21875
vt 0.03125 0.21875
vt 0.03125 0.1875
vt 0.125 0.1875
vt 0.03125 0.21875
vt 0.125 0.1875
vt 0.125 0.21875
vt 0.03125 0.21875
vt 0.03125 0.1875
vt 0.125 0.1875
vt 0.03125 0.21875
vt 0.125 0.1875
vt 0.125 0.21875
vt 0.03125 0.21875
vt 0.03125 0.1875
vt 0.125 0.1875
vt 0.125 0.1875
vt 0.03125 0.21875
vt 0.03125 0.1875
vt 0.125 0.1875
vt 0.125 0.21875
vt 0.03125 0.21875
vt 0.125 0.1875
vt 0.03125 0.21875
vt 0.03125 0.1875
vt 0.125 0.1875
vt 0.125 0.21875
vt 0.03125 0.21875
vt 0.125 0.1875
vt 0.03125 0.21875
vt 0.03125 0.1875
vt 0.125 0.1875
vt 0.125 0.21875
vt 0.03125 0.21875
vt 0.125 0.1875
vt 0.03125 0.21875
vt 0.03125 0.1875
vt 0.125 0.1875
vt 0.125 0.21875
vt 0.03125 0.21875
vt 0.125 0.1875
vt 0.03125 0.21875
vt 0.03125 0.1875
vt 0.125 0.1875
vt 0.125 0.21875
vt 0.03125 0.21875
vt 0.125 0.1875
vt 0.03125 0.21875
vt 0.03125 0.1875
vt 0.125 0.1875
vt 0.125 0.21875
vt 0.03125 0.21875
vt 0.125 0.1875
vt 0.03125 0.21875
vt 0.03125 0.1875
vt 0.125 0.1875
vt 0.125 0.21875
vt 0.03125 0.21875
vt 0.125 0.21875
vt 0.03125 0.1875
vt 0.125 0.1875
vt 0.125 0.21875
vt 0.03125 0.21875
vt 0.03125 0.1875
vt 0.03125 0.1875
vt 0.125 0.21875
vt 0.03125 0.21875
vt 0.03125 0.1875
vt 0.125 0.1875
vt 0.125 0.21875
vt 0.03125 0.1875
vt 0.125 0.21875
vt 0.03125 0.21875
vt 0.03125 0.1875
vt 0.125 0.1875
vt 0.125 0.21875
vt 0.125 0.21875
vt 0.03125 0.1875
vt 0.125 0.1875
vt 0.125 0.21875
vt 0.03125 0.21875
vt 0.03125 0.1875
vt 0.125 0.21875
vt 0.03125 0.1875
vt 0.125 0.1875
vt 0.125 0.21875
vt 0.03125 0.21875
vt 0.03125 0.1875
vt 0.03125 0.1875
vt 0.125 0.21875
vt 0.03125 0.21875
vt 0.03125 0.1875
vt 0.125 0.1875
vt 0.125 0.21875
vt 0.03125 0.1875
vt 0.125 0.21875
vt 0.03125 0.21875
vt 0.03125 0.1875
vt 0.125 0.1875
vt 0.125 0.21875
vt 0.125 0.21875
vt 0.03125 0.1875
vt 0.125 0.1875
vt 0.125 0.21875
vt 0.03125 0.21875
vt 0.03125 0.1875
vn 0 0 1
vn 0.00005084301975825811 0.5547065934461928 0.8320460279349379
vn 0 0 1
vn 0 0 1
vn 0 0 1
vn 0.00005084301975825811 0.5547065934461928 0.8320460279349379
vn 0 0 1
vn 0.00005084301975825811 0.5547065934461928 0.8320460279349379
vn 0.00005084301975825811 0.5547065934461928 0.8320460279349379
vn 0 0 1
vn 0 0 1
vn 0.00005084301975825811 0.5547065934461928 0.8320460279349379
vn 0 0 1
vn 0.00005084301975825811 0.5547065934461928 0.8320460279349379
vn 0.00005084301975825811 0.5547065934461928 0.8320460279349379
vn 0 0 1
vn 0 0 1
vn 0.00005084301975825811 0.5547065934461928 0.8320460279349379
vn 0 0 1
vn 0.00005084301975825811 0.5547065934461928 0.8320460279349379
vn 0.00005084301975825811 0.5547065934461928 0.8320460279349379
vn 0 0 1
vn 0 0 1
vn 0.00005084301975825811 0.5547065934461928 0.8320460279349379
vn 0 0 1
vn 0.00005084301975825811 0.5547065934461928 0.8320460279349379
vn 0.00005084301975825811 0.5547065934461928 0.8320460279349379
vn 0 0 1
vn 0 0 1
vn 0.00005084301975825811 0.5547065934461928 0.8320460279349379
vn 0 0 1
vn 0.00005084301975825811 0.5547065934461928 0.8320460279349379
vn 0.00005084301975825811 0.5547065934461928 0.8320460279349379
vn 0 0 1
vn 0 0 1
vn 0.00005084301975825811 0.5547065934461928 0.8320460279349379
vn 0 0 1
vn 0.00006481244978856219 0.7071156159892787 0.7070979433030826
vn 0.00005084301975825811 0.5547065934461928 0.8320460279349379
vn 0 0 1
vn 0 0 1
vn 0.00006481244978856219 0.7071156159892787 0.7070979433030826
vn 0.00006481244978856219 0.7071156159892787 0.7070979433030826
vn 0.0000944349998718882 0.9999999954021543 -0.000016665000174522435
vn 0.00008332500003685353 0.9999999965284723 -4.165832944446689e-13
vn 0.00006481244978856219 0.7071156159892787 0.7070979433030826
vn 0.0000999899997942909 0.9999999948621389 -0.00001666500003514709
vn 0.0000944349998718882 0.9999999954021543 -0.000016665000174522435
vn 0.00005084301975825811 0.5547065934461928 0.8320460279349379
vn 0.0000944349998718882 0.9999999954021543 -0.000016665000174522435
vn 0.00008332500003685353 0.9999999965284723 -4.165832944446689e-13
vn 0.00005084301975825811 0.5547065934461928 0.8320460279349379
vn 0.0000999899997942909 0.9999999948621389 -0.00001666500003514709
vn 0.0000944349998718882 0.9999999954021543 -0.000016665000174522435
vn 0.00005084301975825811 0.5547065934461928 0.8320460279349379
vn 0.0000944349998718882 0.9999999954021543 -0.00001666500017452244
vn 0.00008332500003685353 0.9999999965284723 -4.165832944446689e-13
vn 0.00005084301975825811 0.5547065934461928 0.8320460279349379
vn 0.0000999899997942909 0.9999999948621389 -0.000016665000035147094
vn 0.0000944349998718882 0.9999999954021543 -0.00001666500017452244
vn 0.00005084301975825811 0.5547065934461928 0.8320460279349379
vn 0.0000944349998718882 0.9999999954021543 -0.000016665000174522435
vn 0.00008332500003685353 0.9999999965284723 -4.165832944446689e-13
vn 0.00005084301975825811 0.5547065934461928 0.8320460279349379
vn 0.0000999899997942909 0.9999999948621389 -0.00001666500003514709
vn 0.0000944349998718882 0.9999999954021543 -0.000016665000174522435
vn 0.00005084301975825811 0.5547065934461928 0.8320460279349379
vn 0.0000944349998718882 0.9999999954021543 -0.000016665000174522435
vn 0.00008332500003685353 0.9999999965284723 -4.165832944446689e-13
vn 0.00005084301975825811 0.5547065934461928 0.8320460279349379
vn 0.0000999899997942909 0.9999999948621389 -0.00001666500003514709
vn 0.0000944349998718882 0.9999999954021543 -0.000016665000174522435
vn 0.00005084301975825811 0.5547065934461928 0.8320460279349379
vn 0.0000944349998718882 0.9999999954021543 -0.000016665000174522435
vn 0.00008332500003685353 0.9999999965284723 -4.165832944446689e-13
vn 0.00005084301975825811 0.5547065934461928 0.8320460279349379
vn 0.0000999899997942909 0.9999999948621389 -0.00001666500003514709
vn 0.0000944349998718882 0.9999999954021543 -0.000016665000174522435
vn 0.00005084301975825811 0.5547065934461928 0.8320460279349379
vn 0.0000944349998718882 0.9999999954021543 -0.000016665000174522435
vn 0.00008332500003685353 0.9999999965284723 -4.165832944446689e-13
vn 0.00005084301975825811 0.5547065934461928 0.8320460279349379
vn 0.0000999899997942909 0.9999999948621389 -0.00001666500003514709
vn 0.0000944349998718882 0.9999999954021543 -0.000016665000174522435
vn 0.0000999899997942909 0.9999999948621389 -0.00001666500003514709
vn 0.00009998999980817563 0.9999999950010001 0
vn 0.0000944349998718882 0.9999999954021543 -0.000016665000174522435
vn 0.0000999899997942909 0.9999999948621389 -0.00001666500003514709
vn 0.00009998999980817563 0.9999999950010001 0
vn 0.00009998999980817563 0.9999999950010001 0
vn 0.0000999899997942909 0.9999999948621389 -0.00001666500003514709
vn 0.00009998999980817563 0.9999999950010001 0
vn 0.0000944349998718882 0.9999999954021543 -0.000016665000174522435
vn 0.0000999899997942909 0.9999999948621389 -0.00001666500003514709
vn 0.00009998999980817563 0.9999999950010001 0
vn 0.00009998999980817563 0.9999999950010001 0
vn 0.0000999899997942909 0.9999999948621389 -0.00001666500003514709
vn 0.00009998999980817563 0.9999999950010001 0
vn 0.0000944349998718882 0.9999999954021543 -0.000016665000174522435
vn 0.0000999899997942909 0.9999999948621389 -0.00001666500003514709
vn 0.00009998999980817563 0.9999999950010001 0
vn 0.00009998999980817563 0.9999999950010001 0
vn 0.0000999899997942909 0.9999999948621389 -0.00001666500003514709
vn 0.00009998999980817563 0.9999999950010001 0
vn 0.0000944349998718882 0.9999999954021543 -0.000016665000174522435
vn 0.0000999899997942909 0.9999999948621389 -0.00001666500003514709
vn 0.00009998999980817563 0.9999999950010001 0
vn 0.00009998999980817563 0.9999999950010001 0
vn 0.0000999899997942909 0.9999999948621389 -0.000016665000035147094
vn 0.00009998999980817563 0.9999999950010001 0
vn 0.0000944349998718882 0.9999999954021543 -0.00001666500017452244
vn 0.0000999899997942909 0.9999999948621389 -0.000016665000035147094
vn 0.00009998999980817563 0.9999999950010001 0
vn 0.00009998999980817563 0.9999999950010001 0
vn 0.0000999899997942909 0.9999999948621389 -0.00001666500003514709
vn 0.00009998999980817563 0.9999999950010001 0
vn 0.0000944349998718882 0.9999999954021543 -0.000016665000174522435
vn 0.0000999899997942909 0.9999999948621389 -0.00001666500003514709
vn 0.00009998999980817563 0.9999999950010001 0
vn 0.00009998999980817563 0.9999999950010001 0
vn 0.0000999899997942909 0.9999999948621389 -0.00001666500003514709
vn 0.00009998999980817563 0.9999999950010001 0
vn 0.0000944349998718882 0.9999999954021543 -0.000016665000174522435
vn 0.0000999899997942909 0.9999999948621389 -0.00001666500003514709
vn 0.00009998999997480891 0.9999999950009999 -2.7772221620922864e-13
vn 0.00009998999980817563 0.9999999950010001 0
vn 0.00009998999997480891 0.9999999950009999 -2.7772221620922864e-13
vn 0.0000666600000192006 0.9999999977165059 -0.000011110000125089606
vn 0.00003333000013971778 0.9999999994445555 -1.6663332827034917e-13
vn 0.00009998999997480891 0.9999999950009999 -2.7772221620922864e-13
vn 0.00006665999993588393 0.9999999977165059 -0.000011110000097317384
vn 0.0000666600000192006 0.9999999977165059 -0.000011110000125089606
vn 0.00003333000013971778 0.9999999994445555 -1.6663332827034917e-13
vn 0 1 0
vn 0 1 0
vn 0.00003333000013971778 0.9999999994445555 -1.6663332827034917e-13
vn 0.0000666600000192006 0.9999999977165059 -0.000011110000125089606
vn 0 1 0
vn 0.0000666600000192006 0.9999999977165059 -0.000011110000125089606
vn 0.00006665999993588393 0.9999999977165059 -0.000011109999986228497
vn 0 1 0
vn 0.0000666600000192006 0.9999999977165059 -0.000011110000125089606
vn 0.00004999499996656906 0.9999999987502499 5.553889108556735e-14
vn 0.00006665999993588393 0.9999999977165059 -0.000011109999986228497
vn 0.00006665999993588393 0.9999999977165059 -0.000011110000097317384
vn 0.00004999499996656906 0.9999999987502499 5.553889108556735e-14
vn 0.0000666600000192006 0.9999999977165059 -0.000011110000125089606
vn 0.00006665999993588393 0.9999999977165059 -0.000011110000097317384
vn 0.00003332999997719845 0.9999999993828395 0.000011110000041767386
vn 0.00004999499996656906 0.9999999987502499 5.553889108556735e-14
vn 0.00003332999997719845 0.9999999993828395 0.000011110000041767386
vn 0.00004999499996656906 0.9999999987502499 5.553889108556735e-14
vn 0.00004999499996656906 0.9999999987502499 5.553889108556735e-14
vn 0.00003332999997719845 0.9999999993828395 0.000011110000041767386
vn 0.00006665999993588393 0.9999999977165059 -0.000011109999986228497
vn 0.00004999499996656906 0.9999999987502499 5.553889108556735e-14
vn 0.00004999499996656906 0.9999999987502499 5.553889108556735e-14
vn 0.00003332999997719845 0.9999999993828395 0.000011110000041767386
vn 0.00006665999993588393 0.9999999977165059 -0.000011109999986228497
vn 0.00004999499996656906 0.9999999987502499 5.553889108556735e-14
vn 0.00004999499996656906 0.9999999987502499 5.553889108556735e-14
vn 0.00003332999997719845 0.9999999993828395 0.000011110000041767386
vn 0.00004999499996656906 0.9999999987502499 5.553889108556735e-14
vn 0.000049994999945741975 0.9999999986113889 -0.00001666499998191399
vn 0.00003332999997719845 0.9999999993828395 0.000011110000041767386
vn 0.00004999499996656906 0.9999999987502499 5.553889108556735e-14
vn 0.00006665999991737099 0.9999999975313579 -0.000022219999972456996
vn 0.000049994999945741975 0.9999999986113889 -0.00001666499998191399
vn 0.00006665999993588393 0.9999999977165059 -0.000011109999986228497
vn 0.00006665999991737099 0.9999999975313579 -0.000022219999972456996
vn 0.00004999499996656906 0.9999999987502499 5.553889108556735e-14
vn 0.00006665999993588393 0.9999999977165059 -0.000011109999986228497
vn 0 1 0
vn 0.00006665999991737099 0.9999999975313579 -0.000022219999972456996
g Scene
f 1/1/1 3/2/2 2/3/3
f 1/4/4 4/5/5 3/6/6
f 4/7/7 5/8/8 3/9/9
f 4/10/10 6/11/11 5/12/12
f 6/13/13 7/14/14 5/15/15
f 6/16/16 8/17/17 7/18/18
f 8/19/19 9/20/20 7/21/21
f 8/22/22 10/23/23 9/24/24
f 10/25/25 11/26/26 9/27/27
f 10/28/28 12/29/29 11/30/30
f 12/31/31 13/32/32 11/33/33
f 12/34/34 14/35/35 13/36/36
f 14/37/37 15/38/38 13/39/39
f 14/40/40 16/41/41 15/42/42
f 15/43/43 18/44/44 17/45/45
f 15/46/46 19/47/47 18/48/48
f 13/49/49 21/50/50 20/51/51
f 13/52/52 22/53/53 21/54/54
f 11/55/55 24/56/56 23/57/57
f 11/58/58 25/59/59 24/60/60
f 9/61/61 27/62/62 26/63/63
f 9/64/64 28/65/65 27/66/66
f 7/67/67 30/68/68 29/69/69
f 7/70/70 31/71/71 30/72/72
f 5/73/73 33/74/74 32/75/75
f 5/76/76 34/77/77 33/78/78
f 3/79/79 36/80/80 35/81/81
f 3/82/82 37/83/83 36/84/84
f 37/85/85 38/86/86 36/87/87
f 37/88/88 39/89/89 38/90/90
f 34/91/91 40/92/92 33/93/93
f 34/94/94 41/95/95 40/96/96
f 31/97/97 42/98/98 30/99/99
f 31/100/100 43/101/101 42/102/102
f 28/103/103 44/104/104 27/105/105
f 28/106/106 45/107/107 44/108/108
f 25/109/109 46/110/110 24/111/111
f 25/112/112 47/113/113 46/114/114
f 22/115/115 48/116/116 21/117/117
f 22/118/118 49/119/119 48/120/120
f 19/121/121 50/122/122 18/123/123
f 19/124/124 51/125/125 50/126/126
f 51/127/127 53/128/128 52/129/129
f 51/130/130 54/131/131 53/132/132
f 52/133/133 56/134/134 55/135/135
f 52/136/136 53/137/137 56/138/138
f 53/139/139 57/140/140 56/141/141
f 53/142/142 58/143/143 57/144/144
f 54/145/145 58/146/146 53/147/147
f 54/148/148 59/149/149 58/150/150
f 59/151/151 60/152/152 58/153/153
f 59/154/154 61/155/155 60/156/156
f 58/157/157 62/158/158 57/159/159
f 58/160/160 60/161/161 62/162/162
f 60/163/163 63/164/164 62/165/165
f 60/166/166 64/167/167 63/168/168
f 61/169/169 64/170/170 60/171/171
f 61/172/172 65/173/173 64/174/174
