o Default
v 4 0 0
v 0 0 0
v 0 0 -4
v 4 0 -4
v 0 0 0
v -4 0 0
v -4 0 -4
v 0 0 -4
vt 0.6 0.7
vt 0.4 0.9
vt 0.4 0.7
vt 0.6 0.7
vt 0.6 0.9
vt 0.4 0.9
vt 0.6 0.7
vt 0.4 0.9
vt 0.4 0.7
vt 0.6 0.7
vt 0.6 0.9
vt 0.4 0.9
vn 0.00009998999980817563 0.9999999950010001 -4.998999965579578e-13
vn 0.00009998999980817563 0.9999999950010001 -4.998999965579578e-13
vn 0.00009998999980817563 0.9999999950010001 -4.998999965579578e-13
vn 0.00009998999980817563 0.9999999950010001 -4.998999965579578e-13
vn 0.00009998999980817563 0.9999999950010001 -4.998999965579578e-13
vn 0.00009998999980817563 0.9999999950010001 -4.998999965579578e-13
vn 0.00009998999980817563 0.9999999950010001 -4.998999965579578e-13
vn 0.00009998999980817563 0.9999999950010001 -4.998999965579578e-13
vn 0.00009998999980817563 0.9999999950010001 -4.998999965579578e-13
vn 0.00009998999980817563 0.9999999950010001 -4.998999965579578e-13
vn 0.00009998999980817563 0.9999999950010001 -4.998999965579578e-13
vn 0.00009998999980817563 0.9999999950010001 -4.998999965579578e-13
g Scene
f 1/1/1 3/2/2 2/3/3
f 1/4/4 4/5/5 3/6/6
f 5/7/7 7/8/8 6/9/9
f 5/10/10 8/11/11 7/12/12
