o Default
v -1 0 0
v -1 1 0
v 0 1 0
v 0 0 0
v -1 2 0
v 0 2 0
vt 0 0.6666666666666667
vt 0.3333333333333333 1
vt 0 1
vt 0 0.6666666666666667
vt 0.3333333333333333 0.6666666666666667
vt 0.3333333333333333 1
vt 0 0.6666666666666667
vt 0.3333333333333333 1
vt 0 1
vt 0 0.6666666666666667
vt 0.3333333333333333 0.6666666666666667
vt 0.3333333333333333 1
vn 0 0 1
vn 0 0 1
vn 0 0 1
vn 0 0 1
vn 0 0 1
vn 0 0 1
vn 0 0 1
vn 0 0 1
vn 0 0 1
vn 0 0 1
vn 0 0 1
vn 0 0 1
g Scene
f 1/1/1 3/2/2 2/3/3
f 1/4/4 4/5/5 3/6/6
f 2/7/7 6/8/8 5/9/9
f 2/10/10 3/11/11 6/12/12
