mtllib material.mtl
o Default
v 1 2 3
v 1 3 3
v 0 3 3
v 0 2 3
v -1 3 3
v -1 2 3
v -2 3 3
v -2 2 3
v 0 2 0
v 0 3 0
v 1 3 0
v 1 2 0
v -1 2 0
v -1 3 0
v -2 2 0
v -2 3 0
v -1 0 3
v -1 0 2
v -2 0 2
v -2 0 3
v -1 0 2
v -1 0 1
v -2 0 1
v -2 0 2
v -1 0 1
v -1 0 0
v -2 0 0
v -2 0 1
v 0 0 1
v 0 0 0
v 1 0 1
v 1 0 0
v 1 0 2
v 1 0 1
v 0 0 1
v 0 0 2
v 1 0 3
v 1 0 2
v 0 0 2
v 0 0 3
v 0 0 3
v -1 0 2
v -1 0 3
v 0 0 2
v 0 0 1
v 0 1 3
v 1 1 3
v -1 1 3
v -2 1 3
v 0 2 2
v 1 2 2
v 0 2 2
v 0 2 1
v 1 2 1
v 1 2 2
v 0 2 1
v 1 2 1
v -1 2 1
v -2 2 1
v -2 2 2
v -2 2 1
v -1 2 1
v -1 2 2
v -2 2 2
v -1 2 2
v -1 2 3
v 0 2 2
v 0 2 3
v -1 2 2
v -1 2 1
vt 0.6666666666666666 0.6666666666666667
vt 1 1
vt 1 0.6666666666666667
vt 0.6666666666666666 0.6666666666666667
vt 0.6666666666666666 1
vt 1 1
vt 0.6666666666666666 0.6666666666666667
vt 1 1
vt 1 0.6666666666666667
vt 0.6666666666666666 0.6666666666666667
vt 0.6666666666666666 1
vt 1 1
vt 0.6666666666666666 0.6666666666666667
vt 1 1
vt 1 0.6666666666666667
vt 0.6666666666666666 0.6666666666666667
vt 0.6666666666666666 1
vt 1 1
vt 0.6666666666666666 0.6666666666666667
vt 1 1
vt 1 0.6666666666666667
vt 0.6666666666666666 0.6666666666666667
vt 0.6666666666666666 1
vt 1 1
vt 0.6666666666666666 0.6666666666666667
vt 1 1
vt 1 0.6666666666666667
vt 0.6666666666666666 0.6666666666666667
vt 0.6666666666666666 1
vt 1 1
vt 0.6666666666666666 0.6666666666666667
vt 1 1
vt 1 0.6666666666666667
vt 0.6666666666666666 0.6666666666666667
vt 0.6666666666666666 1
vt 1 1
vt 0.6666666666666666 0
vt 1 0.33333333333333337
vt 0.6666666666666666 0.33333333333333337
vt 0.6666666666666666 0
vt 1 0
vt 1 0.33333333333333337
vt 0.6666666666666666 0
vt 1 0.33333333333333337
vt 0.6666666666666666 0.33333333333333337
vt 0.6666666666666666 0
vt 1 0
vt 1 0.33333333333333337
vt 0.6666666666666666 0
vt 1 0.33333333333333337
vt 0.6666666666666666 0.33333333333333337
vt 0.6666666666666666 0
vt 1 0
vt 1 0.33333333333333337
vt 0.6666666666666666 0
vt 1 0.33333333333333337
vt 0.6666666666666666 0.33333333333333337
vt 0.6666666666666666 0
vt 1 0
vt 1 0.33333333333333337
vt 0.6666666666666666 0
vt 1 0.33333333333333337
vt 0.6666666666666666 0.33333333333333337
vt 0.6666666666666666 0
vt 1 0
vt 1 0.33333333333333337
vt 0.6666666666666666 0
vt 1 0.33333333333333337
vt 0.6666666666666666 0.33333333333333337
vt 0.6666666666666666 0
vt 1 0
vt 1 0.33333333333333337
vt 0.6666666666666666 0
vt 1 0.33333333333333337
vt 0.6666666666666666 0.33333333333333337
vt 0.6666666666666666 0
vt 1 0
vt 1 0.33333333333333337
vt 0.6666666666666666 0
vt 1 0.33333333333333337
vt 0.6666666666666666 0.33333333333333337
vt 0.6666666666666666 0
vt 1 0
vt 1 0.33333333333333337
vt 0.6666666666666666 0
vt 1 0.33333333333333337
vt 0.6666666666666666 0.33333333333333337
vt 0.6666666666666666 0
vt 1 0
vt 1 0.33333333333333337
vt 0 0.6666666666666667
vt 0.3333333333333333 1
vt 0.3333333333333333 0.6666666666666667
vt 0 0.6666666666666667
vt 0 1
vt 0.3333333333333333 1
vt 0 0.6666666666666667
vt 0.3333333333333333 1
vt 0.3333333333333333 0.6666666666666667
vt 0 0.6666666666666667
vt 0 1
vt 0.3333333333333333 1
vt 0 0.6666666666666667
vt 0.3333333333333333 1
vt 0.3333333333333333 0.6666666666666667
vt 0 0.6666666666666667
vt 0 1
vt 0.3333333333333333 1
vt 0 0.6666666666666667
vt 0.3333333333333333 1
vt 0.3333333333333333 0.6666666666666667
vt 0 0.6666666666666667
vt 0 1
vt 0.3333333333333333 1
vt 0 0.6666666666666667
vt 0.3333333333333333 1
vt 0.3333333333333333 0.6666666666666667
vt 0 0.6666666666666667
vt 0 1
vt 0.3333333333333333 1
vt 0 0.6666666666666667
vt 0.3333333333333333 1
vt 0.3333333333333333 0.6666666666666667
vt 0 0.6666666666666667
vt 0 1
vt 0.3333333333333333 1
vt 0.6666666666666666 0
vt 1 0.33333333333333337
vt 0.6666666666666666 0.33333333333333337
vt 0.6666666666666666 0
vt 1 0
vt 1 0.33333333333333337
vt 0.6666666666666666 0
vt 1 0.33333333333333337
vt 0.6666666666666666 0.33333333333333337
vt 0.6666666666666666 0
vt 1 0
vt 1 0.33333333333333337
vt 0.6666666666666666 0
vt 1 0.33333333333333337
vt 0.6666666666666666 0.33333333333333337
vt 0.6666666666666666 0
vt 1 0
vt 1 0.33333333333333337
vt 0.6666666666666666 0
vt 1 0.33333333333333337
vt 0.6666666666666666 0.33333333333333337
vt 0.6666666666666666 0
vt 1 0
vt 1 0.33333333333333337
vt 0.6666666666666666 0
vt 1 0.33333333333333337
vt 0.6666666666666666 0.33333333333333337
vt 0.6666666666666666 0
vt 1 0
vt 1 0.33333333333333337
vt 0.6666666666666666 0
vt 1 0.33333333333333337
vt 0.6666666666666666 0.33333333333333337
vt 0.6666666666666666 0
vt 1 0
vt 1 0.33333333333333337
vt 0.6666666666666666 0
vt 1 0.33333333333333337
vt 0.6666666666666666 0.33333333333333337
vt 0.6666666666666666 0
vt 1 0
vt 1 0.33333333333333337
vt 0.6666666666666666 0
vt 1 0.33333333333333337
vt 0.6666666666666666 0.33333333333333337
vt 0.6666666666666666 0
vt 1 0
vt 1 0.33333333333333337
vt 0.6666666666666666 0
vt 1 0.33333333333333337
vt 0.6666666666666666 0.33333333333333337
vt 0.6666666666666666 0
vt 1 0
vt 1 0.33333333333333337
vn 0 0.9999999987249624 0.00005049827286766854
vn 0 0 -1
vn 0 0 -1
vn 0 0.9999999987249624 0.00005049827286766854
vn 2.249857673809525e-8 0.9999999987238257 0.000050520771417429613
vn 0 0 -1
vn 2.249857673809525e-8 0.9999999987238257 0.000050520771417429613
vn 0 0 -1
vn 0 0 -1
vn 2.249857673809525e-8 0.9999999987238257 0.000050520771417429613
vn 0 0.9999999987444221 0.00005011143300797893
vn 0 0 -1
vn 0 0.9999999987444221 0.00005011143300797893
vn 0 0 -1
vn 0 0 -1
vn 0 0.9999999987444221 0.00005011143300797893
vn 2.249858201749581e-8 0.9999999987432941 0.00005013393156010034
vn 0 0 -1
vn 1.0616535705709074e-8 0.7070890387894224 0.7071245231384996
vn 0 0 1
vn 0 0 1
vn 1.0616535705709074e-8 0.7070890387894224 0.7071245231384996
vn 2.0122937235991724e-8 0.8944092231739326 0.44724952934732287
vn 0 0 1
vn 1.061794425595198e-8 0.7070890547158659 0.707124507212855
vn 0 0 1
vn 0 0 1
vn 1.061794425595198e-8 0.7070890547158659 0.707124507212855
vn 1.0616535705709074e-8 0.7070890387894224 0.7071245231384996
vn 0 0 1
vn 0 0.44720463172936653 0.8944316728290662
vn 0 0 1
vn 0 0 1
vn 0 0.44720463172936653 0.8944316728290662
vn 1.061794425595198e-8 0.7070890547158659 0.707124507212855
vn 0 0 1
vn 9.108869137711996e-8 -0.5547266314999686 0.8320326702147517
vn 4.499591772003866e-8 -0.9999999950044982 -0.00009995499889344376
vn 4.499591816395027e-8 -0.9999999950044982 -0.00009995499889388766
vn 9.108869137711996e-8 -0.5547266314999686 0.8320326702147517
vn 3.1303044425638496e-8 -0.44723246619929863 0.8944177554014077
vn 4.499591772003866e-8 -0.9999999950044982 -0.00009995499889344376
vn -1.2894645331540272e-7 -0.9999999950044909 -0.00009995499888981647
vn 4.499591771968347e-8 -0.9999999950044982 -0.00009995499889344466
vn -3.0288882390646014e-7 -0.9999999950044532 -0.00009995499888662925
vn -1.2894645331540272e-7 -0.9999999950044909 -0.00009995499888981647
vn 4.4995918163950124e-8 -0.9999999950044982 -0.00009995499889388894
vn 4.499591771968347e-8 -0.9999999950044982 -0.00009995499889344466
vn 3.004294359721176e-8 -0.9999999950044984 -0.00009995499889299712
vn 4.499591860786178e-8 -0.9999999950044982 -0.00009995499889255595
vn 1.5089969326828736e-8 -0.9999999950044989 -0.00009995499889417858
vn 3.004294359721176e-8 -0.9999999950044984 -0.00009995499889299712
vn 4.4995916387060805e-8 -0.9999999950044982 -0.00009995499889033516
vn 4.499591860786178e-8 -0.9999999950044982 -0.00009995499889255595
vn 1.0919356138330391e-10 -0.9999999950044991 -0.00009995499889387896
vn 1.5089969326828736e-8 -0.9999999950044989 -0.00009995499889417858
vn 8.139325067684015e-11 -0.9999999950044991 -0.00009995499889358221
vn 1.0919356138330391e-10 -0.9999999950044991 -0.00009995499889387896
vn 3.004294359721176e-8 -0.9999999950044984 -0.00009995499889299712
vn 1.5089969326828736e-8 -0.9999999950044989 -0.00009995499889417858
vn 5.359308805939573e-11 -0.9999999950044991 -0.00009995499889343357
vn 8.139325067684015e-11 -0.9999999950044991 -0.00009995499889358221
vn 5.359264379233688e-11 -0.9999999950044991 -0.0000999549988929893
vn 5.359308805939573e-11 -0.9999999950044991 -0.00009995499889343357
vn 1.0919356138330391e-10 -0.9999999950044991 -0.00009995499889387896
vn 8.139325067684015e-11 -0.9999999950044991 -0.00009995499889358221
vn 4.499591816403882e-8 -0.9999999950044982 -0.00009995499889388831
vn 4.499591816403882e-8 -0.9999999950044982 -0.00009995499889388831
vn 4.4995917275771764e-8 -0.9999999950044982 -0.00009995499889300002
vn 4.499591816403882e-8 -0.9999999950044982 -0.00009995499889388831
vn -0.000049597377450857475 -0.9999999975043701 -0.00005031262552631764
vn 4.499591816403882e-8 -0.9999999950044982 -0.00009995499889388831
vn 5.142662702862047e-8 -0.8944630959832085 0.44714177832554525
vn 4.499591771959475e-8 -0.9999999950044982 -0.0000999549988943324
vn 4.4995919051951044e-8 -0.9999999950044982 -0.00009995499889566474
vn 5.142662702862047e-8 -0.8944630959832085 0.44714177832554525
vn 8.962605721580693e-8 -0.3162386303757248 0.9486796765284253
vn 4.499591771959475e-8 -0.9999999950044982 -0.0000999549988943324
vn -0.000049597377451301917 -0.9999999975043701 -0.000050312625525873465
vn -0.000049597377451301917 -0.9999999975043701 -0.000050312625525873465
vn -0.000049597377450857475 -0.9999999975043701 -0.00005031262552631764
vn -0.000049597377451301917 -0.9999999975043701 -0.000050312625525873465
vn 4.4995918163416976e-8 -0.9999999950044982 -0.00009995499889388823
vn -0.000049597377451301917 -0.9999999975043701 -0.000050312625525873465
vn -4.7683119449738485e-7 -0.9999999950043854 -0.00009995499888343918
vn -3.0288882390646014e-7 -0.9999999950044532 -0.00009995499888662925
vn -4.768311936092064e-7 -0.9999999950043854 -0.00009995499888432736
vn -4.7683119449738485e-7 -0.9999999950043854 -0.00009995499888343918
vn -1.2894645331540272e-7 -0.9999999950044909 -0.00009995499888981647
vn -3.0288882390646014e-7 -0.9999999950044532 -0.00009995499888662925
vn 8.962605721580693e-8 -0.3162386303757248 0.9486796765284253
vn 8.332358654009603e-9 -0.0000010825715256917144 0.9999999999994139
vn 3.557018748316825e-8 -7.70111252207371e-7 0.9999999999997028
vn 8.962605721580693e-8 -0.3162386303757248 0.9486796765284253
vn 5.142662702862047e-8 -0.8944630959832085 0.44714177832554525
vn 8.332358654009603e-9 -0.0000010825715256917144 0.9999999999994139
vn 9.108869137711996e-8 -0.5547266314999686 0.8320326702147517
vn 3.557018748316825e-8 -7.70111252207371e-7 0.9999999999997028
vn 4.166176354783343e-9 -6.948084251891933e-7 0.9999999999997585
vn 9.108869137711996e-8 -0.5547266314999686 0.8320326702147517
vn 8.962605721580693e-8 -0.3162386303757248 0.9486796765284253
vn 3.557018748316825e-8 -7.70111252207371e-7 0.9999999999997028
vn 3.1303044425638496e-8 -0.44723246619929863 0.8944177554014077
vn 4.166176354783343e-9 -6.948084251891933e-7 0.9999999999997585
vn 0 -4.576509899078532e-7 0.9999999999998953
vn 3.1303044425638496e-8 -0.44723246619929863 0.8944177554014077
vn 9.108869137711996e-8 -0.5547266314999686 0.8320326702147517
vn 4.166176354783343e-9 -6.948084251891933e-7 0.9999999999997585
vn 0 -4.576509899078532e-7 0.9999999999998953
vn 0 0.9999999987444221 0.00005011143300797893
vn 2.249858201749581e-8 0.9999999987432941 0.00005013393156010034
vn 0 -4.576509899078532e-7 0.9999999999998953
vn 4.166176354783343e-9 -6.948084251891933e-7 0.9999999999997585
vn 0 0.9999999987444221 0.00005011143300797893
vn 4.166176354783343e-9 -6.948084251891933e-7 0.9999999999997585
vn 2.249857673809525e-8 0.9999999987238257 0.000050520771417429613
vn 0 0.9999999987444221 0.00005011143300797893
vn 4.166176354783343e-9 -6.948084251891933e-7 0.9999999999997585
vn 3.557018748316825e-8 -7.70111252207371e-7 0.9999999999997028
vn 2.249857673809525e-8 0.9999999987238257 0.000050520771417429613
vn 3.557018748316825e-8 -7.70111252207371e-7 0.9999999999997028
vn 0 0.9999999987249624 0.00005049827286766854
vn 2.249857673809525e-8 0.9999999987238257 0.000050520771417429613
vn 3.557018748316825e-8 -7.70111252207371e-7 0.9999999999997028
vn 8.332358654009603e-9 -0.0000010825715256917144 0.9999999999994139
vn 0 0.9999999987249624 0.00005049827286766854
vn 2.249857673809525e-8 0.9999999987238257 0.000050520771417429613
vn 2.249857673809525e-8 0.9999999987238257 0.000050520771417429613
vn 4.499715347619047e-8 0.9999999987226881 0.00005054326996719064
vn 2.249857673809525e-8 0.9999999987238257 0.000050520771417429613
vn 0 0.9999999987249624 0.00005049827286766854
vn 2.249857673809525e-8 0.9999999987238257 0.000050520771417429613
vn -1.1395395172470875e-7 0.9999999950044925 0.00009995499889004251
vn 4.499591805275032e-8 0.9999999950044982 0.00009995499889333363
vn -2.729038213171912e-7 0.9999999950044619 0.00009995499888693386
vn -1.1395395172470875e-7 0.9999999950044925 0.00009995499889004251
vn 4.499591838599464e-8 0.9999999950044982 0.00009995499889366689
vn 4.499591805275032e-8 0.9999999950044982 0.00009995499889333363
vn 3.001347864377872e-8 0.9999999987393539 0.000050212461468769196
vn 2.0122937235991724e-8 0.8944092231739326 0.44724952934732287
vn 1.0616535705709074e-8 0.7070890387894224 0.7071245231384996
vn 3.001347864377872e-8 0.9999999987393539 0.000050212461468769196
vn 4.4997159441641864e-8 0.9999999987378467 0.000050242459875442154
vn 2.0122937235991724e-8 0.8944092231739326 0.44724952934732287
vn 3.003084269577198e-8 0.9999999987416138 0.000050167433147489755
vn 1.0616535705709074e-8 0.7070890387894224 0.7071245231384996
vn 1.061794425595198e-8 0.7070890547158659 0.707124507212855
vn 3.003084269577198e-8 0.9999999987416138 0.000050167433147489755
vn 3.001347864377872e-8 0.9999999987393539 0.000050212461468769196
vn 1.0616535705709074e-8 0.7070890387894224 0.7071245231384996
vn 2.2524625798810833e-8 0.9999999987434968 0.00005012989378302642
vn 1.061794425595198e-8 0.7070890547158659 0.707124507212855
vn 0 0.44720463172936653 0.8944316728290662
vn 2.2524625798810833e-8 0.9999999987434968 0.00005012989378302642
vn 3.003084269577198e-8 0.9999999987416138 0.000050167433147489755
vn 1.061794425595198e-8 0.7070890547158659 0.707124507212855
vn 4.4995918497105705e-8 0.9999999950044982 0.00009995499889377728
vn 4.4995918497105705e-8 0.9999999950044982 0.00009995499889377728
vn 4.4995917719861027e-8 0.9999999950044982 0.00009995499889300001
vn 4.4995918497105705e-8 0.9999999950044982 0.00009995499889377728
vn -0.000049711596639744906 0.9999999975044387 0.00005019840633642174
vn 4.4995918497105705e-8 0.9999999950044982 0.00009995499889377728
vn 2.249858201749581e-8 0.9999999987432941 0.00005013393156010034
vn 2.249858201749581e-8 0.9999999987432941 0.00005013393156010034
vn 4.4997164034991614e-8 0.9999999987421654 0.00005015643011222173
vn 2.249858201749581e-8 0.9999999987432941 0.00005013393156010034
vn 0 0.9999999987444221 0.00005011143300797893
vn 2.249858201749581e-8 0.9999999987432941 0.00005013393156010034
vn -0.0000497115966399673 0.9999999975044387 0.00005019840633619961
vn -0.0000497115966399673 0.9999999975044387 0.00005019840633619961
vn -0.000049711596639744906 0.9999999975044387 0.00005019840633642174
vn -0.0000497115966399673 0.9999999975044387 0.00005019840633619961
vn 4.499591882955075e-8 0.9999999950044982 0.00009995499889411027
vn -0.0000497115966399673 0.9999999975044387 0.00005019840633619961
vn -4.318536908355294e-7 0.9999999950044058 0.00009995499888389682
vn -2.729038213171912e-7 0.9999999950044619 0.00009995499888693386
vn -4.318536903914406e-7 0.9999999950044058 0.0000999549988843409
vn -4.318536908355294e-7 0.9999999950044058 0.00009995499888389682
vn -1.1395395172470875e-7 0.9999999950044925 0.00009995499889004251
vn -2.729038213171912e-7 0.9999999950044619 0.00009995499888693386
g Scene
f 1/1/1 3/2/2 2/3/3
f 1/4/4 4/5/5 3/6/6
f 4/7/7 5/8/8 3/9/9
f 4/10/10 6/11/11 5/12/12
f 6/13/13 7/14/14 5/15/15
f 6/16/16 8/17/17 7/18/18
f 9/19/19 11/20/20 10/21/21
f 9/22/22 12/23/23 11/24/24
f 13/25/25 10/26/26 14/27/27
f 13/28/28 9/29/29 10/30/30
f 15/31/31 14/32/32 16/33/33
f 15/34/34 13/35/35 14/36/36
f 17/37/37 19/38/38 18/39/39
f 17/40/40 20/41/41 19/42/42
f 21/43/43 23/44/44 22/45/45
f 21/46/46 24/47/47 23/48/48
f 25/49/49 27/50/50 26/51/51
f 25/52/52 28/53/53 27/54/54
f 29/55/55 26/56/56 30/57/57
f 29/58/58 25/59/59 26/60/60
f 31/61/61 30/62/62 32/63/63
f 31/64/64 29/65/65 30/66/66
f 33/67/67 35/68/68 34/69/69
f 33/70/70 36/71/71 35/72/72
f 37/73/73 39/74/74 38/75/75
f 37/76/76 40/77/77 39/78/78
f 41/79/79 42/80/80 36/81/81
f 41/82/82 43/83/83 42/84/84
f 44/85/85 22/86/86 45/87/87
f 44/88/88 21/89/89 22/90/90
f 40/91/91 47/92/92 46/93/93
f 40/94/94 37/95/95 47/96/96
f 17/97/97 46/98/98 48/99/99
f 17/100/100 40/101/101 46/102/102
f 20/103/103 48/104/104 49/105/105
f 20/106/106 17/107/107 48/108/108
f 49/109/109 6/110/110 8/111/111
f 49/112/112 48/113/113 6/114/114
f 48/115/115 4/116/116 6/117/117
f 48/118/118 46/119/119 4/120/120
f 46/121/121 1/122/122 4/123/123
f 46/124/124 47/125/125 1/126/126
f 4/127/127 51/128/128 50/129/129
f 4/130/130 1/131/131 51/132/132
f 52/133/133 54/134/134 53/135/135
f 52/136/136 55/137/137 54/138/138
f 56/139/139 12/140/140 9/141/141
f 56/142/142 57/143/143 12/144/144
f 58/145/145 9/146/146 13/147/147
f 58/148/148 56/149/149 9/150/150
f 59/151/151 13/152/152 15/153/153
f 59/154/154 58/155/155 13/156/156
f 60/157/157 62/158/158 61/159/159
f 60/160/160 63/161/161 62/162/162
f 8/163/163 65/164/164 64/165/165
f 8/166/166 6/167/167 65/168/168
f 66/169/169 67/170/170 63/171/171
f 66/172/172 68/173/173 67/174/174
f 69/175/175 53/176/176 70/177/177
f 69/178/178 52/179/179 53/180/180
