o Default
v 0 0 1
v -1 0 1
v -1 0 0
v 0 0 0
v -1 0 -1
v 0 0 -1
v 1 0 0
v 1 0 -1
v 1 0 1
v 1 0 2
v 0 0 2
v -1 0 2
v -2 0 2
v -2 0 1
v -2 0 0
v -2 0 -1
vt 0.6666666666666666 0
vt 1 0.33333333333333337
vt 0.6666666666666666 0.33333333333333337
vt 0.6666666666666666 0
vt 1 0
vt 1 0.33333333333333337
vt 0.6666666666666666 0
vt 1 0.33333333333333337
vt 0.6666666666666666 0.33333333333333337
vt 0.6666666666666666 0
vt 1 0
vt 1 0.33333333333333337
vt 0.6666666666666666 0
vt 1 0.33333333333333337
vt 0.6666666666666666 0.33333333333333337
vt 0.6666666666666666 0
vt 1 0
vt 1 0.33333333333333337
vt 0.6666666666666666 0
vt 1 0.33333333333333337
vt 0.6666666666666666 0.33333333333333337
vt 0.6666666666666666 0
vt 1 0
vt 1 0.33333333333333337
vt 0.6666666666666666 0
vt 1 0.33333333333333337
vt 0.6666666666666666 0.33333333333333337
vt 0.6666666666666666 0
vt 1 0
vt 1 0.33333333333333337
vt 0.6666666666666666 0
vt 1 0.33333333333333337
vt 0.6666666666666666 0.33333333333333337
vt 0.6666666666666666 0
vt 1 0
vt 1 0.33333333333333337
vt 0.6666666666666666 0
vt 1 0.33333333333333337
vt 0.6666666666666666 0.33333333333333337
vt 0.6666666666666666 0
vt 1 0
vt 1 0.33333333333333337
vt 0.6666666666666666 0
vt 1 0.33333333333333337
vt 0.6666666666666666 0.33333333333333337
vt 0.6666666666666666 0
vt 1 0
vt 1 0.33333333333333337
vt 0.6666666666666666 0
vt 1 0.33333333333333337
vt 0.6666666666666666 0.33333333333333337
vt 0.6666666666666666 0
vt 1 0
vt 1 0.33333333333333337
vn 0.0000666599998536041 0.9999999972227777 -0.000033330000010127046
vn 0.00004999499996656905 0.9999999987502499 -1.666333323942359e-13
vn 0.00003332999991291733 0.9999999993056944 -0.000016664999998121163
vn 0.0000666599998536041 0.9999999972227777 -0.000033330000010127046
vn 0.00004999499996656905 0.9999999987502499 -8.331666619711795e-14
vn 0.00004999499996656905 0.9999999987502499 -1.666333323942359e-13
vn 0.00004999499996656905 0.9999999987502499 -8.331666619711795e-14
vn 0.00006665999994616892 0.9999999977782221 0
vn 0.00004999499996656905 0.9999999987502499 -1.666333323942359e-13
vn 0.00004999499996656905 0.9999999987502499 -8.331666619711795e-14
vn 0.000033329999973084465 0.9999999994445555 0
vn 0.00006665999994616892 0.9999999977782221 0
vn 0 1 0
vn 0.000033329999973084465 0.9999999994445555 0
vn 0.00004999499996656905 0.9999999987502499 -8.331666619711795e-14
vn 0 1 0
vn 0 1 0
vn 0.000033329999973084465 0.9999999994445555 0
vn 0 1 0
vn 0.00004999499996656905 0.9999999987502499 -8.331666619711795e-14
vn 0.0000666599998536041 0.9999999972227777 -0.000033330000010127046
vn 0 1 0
vn 0 1 0
vn 0.00004999499996656905 0.9999999987502499 -8.331666619711795e-14
vn 0.0000499949997791253 0.9999999975005001 -0.0000499949997791253
vn 0.0000666599998536041 0.9999999972227777 -0.000033330000010127046
vn 0.00006665999968698745 0.9999999955564446 -0.00006665999968698745
vn 0.0000499949997791253 0.9999999975005001 -0.0000499949997791253
vn 0 1 0
vn 0.0000666599998536041 0.9999999972227777 -0.000033330000010127046
vn 0.00006665999968698745 0.9999999955564446 -0.00006665999968698745
vn 0.00003332999991291733 0.9999999993056944 -0.000016664999998121163
vn 0 1 0
vn 0.00006665999968698745 0.9999999955564446 -0.00006665999968698745
vn 0.0000666599998536041 0.9999999972227777 -0.000033330000010127046
vn 0.00003332999991291733 0.9999999993056944 -0.000016664999998121163
vn 0 1 0
vn 0 1 0
vn 0 1 0
vn 0 1 0
vn 0.00003332999991291733 0.9999999993056944 -0.000016664999998121163
vn 0 1 0
vn 0.00003332999991291733 0.9999999993056944 -0.000016664999998121163
vn 0 1 0
vn 0 1 0
vn 0.00003332999991291733 0.9999999993056944 -0.000016664999998121163
vn 0.00004999499996656905 0.9999999987502499 -1.666333323942359e-13
vn 0 1 0
vn 0.00004999499996656905 0.9999999987502499 -1.666333323942359e-13
vn 0 1 0
vn 0 1 0
vn 0.00004999499996656905 0.9999999987502499 -1.666333323942359e-13
vn 0.00006665999994616892 0.9999999977782221 0
vn 0 1 0
g Scene
f 1/1/1 3/2/2 2/3/3
f 1/4/4 4/5/5 3/6/6
f 4/7/7 5/8/8 3/9/9
f 4/10/10 6/11/11 5/12/12
f 7/13/13 6/14/14 4/15/15
f 7/16/16 8/17/17 6/18/18
f 9/19/19 4/20/20 1/21/21
f 9/22/22 7/23/23 4/24/24
f 10/25/25 1/26/26 11/27/27
f 10/28/28 9/29/29 1/30/30
f 11/31/31 2/32/32 12/33/33
f 11/34/34 1/35/35 2/36/36
f 12/37/37 14/38/38 13/39/39
f 12/40/40 2/41/41 14/42/42
f 2/43/43 15/44/44 14/45/45
f 2/46/46 3/47/47 15/48/48
f 3/49/49 16/50/50 15/51/51
f 3/52/52 5/53/53 16/54/54
