o Default
v 0 0 0
v 0 1 0
v 1 1 0
v 1 0 0
v 0 1 -1
v 1 1 -1
vt 0 0.6799999999999999
vt 0.32 1
vt 0 1
vt 0 0.6799999999999999
vt 0.32 0.6799999999999999
vt 0.32 1
vt 0.64 0.6799999999999999
vt 0.32 1
vt 0.32 0.6799999999999999
vt 0.64 0.6799999999999999
vt 0.64 1
vt 0.32 1
vn 0 0 1
vn 0.00003535180345760127 0.7071067794191341 0.7071067820702541
vn 0 0.7070891050638203 0.7071244568674213
vn 0 0 1
vn 0 0 1
vn 0.00003535180345760127 0.7071067794191341 0.7071067820702541
vn 0.00003535180345760127 0.7071067794191341 0.7071067820702541
vn 0.00004999499996656906 0.9999999987502501 -1.248526567373531e-17
vn 0 0.7070891050638203 0.7071244568674213
vn 0.00003535180345760127 0.7071067794191341 0.7071067820702541
vn 0.00009998999968321312 0.99999999375125 -0.000049995000091556555
vn 0.00004999499996656906 0.9999999987502501 -1.248526567373531e-17
g Scene
f 1/1/1 3/2/2 2/3/3
f 1/4/4 4/5/5 3/6/6
f 3/7/7 5/8/8 2/9/9
f 3/10/10 6/11/11 5/12/12
