mtllib CliffsideTesting.mtl
o Default
v 0 0 1
v -1 0 1
v -1 0 0
v 0 0 0
v 0 0 2
v -1 0 2
v 0 0 3
v -1 0 3
v 0 0 4
v -1 0 4
v 0 0 5
v -1 0 5
v -1 0 -1
v 0 0 -1
v -1 0 -2
v 0 0 -2
v -1 0 -3
v 0 0 -3
v -1 0 -4
v 0 0 -4
v -1 0 -5
v 0 0 -5
v 1 0 5
v 1 0 -5
v 0 -1 5
v 0 -1 -5
v 0 -5 5
v 0 -3 5
v 0 -3 -5
v 0 -5 -5
v 0 -2 5
v 0 -2 -5
vt 0.0017793594306049821 0.9626334519572953
vt 0.030249110320284697 0.9911032028469751
vt 0.0017793594306049821 0.9911032028469751
vt 0.0017793594306049821 0.9626334519572953
vt 0.030249110320284697 0.9626334519572953
vt 0.030249110320284697 0.9911032028469751
vt 0.0017793594306049821 0.9626334519572953
vt 0.030249110320284697 0.9911032028469751
vt 0.0017793594306049821 0.9911032028469751
vt 0.0017793594306049821 0.9626334519572953
vt 0.030249110320284697 0.9626334519572953
vt 0.030249110320284697 0.9911032028469751
vt 0.0017793594306049821 0.9626334519572953
vt 0.030249110320284697 0.9911032028469751
vt 0.0017793594306049821 0.9911032028469751
vt 0.0017793594306049821 0.9626334519572953
vt 0.030249110320284697 0.9626334519572953
vt 0.030249110320284697 0.9911032028469751
vt 0.0017793594306049821 0.9626334519572953
vt 0.030249110320284697 0.9911032028469751
vt 0.0017793594306049821 0.9911032028469751
vt 0.0017793594306049821 0.9626334519572953
vt 0.030249110320284697 0.9626334519572953
vt 0.030249110320284697 0.9911032028469751
vt 0.0017793594306049821 0.9626334519572953
vt 0.030249110320284697 0.9911032028469751
vt 0.0017793594306049821 0.9911032028469751
vt 0.0017793594306049821 0.9626334519572953
vt 0.030249110320284697 0.9626334519572953
vt 0.030249110320284697 0.9911032028469751
vt 0.0017793594306049821 0.9626334519572953
vt 0.030249110320284697 0.9911032028469751
vt 0.0017793594306049821 0.9911032028469751
vt 0.0017793594306049821 0.9626334519572953
vt 0.030249110320284697 0.9626334519572953
vt 0.030249110320284697 0.9911032028469751
vt 0.0017793594306049821 0.9626334519572953
vt 0.030249110320284697 0.9911032028469751
vt 0.0017793594306049821 0.9911032028469751
vt 0.0017793594306049821 0.9626334519572953
vt 0.030249110320284697 0.9626334519572953
vt 0.030249110320284697 0.9911032028469751
vt 0.0017793594306049821 0.9626334519572953
vt 0.030249110320284697 0.9911032028469751
vt 0.0017793594306049821 0.9911032028469751
vt 0.0017793594306049821 0.9626334519572953
vt 0.030249110320284697 0.9626334519572953
vt 0.030249110320284697 0.9911032028469751
vt 0.0017793594306049821 0.9626334519572953
vt 0.030249110320284697 0.9911032028469751
vt 0.0017793594306049821 0.9911032028469751
vt 0.0017793594306049821 0.9626334519572953
vt 0.030249110320284697 0.9626334519572953
vt 0.030249110320284697 0.9911032028469751
vt 0.0017793594306049821 0.9626334519572953
vt 0.030249110320284697 0.9911032028469751
vt 0.0017793594306049821 0.9911032028469751
vt 0.0017793594306049821 0.9626334519572953
vt 0.030249110320284697 0.9626334519572953
vt 0.030249110320284697 0.9911032028469751
vt 0.4359430604982206 0.7704626334519573
vt 0.7206405693950177 0.798932384341637
vt 0.4359430604982206 0.798932384341637
vt 0.4359430604982206 0.7704626334519573
vt 0.7206405693950177 0.7704626334519573
vt 0.7206405693950177 0.798932384341637
vt 0.08362989323843416 0.7064056939501779
vt 0.3683274021352313 0.7348754448398577
vt 0.08362989323843416 0.7348754448398577
vt 0.08362989323843416 0.7064056939501779
vt 0.3683274021352313 0.7064056939501779
vt 0.3683274021352313 0.7348754448398577
vt 0.08362989323843416 0.6459074733096085
vt 0.3683274021352313 0.702846975088968
vt 0.08362989323843416 0.702846975088968
vt 0.08362989323843416 0.6459074733096085
vt 0.3683274021352313 0.6459074733096085
vt 0.3683274021352313 0.702846975088968
vt 0.08362989323843416 0.7064056939501779
vt 0.3683274021352313 0.7348754448398577
vt 0.08362989323843416 0.7348754448398577
vt 0.08362989323843416 0.7064056939501779
vt 0.3683274021352313 0.7064056939501779
vt 0.3683274021352313 0.7348754448398577
vt 0.08362989323843416 0.7064056939501779
vt 0.3683274021352313 0.7348754448398577
vt 0.08362989323843416 0.7348754448398577
vt 0.08362989323843416 0.7064056939501779
vt 0.3683274021352313 0.7064056939501779
vt 0.3683274021352313 0.7348754448398577
vn 0.0000999899998081756 0.9999999950009999 -3.3326666437197177e-13
vn 0.0000999899998081756 0.9999999950009999 -3.3326666437197177e-13
vn 0.0000999899998081756 0.9999999950009999 -1.6663333218598588e-13
vn 0.0000999899998081756 0.9999999950009999 -3.3326666437197177e-13
vn 0.0000999899998081756 0.9999999950009999 -1.6663333218598588e-13
vn 0.0000999899998081756 0.9999999950009999 -3.3326666437197177e-13
vn 0.0000999899998081756 0.9999999950009999 0
vn 0.0000999899998081756 0.9999999950009999 -1.6663333218598588e-13
vn 0.0000999899998081756 0.9999999950009999 0
vn 0.0000999899998081756 0.9999999950009999 0
vn 0.0000999899998081756 0.9999999950009999 -3.3326666437197177e-13
vn 0.0000999899998081756 0.9999999950009999 -1.6663333218598588e-13
vn 0.0000999899998081756 0.9999999950009999 0
vn 0.0000999899998081756 0.9999999950009999 0
vn 0.0000999899998081756 0.9999999950009999 0
vn 0.0000999899998081756 0.9999999950009999 0
vn 0.0000999899998081756 0.9999999950009999 0
vn 0.0000999899998081756 0.9999999950009999 0
vn 0.0000999899998081756 0.9999999950009999 0
vn 0.0000999899998081756 0.9999999950009999 0
vn 0.0000999899998081756 0.9999999950009999 0
vn 0.0000999899998081756 0.9999999950009999 0
vn 0.0000999899998081756 0.9999999950009999 0
vn 0.0000999899998081756 0.9999999950009999 0
vn 0.3162846808009851 0.9486643245588076 -1.5809490797981523e-10
vn 0.0000999899998081756 0.9999999950009999 0
vn 0.00009998999980817563 0.9999999950010001 0
vn 0.3162846808009851 0.9486643245588076 -1.5809490797981523e-10
vn 0.0000999899998081756 0.9999999950009999 0
vn 0.0000999899998081756 0.9999999950009999 0
vn 0.0000999899998081756 0.9999999950009999 -1.6663333218598588e-13
vn 0.0000999899998081756 0.9999999950009999 0
vn 0.0000999899998081756 0.9999999950009999 -3.3326666437197177e-13
vn 0.0000999899998081756 0.9999999950009999 -1.6663333218598588e-13
vn 0.0000999899998081756 0.9999999950009999 0
vn 0.0000999899998081756 0.9999999950009999 0
vn 0.0000999899998081756 0.9999999950009999 0
vn 0.0000999899998081756 0.9999999950009999 0
vn 0.0000999899998081756 0.9999999950009999 0
vn 0.0000999899998081756 0.9999999950009999 0
vn 0.0000999899998081756 0.9999999950009999 0
vn 0.0000999899998081756 0.9999999950009999 0
vn 0.0000999899998081756 0.9999999950009999 0
vn 0.0000999899998081756 0.9999999950009999 0
vn 0.0000999899998081756 0.9999999950009999 0
vn 0.0000999899998081756 0.9999999950009999 0
vn 0.0000999899998081756 0.9999999950009999 0
vn 0.0000999899998081756 0.9999999950009999 0
vn 0.0000999899998081756 0.9999999950009999 0
vn 0.0000999899998081756 0.9999999950009999 0
vn 0.0000999899998081756 0.9999999950009999 0
vn 0.0000999899998081756 0.9999999950009999 0
vn 0.0000999899998081756 0.9999999950009999 0
vn 0.0000999899998081756 0.9999999950009999 0
vn 0.0000999899998081756 0.9999999950009999 0
vn 0.00009998999980817563 0.9999999950010001 0
vn 0.0000999899998081756 0.9999999950009999 0
vn 0.0000999899998081756 0.9999999950009999 0
vn 0.5547193956626165 0.8320374943929518 -1.386589850129009e-10
vn 0.00009998999980817563 0.9999999950010001 0
vn 0 1 0
vn 0.5547193956626165 0.8320374943929518 -1.386589850129009e-10
vn 0.3162846808009851 0.9486643245588076 -1.5809490797981523e-10
vn 0 1 0
vn 0 1 0
vn 0.5547193956626165 0.8320374943929518 -1.386589850129009e-10
vn 1 6.66167119823824e-16 -1.6664984947567515e-10
vn 0.5547193956626165 0.8320374943929518 -1.386589850129009e-10
vn 0.3162846808009851 0.9486643245588076 -1.5809490797981523e-10
vn 1 6.66167119823824e-16 -1.6664984947567515e-10
vn 1 8.332923511195304e-10 2.220446049250313e-16
vn 0.5547193956626165 0.8320374943929518 -1.386589850129009e-10
vn 1 0 2.220446049250313e-16
vn 1 0 2.220446049250313e-16
vn 1 0 2.220446049250313e-16
vn 1 0 2.220446049250313e-16
vn 1 0 2.220446049250313e-16
vn 1 0 2.220446049250313e-16
vn 1 0 2.220446049250313e-16
vn 1 8.332923511195304e-10 2.220446049250313e-16
vn 1 6.66167119823824e-16 -1.6664984947567515e-10
vn 1 0 2.220446049250313e-16
vn 1 0 2.220446049250313e-16
vn 1 8.332923511195304e-10 2.220446049250313e-16
vn 1 0 2.220446049250313e-16
vn 1 0 2.220446049250313e-16
vn 1 0 2.220446049250313e-16
vn 1 0 2.220446049250313e-16
vn 1 0 2.220446049250313e-16
vn 1 0 2.220446049250313e-16
g Scene
usemtl material1
f 1/1/1 3/2/2 2/3/3
f 1/4/4 4/5/5 3/6/6
f 5/7/7 2/8/8 6/9/9
f 5/10/10 1/11/11 2/12/12
f 7/13/13 6/14/14 8/15/15
f 7/16/16 5/17/17 6/18/18
f 9/19/19 8/20/20 10/21/21
f 9/22/22 7/23/23 8/24/24
f 11/25/25 10/26/26 12/27/27
f 11/28/28 9/29/29 10/30/30
f 4/31/31 13/32/32 3/33/33
f 4/34/34 14/35/35 13/36/36
f 14/37/37 15/38/38 13/39/39
f 14/40/40 16/41/41 15/42/42
f 16/43/43 17/44/44 15/45/45
f 16/46/46 18/47/47 17/48/48
f 18/49/49 19/50/50 17/51/51
f 18/52/52 20/53/53 19/54/54
f 20/55/55 21/56/56 19/57/57
f 20/58/58 22/59/59 21/60/60
f 23/61/61 22/62/62 11/63/63
f 23/64/64 24/65/65 22/66/66
f 25/67/67 22/68/68 11/69/69
f 25/70/70 26/71/71 22/72/72
f 27/73/73 29/74/74 28/75/75
f 27/76/76 30/77/77 29/78/78
f 31/79/79 26/80/80 25/81/81
f 31/82/82 32/83/83 26/84/84
f 28/85/85 32/86/86 31/87/87
f 28/88/88 29/89/89 32/90/90
