o Default
v 0.5 0 0
v 0.5 2 0
v 0.5 2 -1
v 0.5 0 -1
v -0.5 2 -1
v -0.5 0 -1
v -0.5 2 0
v -0.5 0 0
vt 0.25 0
vt 0.5 1
vt 0.25 1
vt 0.25 0
vt 0.5 0
vt 0.5 1
vt 0.75 0
vt 1 1
vt 0.75 1
vt 0.75 0
vt 1 0
vt 1 1
vt 0 0
vt 0.25 1
vt 0 1
vt 0 0
vt 0.25 0
vt 0.25 1
vt 0.75 0
vt 1 1
vt 0.75 1
vt 0.75 0
vt 1 0
vt 1 1
vt 0.5 0.5
vt 0.75 0
vt 0.75 0.5
vt 0.5 0.5
vt 0.5 0
vt 0.75 0
vn 0.8944271909999159 0 0.44721359549995815
vn 0.8164965809277261 0.4082482904638631 -0.4082482904638629
vn 0.3333333333333333 0.6666666666666666 0.6666666666666666
vn 0.8944271909999159 0 0.44721359549995815
vn 0.447213595499958 0 -0.8944271909999159
vn 0.8164965809277261 0.4082482904638631 -0.4082482904638629
vn 0.447213595499958 0 -0.8944271909999159
vn -0.3333333333333333 0.6666666666666666 -0.6666666666666666
vn 0.8164965809277261 0.4082482904638631 -0.4082482904638629
vn 0.447213595499958 0 -0.8944271909999159
vn -0.8944271909999159 0 -0.4472135954999578
vn -0.3333333333333333 0.6666666666666666 -0.6666666666666666
vn -0.8944271909999159 0 -0.4472135954999578
vn -0.8164965809277261 0.4082482904638631 0.4082482904638632
vn -0.3333333333333333 0.6666666666666666 -0.6666666666666666
vn -0.8944271909999159 0 -0.4472135954999578
vn -0.4472135954999579 0 0.8944271909999159
vn -0.8164965809277261 0.4082482904638631 0.4082482904638632
vn -0.4472135954999579 0 0.8944271909999159
vn 0.3333333333333333 0.6666666666666666 0.6666666666666666
vn -0.8164965809277261 0.4082482904638631 0.4082482904638632
vn -0.4472135954999579 0 0.8944271909999159
vn 0.8944271909999159 0 0.44721359549995815
vn 0.3333333333333333 0.6666666666666666 0.6666666666666666
vn 0.3333333333333333 0.6666666666666666 0.6666666666666666
vn -0.3333333333333333 0.6666666666666666 -0.6666666666666666
vn -0.8164965809277261 0.4082482904638631 0.4082482904638632
vn 0.3333333333333333 0.6666666666666666 0.6666666666666666
vn 0.8164965809277261 0.4082482904638631 -0.4082482904638629
vn -0.3333333333333333 0.6666666666666666 -0.6666666666666666
g Scene
f 1/1/1 3/2/2 2/3/3
f 1/4/4 4/5/5 3/6/6
f 4/7/7 5/8/8 3/9/9
f 4/10/10 6/11/11 5/12/12
f 6/13/13 7/14/14 5/15/15
f 6/16/16 8/17/17 7/18/18
f 8/19/19 2/20/20 7/21/21
f 8/22/22 1/23/23 2/24/24
f 2/25/25 5/26/26 7/27/27
f 2/28/28 3/29/29 5/30/30
