o Default
v -1 0 0
v -1 2 0
v 0 2 1
v 0 0 1
v 0 2 -1
v 1 2 0
vt 0 0
vt 0.3333333333333333 1
vt 0 1
vt 0 0
vt 0.3333333333333333 0
vt 0.3333333333333333 1
vt 0.6666666666666666 0.5
vt 1 1
vt 0.6666666666666666 1
vt 0.6666666666666666 0.5
vt 1 0.5
vt 1 1
vn -0.7071067811865476 0 0.7071067811865476
vn -0.4999823244106645 0.7071067803028408 0.5000176762142104
vn -0.500008837872806 0.707094282326036 0.500008837872806
vn -0.7071067811865476 0 0.7071067811865476
vn -0.7071067811865476 0 0.7071067811865476
vn -0.4999823244106645 0.7071067803028408 0.5000176762142104
vn -0.4999823244106645 0.7071067803028408 0.5000176762142104
vn 0.000024997500030148592 0.9999999993751251 0.000024997500030142344
vn -0.500008837872806 0.707094282326036 0.500008837872806
vn -0.4999823244106645 0.7071067803028408 0.5000176762142104
vn 0.00007499250009044578 0.9999999968756251 0.000024997499905173597
vn 0.000024997500030148592 0.9999999993751251 0.000024997500030142344
g Scene
f 1/1/1 3/2/2 2/3/3
f 1/4/4 4/5/5 3/6/6
f 3/7/7 5/8/8 2/9/9
f 3/10/10 6/11/11 5/12/12
