mtllib material.mtl
o Default
v -1 0 1
v -2.5 0 0
v -1.5 0 -1
v 0 0 0
v 0 -2 0
v 0 0 0
v -1.5 -2 -1
v -2.5 -2 0
v -1 -2 1
v -1 0 1
vt 0.5 0.5
vt 0.75 1
vt 0.5 1
vt 0.5 0.5
vt 0.75 0.5
vt 0.75 1
vt 0.25 0
vt 0.5 1
vt 0.25 1
vt 0.25 0
vt 0.5 0
vt 0.5 1
vt 0.75 0
vt 1 1
vt 0.75 1
vt 0.75 0
vt 1 0
vt 1 1
vt 0.75 0
vt 1 1
vt 0.75 1
vt 0.75 0
vt 1 0
vt 1 1
vt 0 0
vt 0.25 1
vt 0 1
vt 0 0
vt 0.25 0
vt 0.25 1
vn 0.00003999600013921344 0.99999999840032 0.00003999599993925346
vn 0.1286376029356694 0.6393938491182248 -0.7580421312966358
vn -0.8621382564612984 0.4378839674758696 -0.25490244756271785
vn 0.00003999600013921344 0.99999999840032 0.00003999599993925346
vn 0.00003999600013921344 0.99999999840032 0.00003999599993925346
vn 0.1286376029356694 0.6393938491182248 -0.7580421312966358
vn 0.8847299795673497 3.376662301904216e-10 -0.46610391894378744
vn 0.1286376029356694 0.6393938491182248 -0.7580421312966358
vn 0.958959620448948 0 0.2835426711244879
vn 0.8847299795673497 3.376662301904216e-10 -0.46610391894378744
vn -0.3573724374229605 2.882586974073738e-10 -0.9339619590595604
vn 0.1286376029356694 0.6393938491182248 -0.7580421312966358
vn -0.3573724374229605 2.882586974073738e-10 -0.9339619590595604
vn -0.8621382564612984 0.4378839674758696 -0.25490244756271785
vn 0.1286376029356694 0.6393938491182248 -0.7580421312966358
vn -0.3573724374229605 2.882586974073738e-10 -0.9339619590595604
vn -0.8847299798741645 7.681079045107091e-10 0.4661039183614104
vn -0.8621382564612984 0.4378839674758696 -0.25490244756271785
vn 0.3573724365365848 0 0.9339619593987245
vn 0.958959620448948 0 0.2835426711244879
vn -0.16726749573688532 2.8825869857392707e-10 0.9859115502264445
vn 0.3573724365365848 0 0.9339619593987245
vn 0.8847299795673497 3.376662301904216e-10 -0.46610391894378744
vn 0.958959620448948 0 0.2835426711244879
vn -0.8847299798741645 7.681079045107091e-10 0.4661039183614104
vn -0.16726749573688532 2.8825869857392707e-10 0.9859115502264445
vn -0.8621382564612984 0.4378839674758696 -0.25490244756271785
vn -0.8847299798741645 7.681079045107091e-10 0.4661039183614104
vn 0.3573724365365848 0 0.9339619593987245
vn -0.16726749573688532 2.8825869857392707e-10 0.9859115502264445
g Scene
f 1/1/1 3/2/2 2/3/3
f 1/4/4 4/5/5 3/6/6
f 5/7/7 3/8/8 6/9/9
f 5/10/10 7/11/11 3/12/12
f 7/13/13 2/14/14 3/15/15
f 7/16/16 8/17/17 2/18/18
f 9/19/19 6/20/20 10/21/21
f 9/22/22 5/23/23 6/24/24
f 8/25/25 10/26/26 2/27/27
f 8/28/28 9/29/29 10/30/30
