mtllib material.mtl
o Default
v 5 -2 1
v 5 1 1
v 5 1 0
v 5 -2 0
v 5 -2 2
v 5 1 2
v 4 1 2
v 3 1 2
v 3 1 1
v 4 1 1
v 5 1 2
v 4 1 2
v 4 1 1
v 5 1 1
v 4 1 0
v 5 1 0
v 3 1 0
v 4 1 0
vt 0.3 0.09999999999999998
vt 0.35 0.25
vt 0.3 0.25
vt 0.3 0.09999999999999998
vt 0.35 0.09999999999999998
vt 0.35 0.25
vt 0.3 0.09999999999999998
vt 0.35 0.25
vt 0.3 0.25
vt 0.3 0.09999999999999998
vt 0.35 0.09999999999999998
vt 0.35 0.25
vt 0.05 0.19999999999999996
vt 0.1 0.25
vt 0.05 0.25
vt 0.05 0.19999999999999996
vt 0.1 0.19999999999999996
vt 0.1 0.25
vt 0.05 0.050000000000000044
vt 0.1 0.09999999999999998
vt 0.05 0.09999999999999998
vt 0.05 0.050000000000000044
vt 0.1 0.050000000000000044
vt 0.1 0.09999999999999998
vt 0.2 0.050000000000000044
vt 0.25 0.09999999999999998
vt 0.2 0.09999999999999998
vt 0.2 0.050000000000000044
vt 0.25 0.050000000000000044
vt 0.25 0.09999999999999998
vt 0.2 0.19999999999999996
vt 0.25 0.25
vt 0.2 0.25
vt 0.2 0.19999999999999996
vt 0.25 0.19999999999999996
vt 0.25 0.25
vn 1 0 0
vn 1 0 0
vn 1 0 0
vn 1 0 0
vn 1 0 0
vn 1 0 0
vn 1 0 0
vn 1 0 0
vn 1 0 0
vn 1 0 0
vn 1 0 0
vn 1 0 0
vn 0.00009998999980817563 0.9999999950010001 -4.998999521534778e-13
vn 0.0000999899998081756 0.9999999950009999 -3.332666347689851e-13
vn 0.00009998999980817563 0.9999999950010001 -4.998999521534778e-13
vn 0.00009998999980817563 0.9999999950010001 -4.998999521534778e-13
vn 0.0000999899998081756 0.9999999950009999 -1.6663331738449254e-13
vn 0.0000999899998081756 0.9999999950009999 -3.332666347689851e-13
vn 0.00009998999980817563 0.9999999950010001 -4.998999521534778e-13
vn 0.0000999899998081756 0.9999999950009999 -3.332666347689851e-13
vn 0.00009998999980817563 0.9999999950010001 -4.998999521534778e-13
vn 0.00009998999980817563 0.9999999950010001 -4.998999521534778e-13
vn 0.0000999899998081756 0.9999999950009999 -1.6663331738449254e-13
vn 0.0000999899998081756 0.9999999950009999 -3.332666347689851e-13
vn 0.0000999899998081756 0.9999999950009999 -1.6663331738449254e-13
vn 0.00009998999980817563 0.9999999950010001 0
vn 0.0000999899998081756 0.9999999950009999 -3.332666347689851e-13
vn 0.0000999899998081756 0.9999999950009999 -1.6663331738449254e-13
vn 0.00009998999980817563 0.9999999950010001 0
vn 0.00009998999980817563 0.9999999950010001 0
vn 0.0000999899998081756 0.9999999950009999 -1.6663331738449254e-13
vn 0.00009998999980817563 0.9999999950010001 0
vn 0.0000999899998081756 0.9999999950009999 -3.332666347689851e-13
vn 0.0000999899998081756 0.9999999950009999 -1.6663331738449254e-13
vn 0.00009998999980817563 0.9999999950010001 0
vn 0.00009998999980817563 0.9999999950010001 0
g Scene
f 1/1/1 3/2/2 2/3/3
f 1/4/4 4/5/5 3/6/6
f 5/7/7 2/8/8 6/9/9
f 5/10/10 1/11/11 2/12/12
f 7/13/13 9/14/14 8/15/15
f 7/16/16 10/17/17 9/18/18
f 11/19/19 13/20/20 12/21/21
f 11/22/22 14/23/23 13/24/24
f 14/25/25 15/26/26 13/27/27
f 14/28/28 16/29/29 15/30/30
f 10/31/31 17/32/32 9/33/33
f 10/34/34 18/35/35 17/36/36
