o Default
v -0.5 0 1
v -0.5 1 1
v 0.5 1 1
v 0.5 0 1
v 0.5 0 -1
v 0.5 1 -1
v -0.5 1 -1
v -0.5 0 -1
v -0.5 1 0
v -0.5 0 0
v 0.5 1 0
v 0.5 0 0
vt 0 0.75
vt 0.16666666666666666 1
vt 0 1
vt 0 0.75
vt 0.16666666666666666 0.75
vt 0.16666666666666666 1
vt 0 0.75
vt 0.16666666666666666 1
vt 0 1
vt 0 0.75
vt 0.16666666666666666 0.75
vt 0.16666666666666666 1
vt 0.16666666666666666 0.75
vt 0.3333333333333333 1
vt 0.16666666666666666 1
vt 0.16666666666666666 0.75
vt 0.3333333333333333 0.75
vt 0.3333333333333333 1
vt 0.3333333333333333 0.75
vt 0.5 1
vt 0.3333333333333333 1
vt 0.3333333333333333 0.75
vt 0.5 0.75
vt 0.5 1
vt 0.3333333333333333 0.75
vt 0.5 1
vt 0.3333333333333333 1
vt 0.3333333333333333 0.75
vt 0.5 0.75
vt 0.5 1
vt 0.16666666666666666 0.75
vt 0.3333333333333333 1
vt 0.16666666666666666 1
vt 0.16666666666666666 0.75
vt 0.3333333333333333 0.75
vt 0.3333333333333333 1
vt 0.16666666666666666 0.75
vt 0.3333333333333333 1
vt 0.16666666666666666 1
vt 0.16666666666666666 0.75
vt 0.3333333333333333 0.75
vt 0.3333333333333333 1
vt 0.3333333333333333 0.75
vt 0.5 1
vt 0.3333333333333333 1
vt 0.3333333333333333 0.75
vt 0.5 0.75
vt 0.5 1
vn -0.4472135954999579 0 0.8944271909999159
vn 0.3333518500153743 0.6666703690125009 0.6666537055863886
vn -0.8164965809277261 0.4082482904638631 0.40824829046386296
vn -0.4472135954999579 0 0.8944271909999159
vn 0.8944271905527471 -1.1179780117180933e-9 0.4472135963942957
vn 0.3333518500153743 0.6666703690125009 0.6666537055863886
vn 0.4472135954999579 0 -0.8944271909999159
vn -0.3333222232870599 0.6666777762963847 -0.6666611118518008
vn 0.8165033844705519 0.4082516907044853 -0.40823128271246356
vn 0.4472135954999579 0 -0.8944271909999159
vn -0.8944271909999159 0 -0.4472135954999578
vn -0.3333222232870599 0.6666777762963847 -0.6666611118518008
vn -0.8944271909999159 0 -0.4472135954999578
vn -0.7070949973502455 0.7071185647282855 -0.000011784130873287885
vn -0.3333222232870599 0.6666777762963847 -0.6666611118518008
vn -0.8944271909999159 0 -0.4472135954999578
vn -1 0 -3.700743415417188e-17
vn -0.7070949973502455 0.7071185647282855 -0.000011784130873287885
vn -1 0 -3.700743415417188e-17
vn -0.8164965809277261 0.4082482904638631 0.40824829046386296
vn -0.7070949973502455 0.7071185647282855 -0.000011784130873287885
vn -1 0 -3.700743415417188e-17
vn -0.4472135954999579 0 0.8944271909999159
vn -0.8164965809277261 0.4082482904638631 0.40824829046386296
vn 0.7071185660048211 0.7070949961718621 1.4751423247134095e-14
vn -0.3333222232870599 0.6666777762963847 -0.6666611118518008
vn -0.7070949973502455 0.7071185647282855 -0.000011784130873287885
vn 0.7071185660048211 0.7070949961718621 1.4751423247134095e-14
vn 0.8165033844705519 0.4082516907044853 -0.40823128271246356
vn -0.3333222232870599 0.6666777762963847 -0.6666611118518008
vn 0.3333518500153743 0.6666703690125009 0.6666537055863886
vn -0.7070949973502455 0.7071185647282855 -0.000011784130873287885
vn -0.8164965809277261 0.4082482904638631 0.40824829046386296
vn 0.3333518500153743 0.6666703690125009 0.6666537055863886
vn 0.7071185660048211 0.7070949961718621 1.4751423247134095e-14
vn -0.7070949973502455 0.7071185647282855 -0.000011784130873287885
vn 0.8944271905527471 -1.1179780117180933e-9 0.4472135963942957
vn 0.7071185660048211 0.7070949961718621 1.4751423247134095e-14
vn 0.3333518500153743 0.6666703690125009 0.6666537055863886
vn 0.8944271905527471 -1.1179780117180933e-9 0.4472135963942957
vn 1 -1.6665832218676834e-9 -8.33291647941276e-10
vn 0.7071185660048211 0.7070949961718621 1.4751423247134095e-14
vn 1 -1.6665832218676834e-9 -8.33291647941276e-10
vn 0.8165033844705519 0.4082516907044853 -0.40823128271246356
vn 0.7071185660048211 0.7070949961718621 1.4751423247134095e-14
vn 1 -1.6665832218676834e-9 -8.33291647941276e-10
vn 0.4472135954999579 0 -0.8944271909999159
vn 0.8165033844705519 0.4082516907044853 -0.40823128271246356
g Scene
f 1/1/1 3/2/2 2/3/3
f 1/4/4 4/5/5 3/6/6
f 5/7/7 7/8/8 6/9/9
f 5/10/10 8/11/11 7/12/12
f 8/13/13 9/14/14 7/15/15
f 8/16/16 10/17/17 9/18/18
f 10/19/19 2/20/20 9/21/21
f 10/22/22 1/23/23 2/24/24
f 11/25/25 7/26/26 9/27/27
f 11/28/28 6/29/29 7/30/30
f 3/31/31 9/32/32 2/33/33
f 3/34/34 11/35/35 9/36/36
f 4/37/37 11/38/38 3/39/39
f 4/40/40 12/41/41 11/42/42
f 12/43/43 6/44/44 11/45/45
f 12/46/46 5/47/47 6/48/48
