o Default
v -5 0 -2
v -5 1 -2
v -5 1 -1
v -5 0 -1
v -5 0 -3
v -5 1 -3
v -4 0 -3
v -4 1 -3
v -4 0 -4
v -4 1 -4
v -3 0 -4
v -3 1 -4
v -2 0 -4
v -2 1 -4
v -1 0 -4
v -1 1 -4
v 0 0 -4
v 0 1 -4
v 1 0 -4
v 1 1 -4
v 2 0 -4
v 2 1 -4
v 3 0 -4
v 3 1 -4
v 4 0 -4
v 4 1 -4
v 4 0 -3
v 4 1 -3
v 5 0 -3
v 5 1 -3
v 5 0 -2
v 5 1 -2
v 5 0 -1
v 5 1 -1
v 4 0 -1
v 4 1 -1
v 4 0 0
v 4 1 0
v 3 0 0
v 3 1 0
v 2 0 0
v 2 1 0
v 1 0 0
v 1 1 0
v 0 0 0
v 0 1 0
v -1 0 0
v -1 1 0
v -3 0 0
v -3 1 0
v -2 1 0
v -2 0 0
v -4 0 0
v -4 1 0
v -4 0 -1
v -4 1 -1
v -3 0.5 0
v -4 0.5 0
v -4 0.5 -1
v -3 0.5 -1
v 4 0.5 0
v 3 0.5 0
v 3 0.5 -1
v 4 0.5 -1
v 5 0.5 -1
v 4 0.5 -2
v 5 0.5 -2
v 4 0.5 -3
v 5 0.5 -3
v 3 0.5 -3
v 3 0.5 -4
v 4 0.5 -4
v -3 0.5 -3
v -4 0.5 -3
v -4 0.5 -4
v -3 0.5 -4
v -4 0.5 -2
v -5 0.5 -2
v -5 0.5 -3
v -5 0.5 -1
v -3 0.5 -2
v 3 0.5 -2
v -2 0.5 0
v -2 0.5 -1
v -1 0.5 0
v -1 0.5 -1
v 0 0.5 0
v 0 0.5 -1
v 1 0.5 0
v 1 0.5 -1
v 2 0.5 0
v 2 0.5 -1
v 2 0.5 -3
v 2 0.5 -4
v 1 0.5 -3
v 1 0.5 -4
v 0 0.5 -3
v 0 0.5 -4
v -1 0.5 -3
v -1 0.5 -4
v -2 0.5 -3
v -2 0.5 -4
vt 0.128 0.5840000000000001
vt 0.16 0.616
vt 0.128 0.616
vt 0.128 0.5840000000000001
vt 0.16 0.5840000000000001
vt 0.16 0.616
vt 0.128 0.5840000000000001
vt 0.16 0.616
vt 0.128 0.616
vt 0.128 0.5840000000000001
vt 0.16 0.5840000000000001
vt 0.16 0.616
vt 0.128 0.5840000000000001
vt 0.16 0.616
vt 0.128 0.616
vt 0.128 0.5840000000000001
vt 0.16 0.5840000000000001
vt 0.16 0.616
vt 0.128 0.5840000000000001
vt 0.16 0.616
vt 0.128 0.616
vt 0.128 0.5840000000000001
vt 0.16 0.5840000000000001
vt 0.16 0.616
vt 0.128 0.5840000000000001
vt 0.16 0.616
vt 0.128 0.616
vt 0.128 0.5840000000000001
vt 0.16 0.5840000000000001
vt 0.16 0.616
vt 0.128 0.5840000000000001
vt 0.16 0.616
vt 0.128 0.616
vt 0.128 0.5840000000000001
vt 0.16 0.5840000000000001
vt 0.16 0.616
vt 0.128 0.5840000000000001
vt 0.16 0.616
vt 0.128 0.616
vt 0.128 0.5840000000000001
vt 0.16 0.5840000000000001
vt 0.16 0.616
vt 0.128 0.5840000000000001
vt 0.16 0.616
vt 0.128 0.616
vt 0.128 0.5840000000000001
vt 0.16 0.5840000000000001
vt 0.16 0.616
vt 0.128 0.5840000000000001
vt 0.16 0.616
vt 0.128 0.616
vt 0.128 0.5840000000000001
vt 0.16 0.5840000000000001
vt 0.16 0.616
vt 0.128 0.5840000000000001
vt 0.16 0.616
vt 0.128 0.616
vt 0.128 0.5840000000000001
vt 0.16 0.5840000000000001
vt 0.16 0.616
vt 0.128 0.5840000000000001
vt 0.16 0.616
vt 0.128 0.616
vt 0.128 0.5840000000000001
vt 0.16 0.5840000000000001
vt 0.16 0.616
vt 0.128 0.5840000000000001
vt 0.16 0.616
vt 0.128 0.616
vt 0.128 0.5840000000000001
vt 0.16 0.5840000000000001
vt 0.16 0.616
vt 0.128 0.5840000000000001
vt 0.16 0.616
vt 0.128 0.616
vt 0.128 0.5840000000000001
vt 0.16 0.5840000000000001
vt 0.16 0.616
vt 0.128 0.5840000000000001
vt 0.16 0.616
vt 0.128 0.616
vt 0.128 0.5840000000000001
vt 0.16 0.5840000000000001
vt 0.16 0.616
vt 0.128 0.5840000000000001
vt 0.16 0.616
vt 0.128 0.616
vt 0.128 0.5840000000000001
vt 0.16 0.5840000000000001
vt 0.16 0.616
vt 0.128 0.5840000000000001
vt 0.16 0.616
vt 0.128 0.616
vt 0.128 0.5840000000000001
vt 0.16 0.5840000000000001
vt 0.16 0.616
vt 0.128 0.5840000000000001
vt 0.16 0.616
vt 0.128 0.616
vt 0.128 0.5840000000000001
vt 0.16 0.5840000000000001
vt 0.16 0.616
vt 0.128 0.5840000000000001
vt 0.16 0.616
vt 0.128 0.616
vt 0.128 0.5840000000000001
vt 0.16 0.5840000000000001
vt 0.16 0.616
vt 0.128 0.5840000000000001
vt 0.16 0.616
vt 0.128 0.616
vt 0.128 0.5840000000000001
vt 0.16 0.5840000000000001
vt 0.16 0.616
vt 0.128 0.5840000000000001
vt 0.16 0.616
vt 0.128 0.616
vt 0.128 0.5840000000000001
vt 0.16 0.5840000000000001
vt 0.16 0.616
vt 0.128 0.5840000000000001
vt 0.16 0.616
vt 0.128 0.616
vt 0.128 0.5840000000000001
vt 0.16 0.5840000000000001
vt 0.16 0.616
vt 0.128 0.5840000000000001
vt 0.16 0.616
vt 0.128 0.616
vt 0.128 0.5840000000000001
vt 0.16 0.5840000000000001
vt 0.16 0.616
vt 0.128 0.5840000000000001
vt 0.16 0.616
vt 0.128 0.616
vt 0.128 0.5840000000000001
vt 0.16 0.5840000000000001
vt 0.16 0.616
vt 0.128 0.5840000000000001
vt 0.16 0.616
vt 0.128 0.616
vt 0.128 0.5840000000000001
vt 0.16 0.5840000000000001
vt 0.16 0.616
vt 0.128 0.5840000000000001
vt 0.16 0.616
vt 0.128 0.616
vt 0.128 0.5840000000000001
vt 0.16 0.5840000000000001
vt 0.16 0.616
vt 0.128 0.5840000000000001
vt 0.16 0.616
vt 0.128 0.616
vt 0.128 0.5840000000000001
vt 0.16 0.5840000000000001
vt 0.16 0.616
vt 0.128 0.5840000000000001
vt 0.16 0.616
vt 0.128 0.616
vt 0.128 0.5840000000000001
vt 0.16 0.5840000000000001
vt 0.16 0.616
vt 0.128 0.5840000000000001
vt 0.16 0.616
vt 0.128 0.616
vt 0.128 0.5840000000000001
vt 0.16 0.5840000000000001
vt 0.16 0.616
vt 0 0.616
vt 0.032 0.648
vt 0 0.648
vt 0 0.616
vt 0.032 0.616
vt 0.032 0.648
vt 0 0.648
vt 0.032 0.616
vt 0.032 0.648
vt 0 0.648
vt 0 0.616
vt 0.032 0.616
vt 0 0.648
vt 0.032 0.616
vt 0.032 0.648
vt 0 0.648
vt 0 0.616
vt 0.032 0.616
vt 0.032 0.648
vt 0 0.616
vt 0.032 0.616
vt 0.032 0.648
vt 0 0.648
vt 0 0.616
vt 0.032 0.648
vt 0 0.616
vt 0.032 0.616
vt 0.032 0.648
vt 0 0.648
vt 0 0.616
vt 0.032 0.616
vt 0 0.648
vt 0 0.616
vt 0.032 0.616
vt 0.032 0.648
vt 0 0.648
vt 0.032 0.616
vt 0 0.648
vt 0 0.616
vt 0.032 0.616
vt 0.032 0.648
vt 0 0.648
vt 0 0.616
vt 0.032 0.648
vt 0 0.648
vt 0 0.616
vt 0.032 0.616
vt 0.032 0.648
vt 0.064 0.648
vt 0.096 0.616
vt 0.096 0.648
vt 0.064 0.648
vt 0.064 0.616
vt 0.096 0.616
vt 0.096 0.648
vt 0.064 0.616
vt 0.096 0.616
vt 0.096 0.648
vt 0.064 0.648
vt 0.064 0.616
vt 0.064 0.616
vt 0.096 0.648
vt 0.064 0.648
vt 0.064 0.616
vt 0.096 0.616
vt 0.096 0.648
vt 0.096 0.616
vt 0.064 0.648
vt 0.064 0.616
vt 0.096 0.616
vt 0.096 0.648
vt 0.064 0.648
vt 0.128 0.648
vt 0.16 0.616
vt 0.16 0.648
vt 0.128 0.648
vt 0.128 0.616
vt 0.16 0.616
vt 0.128 0.648
vt 0.16 0.616
vt 0.16 0.648
vt 0.128 0.648
vt 0.128 0.616
vt 0.16 0.616
vt 0.128 0.648
vt 0.16 0.616
vt 0.16 0.648
vt 0.128 0.648
vt 0.128 0.616
vt 0.16 0.616
vt 0.128 0.648
vt 0.16 0.616
vt 0.16 0.648
vt 0.128 0.648
vt 0.128 0.616
vt 0.16 0.616
vt 0.128 0.648
vt 0.16 0.616
vt 0.16 0.648
vt 0.128 0.648
vt 0.128 0.616
vt 0.16 0.616
vt 0.128 0.648
vt 0.16 0.616
vt 0.16 0.648
vt 0.128 0.648
vt 0.128 0.616
vt 0.16 0.616
vt 0.16 0.616
vt 0.128 0.648
vt 0.128 0.616
vt 0.16 0.616
vt 0.16 0.648
vt 0.128 0.648
vt 0.16 0.616
vt 0.128 0.648
vt 0.128 0.616
vt 0.16 0.616
vt 0.16 0.648
vt 0.128 0.648
vt 0.16 0.616
vt 0.128 0.648
vt 0.128 0.616
vt 0.16 0.616
vt 0.16 0.648
vt 0.128 0.648
vt 0.16 0.616
vt 0.128 0.648
vt 0.128 0.616
vt 0.16 0.616
vt 0.16 0.648
vt 0.128 0.648
vt 0.16 0.616
vt 0.128 0.648
vt 0.128 0.616
vt 0.16 0.616
vt 0.16 0.648
vt 0.128 0.648
vt 0.16 0.616
vt 0.128 0.648
vt 0.128 0.616
vt 0.16 0.616
vt 0.16 0.648
vt 0.128 0.648
vn -1 0 0
vn -0.8944271909999159 0 0.4472135954999579
vn -1 0 0
vn -1 0 0
vn -0.4472135954999579 0 0.8944271909999159
vn -0.8944271909999159 0 0.4472135954999579
vn -0.8944271909999159 0 -0.4472135954999579
vn -1 0 0
vn -0.4472135954999579 0 -0.8944271909999159
vn -0.8944271909999159 0 -0.4472135954999579
vn -1 0 0
vn -1 0 0
vn -0.4472135954999579 0 -0.8944271909999159
vn -0.4472135954999579 0 -0.8944271909999159
vn -0.8944271909999159 0 -0.4472135954999579
vn -0.4472135954999579 0 -0.8944271909999159
vn -0.8944271909999159 0 -0.4472135954999579
vn -0.4472135954999579 0 -0.8944271909999159
vn -0.8944271909999159 0 -0.4472135954999579
vn -0.8944271909999159 0 -0.4472135954999579
vn -0.4472135954999579 0 -0.8944271909999159
vn -0.8944271909999159 0 -0.4472135954999579
vn -0.4472135954999579 0 -0.8944271909999159
vn -0.8944271909999159 0 -0.4472135954999579
vn 0 0 -1
vn -0.4472135954999579 0 -0.8944271909999159
vn 0 0 -1
vn 0 0 -1
vn -0.8944271909999159 0 -0.4472135954999579
vn -0.4472135954999579 0 -0.8944271909999159
vn 0 0 -1
vn 0 0 -1
vn 0 0 -1
vn 0 0 -1
vn 0 0 -1
vn 0 0 -1
vn 0 0 -1
vn 0 0 -1
vn 0 0 -1
vn 0 0 -1
vn 0 0 -1
vn 0 0 -1
vn 0 0 -1
vn 0 0 -1
vn 0 0 -1
vn 0 0 -1
vn 0 0 -1
vn 0 0 -1
vn 0 0 -1
vn 0 0 -1
vn 0 0 -1
vn 0 0 -1
vn 0 0 -1
vn 0 0 -1
vn 0 0 -1
vn 0 0 -1
vn 0 0 -1
vn 0 0 -1
vn 0 0 -1
vn 0 0 -1
vn 0 0 -1
vn 0 0 -1
vn 0 0 -1
vn 0 0 -1
vn 0 0 -1
vn 0 0 -1
vn 0.4472135954999579 0 -0.8944271909999159
vn 0 0 -1
vn 0.8944271909999159 0 -0.4472135954999579
vn 0.4472135954999579 0 -0.8944271909999159
vn 0 0 -1
vn 0 0 -1
vn 0.8944271909999159 0 -0.4472135954999579
vn 0.8944271909999159 0 -0.4472135954999579
vn 0.4472135954999579 0 -0.8944271909999159
vn 0.8944271909999159 0 -0.4472135954999579
vn 0.4472135954999579 0 -0.8944271909999159
vn 0.8944271909999159 0 -0.4472135954999579
vn 0.4472135954999579 0 -0.8944271909999159
vn 0.4472135954999579 0 -0.8944271909999159
vn 0.8944271909999159 0 -0.4472135954999579
vn 0.4472135954999579 0 -0.8944271909999159
vn 0.8944271909999159 0 -0.4472135954999579
vn 0.4472135954999579 0 -0.8944271909999159
vn 1 0 0
vn 0.8944271909999159 0 -0.4472135954999579
vn 1 0 0
vn 1 0 0
vn 0.4472135954999579 0 -0.8944271909999159
vn 0.8944271909999159 0 -0.4472135954999579
vn 0.8944271909999159 0 0.4472135954999579
vn 1 0 0
vn 0.4472135954999579 0 0.8944271909999159
vn 0.8944271909999159 0 0.4472135954999579
vn 1 0 0
vn 1 0 0
vn 0.4472135954999579 0 0.8944271909999159
vn 0.4472135954999579 0 0.8944271909999159
vn 0.8944271909999159 0 0.4472135954999579
vn 0.4472135954999579 0 0.8944271909999159
vn 0.8944271909999159 0 0.4472135954999579
vn 0.4472135954999579 0 0.8944271909999159
vn 0.8944271909999159 0 0.4472135954999579
vn 0.8944271909999159 0 0.4472135954999579
vn 0.4472135954999579 0 0.8944271909999159
vn 0.8944271909999159 0 0.4472135954999579
vn 0.4472135954999579 0 0.8944271909999159
vn 0.8944271909999159 0 0.4472135954999579
vn 0 0 1
vn 0.4472135954999579 0 0.8944271909999159
vn 0 0 1
vn 0 0 1
vn 0.8944271909999159 0 0.4472135954999579
vn 0.4472135954999579 0 0.8944271909999159
vn 0 0 1
vn 0 0 1
vn 0 0 1
vn 0 0 1
vn 0 0 1
vn 0 0 1
vn 0 0 1
vn 0 0 1
vn 0 0 1
vn 0 0 1
vn 0 0 1
vn 0 0 1
vn 0 0 1
vn 0 0 1
vn 0 0 1
vn 0 0 1
vn 0 0 1
vn 0 0 1
vn 0 0 1
vn 0 0 1
vn 0 0 1
vn 0 0 1
vn 0 0 1
vn 0 0 1
vn 0 0 1
vn 0 0 1
vn 0 0 1
vn 0 0 1
vn 0 0 1
vn 0 0 1
vn 0 0 1
vn 0 0 1
vn 0 0 1
vn 0 0 1
vn 0 0 1
vn 0 0 1
vn -0.4472135954999579 0 0.8944271909999159
vn 0 0 1
vn -0.8944271909999159 0 0.4472135954999579
vn -0.4472135954999579 0 0.8944271909999159
vn 0 0 1
vn 0 0 1
vn -0.8944271909999159 0 0.4472135954999579
vn -0.8944271909999159 0 0.4472135954999579
vn -0.4472135954999579 0 0.8944271909999159
vn -0.8944271909999159 0 0.4472135954999579
vn -0.4472135954999579 0 0.8944271909999159
vn -0.8944271909999159 0 0.4472135954999579
vn -0.4472135954999579 0 0.8944271909999159
vn -0.4472135954999579 0 0.8944271909999159
vn -0.8944271909999159 0 0.4472135954999579
vn -0.4472135954999579 0 0.8944271909999159
vn -0.8944271909999159 0 0.4472135954999579
vn -0.4472135954999579 0 0.8944271909999159
vn 0.00006665999994616892 0.9999999977782221 -3.332666351392073e-13
vn 0.0000799919998065525 0.9999999960008 -0.00003999599980330625
vn 0.00009998999980817563 0.9999999950010001 -4.998999521534778e-13
vn 0.00006665999994616892 0.9999999977782221 -3.332666351392073e-13
vn 0.000039995999903276245 0.9999999990002 -0.000019997999901653123
vn 0.0000799919998065525 0.9999999960008 -0.00003999599980330625
vn 0.00009998999980817563 0.9999999950010001 -4.998999521534778e-13
vn 0.00004999500009153158 0.9999999987502501 -2.524354906171676e-29
vn -0.00003333000008416224 0.9999999994445555 1.6663332552568365e-13
vn 0.00009998999980817563 0.9999999950010001 -4.998999521534778e-13
vn 0.0000499950000290503 0.9999999975005 0.000049995000029050315
vn 0.00004999500009153158 0.9999999987502501 -2.524354906171676e-29
vn 0.000049995000029050315 0.9999999975005001 0.00004999499977910034
vn 0.00003333000001011038 0.999999998889111 0.00003332999992679372
vn 0.0000499950000290503 0.9999999975005 0.000049995000029050315
vn 0.000049995000029050315 0.9999999975005001 0.00004999499977910034
vn 0.0000999899998081756 0.9999999950009999 -1.6663331738449254e-13
vn 0.00003333000001011038 0.999999998889111 0.00003332999992679372
vn 0.0000999899998081756 0.9999999950009999 -1.6663331738449254e-13
vn 0.000059993999904899364 0.9999999980004001 -0.000019997999901653123
vn 0.00003333000001011038 0.999999998889111 0.00003332999992679372
vn 0.0000999899998081756 0.9999999950009999 -1.6663331738449254e-13
vn 0.00009998999980817563 0.9999999950010001 0
vn 0.000059993999904899364 0.9999999980004001 -0.000019997999901653123
vn 0.000059993999904899364 0.9999999980004001 -0.000019997999901653123
vn 0.00003332999984349372 0.999999998889111 -0.00003332999984349372
vn 0 1 0
vn 0.000059993999904899364 0.9999999980004001 -0.000019997999901653123
vn 0.00009998999930832562 0.9999999900020001 -0.00009998999930832562
vn 0.00003332999984349372 0.999999998889111 -0.00003332999984349372
vn 0.00004999500009153158 0.9999999987502501 -1.2497498850693195e-13
vn 0.00009998999980817563 0.9999999950010001 -4.998999521534778e-13
vn 0.000049995000029050315 0.9999999975005001 0.00004999499990407533
vn 0.00004999500009153158 0.9999999987502501 -1.2497498850693195e-13
vn -0.00003333000008416224 0.9999999994445555 1.6663332552568365e-13
vn 0.00009998999980817563 0.9999999950010001 -4.998999521534778e-13
vn 0.00004999499996656905 0.9999999987502499 2.499333239714946e-13
vn 0.000049995000029050315 0.9999999975005001 0.00004999499977910034
vn 0.0000666599998536041 0.9999999972227777 -0.000033329999843493723
vn 0.00004999499996656905 0.9999999987502499 2.499333239714946e-13
vn 0.000049995000029050315 0.9999999975005001 0.00004999499990407533
vn 0.000049995000029050315 0.9999999975005001 0.00004999499977910034
vn 0.0000799919998065525 0.9999999960008 -0.00003999599980330625
vn 0.0000666599998536041 0.9999999972227777 -0.000033329999843493723
vn 0 1 0
vn 0.0000799919998065525 0.9999999960008 -0.00003999599980330625
vn 0.00004999499996656905 0.9999999987502499 2.499333239714946e-13
vn 0.0000666599998536041 0.9999999972227777 -0.000033329999843493723
vn 0.00003333000001011038 0.999999998889111 0.00003333000001011038
vn 0.000049995000029050315 0.9999999975005001 0.00004999499990407533
vn 0.00004999499996656905 0.9999999987502499 2.499333239714946e-13
vn 0.00003333000001011038 0.999999998889111 0.00003333000001011038
vn 0.00004999500009153158 0.9999999987502501 -1.2497498850693195e-13
vn 0.000049995000029050315 0.9999999975005001 0.00004999499990407533
vn 0.000039995999903276245 0.9999999990002 -0.000019997999901653123
vn 0.00004999499996656905 0.9999999987502499 2.499333239714946e-13
vn 0.0000799919998065525 0.9999999960008 -0.00003999599980330625
vn 0.000039995999903276245 0.9999999990002 -0.000019997999901653123
vn 0.00003333000001011038 0.999999998889111 0.00003333000001011038
vn 0.00004999499996656905 0.9999999987502499 2.499333239714946e-13
vn 0.00003333000001011038 0.999999998889111 0.00003332999992679372
vn 0 1 0
vn 0.00003333000001011038 0.999999998889111 0.000033330000176743705
vn 0.00003333000001011038 0.999999998889111 0.00003332999992679372
vn 0.000059993999904899364 0.9999999980004001 -0.000019997999901653123
vn 0 1 0
vn 0.0000499950000290503 0.9999999975005 0.000049995000029050315
vn 0.00003333000001011038 0.999999998889111 0.000033330000176743705
vn 0.00004999500009153158 0.9999999987502501 -2.524354906171676e-29
vn 0.0000499950000290503 0.9999999975005 0.000049995000029050315
vn 0.00003333000001011038 0.999999998889111 0.00003332999992679372
vn 0.00003333000001011038 0.999999998889111 0.000033330000176743705
vn 0 1 0
vn 0.000039995999903276245 0.9999999990002 -0.000019997999901653123
vn 0.00006665999994616892 0.9999999977782221 -3.332666351392073e-13
vn 0 1 0
vn 0 1 0
vn 0.000039995999903276245 0.9999999990002 -0.000019997999901653123
vn 0 1 0
vn 0 1 0
vn 0 1 0
vn 0 1 0
vn 0 1 0
vn 0 1 0
vn 0 1 0
vn 0 1 0
vn 0 1 0
vn 0 1 0
vn 0 1 0
vn 0 1 0
vn 0 1 0
vn 0 1 0
vn 0 1 0
vn 0 1 0
vn 0 1 0
vn 0 1 0
vn -0.000033329999973084465 0.9999999994445555 1.6663332497035036e-13
vn 0 1 0
vn 0 1 0
vn -0.000033329999973084465 0.9999999994445555 1.6663332497035036e-13
vn -0.00006665999994616892 0.9999999977782221 3.3326664253995395e-13
vn 0 1 0
vn -0.00003333000008416224 0.9999999994445555 1.6663332552568365e-13
vn -0.00006665999994616892 0.9999999977782221 3.3326664253995395e-13
vn -0.000033329999973084465 0.9999999994445555 1.6663332497035036e-13
vn -0.00003333000008416224 0.9999999994445555 1.6663332552568365e-13
vn 0.00004999500009153158 0.9999999987502501 -2.524354906171676e-29
vn -0.00006665999994616892 0.9999999977782221 3.3326664253995395e-13
vn 0 1 0
vn 0 1 0
vn 0 1 0
vn 0 1 0
vn 0.00003332999984349372 0.999999998889111 -0.00003332999984349372
vn 0 1 0
vn 0 1 0
vn 0 1 0
vn 0 1 0
vn 0 1 0
vn 0 1 0
vn 0 1 0
vn 0 1 0
vn 0 1 0
vn 0 1 0
vn 0 1 0
vn 0 1 0
vn 0 1 0
vn 0 1 0
vn 0 1 0
vn 0 1 0
vn 0 1 0
vn 0 1 0
vn 0 1 0
vn 0 1 0
vn -0.000033329999973084465 0.9999999994445555 1.6663332497035036e-13
vn -0.00006665999994616892 0.9999999977782221 3.3326664253995395e-13
vn 0 1 0
vn 0 1 0
vn -0.000033329999973084465 0.9999999994445555 1.6663332497035036e-13
vn -0.00006665999994616892 0.9999999977782221 3.3326664253995395e-13
vn -0.00003333000008416224 0.9999999994445555 1.6663332552568365e-13
vn 0.00004999500009153158 0.9999999987502501 -1.2497498850693195e-13
vn -0.00006665999994616892 0.9999999977782221 3.3326664253995395e-13
vn -0.000033329999973084465 0.9999999994445555 1.6663332497035036e-13
vn -0.00003333000008416224 0.9999999994445555 1.6663332552568365e-13
g Scene
f 1/1/1 3/2/2 2/3/3
f 1/4/4 4/5/5 3/6/6
f 5/7/7 2/8/8 6/9/9
f 5/10/10 1/11/11 2/12/12
f 7/13/13 6/14/14 8/15/15
f 7/16/16 5/17/17 6/18/18
f 9/19/19 8/20/20 10/21/21
f 9/22/22 7/23/23 8/24/24
f 11/25/25 10/26/26 12/27/27
f 11/28/28 9/29/29 10/30/30
f 13/31/31 12/32/32 14/33/33
f 13/34/34 11/35/35 12/36/36
f 15/37/37 14/38/38 16/39/39
f 15/40/40 13/41/41 14/42/42
f 17/43/43 16/44/44 18/45/45
f 17/46/46 15/47/47 16/48/48
f 19/49/49 18/50/50 20/51/51
f 19/52/52 17/53/53 18/54/54
f 21/55/55 20/56/56 22/57/57
f 21/58/58 19/59/59 20/60/60
f 23/61/61 22/62/62 24/63/63
f 23/64/64 21/65/65 22/66/66
f 25/67/67 24/68/68 26/69/69
f 25/70/70 23/71/71 24/72/72
f 27/73/73 26/74/74 28/75/75
f 27/76/76 25/77/77 26/78/78
f 29/79/79 28/80/80 30/81/81
f 29/82/82 27/83/83 28/84/84
f 31/85/85 30/86/86 32/87/87
f 31/88/88 29/89/89 30/90/90
f 33/91/91 32/92/92 34/93/93
f 33/94/94 31/95/95 32/96/96
f 35/97/97 34/98/98 36/99/99
f 35/100/100 33/101/101 34/102/102
f 37/103/103 36/104/104 38/105/105
f 37/106/106 35/107/107 36/108/108
f 39/109/109 38/110/110 40/111/111
f 39/112/112 37/113/113 38/114/114
f 41/115/115 40/116/116 42/117/117
f 41/118/118 39/119/119 40/120/120
f 43/121/121 42/122/122 44/123/123
f 43/124/124 41/125/125 42/126/126
f 45/127/127 44/128/128 46/129/129
f 45/130/130 43/131/131 44/132/132
f 47/133/133 46/134/134 48/135/135
f 47/136/136 45/137/137 46/138/138
f 49/139/139 51/140/140 50/141/141
f 49/142/142 52/143/143 51/144/144
f 52/145/145 48/146/146 51/147/147
f 52/148/148 47/149/149 48/150/150
f 53/151/151 50/152/152 54/153/153
f 53/154/154 49/155/155 50/156/156
f 55/157/157 54/158/158 56/159/159
f 55/160/160 53/161/161 54/162/162
f 4/163/163 56/164/164 3/165/165
f 4/166/166 55/167/167 56/168/168
f 57/169/169 59/170/170 58/171/171
f 57/172/172 60/173/173 59/174/174
f 61/175/175 63/176/176 62/177/177
f 61/178/178 64/179/179 63/180/180
f 65/181/181 66/182/182 64/183/183
f 65/184/184 67/185/185 66/186/186
f 67/187/187 68/188/188 66/189/189
f 67/190/190 69/191/191 68/192/192
f 68/193/193 71/194/194 70/195/195
f 68/196/196 72/197/197 71/198/198
f 73/199/199 75/200/200 74/201/201
f 73/202/202 76/203/203 75/204/204
f 77/205/205 79/206/206 78/207/207
f 77/208/208 74/209/209 79/210/210
f 59/211/211 78/212/212 80/213/213
f 59/214/214 77/215/215 78/216/216
f 81/217/217 74/218/218 77/219/219
f 81/220/220 73/221/221 74/222/222
f 60/223/223 77/224/224 59/225/225
f 60/226/226 81/227/227 77/228/228
f 66/229/229 70/230/230 82/231/231
f 66/232/232 68/233/233 70/234/234
f 64/235/235 82/236/236 63/237/237
f 64/238/238 66/239/239 82/240/240
f 83/241/241 60/242/242 57/243/243
f 83/244/244 84/245/245 60/246/246
f 85/247/247 84/248/248 83/249/249
f 85/250/250 86/251/251 84/252/252
f 87/253/253 86/254/254 85/255/255
f 87/256/256 88/257/257 86/258/258
f 89/259/259 88/260/260 87/261/261
f 89/262/262 90/263/263 88/264/264
f 91/265/265 90/266/266 89/267/267
f 91/268/268 92/269/269 90/270/270
f 62/271/271 92/272/272 91/273/273
f 62/274/274 63/275/275 92/276/276
f 70/277/277 94/278/278 93/279/279
f 70/280/280 71/281/281 94/282/282
f 93/283/283 96/284/284 95/285/285
f 93/286/286 94/287/287 96/288/288
f 95/289/289 98/290/290 97/291/291
f 95/292/292 96/293/293 98/294/294
f 97/295/295 100/296/296 99/297/297
f 97/298/298 98/299/299 100/300/300
f 99/301/301 102/302/302 101/303/303
f 99/304/304 100/305/305 102/306/306
f 101/307/307 76/308/308 73/309/309
f 101/310/310 102/311/311 76/312/312
