o Default
v 1 0 1.5
v -1 0 1.5
v -1 0 -1.5
v 1 0 -1.5
v -1 0 1.5
v -1 2 1.5
v -1 2 -1.5
v -1 0 -1.5
vt 0.864 0.552
vt 0.96 0.616
vt 0.864 0.616
vt 0.864 0.552
vt 0.96 0.552
vt 0.96 0.616
vt 0.864 0.6799999999999999
vt 0.96 0.744
vt 0.864 0.744
vt 0.864 0.6799999999999999
vt 0.96 0.6799999999999999
vt 0.96 0.744
vn 0.00009998999980817563 0.9999999950010001 -4.998999965579578e-13
vn 0.00009998999980817563 0.9999999950010001 -4.998999965579578e-13
vn 0.00009998999980817563 0.9999999950010001 -4.998999965579578e-13
vn 0.00009998999980817563 0.9999999950010001 -4.998999965579578e-13
vn 0.00009998999980817563 0.9999999950010001 -4.998999965579578e-13
vn 0.00009998999980817563 0.9999999950010001 -4.998999965579578e-13
vn 1 0 2.5905203907920316e-16
vn 1 0 2.5905203907920316e-16
vn 1 0 2.5905203907920316e-16
vn 1 0 2.5905203907920316e-16
vn 1 0 2.5905203907920316e-16
vn 1 0 2.5905203907920316e-16
g Scene
f 1/1/1 3/2/2 2/3/3
f 1/4/4 4/5/5 3/6/6
f 5/7/7 7/8/8 6/9/9
f 5/10/10 8/11/11 7/12/12
