o Default
v 0 0 1
v -1 0 1
v -1 0 0
v 0 0 0
v 1 0 1
v 1 0 0
v 0 0 -1
v 1 0 -1
v -1 0 -1
v -1 0 -2
v 0 0 -2
v 1 0 -2
v 1 0 2
v 0 0 2
v -1 0 2
v -2 0 2
v -2 0 1
v -3 0 2
v -3 0 1
v -4 0 2
v -4 0 1
v 2 0 2
v 2 0 1
v 3 0 2
v 3 0 1
v 4 0 2
v 4 0 1
v -4 0 0
v -3 0 0
v -4 0 -1
v -3 0 -1
v -4 0 -2
v -3 0 -2
v -2 0 -1
v -2 0 -2
v -2 0 0
v 2 0 0
v 3 0 0
v 2 0 -1
v 3 0 -1
v 2 0 -2
v 3 0 -2
v 4 0 0
v 4 0 -1
v 4 0 -2
v 5 0 0
v 5 0 -1
v 5 0 1
v -5 0 1
v -5 0 0
v -5 0 -1
vt 0 0.552
vt 0.032 0.5840000000000001
vt 0 0.5840000000000001
vt 0 0.552
vt 0.032 0.552
vt 0.032 0.5840000000000001
vt 0 0.552
vt 0.032 0.5840000000000001
vt 0 0.5840000000000001
vt 0 0.552
vt 0.032 0.552
vt 0.032 0.5840000000000001
vt 0 0.552
vt 0.032 0.5840000000000001
vt 0 0.5840000000000001
vt 0 0.552
vt 0.032 0.552
vt 0.032 0.5840000000000001
vt 0 0.552
vt 0.032 0.5840000000000001
vt 0 0.5840000000000001
vt 0 0.552
vt 0.032 0.552
vt 0.032 0.5840000000000001
vt 0 0.552
vt 0.032 0.5840000000000001
vt 0 0.5840000000000001
vt 0 0.552
vt 0.032 0.552
vt 0.032 0.5840000000000001
vt 0 0.552
vt 0.032 0.5840000000000001
vt 0 0.5840000000000001
vt 0 0.552
vt 0.032 0.552
vt 0.032 0.5840000000000001
vt 0 0.552
vt 0.032 0.5840000000000001
vt 0 0.5840000000000001
vt 0 0.552
vt 0.032 0.552
vt 0.032 0.5840000000000001
vt 0 0.552
vt 0.032 0.5840000000000001
vt 0 0.5840000000000001
vt 0 0.552
vt 0.032 0.552
vt 0.032 0.5840000000000001
vt 0 0.552
vt 0.032 0.5840000000000001
vt 0 0.5840000000000001
vt 0 0.552
vt 0.032 0.552
vt 0.032 0.5840000000000001
vt 0 0.552
vt 0.032 0.5840000000000001
vt 0 0.5840000000000001
vt 0 0.552
vt 0.032 0.552
vt 0.032 0.5840000000000001
vt 0 0.552
vt 0.032 0.5840000000000001
vt 0 0.5840000000000001
vt 0 0.552
vt 0.032 0.552
vt 0.032 0.5840000000000001
vt 0 0.552
vt 0.032 0.5840000000000001
vt 0 0.5840000000000001
vt 0 0.552
vt 0.032 0.552
vt 0.032 0.5840000000000001
vt 0 0.552
vt 0.032 0.5840000000000001
vt 0 0.5840000000000001
vt 0 0.552
vt 0.032 0.552
vt 0.032 0.5840000000000001
vt 0 0.552
vt 0.032 0.5840000000000001
vt 0 0.5840000000000001
vt 0 0.552
vt 0.032 0.552
vt 0.032 0.5840000000000001
vt 0 0.552
vt 0.032 0.5840000000000001
vt 0 0.5840000000000001
vt 0 0.552
vt 0.032 0.552
vt 0.032 0.5840000000000001
vt 0 0.552
vt 0.032 0.5840000000000001
vt 0 0.5840000000000001
vt 0 0.552
vt 0.032 0.552
vt 0.032 0.5840000000000001
vt 0 0.552
vt 0.032 0.5840000000000001
vt 0 0.5840000000000001
vt 0 0.552
vt 0.032 0.552
vt 0.032 0.5840000000000001
vt 0 0.552
vt 0.032 0.5840000000000001
vt 0 0.5840000000000001
vt 0 0.552
vt 0.032 0.552
vt 0.032 0.5840000000000001
vt 0 0.552
vt 0.032 0.5840000000000001
vt 0 0.5840000000000001
vt 0 0.552
vt 0.032 0.552
vt 0.032 0.5840000000000001
vt 0 0.552
vt 0.032 0.5840000000000001
vt 0 0.5840000000000001
vt 0 0.552
vt 0.032 0.552
vt 0.032 0.5840000000000001
vt 0 0.552
vt 0.032 0.5840000000000001
vt 0 0.5840000000000001
vt 0 0.552
vt 0.032 0.552
vt 0.032 0.5840000000000001
vt 0 0.552
vt 0.032 0.5840000000000001
vt 0 0.5840000000000001
vt 0 0.552
vt 0.032 0.552
vt 0.032 0.5840000000000001
vt 0 0.552
vt 0.032 0.5840000000000001
vt 0 0.5840000000000001
vt 0 0.552
vt 0.032 0.552
vt 0.032 0.5840000000000001
vt 0 0.552
vt 0.032 0.5840000000000001
vt 0 0.5840000000000001
vt 0 0.552
vt 0.032 0.552
vt 0.032 0.5840000000000001
vt 0 0.552
vt 0.032 0.5840000000000001
vt 0 0.5840000000000001
vt 0 0.552
vt 0.032 0.552
vt 0.032 0.5840000000000001
vt 0 0.552
vt 0.032 0.5840000000000001
vt 0 0.5840000000000001
vt 0 0.552
vt 0.032 0.552
vt 0.032 0.5840000000000001
vt 0 0.552
vt 0.032 0.5840000000000001
vt 0 0.5840000000000001
vt 0 0.552
vt 0.032 0.552
vt 0.032 0.5840000000000001
vt 0 0.552
vt 0.032 0.5840000000000001
vt 0 0.5840000000000001
vt 0 0.552
vt 0.032 0.552
vt 0.032 0.5840000000000001
vt 0 0.552
vt 0.032 0.5840000000000001
vt 0 0.5840000000000001
vt 0 0.552
vt 0.032 0.552
vt 0.032 0.5840000000000001
vt 0 0.552
vt 0.032 0.5840000000000001
vt 0 0.5840000000000001
vt 0 0.552
vt 0.032 0.552
vt 0.032 0.5840000000000001
vt 0 0.552
vt 0.032 0.5840000000000001
vt 0 0.5840000000000001
vt 0 0.552
vt 0.032 0.552
vt 0.032 0.5840000000000001
vt 0 0.552
vt 0.032 0.5840000000000001
vt 0 0.5840000000000001
vt 0 0.552
vt 0.032 0.552
vt 0.032 0.5840000000000001
vt 0 0.552
vt 0.032 0.5840000000000001
vt 0 0.5840000000000001
vt 0 0.552
vt 0.032 0.552
vt 0.032 0.5840000000000001
vt 0 0.552
vt 0.032 0.5840000000000001
vt 0 0.5840000000000001
vt 0 0.552
vt 0.032 0.552
vt 0.032 0.5840000000000001
vt 0 0.552
vt 0.032 0.5840000000000001
vt 0 0.5840000000000001
vt 0 0.552
vt 0.032 0.552
vt 0.032 0.5840000000000001
vt 0 0.552
vt 0.032 0.5840000000000001
vt 0 0.5840000000000001
vt 0 0.552
vt 0.032 0.552
vt 0.032 0.5840000000000001
vn 0.0000666599998536041 0.9999999972227777 -0.000033330000010127046
vn 0.000033329999968447895 0.9999999993056944 -0.000016665000192515614
vn 0.00003332999991291733 0.9999999993056944 -0.000016664999998121163
vn 0.0000666599998536041 0.9999999972227777 -0.000033330000010127046
vn 0.00003333000001011039 0.999999998889111 0.00003332999992679373
vn 0.000033329999968447895 0.9999999993056944 -0.000016665000192515614
vn 0 1 0
vn 0.00003333000001011039 0.999999998889111 0.00003332999992679373
vn 0.0000666599998536041 0.9999999972227777 -0.000033330000010127046
vn 0 1 0
vn 0.000016664999991170475 0.9999999997222779 0.000016664999991170475
vn 0.00003333000001011039 0.999999998889111 0.00003332999992679373
vn 0.000016664999991170475 0.9999999997222779 0.000016664999991170475
vn 0.000049994999966569044 0.9999999987502499 1.666166714915278e-13
vn 0.00003333000001011039 0.999999998889111 0.00003332999992679373
vn 0.000016664999991170475 0.9999999997222779 0.000016664999991170475
vn 2.2587545373029814e-21 0.9999999999999999 0
vn 0.000049994999966569044 0.9999999987502499 1.666166714915278e-13
vn 0.00003333000001011039 0.999999998889111 0.00003332999992679373
vn -0.0000333300002183979 0.9999999993056944 0.000016665000109198943
vn 0.000033329999968447895 0.9999999993056944 -0.000016665000192515614
vn 0.00003333000001011039 0.999999998889111 0.00003332999992679373
vn 0.000049994999966569044 0.9999999987502499 1.666166714915278e-13
vn -0.0000333300002183979 0.9999999993056944 0.000016665000109198943
vn 0.000049994999966569044 0.9999999987502499 1.666166714915278e-13
vn -1.666166805034094e-13 0.9999999994445555 -0.00003332999991754557
vn -0.0000333300002183979 0.9999999993056944 0.000016665000109198943
vn 0.000049994999966569044 0.9999999987502499 1.666166714915278e-13
vn 0.00006665999968698745 0.9999999955564446 -0.00006665999968698745
vn -1.666166805034094e-13 0.9999999994445555 -0.00003332999991754557
vn 2.2587545373029814e-21 0.9999999999999999 0
vn 0.00006665999968698745 0.9999999955564446 -0.00006665999968698745
vn 0.000049994999966569044 0.9999999987502499 1.666166714915278e-13
vn 2.2587545373029814e-21 0.9999999999999999 0
vn -0.00006665999994616892 0.9999999977782221 0
vn 0.00006665999968698745 0.9999999955564446 -0.00006665999968698745
vn 0.00003332999984349372 0.999999998889111 -0.00003332999984349372
vn 0.0000666599998536041 0.9999999972227777 -0.000033330000010127046
vn 0.00006665999968698745 0.9999999955564446 -0.00006665999968698745
vn 0.00003332999984349372 0.999999998889111 -0.00003332999984349372
vn 0 1 0
vn 0.0000666599998536041 0.9999999972227777 -0.000033330000010127046
vn 0.00006665999968698745 0.9999999955564446 -0.00006665999968698745
vn 0.00003332999991291733 0.9999999993056944 -0.000016664999998121163
vn 0 1 0
vn 0.00006665999968698745 0.9999999955564446 -0.00006665999968698745
vn 0.0000666599998536041 0.9999999972227777 -0.000033330000010127046
vn 0.00003332999991291733 0.9999999993056944 -0.000016664999998121163
vn 0 1 0
vn -0.000016664999991170475 0.9999999997222779 -0.000016664999991170475
vn 0 1 0
vn 0 1 0
vn 0.00003332999991291733 0.9999999993056944 -0.000016664999998121163
vn -0.000016664999991170475 0.9999999997222779 -0.000016664999991170475
vn 0 1 0
vn 0.0000166649999148045 0.9999999993056944 -0.00003332999991291733
vn 0 1 0
vn 0 1 0
vn -0.000016664999991170475 0.9999999997222779 -0.000016664999991170475
vn 0.0000166649999148045 0.9999999993056944 -0.00003332999991291733
vn 0 1 0
vn 0 1 0
vn 0 1 0
vn 0 1 0
vn 0.0000166649999148045 0.9999999993056944 -0.00003332999991291733
vn 0 1 0
vn 0 1 0
vn 0 1 0
vn 0.00003332999984349372 0.999999998889111 -0.00003332999984349372
vn 0 1 0
vn 0 1 0
vn 0 1 0
vn 0 1 0
vn 0 1 0
vn 0 1 0
vn 0 1 0
vn 0 1 0
vn 0 1 0
vn 0 1 0
vn 0 1 0
vn 0 1 0
vn 0 1 0
vn 0 1 0
vn 0 1 0
vn 0.0000166649999148045 0.9999999993056944 -0.00003332999991291733
vn 0.00003332999991291733 0.9999999993056944 -0.0000166649999148045
vn 0 1 0
vn 0.0000166649999148045 0.9999999993056944 -0.00003332999991291733
vn 0.000016664999970343388 0.9999999993056943 -0.000033330000023995116
vn 0.00003332999991291733 0.9999999993056944 -0.0000166649999148045
vn 0.000016664999970343388 0.9999999993056943 -0.000033330000023995116
vn 0.00007499249992642312 0.9999999971880627 0
vn 0.00003332999991291733 0.9999999993056944 -0.0000166649999148045
vn 0.000016664999970343388 0.9999999993056943 -0.000033330000023995116
vn 0.00003333000005176456 0.9999999993056944 -0.00001666500002588228
vn 0.00007499249992642312 0.9999999971880627 0
vn 0.00003333000005176456 0.9999999993056944 -0.00001666500002588228
vn 0.00009998999980817563 0.9999999950010001 0
vn 0.00007499249992642312 0.9999999971880627 0
vn 0.00003333000005176456 0.9999999993056944 -0.00001666500002588228
vn 0.000033329999973084465 0.9999999994445555 0
vn 0.00009998999980817563 0.9999999950010001 0
vn -0.00003333000017674372 0.999999998889111 -0.00003332999992679373
vn 0.000033329999973084465 0.9999999994445555 0
vn 0.00003333000005176456 0.9999999993056944 -0.00001666500002588228
vn -0.00003333000017674372 0.999999998889111 -0.00003332999992679373
vn -0.00006666000011280227 0.9999999977782221 1.6663332580343365e-13
vn 0.000033329999973084465 0.9999999994445555 0
vn -0.0000333300002183979 0.9999999993056944 0.000016665000109198943
vn -0.00006666000011280227 0.9999999977782221 1.6663332580343365e-13
vn -0.00003333000017674372 0.999999998889111 -0.00003332999992679373
vn -0.0000333300002183979 0.9999999993056944 0.000016665000109198943
vn -1.666166805034094e-13 0.9999999994445555 -0.00003332999991754557
vn -0.00006666000011280227 0.9999999977782221 1.6663332580343365e-13
vn 0.00003332999991291733 0.9999999993056944 -0.000016664999998121163
vn -0.00003333000001011039 0.999999998889111 -0.000033330000010110396
vn -0.000016664999991170475 0.9999999997222779 -0.000016664999991170475
vn 0.00003332999991291733 0.9999999993056944 -0.000016664999998121163
vn 0.000033329999968447895 0.9999999993056944 -0.000016665000192515614
vn -0.00003333000001011039 0.999999998889111 -0.000033330000010110396
vn -0.000016664999991170475 0.9999999997222779 -0.000016664999991170475
vn 0.000016664999970343388 0.9999999993056943 -0.000033330000023995116
vn 0.0000166649999148045 0.9999999993056944 -0.00003332999991291733
vn -0.000016664999991170475 0.9999999997222779 -0.000016664999991170475
vn -0.00003333000001011039 0.999999998889111 -0.000033330000010110396
vn 0.000016664999970343388 0.9999999993056943 -0.000033330000023995116
vn -0.00003333000001011039 0.999999998889111 -0.000033330000010110396
vn 0.00003333000005176456 0.9999999993056944 -0.00001666500002588228
vn 0.000016664999970343388 0.9999999993056943 -0.000033330000023995116
vn -0.00003333000001011039 0.999999998889111 -0.000033330000010110396
vn -0.00003333000017674372 0.999999998889111 -0.00003332999992679373
vn 0.00003333000005176456 0.9999999993056944 -0.00001666500002588228
vn 0.000033329999968447895 0.9999999993056944 -0.000016665000192515614
vn -0.00003333000017674372 0.999999998889111 -0.00003332999992679373
vn -0.00003333000001011039 0.999999998889111 -0.000033330000010110396
vn 0.000033329999968447895 0.9999999993056944 -0.000016665000192515614
vn -0.0000333300002183979 0.9999999993056944 0.000016665000109198943
vn -0.00003333000017674372 0.999999998889111 -0.00003332999992679373
vn 0 1 0
vn 0.000016664999991170475 0.9999999997222779 0.000016664999991170475
vn 0 1 0
vn 0 1 0
vn -0.0000166649999148045 0.9999999993056944 0.00003332999991291733
vn 0.000016664999991170475 0.9999999997222779 0.000016664999991170475
vn 0 1 0
vn -0.0000166649999148045 0.9999999993056944 0.00003332999991291733
vn 0 1 0
vn 0 1 0
vn 0.00001666499999117047 0.9999999997222779 0.000016664999991170478
vn -0.0000166649999148045 0.9999999993056944 0.00003332999991291733
vn 0.00001666499999117047 0.9999999997222779 0.000016664999991170478
vn -0.000016664999970343395 0.9999999993056945 0.000033330000023995116
vn -0.0000166649999148045 0.9999999993056944 0.00003332999991291733
vn 0.00001666499999117047 0.9999999997222779 0.000016664999991170478
vn 0.000049994999966569044 0.9999999987502499 0
vn -0.000016664999970343395 0.9999999993056945 0.000033330000023995116
vn 0.000049994999966569044 0.9999999987502499 0
vn 0.00003333000008416223 0.9999999994445555 0
vn -0.000016664999970343395 0.9999999993056945 0.000033330000023995116
vn 0.000049994999966569044 0.9999999987502499 0
vn 0.00003332999997308446 0.9999999994445555 0
vn 0.00003333000008416223 0.9999999994445555 0
vn -0.000016664999970343395 0.9999999993056945 0.000033330000023995116
vn -0.00006665999994616892 0.9999999977782221 0
vn 2.2587545373029814e-21 0.9999999999999999 0
vn -0.000016664999970343395 0.9999999993056945 0.000033330000023995116
vn 0.00003333000008416223 0.9999999994445555 0
vn -0.00006665999994616892 0.9999999977782221 0
vn -0.0000166649999148045 0.9999999993056944 0.00003332999991291733
vn 2.2587545373029814e-21 0.9999999999999999 0
vn 0.000016664999991170475 0.9999999997222779 0.000016664999991170475
vn -0.0000166649999148045 0.9999999993056944 0.00003332999991291733
vn -0.000016664999970343395 0.9999999993056945 0.000033330000023995116
vn 2.2587545373029814e-21 0.9999999999999999 0
vn 0 1 0
vn 0.00001666499999117047 0.9999999997222779 0.000016664999991170478
vn 0 1 0
vn 0 1 0
vn 0 1 0
vn 0.00001666499999117047 0.9999999997222779 0.000016664999991170478
vn 0 1 0
vn 0.000049994999966569044 0.9999999987502499 0
vn 0.00001666499999117047 0.9999999997222779 0.000016664999991170478
vn 0 1 0
vn 0 1 0
vn 0.000049994999966569044 0.9999999987502499 0
vn 0 1 0
vn 0.00003332999997308446 0.9999999994445555 0
vn 0.000049994999966569044 0.9999999987502499 0
vn 0 1 0
vn 0 1 0
vn 0.00003332999997308446 0.9999999994445555 0
vn 0 1 0
vn 0 1 0
vn 0 1 0
vn 0 1 0
vn 0 1 0
vn 0 1 0
vn 0 1 0
vn 0 1 0
vn 0 1 0
vn 0 1 0
vn 0 1 0
vn 0 1 0
vn 0 1 0
vn 0 1 0
vn 0 1 0
vn 0 1 0
vn 0.00003332999991291733 0.9999999993056944 -0.0000166649999148045
vn 0 1 0
vn 0.00003332999991291733 0.9999999993056944 -0.0000166649999148045
vn 0 1 0
vn 0 1 0
vn 0.00003332999991291733 0.9999999993056944 -0.0000166649999148045
vn 0.00007499249992642312 0.9999999971880627 0
vn 0 1 0
g Scene
f 1/1/1 3/2/2 2/3/3
f 1/4/4 4/5/5 3/6/6
f 5/7/7 4/8/8 1/9/9
f 5/10/10 6/11/11 4/12/12
f 6/13/13 7/14/14 4/15/15
f 6/16/16 8/17/17 7/18/18
f 4/19/19 9/20/20 3/21/21
f 4/22/22 7/23/23 9/24/24
f 7/25/25 10/26/26 9/27/27
f 7/28/28 11/29/29 10/30/30
f 8/31/31 11/32/32 7/33/33
f 8/34/34 12/35/35 11/36/36
f 13/37/37 1/38/38 14/39/39
f 13/40/40 5/41/41 1/42/42
f 14/43/43 2/44/44 15/45/45
f 14/46/46 1/47/47 2/48/48
f 15/49/49 17/50/50 16/51/51
f 15/52/52 2/53/53 17/54/54
f 16/55/55 19/56/56 18/57/57
f 16/58/58 17/59/59 19/60/60
f 18/61/61 21/62/62 20/63/63
f 18/64/64 19/65/65 21/66/66
f 22/67/67 5/68/68 13/69/69
f 22/70/70 23/71/71 5/72/72
f 24/73/73 23/74/74 22/75/75
f 24/76/76 25/77/77 23/78/78
f 26/79/79 25/80/80 24/81/81
f 26/82/82 27/83/83 25/84/84
f 19/85/85 28/86/86 21/87/87
f 19/88/88 29/89/89 28/90/90
f 29/91/91 30/92/92 28/93/93
f 29/94/94 31/95/95 30/96/96
f 31/97/97 32/98/98 30/99/99
f 31/100/100 33/101/101 32/102/102
f 34/103/103 33/104/104 31/105/105
f 34/106/106 35/107/107 33/108/108
f 9/109/109 35/110/110 34/111/111
f 9/112/112 10/113/113 35/114/114
f 2/115/115 36/116/116 17/117/117
f 2/118/118 3/119/119 36/120/120
f 17/121/121 29/122/122 19/123/123
f 17/124/124 36/125/125 29/126/126
f 36/127/127 31/128/128 29/129/129
f 36/130/130 34/131/131 31/132/132
f 3/133/133 34/134/134 36/135/135
f 3/136/136 9/137/137 34/138/138
f 23/139/139 6/140/140 5/141/141
f 23/142/142 37/143/143 6/144/144
f 25/145/145 37/146/146 23/147/147
f 25/148/148 38/149/149 37/150/150
f 38/151/151 39/152/152 37/153/153
f 38/154/154 40/155/155 39/156/156
f 40/157/157 41/158/158 39/159/159
f 40/160/160 42/161/161 41/162/162
f 39/163/163 12/164/164 8/165/165
f 39/166/166 41/167/167 12/168/168
f 37/169/169 8/170/170 6/171/171
f 37/172/172 39/173/173 8/174/174
f 27/175/175 38/176/176 25/177/177
f 27/178/178 43/179/179 38/180/180
f 43/181/181 40/182/182 38/183/183
f 43/184/184 44/185/185 40/186/186
f 44/187/187 42/188/188 40/189/189
f 44/190/190 45/191/191 42/192/192
f 46/193/193 44/194/194 43/195/195
f 46/196/196 47/197/197 44/198/198
f 48/199/199 43/200/200 27/201/201
f 48/202/202 46/203/203 43/204/204
f 21/205/205 50/206/206 49/207/207
f 21/208/208 28/209/209 50/210/210
f 28/211/211 51/212/212 50/213/213
f 28/214/214 30/215/215 51/216/216
