o Default
v -1 0 1
v -1 1 1
v 0 1 1
v 0 0 1
v 1 1 0
v 1 0 0
v 1 1 -1
v 1 0 -1
v -2 0 0
v -2 1 0
v -2 0 -1
v -2 1 -1
v 0 0 -2
v 0 1 -2
v -1 1 -2
v -1 0 -2
v 0 1 0
v 0 1 -1
v -1 1 0
v -1 1 -1
v 0.5 1 0.5
v -1.5 1 0.5
v -1.5 1 -1.5
v 0.5 1 -1.5
vt 0 0.9375
vt 0.0625 1
vt 0 1
vt 0 0.9375
vt 0.0625 0.9375
vt 0.0625 1
vt 0 0.9375
vt 0.0625 1
vt 0 1
vt 0 0.9375
vt 0.0625 0.9375
vt 0.0625 1
vt 0 0.9375
vt 0.0625 1
vt 0 1
vt 0 0.9375
vt 0.0625 0.9375
vt 0.0625 1
vt 0 0.9375
vt 0.0625 1
vt 0 1
vt 0 0.9375
vt 0.0625 0.9375
vt 0.0625 1
vt 0 0.9375
vt 0.0625 1
vt 0 1
vt 0 0.9375
vt 0.0625 0.9375
vt 0.0625 1
vt 0 0.9375
vt 0.0625 1
vt 0 1
vt 0 0.9375
vt 0.0625 0.9375
vt 0.0625 1
vt 0 0.9375
vt 0.0625 1
vt 0 1
vt 0 0.9375
vt 0.0625 0.9375
vt 0.0625 1
vt 0 0.9375
vt 0.0625 1
vt 0 1
vt 0 0.9375
vt 0.0625 0.9375
vt 0.0625 1
vt 0.2 0.8
vt 0.4 1
vt 0.2 1
vt 0.2 0.8
vt 0.4 0.8
vt 0.4 1
vt 0.2 0.8
vt 0.4 1
vt 0.2 1
vt 0.2 0.8
vt 0.4 0.8
vt 0.4 1
vt 0.2 0.8
vt 0.4 1
vt 0.2 1
vt 0.2 0.8
vt 0.4 0.8
vt 0.4 1
vt 0.2 0.8
vt 0.4 1
vt 0.2 1
vt 0.2 0.8
vt 0.4 0.8
vt 0.4 1
vt 0.2 0.8
vt 0.4 1
vt 0.2 1
vt 0.2 0.8
vt 0.4 0.8
vt 0.4 1
vt 0.2 0.8
vt 0.4 1
vt 0.2 1
vt 0.2 0.8
vt 0.4 0.8
vt 0.4 1
vt 0.2 0.8
vt 0.4 1
vt 0.2 1
vt 0.2 0.8
vt 0.4 0.8
vt 0.4 1
vt 0.2 0.8
vt 0.4 1
vt 0.2 1
vt 0.2 0.8
vt 0.4 0.8
vt 0.4 1
vt 0.2 0.8
vt 0.4 1
vt 0.2 1
vt 0.2 0.8
vt 0.4 0.8
vt 0.4 1
vn -0.25272473256221173 0 0.9675382212353982
vn 0.17240193398579992 0.7312843426891668 0.6599248315494949
vn -0.2597019643324041 0.7344831627247881 0.6269683990407195
vn -0.25272473256221173 0 0.9675382212353982
vn 0.5054494651244235 0 0.8628562094610167
vn 0.17240193398579992 0.7312843426891668 0.6599248315494949
vn 0.5054494651244235 0 0.8628562094610167
vn 0.5885265836547783 0.7312816431723087 0.3447660347117204
vn 0.17240193398579992 0.7312843426891668 0.6599248315494949
vn 0.5054494651244235 0 0.8628562094610167
vn 0.9675382212353982 0 0.25272473256221173
vn 0.5885265836547783 0.7312816431723087 0.3447660347117204
vn 0.9675382212353982 0 0.25272473256221173
vn 0.8125280064873884 0.4759455328309598 -0.3365621613489615
vn 0.5885265836547783 0.7312816431723087 0.3447660347117204
vn 0.9675382212353982 0 0.25272473256221173
vn 0.8628562094610167 0 -0.5054494651244235
vn 0.8125280064873884 0.4759455328309598 -0.3365621613489615
vn -0.8628562094610167 0 0.5054494651244235
vn -0.2597019643324041 0.7344831627247881 0.6269683990407195
vn -0.7071307069272055 0.7070828544153773 0.000017675772363628467
vn -0.8628562094610167 0 0.5054494651244235
vn -0.25272473256221173 0 0.9675382212353982
vn -0.2597019643324041 0.7344831627247881 0.6269683990407195
vn -0.9675382212353982 0 -0.25272473256221173
vn -0.7071307069272055 0.7070828544153773 0.000017675772363628467
vn -0.5885364731636599 0.7312939339519432 -0.3447230800529198
vn -0.9675382212353982 0 -0.25272473256221173
vn -0.8628562094610167 0 0.5054494651244235
vn -0.7071307069272055 0.7070828544153773 0.000017675772363628467
vn 0.25272473256221173 0 -0.9675382212353982
vn -0.17235463455979091 0.7312904888537219 -0.6599303757653873
vn 0.4966659290540062 0.46824181455054703 -0.7308026806350209
vn 0.25272473256221173 0 -0.9675382212353982
vn -0.5054494651244235 0 -0.8628562094610167
vn -0.17235463455979091 0.7312904888537219 -0.6599303757653873
vn -0.5054494651244235 0 -0.8628562094610167
vn -0.5885364731636599 0.7312939339519432 -0.3447230800529198
vn -0.17235463455979091 0.7312904888537219 -0.6599303757653873
vn -0.5054494651244235 0 -0.8628562094610167
vn -0.9675382212353982 0 -0.25272473256221173
vn -0.5885364731636599 0.7312939339519432 -0.3447230800529198
vn 0.8628562094610167 0 -0.5054494651244235
vn 0.4966659290540062 0.46824181455054703 -0.7308026806350209
vn 0.8125280064873884 0.4759455328309598 -0.3365621613489615
vn 0.8628562094610167 0 -0.5054494651244235
vn 0.25272473256221173 0 -0.9675382212353982
vn 0.4966659290540062 0.46824181455054703 -0.7308026806350209
vn 0.5885265836547783 0.7312816431723087 0.3447660347117204
vn 0.000024997500030143388 0.999999999375125 -0.000024997500071801718
vn 0.000041662499799158286 0.999999998264236 0.00004166249981998745
vn 0.5885265836547783 0.7312816431723087 0.3447660347117204
vn 0.8125280064873884 0.4759455328309598 -0.3365621613489615
vn 0.000024997500030143388 0.999999999375125 -0.000024997500071801718
vn 0.000041662499799158286 0.999999998264236 0.00004166249981998745
vn -0.000008332500087577774 0.9999999999305695 -0.000008332499941773607
vn -0.000024997500030143388 0.999999999375125 0.000024997500071801718
vn 0.000041662499799158286 0.999999998264236 0.00004166249981998745
vn 0.000024997500030143388 0.999999999375125 -0.000024997500071801718
vn -0.000008332500087577774 0.9999999999305695 -0.000008332499941773607
vn 0.000024997500030143388 0.999999999375125 -0.000024997500071801718
vn -0.17235463455979091 0.7312904888537219 -0.6599303757653873
vn -0.000008332500087577774 0.9999999999305695 -0.000008332499941773607
vn 0.000024997500030143388 0.999999999375125 -0.000024997500071801718
vn 0.4966659290540062 0.46824181455054703 -0.7308026806350209
vn -0.17235463455979091 0.7312904888537219 -0.6599303757653873
vn -0.000024997500030143388 0.999999999375125 0.000024997500071801718
vn -0.5885364731636599 0.7312939339519432 -0.3447230800529198
vn -0.7071307069272055 0.7070828544153773 0.000017675772363628467
vn -0.000024997500030143388 0.999999999375125 0.000024997500071801718
vn -0.000008332500087577774 0.9999999999305695 -0.000008332499941773607
vn -0.5885364731636599 0.7312939339519432 -0.3447230800529198
vn 0.17240193398579992 0.7312843426891668 0.6599248315494949
vn -0.000024997500030143388 0.999999999375125 0.000024997500071801718
vn -0.2597019643324041 0.7344831627247881 0.6269683990407195
vn 0.17240193398579992 0.7312843426891668 0.6599248315494949
vn 0.000041662499799158286 0.999999998264236 0.00004166249981998745
vn -0.000024997500030143388 0.999999999375125 0.000024997500071801718
vn 0.0000999899991833506 0.999999990002 0.0000999899994333006
vn 0.000041662499799158286 0.999999998264236 0.00004166249981998745
vn 0.17240193398579992 0.7312843426891668 0.6599248315494949
vn 0.0000999899991833506 0.999999990002 0.0000999899994333006
vn 0.5885265836547783 0.7312816431723087 0.3447660347117204
vn 0.000041662499799158286 0.999999998264236 0.00004166249981998745
vn -0.2597019643324041 0.7344831627247881 0.6269683990407195
vn -0.7071307069272055 0.7070828544153773 0.000017675772363628467
vn 0.7071067807446059 -0.00003535533839908091 -0.7071067807446059
vn -0.2597019643324041 0.7344831627247881 0.6269683990407195
vn -0.000024997500030143388 0.999999999375125 0.000024997500071801718
vn -0.7071307069272055 0.7070828544153773 0.000017675772363628467
vn -0.000008332500087577774 0.9999999999305695 -0.000008332499941773607
vn -1.249750021765603e-13 1 1.249750021765603e-13
vn -0.5885364731636599 0.7312939339519432 -0.3447230800529198
vn -0.000008332500087577774 0.9999999999305695 -0.000008332499941773607
vn -0.17235463455979091 0.7312904888537219 -0.6599303757653873
vn -1.249750021765603e-13 1 1.249750021765603e-13
vn 0.8125280064873884 0.4759455328309598 -0.3365621613489615
vn 0.4966659290540062 0.46824181455054703 -0.7308026806350209
vn 0.000024997500030143388 0.999999999375125 -0.000024997500071801718
vn 0.8125280064873884 0.4759455328309598 -0.3365621613489615
vn 0.7071067807446059 -0.00003535533839908091 -0.7071067807446059
vn 0.4966659290540062 0.46824181455054703 -0.7308026806350209
g Scene
f 1/1/1 3/2/2 2/3/3
f 1/4/4 4/5/5 3/6/6
f 4/7/7 5/8/8 3/9/9
f 4/10/10 6/11/11 5/12/12
f 6/13/13 7/14/14 5/15/15
f 6/16/16 8/17/17 7/18/18
f 9/19/19 2/20/20 10/21/21
f 9/22/22 1/23/23 2/24/24
f 11/25/25 10/26/26 12/27/27
f 11/28/28 9/29/29 10/30/30
f 13/31/31 15/32/32 14/33/33
f 13/34/34 16/35/35 15/36/36
f 16/37/37 12/38/38 15/39/39
f 16/40/40 11/41/41 12/42/42
f 8/43/43 14/44/44 7/45/45
f 8/46/46 13/47/47 14/48/48
f 5/49/49 18/50/50 17/51/51
f 5/52/52 7/53/53 18/54/54
f 17/55/55 20/56/56 19/57/57
f 17/58/58 18/59/59 20/60/60
f 18/61/61 15/62/62 20/63/63
f 18/64/64 14/65/65 15/66/66
f 19/67/67 12/68/68 10/69/69
f 19/70/70 20/71/71 12/72/72
f 3/73/73 19/74/74 2/75/75
f 3/76/76 17/77/77 19/78/78
f 21/79/79 17/80/80 3/81/81
f 21/82/82 5/83/83 17/84/84
f 2/85/85 10/86/86 22/87/87
f 2/88/88 19/89/89 10/90/90
f 20/91/91 23/92/92 12/93/93
f 20/94/94 15/95/95 23/96/96
f 7/97/97 14/98/98 18/99/99
f 7/100/100 24/101/101 14/102/102
