o Default
v -1 0 0.5
v -1 1 0.5
v 0 1 1
v 0 0 1
v 1 1 0.5
v 1 0 0.5
v -1 2 0.5
v 0 2 1
v 1 2 0.5
v 1.5 2 -0.5
v 1.5 1 -0.5
v 1.5 0 -0.5
v 1 2 -1.5
v 1 1 -1.5
v 1 0 -1.5
v 0 1 -2
v 0 0 -2
v 0 2 -2
v -1 2 -1.5
v -1 1 -1.5
v -1 0 -1.5
v -1.5 0 -0.5
v -1.5 1 -0.5
v -1.5 2 -0.5
v 0 3 -0.5
v -1.5 3 -0.5
v -1 3 -1.5
v 0 3 -2
v 1.5 3 -0.5
v 1 3 -1.5
v 1 3 0.5
v 0 3 1
v -1 3 0.5
vt 0 0.9375
vt 0.0625 1
vt 0 1
vt 0 0.9375
vt 0.0625 0.9375
vt 0.0625 1
vt 0 0.9375
vt 0.0625 1
vt 0 1
vt 0 0.9375
vt 0.0625 0.9375
vt 0.0625 1
vt 0 0.9375
vt 0.0625 1
vt 0 1
vt 0 0.9375
vt 0.0625 0.9375
vt 0.0625 1
vt 0 0.9375
vt 0.0625 1
vt 0 1
vt 0 0.9375
vt 0.0625 0.9375
vt 0.0625 1
vt 0 0.9375
vt 0.0625 1
vt 0 1
vt 0 0.9375
vt 0.0625 0.9375
vt 0.0625 1
vt 0 0.9375
vt 0.0625 1
vt 0 1
vt 0 0.9375
vt 0.0625 0.9375
vt 0.0625 1
vt 0 0.9375
vt 0.0625 1
vt 0 1
vt 0 0.9375
vt 0.0625 0.9375
vt 0.0625 1
vt 0 0.9375
vt 0.0625 1
vt 0 1
vt 0 0.9375
vt 0.0625 0.9375
vt 0.0625 1
vt 0 0.9375
vt 0.0625 1
vt 0 1
vt 0 0.9375
vt 0.0625 0.9375
vt 0.0625 1
vt 0 0.9375
vt 0.0625 1
vt 0 1
vt 0 0.9375
vt 0.0625 0.9375
vt 0.0625 1
vt 0 0.9375
vt 0.0625 1
vt 0 1
vt 0 0.9375
vt 0.0625 0.9375
vt 0.0625 1
vt 0 0.9375
vt 0.0625 1
vt 0 1
vt 0 0.9375
vt 0.0625 0.9375
vt 0.0625 1
vt 0 0.9375
vt 0.0625 1
vt 0 1
vt 0 0.9375
vt 0.0625 0.9375
vt 0.0625 1
vt 0 0.9375
vt 0.0625 1
vt 0 1
vt 0 0.9375
vt 0.0625 0.9375
vt 0.0625 1
vt 0 0.9375
vt 0.0625 1
vt 0 1
vt 0 0.9375
vt 0.0625 0.9375
vt 0.0625 1
vt 0 0.9375
vt 0.0625 1
vt 0 1
vt 0 0.9375
vt 0.0625 0.9375
vt 0.0625 1
vt 0.2 0.8
vt 0.4 1
vt 0.2 1
vt 0.2 0.8
vt 0.4 0.8
vt 0.4 1
vt 0.2 0.8
vt 0.4 1
vt 0.2 1
vt 0.2 0.8
vt 0.4 0.8
vt 0.4 1
vt 0.2 0.8
vt 0.4 1
vt 0.2 1
vt 0.2 0.8
vt 0.4 0.8
vt 0.4 1
vt 0.2 0.8
vt 0.4 1
vt 0.2 1
vt 0.2 0.8
vt 0.4 0.8
vt 0.4 1
vt 0.2 0.19999999999999996
vt 0 0
vt 0.2 0
vt 0.2 0.19999999999999996
vt 0 0.19999999999999996
vt 0 0
vt 0.2 0.19999999999999996
vt 0 0
vt 0.2 0
vt 0.2 0.19999999999999996
vt 0 0.19999999999999996
vt 0 0
vt 0.2 0.19999999999999996
vt 0 0
vt 0.2 0
vt 0.2 0.19999999999999996
vt 0 0.19999999999999996
vt 0 0
vt 0.2 0.19999999999999996
vt 0 0
vt 0.2 0
vt 0.2 0.19999999999999996
vt 0 0.19999999999999996
vt 0 0
vt 0.2 0.19999999999999996
vt 0 0
vt 0.2 0
vt 0.2 0.19999999999999996
vt 0 0.19999999999999996
vt 0 0
vt 0.2 0.19999999999999996
vt 0 0
vt 0.2 0
vt 0.2 0.19999999999999996
vt 0 0.19999999999999996
vt 0 0
vt 0.2 0.19999999999999996
vt 0 0
vt 0.2 0
vt 0.2 0.19999999999999996
vt 0 0.19999999999999996
vt 0 0
vt 0.2 0.19999999999999996
vt 0 0
vt 0.2 0
vt 0.2 0.19999999999999996
vt 0 0.19999999999999996
vt 0 0
vn -0.6246950475544242 0 0.7808688094430303
vn 0 0 1
vn -0.7071067811865475 0 0.7071067811865475
vn -0.6246950475544242 0 0.7808688094430303
vn 0.1643989873053573 0 0.9863939238321439
vn 0 0 1
vn 0.1643989873053573 0 0.9863939238321439
vn 0.7071067811865475 0 0.7071067811865475
vn 0 0 1
vn 0.1643989873053573 0 0.9863939238321439
vn 0.7808688094430303 0 0.6246950475544242
vn 0.7071067811865475 0 0.7071067811865475
vn -0.7071067811865475 0 0.7071067811865475
vn -1.6674354395977376e-14 -2.0832291198573815e-10 1
vn -0.7071067811865475 7.85556348248901e-10 0.7071067811865475
vn -0.7071067811865475 0 0.7071067811865475
vn 0 0 1
vn -1.6674354395977376e-14 -2.0832291198573815e-10 1
vn 0 0 1
vn 0.7071067811865475 -9.820436249444964e-10 0.7071067811865475
vn -1.6674354395977376e-14 -2.0832291198573815e-10 1
vn 0 0 1
vn 0.7071067811865475 0 0.7071067811865475
vn 0.7071067811865475 -9.820436249444964e-10 0.7071067811865475
vn 0.7071067811865475 0 0.7071067811865475
vn 1 -4.166458232772228e-10 -6.665999754132455e-10
vn 0.7071067811865475 -9.820436249444964e-10 0.7071067811865475
vn 0.7071067811865475 0 0.7071067811865475
vn 1 0 2.0687784610393942e-17
vn 1 -4.166458232772228e-10 -6.665999754132455e-10
vn 0.7808688094430303 0 0.6246950475544242
vn 1 0 2.0687784610393942e-17
vn 0.7071067811865475 0 0.7071067811865475
vn 0.7808688094430303 0 0.6246950475544242
vn 0.9863939238321439 0 -0.1643989873053573
vn 1 0 2.0687784610393942e-17
vn 1 0 2.0687784610393942e-17
vn 0.7071067811865475 7.856348999555971e-10 -0.7071067811865475
vn 1 -4.166458232772228e-10 -6.665999754132455e-10
vn 1 0 2.0687784610393942e-17
vn 0.7071067811865475 0 -0.7071067811865475
vn 0.7071067811865475 7.856348999555971e-10 -0.7071067811865475
vn 0.9863939238321439 0 -0.1643989873053573
vn 0.7071067811865475 0 -0.7071067811865475
vn 1 0 2.0687784610393942e-17
vn 0.9863939238321439 0 -0.1643989873053573
vn 0.6246950475544242 0 -0.7808688094430303
vn 0.7071067811865475 0 -0.7071067811865475
vn 0.6246950475544242 0 -0.7808688094430303
vn 2.0687784610393942e-17 0 -1
vn 0.7071067811865475 0 -0.7071067811865475
vn 0.6246950475544242 0 -0.7808688094430303
vn -0.1643989873053573 0 -0.9863939238321439
vn 2.0687784610393942e-17 0 -1
vn 0.7071067811865475 0 -0.7071067811865475
vn -1.6643322719062064e-14 -2.0830208281914545e-10 -0.9999999999999999
vn 0.7071067811865475 7.856348999555971e-10 -0.7071067811865475
vn 0.7071067811865475 0 -0.7071067811865475
vn 2.0687784610393942e-17 0 -1
vn -1.6643322719062064e-14 -2.0830208281914545e-10 -0.9999999999999999
vn 2.0687784610393942e-17 0 -1
vn -0.7071067816579049 -1.963890878913407e-10 -0.7071067807151901
vn -1.6643322719062064e-14 -2.0830208281914545e-10 -0.9999999999999999
vn 2.0687784610393942e-17 0 -1
vn -0.7071067811865475 0 -0.7071067811865475
vn -0.7071067816579049 -1.963890878913407e-10 -0.7071067807151901
vn -0.1643989873053573 0 -0.9863939238321439
vn -0.7071067811865475 0 -0.7071067811865475
vn 2.0687784610393942e-17 0 -1
vn -0.1643989873053573 0 -0.9863939238321439
vn -0.7808688094430303 0 -0.6246950475544242
vn -0.7071067811865475 0 -0.7071067811865475
vn -0.9863939238321439 0 0.1643989873053573
vn -0.7071067811865475 0 0.7071067811865475
vn -1 0 0
vn -0.9863939238321439 0 0.1643989873053573
vn -0.6246950475544242 0 0.7808688094430303
vn -0.7071067811865475 0 0.7071067811865475
vn -0.7808688094430303 0 -0.6246950475544242
vn -1 0 0
vn -0.7071067811865475 0 -0.7071067811865475
vn -0.7808688094430303 0 -0.6246950475544242
vn -0.9863939238321439 0 0.1643989873053573
vn -1 0 0
vn -0.7071067811865475 0 -0.7071067811865475
vn -1 1.2498124969146128e-9 1.0343892305196971e-17
vn -0.7071067816579049 -1.963890878913407e-10 -0.7071067807151901
vn -0.7071067811865475 0 -0.7071067811865475
vn -1 0 0
vn -1 1.2498124969146128e-9 1.0343892305196971e-17
vn -1 0 0
vn -0.7071067811865475 7.85556348248901e-10 0.7071067811865475
vn -1 1.2498124969146128e-9 1.0343892305196971e-17
vn -1 0 0
vn -0.7071067811865475 0 0.7071067811865475
vn -0.7071067811865475 7.85556348248901e-10 0.7071067811865475
vn 0.00004999499998276512 0.9999999986113889 -0.000016665000102259364
vn -0.5121154515691899 0.5726158219335963 -0.6401944116714833
vn -0.6625700866229879 0.7408126826457111 -0.11044206419508473
vn 0.00004999499998276512 0.9999999986113889 -0.000016665000102259364
vn 0.11045591571702319 0.7407951769503109 -0.6625873500831956
vn -0.5121154515691899 0.5726158219335963 -0.6401944116714833
vn 0.6625891570789725 0.7407971970288594 0.11043152537007857
vn 0.11045591571702319 0.7407951769503109 -0.6625873500831956
vn 0.00004999499998276512 0.9999999986113889 -0.000016665000102259364
vn 0.6625891570789725 0.7407971970288594 0.11043152537007857
vn 0.7372097799028953 0.3296902369404187 -0.5897678255735009
vn 0.11045591571702319 0.7407951769503109 -0.6625873500831956
vn 0.5121678565031464 0.5725997315650858 0.6401668799434755
vn 0.00004999499998276512 0.9999999986113889 -0.000016665000102259364
vn -0.11040141468577276 0.7408160488158528 0.662573097440764
vn 0.5121678565031464 0.5725997315650858 0.6401668799434755
vn 0.6625891570789725 0.7407971970288594 0.11043152537007857
vn 0.00004999499998276512 0.9999999986113889 -0.000016665000102259364
vn -0.11040141468577276 0.7408160488158528 0.662573097440764
vn -0.6625700866229879 0.7408126826457111 -0.11044206419508473
vn -0.7372097803266041 0.3296902383403427 0.5897678242612833
vn -0.11040141468577276 0.7408160488158528 0.662573097440764
vn 0.00004999499998276512 0.9999999986113889 -0.000016665000102259364
vn -0.6625700866229879 0.7408126826457111 -0.11044206419508473
vn -1 1.2498124969146128e-9 1.0343892305196971e-17
vn -0.7372097803266041 0.3296902383403427 0.5897678242612833
vn -0.6625700866229879 0.7408126826457111 -0.11044206419508473
vn -1 1.2498124969146128e-9 1.0343892305196971e-17
vn -0.7071067811865475 7.85556348248901e-10 0.7071067811865475
vn -0.7372097803266041 0.3296902383403427 0.5897678242612833
vn -0.7071067816579049 -1.963890878913407e-10 -0.7071067807151901
vn -0.6625700866229879 0.7408126826457111 -0.11044206419508473
vn -0.5121154515691899 0.5726158219335963 -0.6401944116714833
vn -0.7071067816579049 -1.963890878913407e-10 -0.7071067807151901
vn -1 1.2498124969146128e-9 1.0343892305196971e-17
vn -0.6625700866229879 0.7408126826457111 -0.11044206419508473
vn -0.7071067811865475 7.85556348248901e-10 0.7071067811865475
vn -0.11040141468577276 0.7408160488158528 0.662573097440764
vn -0.7372097803266041 0.3296902383403427 0.5897678242612833
vn -0.7071067811865475 7.85556348248901e-10 0.7071067811865475
vn -1.6674354395977376e-14 -2.0832291198573815e-10 1
vn -0.11040141468577276 0.7408160488158528 0.662573097440764
vn -1.6674354395977376e-14 -2.0832291198573815e-10 1
vn 0.5121678565031464 0.5725997315650858 0.6401668799434755
vn -0.11040141468577276 0.7408160488158528 0.662573097440764
vn -1.6674354395977376e-14 -2.0832291198573815e-10 1
vn 0.7071067811865475 -9.820436249444964e-10 0.7071067811865475
vn 0.5121678565031464 0.5725997315650858 0.6401668799434755
vn 0.7071067811865475 -9.820436249444964e-10 0.7071067811865475
vn 0.6625891570789725 0.7407971970288594 0.11043152537007857
vn 0.5121678565031464 0.5725997315650858 0.6401668799434755
vn 0.7071067811865475 -9.820436249444964e-10 0.7071067811865475
vn 1 -4.166458232772228e-10 -6.665999754132455e-10
vn 0.6625891570789725 0.7407971970288594 0.11043152537007857
vn 1 -4.166458232772228e-10 -6.665999754132455e-10
vn 0.7372097799028953 0.3296902369404187 -0.5897678255735009
vn 0.6625891570789725 0.7407971970288594 0.11043152537007857
vn 1 -4.166458232772228e-10 -6.665999754132455e-10
vn 0.7071067811865475 7.856348999555971e-10 -0.7071067811865475
vn 0.7372097799028953 0.3296902369404187 -0.5897678255735009
vn 0.7071067811865475 7.856348999555971e-10 -0.7071067811865475
vn 0.11045591571702319 0.7407951769503109 -0.6625873500831956
vn 0.7372097799028953 0.3296902369404187 -0.5897678255735009
vn 0.7071067811865475 7.856348999555971e-10 -0.7071067811865475
vn -1.6643322719062064e-14 -2.0830208281914545e-10 -0.9999999999999999
vn 0.11045591571702319 0.7407951769503109 -0.6625873500831956
vn -1.6643322719062064e-14 -2.0830208281914545e-10 -0.9999999999999999
vn -0.5121154515691899 0.5726158219335963 -0.6401944116714833
vn 0.11045591571702319 0.7407951769503109 -0.6625873500831956
vn -1.6643322719062064e-14 -2.0830208281914545e-10 -0.9999999999999999
vn -0.7071067816579049 -1.963890878913407e-10 -0.7071067807151901
vn -0.5121154515691899 0.5726158219335963 -0.6401944116714833
g Scene
f 1/1/1 3/2/2 2/3/3
f 1/4/4 4/5/5 3/6/6
f 4/7/7 5/8/8 3/9/9
f 4/10/10 6/11/11 5/12/12
f 2/13/13 8/14/14 7/15/15
f 2/16/16 3/17/17 8/18/18
f 3/19/19 9/20/20 8/21/21
f 3/22/22 5/23/23 9/24/24
f 5/25/25 10/26/26 9/27/27
f 5/28/28 11/29/29 10/30/30
f 6/31/31 11/32/32 5/33/33
f 6/34/34 12/35/35 11/36/36
f 11/37/37 13/38/38 10/39/39
f 11/40/40 14/41/41 13/42/42
f 12/43/43 14/44/44 11/45/45
f 12/46/46 15/47/47 14/48/48
f 15/49/49 16/50/50 14/51/51
f 15/52/52 17/53/53 16/54/54
f 14/55/55 18/56/56 13/57/57
f 14/58/58 16/59/59 18/60/60
f 16/61/61 19/62/62 18/63/63
f 16/64/64 20/65/65 19/66/66
f 17/67/67 20/68/68 16/69/69
f 17/70/70 21/71/71 20/72/72
f 22/73/73 2/74/74 23/75/75
f 22/76/76 1/77/77 2/78/78
f 21/79/79 23/80/80 20/81/81
f 21/82/82 22/83/83 23/84/84
f 20/85/85 24/86/86 19/87/87
f 20/88/88 23/89/89 24/90/90
f 23/91/91 7/92/92 24/93/93
f 23/94/94 2/95/95 7/96/96
f 25/97/97 27/98/98 26/99/99
f 25/100/100 28/101/101 27/102/102
f 29/103/103 28/104/104 25/105/105
f 29/106/106 30/107/107 28/108/108
f 31/109/109 25/110/110 32/111/111
f 31/112/112 29/113/113 25/114/114
f 32/115/115 26/116/116 33/117/117
f 32/118/118 25/119/119 26/120/120
f 24/121/121 33/122/122 26/123/123
f 24/124/124 7/125/125 33/126/126
f 19/127/127 26/128/128 27/129/129
f 19/130/130 24/131/131 26/132/132
f 7/133/133 32/134/134 33/135/135
f 7/136/136 8/137/137 32/138/138
f 8/139/139 31/140/140 32/141/141
f 8/142/142 9/143/143 31/144/144
f 9/145/145 29/146/146 31/147/147
f 9/148/148 10/149/149 29/150/150
f 10/151/151 30/152/152 29/153/153
f 10/154/154 13/155/155 30/156/156
f 13/157/157 28/158/158 30/159/159
f 13/160/160 18/161/161 28/162/162
f 18/163/163 27/164/164 28/165/165
f 18/166/166 19/167/167 27/168/168
