o Default
v 0 0 0
v -1 0 0
v -1 0 -1
v 0 0 -1
v 1 0 0
v 1 0 -1
v -2 0 0
v -2 0 -1
v -1 0 1
v -2 0 1
v 0 0 1
v 1 0 1
v 1 0 2
v 0 0 2
v -1 0 2
v -2 0 2
v -1 -1 2
v 0 -1 2
v -2 -1 2
v 1 -1 2
vt 0.8 0.8
vt 0.8666666666666667 0.9
vt 0.8 0.9
vt 0.8 0.8
vt 0.8666666666666667 0.8
vt 0.8666666666666667 0.9
vt 0.8 0.8
vt 0.8666666666666667 0.9
vt 0.8 0.9
vt 0.8 0.8
vt 0.8666666666666667 0.8
vt 0.8666666666666667 0.9
vt 0.8 0.8
vt 0.8666666666666667 0.9
vt 0.8 0.9
vt 0.8 0.8
vt 0.8666666666666667 0.8
vt 0.8666666666666667 0.9
vt 0.8 0.8
vt 0.8666666666666667 0.9
vt 0.8 0.9
vt 0.8 0.8
vt 0.8666666666666667 0.8
vt 0.8666666666666667 0.9
vt 0.8 0.8
vt 0.8666666666666667 0.9
vt 0.8 0.9
vt 0.8 0.8
vt 0.8666666666666667 0.8
vt 0.8666666666666667 0.9
vt 0.8 0.8
vt 0.8666666666666667 0.9
vt 0.8 0.9
vt 0.8 0.8
vt 0.8666666666666667 0.8
vt 0.8666666666666667 0.9
vt 0.8 0.8
vt 0.8666666666666667 0.9
vt 0.8 0.9
vt 0.8 0.8
vt 0.8666666666666667 0.8
vt 0.8666666666666667 0.9
vt 0.8 0.8
vt 0.8666666666666667 0.9
vt 0.8 0.9
vt 0.8 0.8
vt 0.8666666666666667 0.8
vt 0.8666666666666667 0.9
vt 0.8 0.8
vt 0.8666666666666667 0.9
vt 0.8 0.9
vt 0.8 0.8
vt 0.8666666666666667 0.8
vt 0.8666666666666667 0.9
vt 0.8 0.7
vt 0.8666666666666667 0.8
vt 0.8 0.8
vt 0.8 0.7
vt 0.8666666666666667 0.7
vt 0.8666666666666667 0.8
vt 0.8 0.7
vt 0.8666666666666667 0.8
vt 0.8 0.8
vt 0.8 0.7
vt 0.8666666666666667 0.7
vt 0.8666666666666667 0.8
vt 0.8 0.7
vt 0.8666666666666667 0.8
vt 0.8 0.8
vt 0.8 0.7
vt 0.8666666666666667 0.7
vt 0.8666666666666667 0.8
vn 0.00004999499996656905 0.9999999987502499 -1.666333323942359e-13
vn 0.00006665999994616892 0.9999999977782221 -3.33266664742194e-13
vn 0.00003333000001011039 0.999999998889111 0.00003332999992679373
vn 0.00004999499996656905 0.9999999987502499 -1.666333323942359e-13
vn 0.000033329999973084465 0.9999999994445555 -1.6663333237109703e-13
vn 0.00006665999994616892 0.9999999977782221 -3.33266664742194e-13
vn 0 1 0
vn 0.000033329999973084465 0.9999999994445555 -1.6663333237109703e-13
vn 0.00004999499996656905 0.9999999987502499 -1.666333323942359e-13
vn 0 1 0
vn 0 1 0
vn 0.000033329999973084465 0.9999999994445555 -1.6663333237109703e-13
vn 0.00003333000001011039 0.999999998889111 0.00003332999992679373
vn 0 1 0
vn 0.00003333000001011038 0.999999998889111 0.00003333000001011038
vn 0.00003333000001011039 0.999999998889111 0.00003332999992679373
vn 0.00006665999994616892 0.9999999977782221 -3.33266664742194e-13
vn 0 1 0
vn 0.000033330000023995116 0.9999999993056945 -0.000016664999970343388
vn 0.00003333000001011038 0.999999998889111 0.00003333000001011038
vn 0.0000666599998536041 0.9999999972227777 -0.00003332999984349372
vn 0.000033330000023995116 0.9999999993056945 -0.000016664999970343388
vn 0.00003333000001011039 0.999999998889111 0.00003332999992679373
vn 0.00003333000001011038 0.999999998889111 0.00003333000001011038
vn 0.00003332999996845622 0.9999999993056944 -0.00001666499994257394
vn 0.00003333000001011039 0.999999998889111 0.00003332999992679373
vn 0.000033330000023995116 0.9999999993056945 -0.000016664999970343388
vn 0.00003332999996845622 0.9999999993056944 -0.00001666499994257394
vn 0.00004999499996656905 0.9999999987502499 -1.666333323942359e-13
vn 0.00003333000001011039 0.999999998889111 0.00003332999992679373
vn 0 1 0
vn 0.00004999499996656905 0.9999999987502499 -1.666333323942359e-13
vn 0.00003332999996845622 0.9999999993056944 -0.00001666499994257394
vn 0 1 0
vn 0 1 0
vn 0.00004999499996656905 0.9999999987502499 -1.666333323942359e-13
vn 0.00003535268706489531 0.7071244550998533 0.7070891059477037
vn 0.00003332999996845622 0.9999999993056944 -0.00001666499994257394
vn 0.00002356904723097934 0.7071421313207666 0.7070714288921762
vn 0.00003535268706489531 0.7071244550998533 0.7070891059477037
vn 0 1 0
vn 0.00003332999996845622 0.9999999993056944 -0.00001666499994257394
vn 0.00002356904723097934 0.7071421313207666 0.7070714288921762
vn 0.000033330000023995116 0.9999999993056945 -0.000016664999970343388
vn 0.00002356865443644184 0.7071303474844522 0.7070832137104062
vn 0.00002356904723097934 0.7071421313207666 0.7070714288921762
vn 0.00003332999996845622 0.9999999993056944 -0.00001666499994257394
vn 0.000033330000023995116 0.9999999993056945 -0.000016664999970343388
vn 0.00002356865443644184 0.7071303474844522 0.7070832137104062
vn 0.0000666599998536041 0.9999999972227777 -0.00003332999984349372
vn 0 0.7071067811865475 0.7071067811865475
vn 0.00002356865443644184 0.7071303474844522 0.7070832137104062
vn 0.000033330000023995116 0.9999999993056945 -0.000016664999970343388
vn 0.0000666599998536041 0.9999999972227777 -0.00003332999984349372
vn 0 0 1
vn 0.00002356904723097934 0.7071421313207666 0.7070714288921762
vn 0.00002356865443644184 0.7071303474844522 0.7070832137104062
vn 0 0 1
vn 0 0 1
vn 0.00002356904723097934 0.7071421313207666 0.7070714288921762
vn 0 0 1
vn 0.00002356865443644184 0.7071303474844522 0.7070832137104062
vn 0 0.7071067811865475 0.7071067811865475
vn 0 0 1
vn 0 0 1
vn 0.00002356865443644184 0.7071303474844522 0.7070832137104062
vn 0 0 1
vn 0.00003535268706489531 0.7071244550998533 0.7070891059477037
vn 0.00002356904723097934 0.7071421313207666 0.7070714288921762
vn 0 0 1
vn 0 0 1
vn 0.00003535268706489531 0.7071244550998533 0.7070891059477037
g Scene
f 1/1/1 3/2/2 2/3/3
f 1/4/4 4/5/5 3/6/6
f 5/7/7 4/8/8 1/9/9
f 5/10/10 6/11/11 4/12/12
f 2/13/13 8/14/14 7/15/15
f 2/16/16 3/17/17 8/18/18
f 9/19/19 7/20/20 10/21/21
f 9/22/22 2/23/23 7/24/24
f 11/25/25 2/26/26 9/27/27
f 11/28/28 1/29/29 2/30/30
f 12/31/31 1/32/32 11/33/33
f 12/34/34 5/35/35 1/36/36
f 13/37/37 11/38/38 14/39/39
f 13/40/40 12/41/41 11/42/42
f 14/43/43 9/44/44 15/45/45
f 14/46/46 11/47/47 9/48/48
f 15/49/49 10/50/50 16/51/51
f 15/52/52 9/53/53 10/54/54
f 17/55/55 14/56/56 15/57/57
f 17/58/58 18/59/59 14/60/60
f 19/61/61 15/62/62 16/63/63
f 19/64/64 17/65/65 15/66/66
f 18/67/67 13/68/68 14/69/69
f 18/70/70 20/71/71 13/72/72
