o Default
v 0 -1 1
v 0 0 1
v 1 0 1
v 1 -1 1
v -1 -1 1
v -1 0 1
v -1 0 0
v 0 0 0
v 1 0 0
v 0 0 -1
v 1 0 -1
v -1 0 -1
vt 0.8 0.7
vt 0.8666666666666667 0.8
vt 0.8 0.8
vt 0.8 0.7
vt 0.8666666666666667 0.7
vt 0.8666666666666667 0.8
vt 0.8 0.7
vt 0.8666666666666667 0.8
vt 0.8 0.8
vt 0.8 0.7
vt 0.8666666666666667 0.7
vt 0.8666666666666667 0.8
vt 0.8 0.8
vt 0.8666666666666667 0.9
vt 0.8 0.9
vt 0.8 0.8
vt 0.8666666666666667 0.8
vt 0.8666666666666667 0.9
vt 0.8 0.8
vt 0.8666666666666667 0.9
vt 0.8 0.9
vt 0.8 0.8
vt 0.8666666666666667 0.8
vt 0.8666666666666667 0.9
vt 0.8 0.8
vt 0.8666666666666667 0.9
vt 0.8 0.9
vt 0.8 0.8
vt 0.8666666666666667 0.8
vt 0.8666666666666667 0.9
vt 0.8 0.8
vt 0.8666666666666667 0.9
vt 0.8 0.9
vt 0.8 0.8
vt 0.8666666666666667 0.8
vt 0.8666666666666667 0.9
vn 0 0 1
vn 0 0.7071244568674215 0.7070891050638202
vn 0.000023568065350185026 0.707112671950993 0.7071008899802586
vn 0 0 1
vn 0 0 1
vn 0 0.7071244568674215 0.7070891050638202
vn 0 0 1
vn 0.000023568065350185026 0.707112671950993 0.7071008899802586
vn 0 0.7070891050638203 0.7071244568674213
vn 0 0 1
vn 0 0 1
vn 0.000023568065350185026 0.707112671950993 0.7071008899802586
vn 0.000023568065350185026 0.707112671950993 0.7071008899802586
vn 0.00006665999996005363 0.999999997778222 -8.316734180942416e-18
vn 0 0.7070891050638203 0.7071244568674213
vn 0.000023568065350185026 0.707112671950993 0.7071008899802586
vn 0.0000333300000274663 0.9999999994098403 0.0000083324999183473
vn 0.00006665999996005363 0.999999997778222 -8.316734180942416e-18
vn 0 0.7071244568674215 0.7070891050638202
vn 0.0000333300000274663 0.9999999994098403 0.0000083324999183473
vn 0.000023568065350185026 0.707112671950993 0.7071008899802586
vn 0 0.7071244568674215 0.7070891050638202
vn 0.000033330000037879836 0.9999999993056945 0.00001666499995645866
vn 0.0000333300000274663 0.9999999994098403 0.0000083324999183473
vn 0.000033330000037879836 0.9999999993056945 0.00001666499995645866
vn 0.00003333000001011038 0.9999999972227777 0.00006666000002022077
vn 0.0000333300000274663 0.9999999994098403 0.0000083324999183473
vn 0.000033330000037879836 0.9999999993056945 0.00001666499995645866
vn 0.00009998999980817563 0.9999999950010001 0
vn 0.00003333000001011038 0.9999999972227777 0.00006666000002022077
vn 0.0000333300000274663 0.9999999994098403 0.0000083324999183473
vn 0.000049995000029050315 0.9999999975005001 0.000049995000029050315
vn 0.00006665999996005363 0.999999997778222 -8.316734180942416e-18
vn 0.0000333300000274663 0.9999999994098403 0.0000083324999183473
vn 0.00003333000001011038 0.9999999972227777 0.00006666000002022077
vn 0.000049995000029050315 0.9999999975005001 0.000049995000029050315
g Scene
f 1/1/1 3/2/2 2/3/3
f 1/4/4 4/5/5 3/6/6
f 5/7/7 2/8/8 6/9/9
f 5/10/10 1/11/11 2/12/12
f 2/13/13 7/14/14 6/15/15
f 2/16/16 8/17/17 7/18/18
f 3/19/19 8/20/20 2/21/21
f 3/22/22 9/23/23 8/24/24
f 9/25/25 10/26/26 8/27/27
f 9/28/28 11/29/29 10/30/30
f 8/31/31 12/32/32 7/33/33
f 8/34/34 10/35/35 12/36/36
