o Default
v 0 4 2
v -3 4 2
v -3 4 -2
v 0 4 -2
v 1 1 2
v 1 3 2
v 1 3 -2
v 1 1 -2
v -3 0 -2
v -4 1 -2
v -4 1 2
v -3 0 2
v 0 0 2
v 0 0 -2
v 0 4 3
v -3 4 3
v -3 4 3
v -4 3 3
v -4 3 2
v -3 4 2
v 1 3 3
v 1 1 3
v 0 3 4
v -3 3 4
v 0 1 4
v 0 3 4
v -3 3 4
v 0 4 3
v -1 1 4
v -1 3 4
v -2 1 4
v -2 3 4
v -3 1 4
v -4 1 3
v -3 0 3
v -2 0 3
v -1 0 3
v 0 0 3
v 0 0 2
v 0 0 -2
v 0 0 3
v -3 4 -6
v 0 4 -6
v 0 4 -2
v -3 4 -2
v -4 3 -6
v -4 3 -2
v 1 3 -6
v 1 1 -6
v 0 0 -6
v -3 0 -6
v -4 1 -6
v -3 0 -6
v -3 0 -2
v 0 4 -6
vt 0.3333333333333333 0.6
vt 0.6 0.9
vt 0.3333333333333333 0.9
vt 0.3333333333333333 0.6
vt 0.6 0.6
vt 0.6 0.9
vt 0.3333333333333333 0.30000000000000004
vt 0.6 0.5
vt 0.3333333333333333 0.5
vt 0.3333333333333333 0.30000000000000004
vt 0.6 0.30000000000000004
vt 0.6 0.5
vt 0.3333333333333333 0.5
vt 0.6 0.6
vt 0.3333333333333333 0.6
vt 0.3333333333333333 0.5
vt 0.6 0.5
vt 0.6 0.6
vt 0.3333333333333333 0.19999999999999996
vt 0.6 0.30000000000000004
vt 0.3333333333333333 0.30000000000000004
vt 0.3333333333333333 0.19999999999999996
vt 0.6 0.19999999999999996
vt 0.6 0.30000000000000004
vt 0.3333333333333333 0.19999999999999996
vt 0.6 0.30000000000000004
vt 0.3333333333333333 0.30000000000000004
vt 0.3333333333333333 0.19999999999999996
vt 0.6 0.19999999999999996
vt 0.6 0.30000000000000004
vt 0.2 0.6
vt 0.26666666666666666 0.9
vt 0.2 0.9
vt 0.2 0.6
vt 0.26666666666666666 0.6
vt 0.26666666666666666 0.9
vt 0.2 0.5
vt 0.26666666666666666 0.6
vt 0.2 0.6
vt 0.2 0.5
vt 0.26666666666666666 0.5
vt 0.26666666666666666 0.6
vt 0.2 0.5
vt 0.26666666666666666 0.6
vt 0.2 0.6
vt 0.2 0.5
vt 0.26666666666666666 0.5
vt 0.26666666666666666 0.6
vt 0.2 0.30000000000000004
vt 0.26666666666666666 0.5
vt 0.2 0.5
vt 0.2 0.30000000000000004
vt 0.26666666666666666 0.30000000000000004
vt 0.26666666666666666 0.5
vt 0.8 0.4
vt 0.8666666666666667 0.4
vt 0.8666666666666667 0.5
vt 0.8 0.4
vt 0.8666666666666667 0.4
vt 0.8666666666666667 0.5
vt 0.13333333333333333 0.30000000000000004
vt 0.2 0.5
vt 0.13333333333333333 0.5
vt 0.13333333333333333 0.30000000000000004
vt 0.2 0.30000000000000004
vt 0.2 0.5
vt 0.13333333333333333 0.6
vt 0.2 0.9
vt 0.13333333333333333 0.9
vt 0.13333333333333333 0.6
vt 0.2 0.6
vt 0.2 0.9
vt 0.13333333333333333 0.30000000000000004
vt 0.2 0.5
vt 0.13333333333333333 0.5
vt 0.13333333333333333 0.30000000000000004
vt 0.2 0.30000000000000004
vt 0.2 0.5
vt 0.13333333333333333 0.30000000000000004
vt 0.2 0.5
vt 0.13333333333333333 0.5
vt 0.13333333333333333 0.30000000000000004
vt 0.2 0.30000000000000004
vt 0.2 0.5
vt 0.13333333333333333 0.30000000000000004
vt 0.2 0.5
vt 0.13333333333333333 0.5
vt 0.13333333333333333 0.30000000000000004
vt 0.2 0.30000000000000004
vt 0.2 0.5
vt 0.13333333333333333 0.30000000000000004
vt 0.2 0.5
vt 0.13333333333333333 0.5
vt 0.13333333333333333 0.30000000000000004
vt 0.2 0.30000000000000004
vt 0.2 0.5
vt 0.8 0.4
vt 0.8666666666666667 0.5
vt 0.8 0.5
vt 0.8 0.4
vt 0.8666666666666667 0.4
vt 0.8666666666666667 0.5
vt 0.8 0.4
vt 0.8666666666666667 0.5
vt 0.8 0.5
vt 0.8 0.4
vt 0.8666666666666667 0.4
vt 0.8666666666666667 0.5
vt 0.8 0.4
vt 0.8666666666666667 0.5
vt 0.8 0.5
vt 0.8 0.4
vt 0.8666666666666667 0.4
vt 0.8666666666666667 0.5
vt 0.8 0.4
vt 0.8666666666666667 0.5
vt 0.8 0.5
vt 0.8 0.4
vt 0.8666666666666667 0.4
vt 0.8666666666666667 0.5
vt 0.8 0.4
vt 0.8666666666666667 0.5
vt 0.8 0.5
vt 0.8 0.4
vt 0.8666666666666667 0.5
vt 0.8 0.5
vt 0.8 0.4
vt 0.8666666666666667 0.4
vt 0.8666666666666667 0.5
vt 0.8 0.4
vt 0.8666666666666667 0.5
vt 0.8 0.5
vt 0.3333333333333333 0.6
vt 0.6 0.9
vt 0.3333333333333333 0.9
vt 0.3333333333333333 0.6
vt 0.6 0.6
vt 0.6 0.9
vt 0.5333333333333333 0.6
vt 0.6 0.9
vt 0.5333333333333333 0.9
vt 0.5333333333333333 0.6
vt 0.6 0.6
vt 0.6 0.9
vt 0.3333333333333333 0.6
vt 0.6 0.9
vt 0.3333333333333333 0.9
vt 0.3333333333333333 0.6
vt 0.6 0.6
vt 0.6 0.9
vt 0.3333333333333333 0.5
vt 0.6 0.6
vt 0.3333333333333333 0.6
vt 0.3333333333333333 0.5
vt 0.6 0.5
vt 0.6 0.6
vt 0.3333333333333333 0.30000000000000004
vt 0.6 0.5
vt 0.3333333333333333 0.5
vt 0.3333333333333333 0.30000000000000004
vt 0.6 0.30000000000000004
vt 0.6 0.5
vt 0.3333333333333333 0.19999999999999996
vt 0.6 0.30000000000000004
vt 0.3333333333333333 0.30000000000000004
vt 0.3333333333333333 0.19999999999999996
vt 0.6 0.19999999999999996
vt 0.6 0.30000000000000004
vt 0.3333333333333333 0.19999999999999996
vt 0.6 0.30000000000000004
vt 0.3333333333333333 0.30000000000000004
vt 0.3333333333333333 0.19999999999999996
vt 0.6 0.19999999999999996
vt 0.6 0.30000000000000004
vt 0.3333333333333333 0.6
vt 0.6 0.9
vt 0.3333333333333333 0.9
vt 0.3333333333333333 0.6
vt 0.6 0.6
vt 0.6 0.9
vt 0.6 0.6
vt 0.3333333333333333 0.5
vt 0.6 0.5
vt 0.6 0.6
vt 0.3333333333333333 0.6
vt 0.3333333333333333 0.5
vt 0.3333333333333333 0.5
vt 0.6 0.6
vt 0.3333333333333333 0.6
vt 0.3333333333333333 0.5
vt 0.6 0.5
vt 0.6 0.6
vt 0.3333333333333333 0.30000000000000004
vt 0.6 0.5
vt 0.3333333333333333 0.5
vt 0.3333333333333333 0.30000000000000004
vt 0.6 0.30000000000000004
vt 0.6 0.5
vt 0.3333333333333333 0.30000000000000004
vt 0.6 0.5
vt 0.3333333333333333 0.5
vt 0.3333333333333333 0.30000000000000004
vt 0.6 0.30000000000000004
vt 0.6 0.5
vt 0.26666666666666666 0.5
vt 0.2 0.30000000000000004
vt 0.26666666666666666 0.30000000000000004
vt 0.26666666666666666 0.5
vt 0.2 0.5
vt 0.2 0.30000000000000004
vn 0.38272192329550336 0.9238635880844808 0.0000063764680166926475
vn 0.00009998999980817563 0.9999999950010001 -4.998999965579578e-13
vn 0.0000999899998081756 0.9999999950009999 -1.6663333218598588e-13
vn 0.38272192329550336 0.9238635880844808 0.0000063764680166926475
vn 0.5620986276973139 0.8270702102716955 0.000004682939097387805
vn 0.00009998999980817563 0.9999999950010001 -4.998999965579578e-13
vn 0.9238795325112867 -0.38268343236508967 1.650859077134813e-16
vn 0.9238779253730834 0.3826873123036089 0.000003188625374582106
vn 0.9238747489338375 0.38269498068537927 0.000006376204293562893
vn 0.9238795325112867 -0.38268343236508967 1.650859077134813e-16
vn 0.9238795325115668 -0.38268343236441044 -4.817161348839521e-8
vn 0.9238779253730834 0.3826873123036089 0.000003188625374582106
vn 0.9238747489338375 0.38269498068537927 0.000006376204293562893
vn 0.5620986276973139 0.8270702102716955 0.000004682939097387805
vn 0.38272192329550336 0.9238635880844808 0.0000063764680166926475
vn 0.9238747489338375 0.38269498068537927 0.000006376204293562893
vn 0.9238779253730834 0.3826873123036089 0.000003188625374582106
vn 0.5620986276973139 0.8270702102716955 0.000004682939097387805
vn -0.5620815281782502 -0.827081831308609 -1.94614237878886e-8
vn -0.923879532431571 -0.3826834325575408 9.019030303838857e-10
vn -0.9238795314736579 -0.38268343487014594 -3.4204505521766405e-8
vn -0.5620815281782502 -0.827081831308609 -1.94614237878886e-8
vn -0.38264488992836376 -0.9238954963694272 -7.545017528691995e-14
vn -0.923879532431571 -0.3826834325575408 9.019030303838857e-10
vn 0.7071067811865477 -0.7071067811865474 2.0934566115783675e-16
vn 0.9238795325115668 -0.38268343236441044 -4.817161348839521e-8
vn 0.9238795325112867 -0.38268343236508967 1.650859077134813e-16
vn 0.7071067811865477 -0.7071067811865474 2.0934566115783675e-16
vn 0.5620815986906146 -0.8270817833886814 -3.1368467531755935e-8
vn 0.9238795325115668 -0.38268343236441044 -4.817161348839521e-8
vn 0.35947529463150724 0.919063325367937 0.1615553048129974
vn 0.0000999899998081756 0.9999999950009999 -1.6663333218598588e-13
vn 0.00008630209730995733 0.8628561961624945 0.5054494804586691
vn 0.35947529463150724 0.919063325367937 0.1615553048129974
vn 0.38272192329550336 0.9238635880844808 0.0000063764680166926475
vn 0.0000999899998081756 0.9999999950009999 -1.6663333218598588e-13
vn -0.6926670136383853 0.6927362803392698 0.20082045244196
vn -0.9238699662533686 0.3827065265349755 -0.0000015917087169913777
vn -0.9101743757491464 0.29290555399044166 0.2928974943068042
vn -0.6926670136383853 0.6927362803392698 0.20082045244196
vn -0.7070773233152156 0.7071362378245999 -0.0000029429969862016437
vn -0.9238699662533686 0.3827065265349755 -0.0000015917087169913777
vn 0.8425449846030526 0.38086439446183423 0.38086777489236634
vn 0.38272192329550336 0.9238635880844808 0.0000063764680166926475
vn 0.35947529463150724 0.919063325367937 0.1615553048129974
vn 0.8425449846030526 0.38086439446183423 0.38086777489236634
vn 0.9238747489338375 0.38269498068537927 0.000006376204293562893
vn 0.38272192329550336 0.9238635880844808 0.0000063764680166926475
vn 0.9101817539855097 -0.29289006071457724 0.292890059658009
vn 0.9238747489338375 0.38269498068537927 0.000006376204293562893
vn 0.8425449846030526 0.38086439446183423 0.38086777489236634
vn 0.9101817539855097 -0.29289006071457724 0.292890059658009
vn 0.9238795325112867 -0.38268343236508967 1.650859077134813e-16
vn 0.9238747489338375 0.38269498068537927 0.000006376204293562893
vn 0.3594265645843881 0.16155855381716153 0.9190818126584663
vn 0.8425449846030526 0.38086439446183423 0.38086777489236634
vn 0.35947529463150724 0.919063325367937 0.1615553048129974
vn -0.5471327112038146 0.15862100305173024 0.8218790505430991
vn -0.6926670136383853 0.6927362803392698 0.20082045244196
vn -0.9101743757491464 0.29290555399044166 0.2928974943068042
vn 0.38086140097447374 -0.38086140131251134 0.8425492188816219
vn 0.8425449846030526 0.38086439446183423 0.38086777489236634
vn 0.3594265645843881 0.16155855381716153 0.9190818126584663
vn 0.38086140097447374 -0.38086140131251134 0.8425492188816219
vn 0.9101817539855097 -0.29289006071457724 0.292890059658009
vn 0.8425449846030526 0.38086439446183423 0.38086777489236634
vn 0.00007073872753233132 0.7071067594784922 0.7071067993562632
vn 0.00008630209730995733 0.8628561961624945 0.5054494804586691
vn 0.00007070359983039895 0.7071067067965993 0.7071068520416622
vn 0.00007073872753233132 0.7071067594784922 0.7071067993562632
vn 0.00007077385523426318 0.7071068121603801 0.707106746670859
vn 0.00008630209730995733 0.8628561961624945 0.5054494804586691
vn 0 -0.3826834323650898 0.9238795325112867
vn 0.3594265645843881 0.16155855381716153 0.9190818126584663
vn 0 0 1
vn 0 -0.3826834323650898 0.9238795325112867
vn 0.38086140097447374 -0.38086140131251134 0.8425492188816219
vn 0.3594265645843881 0.16155855381716153 0.9190818126584663
vn 0 -0.3826834323650898 0.9238795325112867
vn 0 0 1
vn 0 0 1
vn 0 -0.3826834323650898 0.9238795325112867
vn 0 -0.3826834323650898 0.9238795325112867
vn 0 0 1
vn -0.29289006023815944 -0.2928900600366258 0.9101817540169814
vn 0 0 1
vn -0.5471327112038146 0.15862100305173024 0.8218790505430991
vn -0.29289006023815944 -0.2928900600366258 0.9101817540169814
vn 0 -0.3826834323650898 0.9238795325112867
vn 0 0 1
vn -0.8425492191752623 -0.38086140053016704 0.38086140110722116
vn -0.5471327112038146 0.15862100305173024 0.8218790505430991
vn -0.9101743757491464 0.29290555399044166 0.2928974943068042
vn -0.8425492191752623 -0.38086140053016704 0.38086140110722116
vn -0.29289006023815944 -0.2928900600366258 0.9101817540169814
vn -0.5471327112038146 0.15862100305173024 0.8218790505430991
vn -0.38264488992836376 -0.9238954963694272 -7.545017528691995e-14
vn -0.8425492191752623 -0.38086140053016704 0.38086140110722116
vn -0.923879532431571 -0.3826834325575408 9.019030303838857e-10
vn -0.38264488992836376 -0.9238954963694272 -7.545017528691995e-14
vn -0.24404860534290693 -0.8928698719691205 0.37844903218270837
vn -0.8425492191752623 -0.38086140053016704 0.38086140110722116
vn 0 -0.7071067811865476 0.7071067811865476
vn 0 -0.3826834323650898 0.9238795325112867
vn 0 -0.3826834323650898 0.9238795325112867
vn 0 -0.7071067811865476 0.7071067811865476
vn 0 -0.7071067811865476 0.7071067811865476
vn 0 -0.3826834323650898 0.9238795325112867
vn 0 -0.7071067811865476 0.7071067811865476
vn 0.38086140097447374 -0.38086140131251134 0.8425492188816219
vn 0 -0.3826834323650898 0.9238795325112867
vn 0 -0.7071067811865476 0.7071067811865476
vn 0.5545191572101482 -0.7514017527599339 0.3576365616603624
vn 0.38086140097447374 -0.38086140131251134 0.8425492188816219
vn -0.24404860534290693 -0.8928698719691205 0.37844903218270837
vn 0 -0.3826834323650898 0.9238795325112867
vn -0.29289006023815944 -0.2928900600366258 0.9101817540169814
vn -0.24404860534290693 -0.8928698719691205 0.37844903218270837
vn 0 -0.7071067811865476 0.7071067811865476
vn 0 -0.3826834323650898 0.9238795325112867
vn -0.24404860534290693 -0.8928698719691205 0.37844903218270837
vn -0.29289006023815944 -0.2928900600366258 0.9101817540169814
vn -0.8425492191752623 -0.38086140053016704 0.38086140110722116
vn 0.5545191572101482 -0.7514017527599339 0.3576365616603624
vn 0.9238795325112867 -0.38268343236508967 1.650859077134813e-16
vn 0.9101817539855097 -0.29289006071457724 0.292890059658009
vn 0.5545191572101482 -0.7514017527599339 0.3576365616603624
vn 0.7071067811865477 -0.7071067811865474 2.0934566115783675e-16
vn 0.9238795325112867 -0.38268343236508967 1.650859077134813e-16
vn 0.5545191572101482 -0.7514017527599339 0.3576365616603624
vn 0.9101817539855097 -0.29289006071457724 0.292890059658009
vn 0.38086140097447374 -0.38086140131251134 0.8425492188816219
vn -0.38264488992836376 -0.9238954963694272 -7.545017528691995e-14
vn 0.00008343534492269727 -0.9999999965192717 -2.0856750891648884e-13
vn 0.00008343534464460726 -0.9999999965192715 -1.3904497506704558e-13
vn -0.38264488992836376 -0.9238954963694272 -7.545017528691995e-14
vn -0.5620815281782502 -0.827081831308609 -1.94614237878886e-8
vn 0.00008343534492269727 -0.9999999965192717 -2.0856750891648884e-13
vn -0.24404860534290693 -0.8928698719691205 0.37844903218270837
vn 0.00008343534464460726 -0.9999999965192715 -1.3904497506704558e-13
vn 0.00008343534464460726 -0.9999999965192717 0
vn -0.24404860534290693 -0.8928698719691205 0.37844903218270837
vn -0.38264488992836376 -0.9238954963694272 -7.545017528691995e-14
vn 0.00008343534464460726 -0.9999999965192715 -1.3904497506704558e-13
vn -0.25278419640988786 0.967522687095969 5.2165080171984306e-8
vn -0.00010000000237614648 0.9999999949999985 4.9996499023316564e-8
vn -0.00010000000237585043 0.9999999949999985 4.99964988012553e-8
vn -0.25278419640988786 0.967522687095969 5.2165080171984306e-8
vn -0.562098645878843 0.8270701979283074 3.822311321749081e-8
vn -0.00010000000237614648 0.9999999949999985 4.9996499023316564e-8
vn -0.8628474967627566 0.5054643383367846 3.5169968298202554e-8
vn -0.562098645878843 0.8270701979283074 3.822311321749081e-8
vn -0.25278419640988786 0.967522687095969 5.2165080171984306e-8
vn -0.8628474967627566 0.5054643383367846 3.5169968298202554e-8
vn -0.9238731654060202 0.38269880355199304 -0.000001591633281204356
vn -0.562098645878843 0.8270701979283074 3.822311321749081e-8
vn 0.9238795325115668 -0.38268343236441044 -4.817161348839521e-8
vn 0.9675401552899611 0.25271732805938957 -2.3181378595833755e-8
vn 0.9238779253730834 0.3826873123036089 0.000003188625374582106
vn 0.9238795325115668 -0.38268343236441044 -4.817161348839521e-8
vn 0.8628562718048762 -0.5054493586967773 -7.797738820495361e-8
vn 0.9675401552899611 0.25271732805938957 -2.3181378595833755e-8
vn 0.5620815986906146 -0.8270817833886814 -3.1368467531755935e-8
vn 0.8628562718048762 -0.5054493586967773 -7.797738820495361e-8
vn 0.9238795325115668 -0.38268343236441044 -4.817161348839521e-8
vn 0.5620815986906146 -0.8270817833886814 -3.1368467531755935e-8
vn 0.2526689451021506 -0.9675527914181046 -9.958551442152948e-9
vn 0.8628562718048762 -0.5054493586967773 -7.797738820495361e-8
vn -0.7071067811852251 -0.7071067811878663 -7.34447182156674e-8
vn -0.9238795314736579 -0.38268343487014594 -3.4204505521766405e-8
vn -0.9675382101605037 -0.25272477496163154 -3.905745389996617e-8
vn -0.7071067811852251 -0.7071067811878663 -7.34447182156674e-8
vn -0.5620815281782502 -0.827081831308609 -1.94614237878886e-8
vn -0.9238795314736579 -0.38268343487014594 -3.4204505521766405e-8
vn 0.2526689451021506 -0.9675527914181046 -9.958551442152948e-9
vn -0.00008352764053318816 -0.9999999965115667 -6.728355050995273e-9
vn -0.00008358532772308696 -0.9999999965067452 -4.9993743628251734e-8
vn 0.2526689451021506 -0.9675527914181046 -9.958551442152948e-9
vn 0.5620815986906146 -0.8270817833886814 -3.1368467531755935e-8
vn -0.00008352764053318816 -0.9999999965115667 -6.728355050995273e-9
vn 0.9238779253730834 0.3826873123036089 0.000003188625374582106
vn 0.7071067135384452 0.7071068487790187 0.000008869331460432278
vn 0.5620986276973139 0.8270702102716955 0.000004682939097387805
vn 0.9238779253730834 0.3826873123036089 0.000003188625374582106
vn 0.9675401552899611 0.25271732805938957 -2.3181378595833755e-8
vn 0.7071067135384452 0.7071068487790187 0.000008869331460432278
vn -0.7070773233152156 0.7071362378245999 -0.0000029429969862016437
vn -0.9238731654060202 0.38269880355199304 -0.000001591633281204356
vn -0.9238699662533686 0.3827065265349755 -0.0000015917087169913777
vn -0.7070773233152156 0.7071362378245999 -0.0000029429969862016437
vn -0.562098645878843 0.8270701979283074 3.822311321749081e-8
vn -0.9238731654060202 0.38269880355199304 -0.000001591633281204356
vn -0.9675382101605037 -0.25272477496163154 -3.905745389996617e-8
vn -0.9238731654060202 0.38269880355199304 -0.000001591633281204356
vn -0.8628474967627566 0.5054643383367846 3.5169968298202554e-8
vn -0.9675382101605037 -0.25272477496163154 -3.905745389996617e-8
vn -0.9238795314736579 -0.38268343487014594 -3.4204505521766405e-8
vn -0.9238731654060202 0.38269880355199304 -0.000001591633281204356
vn -0.9238795314736579 -0.38268343487014594 -3.4204505521766405e-8
vn -0.9238699662533686 0.3827065265349755 -0.0000015917087169913777
vn -0.9238731654060202 0.38269880355199304 -0.000001591633281204356
vn -0.9238795314736579 -0.38268343487014594 -3.4204505521766405e-8
vn -0.923879532431571 -0.3826834325575408 9.019030303838857e-10
vn -0.9238699662533686 0.3827065265349755 -0.0000015917087169913777
vn -0.923879532431571 -0.3826834325575408 9.019030303838857e-10
vn -0.9101743757491464 0.29290555399044166 0.2928974943068042
vn -0.9238699662533686 0.3827065265349755 -0.0000015917087169913777
vn -0.923879532431571 -0.3826834325575408 9.019030303838857e-10
vn -0.8425492191752623 -0.38086140053016704 0.38086140110722116
vn -0.9101743757491464 0.29290555399044166 0.2928974943068042
g Scene
f 1/1/1 3/2/2 2/3/3
f 1/4/4 4/5/5 3/6/6
f 5/7/7 7/8/8 6/9/9
f 5/10/10 8/11/11 7/12/12
f 6/13/13 4/14/14 1/15/15
f 6/16/16 7/17/17 4/18/18
f 9/19/19 11/20/20 10/21/21
f 9/22/22 12/23/23 11/24/24
f 13/25/25 8/26/26 5/27/27
f 13/28/28 14/29/29 8/30/30
f 15/31/31 2/32/32 16/33/33
f 15/34/34 1/35/35 2/36/36
f 17/37/37 19/38/38 18/39/39
f 17/40/40 20/41/41 19/42/42
f 21/43/43 1/44/44 15/45/45
f 21/46/46 6/47/47 1/48/48
f 22/49/49 6/50/50 21/51/51
f 22/52/52 5/53/53 6/54/54
f 23/55/55 21/56/56 15/57/57
f 24/58/58 17/59/59 18/60/60
f 25/61/61 21/62/62 23/63/63
f 25/64/64 22/65/65 21/66/66
f 26/67/67 16/68/68 27/69/69
f 26/70/70 28/71/71 16/72/72
f 29/73/73 23/74/74 30/75/75
f 29/76/76 25/77/77 23/78/78
f 31/79/79 30/80/80 32/81/81
f 31/82/82 29/83/83 30/84/84
f 33/85/85 32/86/86 24/87/87
f 33/88/88 31/89/89 32/90/90
f 34/91/91 24/92/92 18/93/93
f 34/94/94 33/95/95 24/96/96
f 12/97/97 34/98/98 11/99/99
f 12/100/100 35/101/101 34/102/102
f 36/103/103 29/104/104 31/105/105
f 36/106/106 37/107/107 29/108/108
f 37/109/109 25/110/110 29/111/111
f 37/112/112 38/113/113 25/114/114
f 35/115/115 31/116/116 33/117/117
f 35/118/118 36/119/119 31/120/120
f 35/121/121 33/122/122 34/123/123
f 38/124/124 5/125/125 22/126/126
f 38/127/127 13/128/128 5/129/129
f 38/130/130 22/131/131 25/132/132
f 12/133/133 40/134/134 39/135/135
f 12/136/136 9/137/137 40/138/138
f 35/139/139 39/140/140 41/141/141
f 35/142/142 12/143/143 39/144/144
f 42/145/145 44/146/146 43/147/147
f 42/148/148 45/149/149 44/150/150
f 46/151/151 45/152/152 42/153/153
f 46/154/154 47/155/155 45/156/156
f 8/157/157 48/158/158 7/159/159
f 8/160/160 49/161/161 48/162/162
f 14/163/163 49/164/164 8/165/165
f 14/166/166 50/167/167 49/168/168
f 51/169/169 10/170/170 52/171/171
f 51/172/172 9/173/173 10/174/174
f 50/175/175 54/176/176 53/177/177
f 50/178/178 14/179/179 54/180/180
f 7/181/181 55/182/182 4/183/183
f 7/184/184 48/185/185 55/186/186
f 20/187/187 47/188/188 19/189/189
f 20/190/190 45/191/191 47/192/192
f 52/193/193 47/194/194 46/195/195
f 52/196/196 10/197/197 47/198/198
f 10/199/199 19/200/200 47/201/201
f 10/202/202 11/203/203 19/204/204
f 11/205/205 18/206/206 19/207/207
f 11/208/208 34/209/209 18/210/210
