o Default
v -4 1 -7
v -4 3 -7
v -4 3 -6
v -4 1 -6
v 0 0 -7
v -3 0 -7
v -3 0 -6
v 0 0 -6
v -3 0 -7
v -3 1 -8
v -3 0 -6
v 1 1 -7
v 0 1 -8
v -1 1 -8
v -1 0 -7
v -2 0 -7
v -2 1 -8
v 1 1 -6
v 1 3 -7
v 0 3 -8
v -1 3 -8
v -2 3 -8
v -3 3 -8
v 0 3 -8
v 0 4 -7
v -3 4 -7
v 0 3 -8
v 1 3 -7
v 0 4 -7
v -3 3 -8
v -3 4 -7
v 1 3 -6
v -3 4 -6
v 1 3 -6
v 0 4 -6
v 0 4 -6
v -3 4 -6
vt 0.2 0.30000000000000004
vt 0.26666666666666666 0.5
vt 0.2 0.5
vt 0.2 0.30000000000000004
vt 0.26666666666666666 0.30000000000000004
vt 0.26666666666666666 0.5
vt 0.5333333333333333 0.6
vt 0.6 0.9
vt 0.5333333333333333 0.9
vt 0.5333333333333333 0.6
vt 0.6 0.6
vt 0.6 0.9
vt 0.8 0.4
vt 0.8666666666666667 0.5
vt 0.8 0.5
vt 0.8 0.4
vt 0.8666666666666667 0.5
vt 0.8 0.5
vt 0.8 0.4
vt 0.8666666666666667 0.4
vt 0.8666666666666667 0.5
vt 0.8 0.4
vt 0.8666666666666667 0.5
vt 0.8 0.5
vt 0.8 0.4
vt 0.8666666666666667 0.5
vt 0.8 0.5
vt 0.8 0.4
vt 0.8666666666666667 0.4
vt 0.8666666666666667 0.5
vt 0.8 0.4
vt 0.8666666666666667 0.5
vt 0.8 0.5
vt 0.8 0.4
vt 0.8666666666666667 0.4
vt 0.8666666666666667 0.5
vt 0.8 0.4
vt 0.8666666666666667 0.5
vt 0.8 0.5
vt 0.8 0.4
vt 0.8666666666666667 0.4
vt 0.8666666666666667 0.5
vt 0.8 0.4
vt 0.8666666666666667 0.5
vt 0.8 0.5
vt 0.8 0.4
vt 0.8666666666666667 0.4
vt 0.8666666666666667 0.5
vt 0.13333333333333333 0.30000000000000004
vt 0.2 0.5
vt 0.13333333333333333 0.5
vt 0.13333333333333333 0.30000000000000004
vt 0.2 0.30000000000000004
vt 0.2 0.5
vt 0.13333333333333333 0.30000000000000004
vt 0.2 0.5
vt 0.13333333333333333 0.5
vt 0.13333333333333333 0.30000000000000004
vt 0.2 0.30000000000000004
vt 0.2 0.5
vt 0.13333333333333333 0.30000000000000004
vt 0.2 0.5
vt 0.13333333333333333 0.5
vt 0.13333333333333333 0.30000000000000004
vt 0.2 0.30000000000000004
vt 0.2 0.5
vt 0.13333333333333333 0.30000000000000004
vt 0.2 0.5
vt 0.13333333333333333 0.5
vt 0.13333333333333333 0.30000000000000004
vt 0.2 0.30000000000000004
vt 0.2 0.5
vt 0.13333333333333333 0.6
vt 0.2 0.9
vt 0.13333333333333333 0.9
vt 0.13333333333333333 0.6
vt 0.2 0.6
vt 0.2 0.9
vt 0.13333333333333333 0.30000000000000004
vt 0.2 0.5
vt 0.13333333333333333 0.5
vt 0.13333333333333333 0.30000000000000004
vt 0.2 0.30000000000000004
vt 0.2 0.5
vt 0.8 0.4
vt 0.8666666666666667 0.5
vt 0.8 0.5
vt 0.8 0.4
vt 0.8666666666666667 0.4
vt 0.8666666666666667 0.5
vt 0.8 0.4
vt 0.8666666666666667 0.5
vt 0.8 0.5
vt 0.8 0.4
vt 0.8666666666666667 0.4
vt 0.8666666666666667 0.5
vt 0.26666666666666666 0.5
vt 0.2 0.30000000000000004
vt 0.26666666666666666 0.30000000000000004
vt 0.26666666666666666 0.5
vt 0.2 0.5
vt 0.2 0.30000000000000004
vt 0.2 0.5
vt 0.26666666666666666 0.6
vt 0.2 0.6
vt 0.2 0.5
vt 0.26666666666666666 0.5
vt 0.26666666666666666 0.6
vt 0.2 0.5
vt 0.26666666666666666 0.6
vt 0.2 0.6
vt 0.2 0.5
vt 0.26666666666666666 0.5
vt 0.26666666666666666 0.6
vt 0.2 0.6
vt 0.26666666666666666 0.9
vt 0.2 0.9
vt 0.2 0.6
vt 0.26666666666666666 0.6
vt 0.26666666666666666 0.9
vn -0.9101817693258745 -0.292890036732634 -0.29289003596841096
vn -0.967540172567973 0.2527172619097022 2.9509757055385395e-9
vn -0.8425544756242571 0.3808494731869369 -0.3808616998055408
vn -0.9101817693258745 -0.292890036732634 -0.29289003596841096
vn -0.862856185832154 -0.505449505461412 -3.822504664734281e-8
vn -0.967540172567973 0.2527172619097022 2.9509757055385395e-9
vn 0.24404304577020677 -0.8928677870871446 -0.3784575360503556
vn -0.00009997999923973848 -0.9999999950019987 -4.999349750190449e-8
vn -0.00009997999924003455 -0.9999999950019987 -4.9993498390127325e-8
vn 0.24404304577020677 -0.8928677870871446 -0.3784575360503556
vn 0.5054375483184677 -0.8628631900537893 -1.228814434033824e-7
vn -0.00009997999923973848 -0.9999999950019987 -4.999349750190449e-8
vn -0.5545189628821086 -0.751401858028996 -0.35763664179544485
vn -0.9101817693258745 -0.292890036732634 -0.29289003596841096
vn -0.38086095126071356 -0.38086137098788697 -0.8425494358754336
vn -0.5545189628821086 -0.751401858028996 -0.35763664179544485
vn -0.862856185832154 -0.505449505461412 -3.822504664734281e-8
vn -0.9101817693258745 -0.292890036732634 -0.29289003596841096
vn -0.5545189628821086 -0.751401858028996 -0.35763664179544485
vn -0.7071067364106276 -0.7071068259624625 -5.4513720817404566e-8
vn -0.862856185832154 -0.505449505461412 -3.822504664734281e-8
vn 0.24404304577020677 -0.8928677870871446 -0.3784575360503556
vn 0.29289097916328716 -0.2928806940058449 -0.9101844721832082
vn 0.8425543900695036 -0.3808496223509857 -0.3808617399132108
vn 0.24404304577020677 -0.8928677870871446 -0.3784575360503556
vn -0.000006520097566478875 -0.3826796067264586 -0.9238811171104057
vn 0.29289097916328716 -0.2928806940058449 -0.9101844721832082
vn 0.24404304577020677 -0.8928677870871446 -0.3784575360503556
vn -0.000011912342874203548 -0.7071067457848108 -0.7071068164879413
vn -0.000006520097566478875 -0.3826796067264586 -0.9238811171104057
vn 4.786534476276825e-7 -0.7071067458348381 -0.7071068165380933
vn -0.38086095126071356 -0.38086137098788697 -0.8425494358754336
vn -4.704299288374062e-8 -0.3826834275064667 -0.923879534523793
vn 4.786534476276825e-7 -0.7071067458348381 -0.7071068165380933
vn -0.5545189628821086 -0.751401858028996 -0.35763664179544485
vn -0.38086095126071356 -0.38086137098788697 -0.8425494358754336
vn -0.000011912342874203548 -0.7071067457848108 -0.7071068164879413
vn -4.704299288374062e-8 -0.3826834275064667 -0.923879534523793
vn -0.000006520097566478875 -0.3826796067264586 -0.9238811171104057
vn -0.000011912342874203548 -0.7071067457848108 -0.7071068164879413
vn 4.786534476276825e-7 -0.7071067458348381 -0.7071068165380933
vn -4.704299288374062e-8 -0.3826834275064667 -0.923879534523793
vn 0.5054375483184677 -0.8628631900537893 -1.228814434033824e-7
vn 0.8425543900695036 -0.3808496223509857 -0.3808617399132108
vn 0.9675401520500384 -0.25271734046358524 -3.182775412134193e-8
vn 0.5054375483184677 -0.8628631900537893 -1.228814434033824e-7
vn 0.24404304577020677 -0.8928677870871446 -0.3784575360503556
vn 0.8425543900695036 -0.3808496223509857 -0.3808617399132108
vn 0.8425543900695036 -0.3808496223509857 -0.3808617399132108
vn 0.4787140117873565 0.21424099365895574 -0.8514303797460355
vn 0.9675382343331587 1.2233203232156076e-7 -0.25272468241835583
vn 0.8425543900695036 -0.3808496223509857 -0.3808617399132108
vn 0.29289097916328716 -0.2928806940058449 -0.9101844721832082
vn 0.4787140117873565 0.21424099365895574 -0.8514303797460355
vn 0.29289097916328716 -0.2928806940058449 -0.9101844721832082
vn -1.6895420271700459e-7 1.989417179919917e-7 -0.999999999999966
vn 0.4787140117873565 0.21424099365895574 -0.8514303797460355
vn 0.29289097916328716 -0.2928806940058449 -0.9101844721832082
vn -0.000006520097566478875 -0.3826796067264586 -0.9238811171104057
vn -1.6895420271700459e-7 1.989417179919917e-7 -0.999999999999966
vn -0.000006520097566478875 -0.3826796067264586 -0.9238811171104057
vn -3.278999061159257e-7 -3.9476840169857924e-8 -0.9999999999999455
vn -1.6895420271700459e-7 1.989417179919917e-7 -0.999999999999966
vn -0.000006520097566478875 -0.3826796067264586 -0.9238811171104057
vn -4.704299288374062e-8 -0.3826834275064667 -0.923879534523793
vn -3.278999061159257e-7 -3.9476840169857924e-8 -0.9999999999999455
vn -4.704299288374062e-8 -0.3826834275064667 -0.923879534523793
vn -0.4085994109456401 0.3561816068951791 -0.8403458718197193
vn -3.278999061159257e-7 -3.9476840169857924e-8 -0.9999999999999455
vn -4.704299288374062e-8 -0.3826834275064667 -0.923879534523793
vn -0.38086095126071356 -0.38086137098788697 -0.8425494358754336
vn -0.4085994109456401 0.3561816068951791 -0.8403458718197193
vn -0.4085994109456401 0.3561816068951791 -0.8403458718197193
vn -0.00008210378231206289 0.8628606524378277 -0.5054418737436928
vn -0.000059001833665560426 0.7071068409823942 -0.7071067189291039
vn -0.4085994109456401 0.3561816068951791 -0.8403458718197193
vn -0.00009675655518512486 0.9675402409536175 -0.2527169815694718
vn -0.00008210378231206289 0.8628606524378277 -0.5054418737436928
vn -0.38086095126071356 -0.38086137098788697 -0.8425494358754336
vn -0.8425544756242571 0.3808494731869369 -0.3808616998055408
vn -0.4085994109456401 0.3561816068951791 -0.8403458718197193
vn -0.38086095126071356 -0.38086137098788697 -0.8425494358754336
vn -0.9101817693258745 -0.292890036732634 -0.29289003596841096
vn -0.8425544756242571 0.3808494731869369 -0.3808616998055408
vn 0.4787140117873565 0.21424099365895574 -0.8514303797460355
vn 0.40886523656150703 0.9079558498714728 0.09189881944657649
vn -0.707104468284944 -0.0025528397881094383 0.7071044858721256
vn 0.4787140117873565 0.21424099365895574 -0.8514303797460355
vn 0.6926681055046224 0.6927373823623109 -0.20081288478195466
vn 0.40886523656150703 0.9079558498714728 0.09189881944657649
vn -0.4085994109456401 0.3561816068951791 -0.8403458718197193
vn -0.8512728995965899 0.4785979181397603 -0.21512434349627024
vn -0.999999997500623 -0.000049986271567446745 0.00005000127116634632
vn -0.4085994109456401 0.3561816068951791 -0.8403458718197193
vn -0.8425544756242571 0.3808494731869369 -0.3808616998055408
vn -0.8512728995965899 0.4785979181397603 -0.21512434349627024
vn 0.9675401520500384 -0.25271734046358524 -3.182775412134193e-8
vn 0.9675382343331587 1.2233203232156076e-7 -0.25272468241835583
vn 0.9999999999999982 5.960904542879629e-8 -1.0008495147851495e-8
vn 0.9675401520500384 -0.25271734046358524 -3.182775412134193e-8
vn 0.8425543900695036 -0.3808496223509857 -0.3808617399132108
vn 0.9675382343331587 1.2233203232156076e-7 -0.25272468241835583
vn -0.8425544756242571 0.3808494731869369 -0.3808616998055408
vn -0.7071244843609494 0.707089077568916 2.6955791352030307e-8
vn -0.8512728995965899 0.4785979181397603 -0.21512434349627024
vn -0.8425544756242571 0.3808494731869369 -0.3808616998055408
vn -0.967540172567973 0.2527172619097022 2.9509757055385395e-9
vn -0.7071244843609494 0.707089077568916 2.6955791352030307e-8
vn 0.6926681055046224 0.6927373823623109 -0.20081288478195466
vn 0.7070714267286372 0.7071421338767964 3.1712190110928693e-7
vn 0.40886523656150703 0.9079558498714728 0.09189881944657649
vn 0.6926681055046224 0.6927373823623109 -0.20081288478195466
vn 0.7070714267286373 0.7071421338767963 3.17121900952285e-7
vn 0.7070714267286372 0.7071421338767964 3.1712190110928693e-7
vn -0.00009675655518512486 0.9675402409536175 -0.2527169815694718
vn -0.00010000000237172657 0.9999999949998934 4.611485474851639e-7
vn -0.00008210378231206289 0.8628606524378277 -0.5054418737436928
vn -0.00009675655518512486 0.9675402409536175 -0.2527169815694718
vn -0.00010000000237231867 0.9999999949998934 4.6114854926147627e-7
vn -0.00010000000237172657 0.9999999949998934 4.611485474851639e-7
g Scene
f 1/1/1 3/2/2 2/3/3
f 1/4/4 4/5/5 3/6/6
f 5/7/7 7/8/8 6/9/9
f 5/10/10 8/11/11 7/12/12
f 9/13/13 1/14/14 10/15/15
f 9/16/16 4/17/17 1/18/18
f 9/19/19 11/20/20 4/21/21
f 5/22/22 13/23/23 12/24/24
f 5/25/25 14/26/26 13/27/27
f 5/28/28 15/29/29 14/30/30
f 16/31/31 10/32/32 17/33/33
f 16/34/34 9/35/35 10/36/36
f 15/37/37 17/38/38 14/39/39
f 15/40/40 16/41/41 17/42/42
f 8/43/43 12/44/44 18/45/45
f 8/46/46 5/47/47 12/48/48
f 12/49/49 20/50/50 19/51/51
f 12/52/52 13/53/53 20/54/54
f 13/55/55 21/56/56 20/57/57
f 13/58/58 14/59/59 21/60/60
f 14/61/61 22/62/62 21/63/63
f 14/64/64 17/65/65 22/66/66
f 17/67/67 23/68/68 22/69/69
f 17/70/70 10/71/71 23/72/72
f 23/73/73 25/74/74 24/75/75
f 23/76/76 26/77/77 25/78/78
f 10/79/79 2/80/80 23/81/81
f 10/82/82 1/83/83 2/84/84
f 20/85/85 28/86/86 27/87/87
f 20/88/88 29/89/89 28/90/90
f 23/91/91 31/92/92 30/93/93
f 23/94/94 2/95/95 31/96/96
f 18/97/97 19/98/98 32/99/99
f 18/100/100 12/101/101 19/102/102
f 2/103/103 33/104/104 31/105/105
f 2/106/106 3/107/107 33/108/108
f 29/109/109 34/110/110 28/111/111
f 29/112/112 35/113/113 34/114/114
f 26/115/115 36/116/116 25/117/117
f 26/118/118 37/119/119 36/120/120
