o Default
v 1 0 1
v 1 1 1
v 1 1 -1
v 1 0 -1
v -1 0 1
v -1 1 1
v -1 0 -1
v -1 1 -1
v 0 1 1
v 0 1 0
v 1 1 0
v 0 1 -1
v -1 1 0
v 0 0 0
v 1 0 0
v 0 0 -1
v -1 0 0
v 0 0 1
vt 0.5 0
vt 1 0.25
vt 0.5 0.25
vt 0.5 0
vt 1 0
vt 1 0.25
vt 0.5 0
vt 1 0.25
vt 0.5 0.25
vt 0.5 0
vt 1 0
vt 1 0.25
vt 0.5 0
vt 1 0.25
vt 0.5 0.25
vt 0.5 0
vt 1 0
vt 1 0.25
vt 0.25 0.25
vt 0 0.5
vt 0 0.25
vt 0.25 0.25
vt 0.25 0.5
vt 0 0.5
vt 0 0.25
vt 0.25 0.5
vt 0 0.5
vt 0 0.25
vt 0.25 0.25
vt 0.25 0.5
vt 0 0.5
vt 0.25 0.25
vt 0.25 0.5
vt 0 0.5
vt 0 0.25
vt 0.25 0.25
vt 0.25 0.5
vt 0 0.25
vt 0.25 0.25
vt 0.25 0.5
vt 0 0.5
vt 0 0.25
vt 0.5 0
vt 1 0.25
vt 0.5 0.25
vt 0.5 0
vt 1 0
vt 1 0.25
vt 0.25 1
vt 0 0.75
vt 0.25 0.75
vt 0.25 1
vt 0 1
vt 0 0.75
vt 0.25 1
vt 0 0.75
vt 0.25 0.75
vt 0.25 1
vt 0 1
vt 0 0.75
vt 0.25 1
vt 0 0.75
vt 0.25 0.75
vt 0.25 1
vt 0 1
vt 0 0.75
vt 0.25 1
vt 0 0.75
vt 0.25 0.75
vt 0.25 1
vt 0 1
vt 0 0.75
vn 0.816496581182843 -0.4082584950127654 0.40823808514963567
vn 0.8165101877582213 0.4082448877571149 -0.4082244785742455
vn 0.3333814764969576 0.666662961049908 0.6666462986418489
vn 0.816496581182843 -0.4082584950127654 0.40823808514963567
vn 0.33338147649680955 -0.6666629610497785 -0.6666462986420527
vn 0.8165101877582213 0.4082448877571149 -0.4082244785742455
vn -0.3333074109412209 -0.6666481484571295 0.6666981445679454
vn 0.3333814764969576 0.666662961049908 0.6666462986418489
vn -0.8164965811828174 0.40823808463949096 0.40825849552293536
vn -0.3333074109412209 -0.6666481484571295 0.6666981445679454
vn 0.816496581182843 -0.4082584950127654 0.40823808514963567
vn 0.3333814764969576 0.666662961049908 0.6666462986418489
vn -0.8164965811828513 -0.4082380846394569 -0.4082584955229013
vn -0.8164965811828174 0.40823808463949096 0.40825849552293536
vn -0.3333444432871067 0.6666555562963378 -0.6666722218518104
vn -0.8164965811828513 -0.4082380846394569 -0.4082584955229013
vn -0.3333074109412209 -0.6666481484571295 0.6666981445679454
vn -0.8164965811828174 0.40823808463949096 0.40825849552293536
vn 0.3333814764969576 0.666662961049908 0.6666462986418489
vn 0.000033329999975398586 0.9999999993056946 -0.000016665000102256583
vn 1.0414375581897201e-13 0.9999999998611389 0.0000166649999032214
vn 0.3333814764969576 0.666662961049908 0.6666462986418489
vn 0.00008332499989105283 0.9999999965284722 2.0822933967381654e-14
vn 0.000033329999975398586 0.9999999993056946 -0.000016665000102256583
vn 0.00008332499989105283 0.9999999965284722 2.0822933967381654e-14
vn 0.00003332999990596663 0.9999999993056945 0.00001666500008836771
vn 0.000033329999975398586 0.9999999993056946 -0.000016665000102256583
vn 0.00008332499989105283 0.9999999965284722 2.0822933967381654e-14
vn 0.8165101877582213 0.4082448877571149 -0.4082244785742455
vn 0.00003332999990596663 0.9999999993056945 0.00001666500008836771
vn 0.000033329999975398586 0.9999999993056946 -0.000016665000102256583
vn -0.3333444432871067 0.6666555562963378 -0.6666722218518104
vn -0.000016664999986538065 0.9999999998611389 -6.248541730045675e-14
vn 0.000033329999975398586 0.9999999993056946 -0.000016665000102256583
vn 0.00003332999990596663 0.9999999993056945 0.00001666500008836771
vn -0.3333444432871067 0.6666555562963378 -0.6666722218518104
vn 1.0414375581897201e-13 0.9999999998611389 0.0000166649999032214
vn -0.000016664999986538065 0.9999999998611389 -6.248541730045675e-14
vn -0.8164965811828174 0.40823808463949096 0.40825849552293536
vn 1.0414375581897201e-13 0.9999999998611389 0.0000166649999032214
vn 0.000033329999975398586 0.9999999993056946 -0.000016665000102256583
vn -0.000016664999986538065 0.9999999998611389 -6.248541730045675e-14
vn 0.33338147649680955 -0.6666629610497785 -0.6666462986420527
vn -0.3333444432871067 0.6666555562963378 -0.6666722218518104
vn 0.8165101877582213 0.4082448877571149 -0.4082244785742455
vn 0.33338147649680955 -0.6666629610497785 -0.6666462986420527
vn -0.8164965811828513 -0.4082380846394569 -0.4082584955229013
vn -0.3333444432871067 0.6666555562963378 -0.6666722218518104
vn 0.000049994999862429454 -0.9999999975004998 0.00004999499982077114
vn 0.33338147649680955 -0.6666629610497785 -0.6666462986420527
vn 0.00004999499983466002 -0.9999999981948055 0.000033329999730089334
vn 0.000049994999862429454 -0.9999999975004998 0.00004999499982077114
vn -6.248958922007092e-14 -0.9999999998611389 -0.000016665000069854733
vn 0.33338147649680955 -0.6666629610497785 -0.6666462986420527
vn -0.000016665000069854733 -0.9999999998611389 6.248541955921127e-14
vn -6.248958922007092e-14 -0.9999999998611389 -0.000016665000069854733
vn 0.000049994999862429454 -0.9999999975004998 0.00004999499982077114
vn -0.000016665000069854733 -0.9999999998611389 6.248541955921127e-14
vn -0.8164965811828513 -0.4082380846394569 -0.4082584955229013
vn -6.248958922007092e-14 -0.9999999998611389 -0.000016665000069854733
vn -0.3333074109412209 -0.6666481484571295 0.6666981445679454
vn 0.000049994999862429454 -0.9999999975004998 0.00004999499982077114
vn 0.00003332999977174765 -0.9999999981948055 0.00004999499983466003
vn -0.3333074109412209 -0.6666481484571295 0.6666981445679454
vn -0.000016665000069854733 -0.9999999998611389 6.248541955921127e-14
vn 0.000049994999862429454 -0.9999999975004998 0.00004999499982077114
vn 0.00003332999977174765 -0.9999999981948055 0.00004999499983466003
vn 0.00004999499983466002 -0.9999999981948055 0.000033329999730089334
vn 0.816496581182843 -0.4082584950127654 0.40823808514963567
vn 0.00003332999977174765 -0.9999999981948055 0.00004999499983466003
vn 0.000049994999862429454 -0.9999999975004998 0.00004999499982077114
vn 0.00004999499983466002 -0.9999999981948055 0.000033329999730089334
g Scene
f 1/1/1 3/2/2 2/3/3
f 1/4/4 4/5/5 3/6/6
f 5/7/7 2/8/8 6/9/9
f 5/10/10 1/11/11 2/12/12
f 7/13/13 6/14/14 8/15/15
f 7/16/16 5/17/17 6/18/18
f 2/19/19 10/20/20 9/21/21
f 2/22/22 11/23/23 10/24/24
f 11/25/25 12/26/26 10/27/27
f 11/28/28 3/29/29 12/30/30
f 10/31/31 8/32/32 13/33/33
f 10/34/34 12/35/35 8/36/36
f 9/37/37 13/38/38 6/39/39
f 9/40/40 10/41/41 13/42/42
f 4/43/43 8/44/44 3/45/45
f 4/46/46 7/47/47 8/48/48
f 14/49/49 4/50/50 15/51/51
f 14/52/52 16/53/53 4/54/54
f 17/55/55 16/56/56 14/57/57
f 17/58/58 7/59/59 16/60/60
f 5/61/61 14/62/62 18/63/63
f 5/64/64 17/65/65 14/66/66
f 18/67/67 15/68/68 1/69/69
f 18/70/70 14/71/71 15/72/72
