o Default
v 2 0 2
v -2 0 2
v -2 0 -2
v 2 0 -2
vt 0.4 0.7
vt 0.6 0.9
vt 0.4 0.9
vt 0.4 0.7
vt 0.6 0.7
vt 0.6 0.9
vn 0.00009998999980817563 0.9999999950010001 -4.998999937826779e-13
vn 0.00009998999980817563 0.9999999950010001 -4.998999937826779e-13
vn 0.00009998999980817563 0.9999999950010001 -4.998999965579578e-13
vn 0.00009998999980817563 0.9999999950010001 -4.998999937826779e-13
vn 0.00009998999980817563 0.9999999950010001 -4.998999910073979e-13
vn 0.00009998999980817563 0.9999999950010001 -4.998999937826779e-13
g Scene
f 1/1/1 3/2/2 2/3/3
f 1/4/4 4/5/5 3/6/6
