o Default
v -1 0.5 0
v -2 0 0
v -2 0 -1
v -1 0 -1
v 0 0.5 0
v 0 0 -1
v -1 0.5 1
v -2 0 1
v 0 0.5 1
vt 0.3333333333333333 0.5
vt 0 0
vt 0.3333333333333333 0
vt 0.3333333333333333 0.5
vt 0 0.5
vt 0 0
vt 0.3333333333333333 0.5
vt 0.6666666666666666 0
vt 0.6666666666666666 0.5
vt 0.3333333333333333 0.5
vt 0.3333333333333333 0
vt 0.6666666666666666 0
vt 1 0.5
vt 0.6666666666666666 0
vt 1 0
vt 1 0.5
vt 0.6666666666666666 0.5
vt 0.6666666666666666 0
vt 0 1
vt 0.3333333333333333 0.5
vt 0.3333333333333333 1
vt 0 1
vt 0 0.5
vt 0.3333333333333333 0.5
vn -0.15634489926955025 0.9752434723032286 -0.15638555624588815
vn -0.23561793728812724 0.9428299879674062 -0.2357027819468168
vn -0.44714204418748316 0.8944629630788739 7.451621723889285e-10
vn -0.15634489926955025 0.9752434723032286 -0.15638555624588815
vn 0.00002981125827512915 0.8944271906024126 -0.44721359530135535
vn -0.23561793728812724 0.9428299879674062 -0.2357027819468168
vn 0 0.9522263391221704 -0.30539318768104384
vn 0.00002981125827512915 0.8944271906024126 -0.44721359530135535
vn -0.15634489926955025 0.9752434723032286 -0.15638555624588815
vn 0 0.9522263391221704 -0.30539318768104384
vn 0 0.8944271909999161 -0.44721359549995804
vn 0.00002981125827512915 0.8944271906024126 -0.44721359530135535
vn -0.30534177997018147 0.9522428248113195 0
vn -0.44714204418748316 0.8944629630788739 7.451621723889285e-10
vn -0.44714204418748316 0.8944629630788739 0
vn -0.30534177997018147 0.9522428248113195 0
vn -0.15634489926955025 0.9752434723032286 -0.15638555624588815
vn -0.44714204418748316 0.8944629630788739 7.451621723889285e-10
vn 0 1 0
vn -0.15634489926955025 0.9752434723032286 -0.15638555624588815
vn -0.30534177997018147 0.9522428248113195 0
vn 0 1 0
vn 0 0.9522263391221704 -0.30539318768104384
vn -0.15634489926955025 0.9752434723032286 -0.15638555624588815
g Scene
f 1/1/1 3/2/2 2/3/3
f 1/4/4 4/5/5 3/6/6
f 5/7/7 4/8/8 1/9/9
f 5/10/10 6/11/11 4/12/12
f 7/13/13 2/14/14 8/15/15
f 7/16/16 1/17/17 2/18/18
f 9/19/19 1/20/20 7/21/21
f 9/22/22 5/23/23 1/24/24
