o Default
v -1.5 -1 1.5
v -1.5 0 1.5
v -0.5 0 1.5
v -0.5 -1 1.5
v 0.5 0 1.5
v 0.5 -1 1.5
v -1.5 0 1.5
v -1.5 0 -0.5
v 0.5 0 -0.5
v -0.5 0 -0.5
v -1.5 0 -0.5
v -1.5 0 -1.5
v -0.5 0 -1.5
v 0.5 0 -1.5
v 1.5 0 -0.5
v 1.5 0 -1.5
v 1.5 0 0.5
v 0.5 0 0.5
v 1.5 0 1.5
v 1.5 -1 1.5
vt 0.65 0.6
vt 0.7 0.65
vt 0.65 0.65
vt 0.65 0.6
vt 0.7 0.6
vt 0.7 0.65
vt 0.65 0.6
vt 0.7 0.65
vt 0.65 0.65
vt 0.65 0.6
vt 0.7 0.6
vt 0.7 0.65
vt 0.85 0.35
vt 0.95 0.44999999999999996
vt 0.85 0.44999999999999996
vt 0.85 0.35
vt 0.95 0.35
vt 0.95 0.44999999999999996
vt 0.85 0.4
vt 0.9 0.44999999999999996
vt 0.85 0.44999999999999996
vt 0.85 0.4
vt 0.9 0.4
vt 0.9 0.44999999999999996
vt 0.85 0.4
vt 0.9 0.44999999999999996
vt 0.85 0.44999999999999996
vt 0.85 0.4
vt 0.9 0.4
vt 0.9 0.44999999999999996
vt 0.85 0.4
vt 0.9 0.44999999999999996
vt 0.85 0.44999999999999996
vt 0.85 0.4
vt 0.9 0.4
vt 0.9 0.44999999999999996
vt 0.85 0.4
vt 0.9 0.44999999999999996
vt 0.85 0.44999999999999996
vt 0.85 0.4
vt 0.9 0.4
vt 0.9 0.44999999999999996
vt 0.85 0.4
vt 0.9 0.44999999999999996
vt 0.85 0.44999999999999996
vt 0.85 0.4
vt 0.9 0.4
vt 0.9 0.44999999999999996
vt 0.65 0.6
vt 0.7 0.65
vt 0.65 0.65
vt 0.65 0.6
vt 0.7 0.6
vt 0.7 0.65
vn 0 0 1
vn 0 0 1
vn 0 0 1
vn 0 0 1
vn 0 0 1
vn 0 0 1
vn 0 0 1
vn 0.00005302748433290341 0.7071038329630402 0.7071097274094472
vn 0 0 1
vn 0 0 1
vn 0 0 1
vn 0.00005302748433290341 0.7071038329630402 0.7071097274094472
vn 0.00005302748433290341 0.7071038329630402 0.7071097274094472
vn 0.00008749124995907338 0.9999999960945312 -0.000012498750348994413
vn 0.00007499250011387625 0.9999999971880625 -3.7492500703290216e-13
vn 0.00005302748433290341 0.7071038329630402 0.7071097274094472
vn 0.00003332999990684276 0.9999999992275851 -0.00002083125014160947
vn 0.00008749124995907338 0.9999999960945312 -0.000012498750348994413
vn 0.00006665999994616892 0.9999999977782221 -3.33266664742194e-13
vn 0.00009998999980817563 0.9999999950010001 -4.998999965579578e-13
vn 0.00009998999980817563 0.9999999950010001 -4.998999965579578e-13
vn 0.00006665999994616892 0.9999999977782221 -3.33266664742194e-13
vn 0.000033329999973084465 0.9999999994445555 -1.6663333237109703e-13
vn 0.00009998999980817563 0.9999999950010001 -4.998999965579578e-13
vn 0.00003332999990684276 0.9999999992275851 -0.00002083125014160947
vn 0.000033329999973084465 0.9999999994445555 -1.6663333237109703e-13
vn 0.00006665999994616892 0.9999999977782221 -3.33266664742194e-13
vn 0.00003332999990684276 0.9999999992275851 -0.00002083125014160947
vn 0 1 0
vn 0.000033329999973084465 0.9999999994445555 -1.6663333237109703e-13
vn 0 1 0
vn 0 1 0
vn 0.00003332999990684276 0.9999999992275851 -0.00002083125014160947
vn 0 1 0
vn 0 1 0
vn 0 1 0
vn 0.0000666599998536041 0.9999999972227777 -0.00003333000017676038
vn 0.00003332999990684276 0.9999999992275851 -0.00002083125014160947
vn 0.00008332499985865513 0.9999999963896111 -0.00001666500008839269
vn 0.0000666599998536041 0.9999999972227777 -0.00003333000017676038
vn 0 1 0
vn 0.00003332999990684276 0.9999999992275851 -0.00002083125014160947
vn 0.00005302704243535812 0.707097940971162 0.7071156193031491
vn 0.00008332499985865513 0.9999999963896111 -0.00001666500008839269
vn 0.00005302748433290341 0.7071038329630402 0.7071097274094472
vn 0.00005302704243535812 0.707097940971162 0.7071156193031491
vn 0.0000666599998536041 0.9999999972227777 -0.00003333000017676038
vn 0.00008332499985865513 0.9999999963896111 -0.00001666500008839269
vn 0 0 1
vn 0.00005302704243535812 0.707097940971162 0.7071156193031491
vn 0.00005302748433290341 0.7071038329630402 0.7071097274094472
vn 0 0 1
vn 0 0 1
vn 0.00005302704243535812 0.707097940971162 0.7071156193031491
g Scene
f 1/1/1 3/2/2 2/3/3
f 1/4/4 4/5/5 3/6/6
f 4/7/7 5/8/8 3/9/9
f 4/10/10 6/11/11 5/12/12
f 5/13/13 8/14/14 7/15/15
f 5/16/16 9/17/17 8/18/18
f 10/19/19 12/20/20 11/21/21
f 10/22/22 13/23/23 12/24/24
f 9/25/25 13/26/26 10/27/27
f 9/28/28 14/29/29 13/30/30
f 15/31/31 14/32/32 9/33/33
f 15/34/34 16/35/35 14/36/36
f 17/37/37 9/38/38 18/39/39
f 17/40/40 15/41/41 9/42/42
f 19/43/43 18/44/44 5/45/45
f 19/46/46 17/47/47 18/48/48
f 6/49/49 19/50/50 5/51/51
f 6/52/52 20/53/53 19/54/54
