o Default
v -1 -1 1
v -1 0 1
v 0 0 1
v 0 -1 1
v 1 0 1
v 1 -1 1
v -1 0 1
v -1 0 -1
v 1 0 -1
vt 0.65 0.6
vt 0.7 0.65
vt 0.65 0.65
vt 0.65 0.6
vt 0.7 0.6
vt 0.7 0.65
vt 0.65 0.6
vt 0.7 0.65
vt 0.65 0.65
vt 0.65 0.6
vt 0.7 0.6
vt 0.7 0.65
vt 0.85 0.35
vt 0.95 0.44999999999999996
vt 0.85 0.44999999999999996
vt 0.85 0.35
vt 0.95 0.35
vt 0.95 0.44999999999999996
vn 0 0 1
vn 0 0 1
vn 0 0 1
vn 0 0 1
vn 0 0 1
vn 0 0 1
vn 0 0 1
vn 0.00006186604276103562 0.707111197386703 0.7071023622524081
vn 0 0 1
vn 0 0 1
vn 0 0 1
vn 0.00006186604276103562 0.707111197386703 0.7071023622524081
vn 0.00006186604276103562 0.707111197386703 0.7071023622524081
vn 0.00008749124995907338 0.9999999960945313 -0.000012498750348994411
vn 0.00007499250011387625 0.9999999971880627 -3.7492499870706217e-13
vn 0.00006186604276103562 0.707111197386703 0.7071023622524081
vn 0.000099989999776935 0.9999999946885625 -0.000024997500319158744
vn 0.00008749124995907338 0.9999999960945313 -0.000012498750348994411
g Scene
f 1/1/1 3/2/2 2/3/3
f 1/4/4 4/5/5 3/6/6
f 4/7/7 5/8/8 3/9/9
f 4/10/10 6/11/11 5/12/12
f 5/13/13 8/14/14 7/15/15
f 5/16/16 9/17/17 8/18/18
