o Default
v -1 0 0
v -1 1 0
v 0 1 0
v 0 0 0
v -2 0 0
v -2 1 0
v -3 0 0
v -3 1 0
v -4 0 0
v -4 1 0
v -5 0 0
v -5 1 0
v -6 0 0
v -6 1 0
v -7 0 0
v -7 1 0
v -8 0 0
v -8 1 0
v -9 0 0
v -9 1 0
v -10 0 0
v -10 1 0
v -11 0 0
v -11 1 0
v -12 0 0
v -12 1 0
v -14 0 0
v -14 1 0
v -13 1 0
v -13 0 0
v -1 1 -1
v 0 1 -1
v -1 1 -2
v 0 1 -2
v -1 1 -3
v 0 1 -3
v -1 1 -4
v 0 1 -4
v -1 1 -5
v 0 1 -5
v -1 1 -6
v 0 1 -6
v -1 1 -7
v 0 1 -7
v -1 1 -8
v 0 1 -8
v -1 1 -9
v 0 1 -9
v -2 1 -1
v -3 1 -1
v -4 1 -1
v -5 1 -1
v -6 1 -1
v -7 1 -1
v -8 1 -1
v -9 1 -1
v -10 1 -1
v -11 1 -1
v -12 1 -1
v -13 1 -1
v -14 1 -1
vt 0 0.75
vt 0.3333333333333333 1
vt 0 1
vt 0 0.75
vt 0.3333333333333333 0.75
vt 0.3333333333333333 1
vt 0 0.75
vt 0.3333333333333333 1
vt 0 1
vt 0 0.75
vt 0.3333333333333333 0.75
vt 0.3333333333333333 1
vt 0 0.75
vt 0.3333333333333333 1
vt 0 1
vt 0 0.75
vt 0.3333333333333333 0.75
vt 0.3333333333333333 1
vt 0 0.75
vt 0.3333333333333333 1
vt 0 1
vt 0 0.75
vt 0.3333333333333333 0.75
vt 0.3333333333333333 1
vt 0 0.75
vt 0.3333333333333333 1
vt 0 1
vt 0 0.75
vt 0.3333333333333333 0.75
vt 0.3333333333333333 1
vt 0 0.75
vt 0.3333333333333333 1
vt 0 1
vt 0 0.75
vt 0.3333333333333333 0.75
vt 0.3333333333333333 1
vt 0 0.75
vt 0.3333333333333333 1
vt 0 1
vt 0 0.75
vt 0.3333333333333333 0.75
vt 0.3333333333333333 1
vt 0 0.75
vt 0.3333333333333333 1
vt 0 1
vt 0 0.75
vt 0.3333333333333333 0.75
vt 0.3333333333333333 1
vt 0 0.75
vt 0.3333333333333333 1
vt 0 1
vt 0 0.75
vt 0.3333333333333333 0.75
vt 0.3333333333333333 1
vt 0 0.75
vt 0.3333333333333333 1
vt 0 1
vt 0 0.75
vt 0.3333333333333333 0.75
vt 0.3333333333333333 1
vt 0 0.75
vt 0.3333333333333333 1
vt 0 1
vt 0 0.75
vt 0.3333333333333333 0.75
vt 0.3333333333333333 1
vt 0 0.75
vt 0.3333333333333333 1
vt 0 1
vt 0 0.75
vt 0.3333333333333333 0.75
vt 0.3333333333333333 1
vt 0.6666666666666666 0.75
vt 1 1
vt 0.6666666666666666 1
vt 0.6666666666666666 0.75
vt 1 0.75
vt 1 1
vt 0 0.75
vt 0.3333333333333333 1
vt 0 1
vt 0 0.75
vt 0.3333333333333333 0.75
vt 0.3333333333333333 1
vt 1 0
vt 0.6666666666666666 0.25
vt 0.6666666666666666 0
vt 1 0
vt 1 0.25
vt 0.6666666666666666 0.25
vt 1 0
vt 0.6666666666666666 0.25
vt 0.6666666666666666 0
vt 1 0
vt 1 0.25
vt 0.6666666666666666 0.25
vt 1 0
vt 0.6666666666666666 0.25
vt 0.6666666666666666 0
vt 1 0
vt 1 0.25
vt 0.6666666666666666 0.25
vt 1 0
vt 0.6666666666666666 0.25
vt 0.6666666666666666 0
vt 1 0
vt 1 0.25
vt 0.6666666666666666 0.25
vt 1 0
vt 0.6666666666666666 0.25
vt 0.6666666666666666 0
vt 1 0
vt 1 0.25
vt 0.6666666666666666 0.25
vt 1 0
vt 0.6666666666666666 0.25
vt 0.6666666666666666 0
vt 1 0
vt 1 0.25
vt 0.6666666666666666 0.25
vt 1 0
vt 0.6666666666666666 0.25
vt 0.6666666666666666 0
vt 1 0
vt 1 0.25
vt 0.6666666666666666 0.25
vt 1 0
vt 0.6666666666666666 0.25
vt 0.6666666666666666 0
vt 1 0
vt 1 0.25
vt 0.6666666666666666 0.25
vt 1 0.25
vt 0.6666666666666666 0.5
vt 0.6666666666666666 0.25
vt 1 0.25
vt 1 0.5
vt 0.6666666666666666 0.5
vt 0.3333333333333333 0.25
vt 0 0.5
vt 0 0.25
vt 0.3333333333333333 0.25
vt 0.3333333333333333 0.5
vt 0 0.5
vt 0.3333333333333333 0.25
vt 0 0.5
vt 0 0.25
vt 0.3333333333333333 0.25
vt 0.3333333333333333 0.5
vt 0 0.5
vt 0.3333333333333333 0.25
vt 0 0.5
vt 0 0.25
vt 0.3333333333333333 0.25
vt 0.3333333333333333 0.5
vt 0 0.5
vt 0.3333333333333333 0.25
vt 0 0.5
vt 0 0.25
vt 0.3333333333333333 0.25
vt 0.3333333333333333 0.5
vt 0 0.5
vt 0.3333333333333333 0.25
vt 0 0.5
vt 0 0.25
vt 0.3333333333333333 0.25
vt 0.3333333333333333 0.5
vt 0 0.5
vt 0.3333333333333333 0.25
vt 0 0.5
vt 0 0.25
vt 0.3333333333333333 0.25
vt 0.3333333333333333 0.5
vt 0 0.5
vt 0.3333333333333333 0.25
vt 0 0.5
vt 0 0.25
vt 0.3333333333333333 0.25
vt 0.3333333333333333 0.5
vt 0 0.5
vt 0.3333333333333333 0.25
vt 0 0.5
vt 0 0.25
vt 0.3333333333333333 0.25
vt 0.3333333333333333 0.5
vt 0 0.5
vt 0.3333333333333333 0.25
vt 0 0.5
vt 0 0.25
vt 0.3333333333333333 0.25
vt 0.3333333333333333 0.5
vt 0 0.5
vt 0.3333333333333333 0.25
vt 0 0.5
vt 0 0.25
vt 0.3333333333333333 0.25
vt 0.3333333333333333 0.5
vt 0 0.5
vt 0.3333333333333333 0.25
vt 0 0.5
vt 0 0.25
vt 0.3333333333333333 0.25
vt 0.3333333333333333 0.5
vt 0 0.5
vt 0.3333333333333333 0.25
vt 0 0.5
vt 0 0.25
vt 0.3333333333333333 0.25
vt 0.3333333333333333 0.5
vt 0 0.5
vt 0.3333333333333333 0.25
vt 0 0.5
vt 0 0.25
vt 0.3333333333333333 0.25
vt 0.3333333333333333 0.5
vt 0 0.5
vn 0 0 1
vn 0.00003535180345760127 0.7071067794191341 0.7071067820702541
vn 0 0.7070891050638204 0.7071244568674214
vn 0 0 1
vn 0 0 1
vn 0.00003535180345760127 0.7071067794191341 0.7071067820702541
vn 0 0 1
vn 0 0.7070891050638204 0.7071244568674214
vn 0 0.7070891050638204 0.7071244568674214
vn 0 0 1
vn 0 0 1
vn 0 0.7070891050638204 0.7071244568674214
vn 0 0 1
vn 0 0.7070891050638204 0.7071244568674214
vn 0 0.7070891050638204 0.7071244568674214
vn 0 0 1
vn 0 0 1
vn 0 0.7070891050638204 0.7071244568674214
vn 0 0 1
vn 0 0.7070891050638204 0.7071244568674214
vn 0 0.7070891050638204 0.7071244568674214
vn 0 0 1
vn 0 0 1
vn 0 0.7070891050638204 0.7071244568674214
vn 0 0 1
vn 0 0.7070891050638204 0.7071244568674214
vn 0 0.7070891050638204 0.7071244568674214
vn 0 0 1
vn 0 0 1
vn 0 0.7070891050638204 0.7071244568674214
vn 0 0 1
vn 0 0.7070891050638204 0.7071244568674214
vn 0 0.7070891050638204 0.7071244568674214
vn 0 0 1
vn 0 0 1
vn 0 0.7070891050638204 0.7071244568674214
vn 0 0 1
vn 0 0.7070891050638204 0.7071244568674214
vn 0 0.7070891050638204 0.7071244568674214
vn 0 0 1
vn 0 0 1
vn 0 0.7070891050638204 0.7071244568674214
vn 0 0 1
vn 0 0.7070891050638204 0.7071244568674214
vn 0 0.7070891050638204 0.7071244568674214
vn 0 0 1
vn 0 0 1
vn 0 0.7070891050638204 0.7071244568674214
vn 0 0 1
vn 0 0.7070891050638204 0.7071244568674214
vn 0 0.7070891050638204 0.7071244568674214
vn 0 0 1
vn 0 0 1
vn 0 0.7070891050638204 0.7071244568674214
vn 0 0 1
vn 0 0.7070891050638204 0.7071244568674214
vn 0 0.7070891050638204 0.7071244568674214
vn 0 0 1
vn 0 0 1
vn 0 0.7070891050638204 0.7071244568674214
vn 0 0 1
vn 0 0.7070891050638204 0.7071244568674214
vn 0 0.7070891050638204 0.7071244568674214
vn 0 0 1
vn 0 0 1
vn 0 0.7070891050638204 0.7071244568674214
vn 0 0 1
vn 0 0.7070891050638204 0.7071244568674214
vn 0 0.7070891050638204 0.7071244568674214
vn 0 0 1
vn 0 0 1
vn 0 0.7070891050638204 0.7071244568674214
vn 0 0 1
vn 0 0.7070891050638204 0.7071244568674214
vn 0 0.7070891050638203 0.7071244568674213
vn 0 0 1
vn 0 0 1
vn 0 0.7070891050638204 0.7071244568674214
vn 0 0 1
vn 0 0.7070891050638204 0.7071244568674214
vn 0 0.7070891050638204 0.7071244568674214
vn 0 0 1
vn 0 0 1
vn 0 0.7070891050638204 0.7071244568674214
vn 0.00003535180345760127 0.7071067794191341 0.7071067820702541
vn 0.000049994999978284276 0.9999999986721406 0.000012498750049235924
vn 0 0.7070891050638204 0.7071244568674214
vn 0.00003535180345760127 0.7071067794191341 0.7071067820702541
vn 0.0000999899997942909 0.9999999948621389 -0.00001666500003514709
vn 0.000049994999978284276 0.9999999986721406 0.000012498750049235924
vn 0.0000999899997942909 0.9999999948621389 -0.00001666500003514709
vn 0.0000999899998081756 0.9999999950009999 0
vn 0.000049994999978284276 0.9999999986721406 0.000012498750049235924
vn 0.0000999899997942909 0.9999999948621389 -0.00001666500003514709
vn 0.0000999899998081756 0.9999999950009999 0
vn 0.0000999899998081756 0.9999999950009999 0
vn 0.0000999899998081756 0.9999999950009999 0
vn 0.0000999899998081756 0.9999999950009999 0
vn 0.0000999899998081756 0.9999999950009999 0
vn 0.0000999899998081756 0.9999999950009999 0
vn 0.0000999899998081756 0.9999999950009999 0
vn 0.0000999899998081756 0.9999999950009999 0
vn 0.0000999899998081756 0.9999999950009999 0
vn 0.0000999899998081756 0.9999999950009999 0
vn 0.0000999899998081756 0.9999999950009999 0
vn 0.0000999899998081756 0.9999999950009999 0
vn 0.0000999899998081756 0.9999999950009999 0
vn 0.0000999899998081756 0.9999999950009999 0
vn 0.0000999899998081756 0.9999999950009999 0
vn 0.0000999899998081756 0.9999999950009999 0
vn 0.0000999899998081756 0.9999999950009999 0
vn 0.0000999899998081756 0.9999999950009999 0
vn 0.0000999899998081756 0.9999999950009999 0
vn 0.0000999899998081756 0.9999999950009999 0
vn 0.0000999899998081756 0.9999999950009999 0
vn 0.0000999899998081756 0.9999999950009999 0
vn 0.0000999899998081756 0.9999999950009999 0
vn 0.0000999899998081756 0.9999999950009999 0
vn 0.0000999899998081756 0.9999999950009999 0
vn 0.0000999899998081756 0.9999999950009999 0
vn 0.0000999899998081756 0.9999999950009999 0
vn 0.0000999899998081756 0.9999999950009999 0
vn 0.0000999899998081756 0.9999999950009999 0
vn 0.0000999899998081756 0.9999999950009999 0
vn 0.0000999899998081756 0.9999999950009999 0
vn 0.0000999899998081756 0.9999999950009999 0
vn 0.0000999899998081756 0.9999999950009999 0
vn 0.0000999899998081756 0.9999999950009999 0
vn 0.0000999899998081756 0.9999999950009999 0
vn 0.0000999899998081756 0.9999999950009999 0
vn 0.0000999899998081756 0.9999999950009999 0
vn 0.0000999899998081756 0.9999999950009999 0
vn 0.0000999899998081756 0.9999999950009999 0
vn 0.00009998999980817563 0.9999999950010001 0
vn 0.0000999899998081756 0.9999999950009999 0
vn 0.0000999899998081756 0.9999999950009999 0
vn 0.00009998999980817563 0.9999999950010001 0
vn 0.00009998999980817563 0.9999999950010001 0
vn 0 0.7070891050638204 0.7071244568674214
vn 0 0.9999999987502498 0.00004999500009153156
vn 0 0.7070891050638204 0.7071244568674214
vn 0 0.7070891050638204 0.7071244568674214
vn 0.000049994999978284276 0.9999999986721406 0.000012498750049235924
vn 0 0.9999999987502498 0.00004999500009153156
vn 0 0.7070891050638204 0.7071244568674214
vn 0 0.9999999987502498 0.00004999500009153156
vn 0 0.7070891050638204 0.7071244568674214
vn 0 0.7070891050638204 0.7071244568674214
vn 0 0.9999999987502498 0.00004999500009153156
vn 0 0.9999999987502498 0.00004999500009153156
vn 0 0.7070891050638204 0.7071244568674214
vn 0 0.9999999987502498 0.00004999500009153156
vn 0 0.7070891050638204 0.7071244568674214
vn 0 0.7070891050638204 0.7071244568674214
vn 0 0.9999999987502498 0.00004999500009153156
vn 0 0.9999999987502498 0.00004999500009153156
vn 0 0.7070891050638204 0.7071244568674214
vn 0 0.9999999987502498 0.00004999500009153156
vn 0 0.7070891050638204 0.7071244568674214
vn 0 0.7070891050638204 0.7071244568674214
vn 0 0.9999999987502498 0.00004999500009153156
vn 0 0.9999999987502498 0.00004999500009153156
vn 0 0.7070891050638204 0.7071244568674214
vn 0 0.9999999987502498 0.00004999500009153156
vn 0 0.7070891050638204 0.7071244568674214
vn 0 0.7070891050638204 0.7071244568674214
vn 0 0.9999999987502498 0.00004999500009153156
vn 0 0.9999999987502498 0.00004999500009153156
vn 0 0.7070891050638204 0.7071244568674214
vn 0 0.9999999987502498 0.00004999500009153156
vn 0 0.7070891050638204 0.7071244568674214
vn 0 0.7070891050638204 0.7071244568674214
vn 0 0.9999999987502498 0.00004999500009153156
vn 0 0.9999999987502498 0.00004999500009153156
vn 0 0.7070891050638204 0.7071244568674214
vn 0 0.9999999987502498 0.00004999500009153156
vn 0 0.7070891050638204 0.7071244568674214
vn 0 0.7070891050638204 0.7071244568674214
vn 0 0.9999999987502498 0.00004999500009153156
vn 0 0.9999999987502498 0.00004999500009153156
vn 0 0.7070891050638204 0.7071244568674214
vn 0 0.9999999987502498 0.00004999500009153156
vn 0 0.7070891050638204 0.7071244568674214
vn 0 0.7070891050638204 0.7071244568674214
vn 0 0.9999999987502498 0.00004999500009153156
vn 0 0.9999999987502498 0.00004999500009153156
vn 0 0.7070891050638204 0.7071244568674214
vn 0 0.9999999987502498 0.00004999500009153156
vn 0 0.7070891050638204 0.7071244568674214
vn 0 0.7070891050638204 0.7071244568674214
vn 0 0.9999999987502498 0.00004999500009153156
vn 0 0.9999999987502498 0.00004999500009153156
vn 0 0.7070891050638204 0.7071244568674214
vn 0 0.9999999987502498 0.00004999500009153156
vn 0 0.7070891050638204 0.7071244568674214
vn 0 0.7070891050638204 0.7071244568674214
vn 0 0.9999999987502498 0.00004999500009153156
vn 0 0.9999999987502498 0.00004999500009153156
vn 0 0.7070891050638204 0.7071244568674214
vn 0 0.9999999987502498 0.00004999500009153156
vn 0 0.7070891050638204 0.7071244568674214
vn 0 0.7070891050638204 0.7071244568674214
vn 0 0.9999999987502498 0.00004999500009153156
vn 0 0.9999999987502498 0.00004999500009153156
vn 0 0.7070891050638204 0.7071244568674214
vn 0 0.9999999987502498 0.00004999500009153156
vn 0 0.7070891050638204 0.7071244568674214
vn 0 0.7070891050638204 0.7071244568674214
vn 0 0.9999999987502498 0.00004999500009153156
vn 0 0.9999999987502498 0.00004999500009153156
vn 0 0.7070891050638204 0.7071244568674214
vn 0 0.9999999987502501 0.00004999500009153157
vn 0 0.7070891050638203 0.7071244568674213
vn 0 0.7070891050638204 0.7071244568674214
vn 0 0.9999999987502498 0.00004999500009153156
vn 0 0.9999999987502501 0.00004999500009153157
g Scene
f 1/1/1 3/2/2 2/3/3
f 1/4/4 4/5/5 3/6/6
f 5/7/7 2/8/8 6/9/9
f 5/10/10 1/11/11 2/12/12
f 7/13/13 6/14/14 8/15/15
f 7/16/16 5/17/17 6/18/18
f 9/19/19 8/20/20 10/21/21
f 9/22/22 7/23/23 8/24/24
f 11/25/25 10/26/26 12/27/27
f 11/28/28 9/29/29 10/30/30
f 13/31/31 12/32/32 14/33/33
f 13/34/34 11/35/35 12/36/36
f 15/37/37 14/38/38 16/39/39
f 15/40/40 13/41/41 14/42/42
f 17/43/43 16/44/44 18/45/45
f 17/46/46 15/47/47 16/48/48
f 19/49/49 18/50/50 20/51/51
f 19/52/52 17/53/53 18/54/54
f 21/55/55 20/56/56 22/57/57
f 21/58/58 19/59/59 20/60/60
f 23/61/61 22/62/62 24/63/63
f 23/64/64 21/65/65 22/66/66
f 25/67/67 24/68/68 26/69/69
f 25/70/70 23/71/71 24/72/72
f 27/73/73 29/74/74 28/75/75
f 27/76/76 30/77/77 29/78/78
f 30/79/79 26/80/80 29/81/81
f 30/82/82 25/83/83 26/84/84
f 3/85/85 31/86/86 2/87/87
f 3/88/88 32/89/89 31/90/90
f 32/91/91 33/92/92 31/93/93
f 32/94/94 34/95/95 33/96/96
f 34/97/97 35/98/98 33/99/99
f 34/100/100 36/101/101 35/102/102
f 36/103/103 37/104/104 35/105/105
f 36/106/106 38/107/107 37/108/108
f 38/109/109 39/110/110 37/111/111
f 38/112/112 40/113/113 39/114/114
f 40/115/115 41/116/116 39/117/117
f 40/118/118 42/119/119 41/120/120
f 42/121/121 43/122/122 41/123/123
f 42/124/124 44/125/125 43/126/126
f 44/127/127 45/128/128 43/129/129
f 44/130/130 46/131/131 45/132/132
f 46/133/133 47/134/134 45/135/135
f 46/136/136 48/137/137 47/138/138
f 2/139/139 49/140/140 6/141/141
f 2/142/142 31/143/143 49/144/144
f 6/145/145 50/146/146 8/147/147
f 6/148/148 49/149/149 50/150/150
f 8/151/151 51/152/152 10/153/153
f 8/154/154 50/155/155 51/156/156
f 10/157/157 52/158/158 12/159/159
f 10/160/160 51/161/161 52/162/162
f 12/163/163 53/164/164 14/165/165
f 12/166/166 52/167/167 53/168/168
f 14/169/169 54/170/170 16/171/171
f 14/172/172 53/173/173 54/174/174
f 16/175/175 55/176/176 18/177/177
f 16/178/178 54/179/179 55/180/180
f 18/181/181 56/182/182 20/183/183
f 18/184/184 55/185/185 56/186/186
f 20/187/187 57/188/188 22/189/189
f 20/190/190 56/191/191 57/192/192
f 22/193/193 58/194/194 24/195/195
f 22/196/196 57/197/197 58/198/198
f 24/199/199 59/200/200 26/201/201
f 24/202/202 58/203/203 59/204/204
f 26/205/205 60/206/206 29/207/207
f 26/208/208 59/209/209 60/210/210
f 29/211/211 61/212/212 28/213/213
f 29/214/214 60/215/215 61/216/216
