o Default
v 0 0.5 2
v -1 0.5 2
v -1 0.5 1
v 0 0.5 1
v 1 0.5 1
v 0 0.5 0
v 1 0.5 0
v -1 0.5 0
v -1 0.5 -1
v 0 0.5 -1
v 1 0.5 -1
v 1 0.5 2
v -1 0.5 -2
v 0 0.5 -2
v 1 0.5 -2
vt 0 0.36
vt 0.16 0.52
vt 0 0.52
vt 0 0.36
vt 0.16 0.36
vt 0.16 0.52
vt 0 0.36
vt 0.16 0.52
vt 0 0.52
vt 0 0.36
vt 0.16 0.36
vt 0.16 0.52
vt 0 0.36
vt 0.16 0.52
vt 0 0.52
vt 0 0.36
vt 0.16 0.36
vt 0.16 0.52
vt 0 0.36
vt 0.16 0.52
vt 0 0.52
vt 0 0.36
vt 0.16 0.36
vt 0.16 0.52
vt 0 0.36
vt 0.16 0.52
vt 0 0.52
vt 0 0.36
vt 0.16 0.36
vt 0.16 0.52
vt 0 0.36
vt 0.16 0.52
vt 0 0.52
vt 0 0.36
vt 0.16 0.36
vt 0.16 0.52
vt 0 0.36
vt 0.16 0.52
vt 0 0.52
vt 0 0.36
vt 0.16 0.36
vt 0.16 0.52
vt 0 0.36
vt 0.16 0.52
vt 0 0.52
vt 0 0.36
vt 0.16 0.36
vt 0.16 0.52
vn 0.00006665999994616892 0.9999999977782221 -3.33266664742194e-13
vn 0.0000999899998081756 0.9999999950009999 -3.3326666437197177e-13
vn 0.00009998999980817563 0.9999999950010001 -4.998999965579578e-13
vn 0.00006665999994616892 0.9999999977782221 -3.33266664742194e-13
vn 0.00003333000001011038 0.999999998889111 0.00003332999992679372
vn 0.0000999899998081756 0.9999999950009999 -3.3326666437197177e-13
vn 0.00003333000001011038 0.999999998889111 0.000033329999843477054
vn 0.000049994999966569044 0.9999999987502499 8.330000771778833e-14
vn 0.00003333000001011038 0.999999998889111 0.00003332999992679372
vn 0.00003333000001011038 0.999999998889111 0.000033329999843477054
vn 0.0000666599998536041 0.9999999972227777 -0.000033330000010127046
vn 0.000049994999966569044 0.9999999987502499 8.330000771778833e-14
vn 0.00003333000001011038 0.999999998889111 0.00003332999992679372
vn 0.00003333000001011038 0.999999998889111 0.00003333000001011038
vn 0.0000999899998081756 0.9999999950009999 -3.3326666437197177e-13
vn 0.00003333000001011038 0.999999998889111 0.00003332999992679372
vn 0.000049994999966569044 0.9999999987502499 8.330000771778833e-14
vn 0.00003333000001011038 0.999999998889111 0.00003333000001011038
vn 0.000049994999966569044 0.9999999987502499 8.330000771778833e-14
vn 0.0000666599998536041 0.9999999972227777 -0.00003332999984349372
vn 0.00003333000001011038 0.999999998889111 0.00003333000001011038
vn 0.000049994999966569044 0.9999999987502499 8.330000771778833e-14
vn 0.00006665999985360411 0.9999999972227777 -0.00003332999984349372
vn 0.0000666599998536041 0.9999999972227777 -0.00003332999984349372
vn 0.0000666599998536041 0.9999999972227777 -0.000033330000010127046
vn 0.00006665999985360411 0.9999999972227777 -0.00003332999984349372
vn 0.000049994999966569044 0.9999999987502499 8.330000771778833e-14
vn 0.0000666599998536041 0.9999999972227777 -0.000033330000010127046
vn 0 1 0
vn 0.00006665999985360411 0.9999999972227777 -0.00003332999984349372
vn 0 1 0
vn 0.00003333000001011038 0.999999998889111 0.00003332999992679372
vn 0.00006665999994616892 0.9999999977782221 -3.33266664742194e-13
vn 0 1 0
vn 0.00003333000001011038 0.999999998889111 0.000033329999843477054
vn 0.00003333000001011038 0.999999998889111 0.00003332999992679372
vn 0.00006665999985360411 0.9999999972227777 -0.00003332999984349372
vn 0.00009998999980817563 0.9999999950010001 0
vn 0.0000666599998536041 0.9999999972227777 -0.00003332999984349372
vn 0.00006665999985360411 0.9999999972227777 -0.00003332999984349372
vn 0.000033329999973084465 0.9999999994445555 0
vn 0.00009998999980817563 0.9999999950010001 0
vn 0 1 0
vn 0.000033329999973084465 0.9999999994445555 0
vn 0.00006665999985360411 0.9999999972227777 -0.00003332999984349372
vn 0 1 0
vn 0 1 0
vn 0.000033329999973084465 0.9999999994445555 0
g Scene
f 1/1/1 3/2/2 2/3/3
f 1/4/4 4/5/5 3/6/6
f 5/7/7 6/8/8 4/9/9
f 5/10/10 7/11/11 6/12/12
f 4/13/13 8/14/14 3/15/15
f 4/16/16 6/17/17 8/18/18
f 6/19/19 9/20/20 8/21/21
f 6/22/22 10/23/23 9/24/24
f 7/25/25 10/26/26 6/27/27
f 7/28/28 11/29/29 10/30/30
f 12/31/31 4/32/32 1/33/33
f 12/34/34 5/35/35 4/36/36
f 10/37/37 13/38/38 9/39/39
f 10/40/40 14/41/41 13/42/42
f 11/43/43 14/44/44 10/45/45
f 11/46/46 15/47/47 14/48/48
