o Default
v 1 2 6
v 0 2 6
v 0 2 5
v 1 2 5
v 0 2 4
v 1 2 4
v 0 2 3
v 1 2 3
v 0 2 2
v 1 2 2
v 0 2 1
v 1 2 1
v 0 2 0
v 1 2 0
v 0 2 -1
v 1 2 -1
v 0 2 -2
v 1 2 -2
v 0 2 -3
v 1 2 -3
v 0 2 -4
v 1 2 -4
v 0 2 -5
v 1 2 -5
v 0 2 -6
v 1 2 -6
v 0 2 -7
v 1 2 -7
v 1 2 -8
v 0 2 -8
v 0 2 -9
v 1 2 -9
v 0 0 -9
v 0 0 -6
v 0 0 -3
v 0 0 0
v 0 0 3
v 0 0 6
v 1 0 6
v 1 0 3
v 1 0 0
v 1 0 -3
v 1 0 -6
v 1 0 -9
v 0 1 6
v 1 1 6
v 1 1 -9
v 0 1 -9
v 0 0 -8
v 1 0 -8
v 0 0 -7
v 1 0 -7
v 0 0 -5
v 1 0 -5
v 0 0 -4
v 1 0 -4
v 0 0 -2
v 1 0 -2
v 0 0 -1
v 1 0 -1
v 0 0 1
v 1 0 1
v 0 0 2
v 1 0 2
v 0 0 4
v 1 0 4
v 0 0 5
v 1 0 5
vt 0 0.19999999999999996
vt 0.2 0.4
vt 0 0.4
vt 0 0.19999999999999996
vt 0.2 0.19999999999999996
vt 0.2 0.4
vt 0 0.19999999999999996
vt 0.2 0.4
vt 0 0.4
vt 0 0.19999999999999996
vt 0.2 0.19999999999999996
vt 0.2 0.4
vt 0 0.19999999999999996
vt 0.2 0.4
vt 0 0.4
vt 0 0.19999999999999996
vt 0.2 0.19999999999999996
vt 0.2 0.4
vt 0 0.19999999999999996
vt 0.2 0.4
vt 0 0.4
vt 0 0.19999999999999996
vt 0.2 0.19999999999999996
vt 0.2 0.4
vt 0 0.19999999999999996
vt 0.2 0.4
vt 0 0.4
vt 0 0.19999999999999996
vt 0.2 0.19999999999999996
vt 0.2 0.4
vt 0 0.19999999999999996
vt 0.2 0.4
vt 0 0.4
vt 0 0.19999999999999996
vt 0.2 0.19999999999999996
vt 0.2 0.4
vt 0 0.19999999999999996
vt 0.2 0.4
vt 0 0.4
vt 0 0.19999999999999996
vt 0.2 0.19999999999999996
vt 0.2 0.4
vt 0 0.19999999999999996
vt 0.2 0.4
vt 0 0.4
vt 0 0.19999999999999996
vt 0.2 0.19999999999999996
vt 0.2 0.4
vt 0 0.19999999999999996
vt 0.2 0.4
vt 0 0.4
vt 0 0.19999999999999996
vt 0.2 0.19999999999999996
vt 0.2 0.4
vt 0 0.19999999999999996
vt 0.2 0.4
vt 0 0.4
vt 0 0.19999999999999996
vt 0.2 0.19999999999999996
vt 0.2 0.4
vt 0 0.19999999999999996
vt 0.2 0.4
vt 0 0.4
vt 0 0.19999999999999996
vt 0.2 0.19999999999999996
vt 0.2 0.4
vt 0 0.19999999999999996
vt 0.2 0.4
vt 0 0.4
vt 0 0.19999999999999996
vt 0.2 0.19999999999999996
vt 0.2 0.4
vt 0 0.19999999999999996
vt 0.2 0.4
vt 0 0.4
vt 0 0.19999999999999996
vt 0.2 0.19999999999999996
vt 0.2 0.4
vt 0 0.19999999999999996
vt 0.2 0.4
vt 0 0.4
vt 0 0.19999999999999996
vt 0.2 0.19999999999999996
vt 0.2 0.4
vt 0 0.19999999999999996
vt 0.2 0.4
vt 0 0.4
vt 0 0.19999999999999996
vt 0.2 0.19999999999999996
vt 0.2 0.4
vt 0 0.6
vt 0.6 1
vt 0 1
vt 0 0.6
vt 0.6 0.6
vt 0.6 1
vt 0 0.6
vt 0.6 1
vt 0 1
vt 0 0.6
vt 0.6 0.6
vt 0.6 1
vt 0 0.6
vt 0.6 1
vt 0 1
vt 0 0.6
vt 0.6 0.6
vt 0.6 1
vt 0 0.6
vt 0.6 1
vt 0 1
vt 0 0.6
vt 0.6 0.6
vt 0.6 1
vt 0 0.6
vt 0.6 1
vt 0 1
vt 0 0.6
vt 0.6 0.6
vt 0.6 1
vt 0 0.6
vt 0.6 1
vt 0 1
vt 0 0.6
vt 0.6 0.6
vt 0.6 1
vt 0 0.6
vt 0.6 1
vt 0 1
vt 0 0.6
vt 0.6 0.6
vt 0.6 1
vt 0 0.6
vt 0.6 1
vt 0 1
vt 0 0.6
vt 0.6 0.6
vt 0.6 1
vt 0 0.6
vt 0.6 1
vt 0 1
vt 0 0.6
vt 0.6 0.6
vt 0.6 1
vt 0 0.6
vt 0.6 1
vt 0 1
vt 0 0.6
vt 0.6 0.6
vt 0.6 1
vt 0.2 0.19999999999999996
vt 0.4 0.4
vt 0.2 0.4
vt 0.2 0.19999999999999996
vt 0.4 0.19999999999999996
vt 0.4 0.4
vt 0.2 0.19999999999999996
vt 0.4 0.4
vt 0.2 0.4
vt 0.2 0.19999999999999996
vt 0.4 0.19999999999999996
vt 0.4 0.4
vt 0.2 0.19999999999999996
vt 0.4 0.4
vt 0.2 0.4
vt 0.2 0.19999999999999996
vt 0.4 0.19999999999999996
vt 0.4 0.4
vt 0.2 0.19999999999999996
vt 0.4 0.4
vt 0.2 0.4
vt 0.2 0.19999999999999996
vt 0.4 0.19999999999999996
vt 0.4 0.4
vt 0.2 0.19999999999999996
vt 0.4 0.4
vt 0.2 0.4
vt 0.2 0.19999999999999996
vt 0.4 0.19999999999999996
vt 0.4 0.4
vt 0.2 0.19999999999999996
vt 0.4 0.4
vt 0.2 0.4
vt 0.2 0.19999999999999996
vt 0.4 0.19999999999999996
vt 0.4 0.4
vt 0.2 0.19999999999999996
vt 0.4 0.4
vt 0.2 0.4
vt 0.2 0.19999999999999996
vt 0.4 0.19999999999999996
vt 0.4 0.4
vt 0.2 0.19999999999999996
vt 0.4 0.4
vt 0.2 0.4
vt 0.2 0.19999999999999996
vt 0.4 0.19999999999999996
vt 0.4 0.4
vt 0.2 0.19999999999999996
vt 0.4 0.4
vt 0.2 0.4
vt 0.2 0.19999999999999996
vt 0.4 0.19999999999999996
vt 0.4 0.4
vt 0.2 0.19999999999999996
vt 0.4 0.4
vt 0.2 0.4
vt 0.2 0.19999999999999996
vt 0.4 0.19999999999999996
vt 0.4 0.4
vt 0.2 0.19999999999999996
vt 0.4 0.4
vt 0.2 0.4
vt 0.2 0.19999999999999996
vt 0.4 0.19999999999999996
vt 0.4 0.4
vt 0.2 0.19999999999999996
vt 0.4 0.4
vt 0.2 0.4
vt 0.2 0.19999999999999996
vt 0.4 0.19999999999999996
vt 0.4 0.4
vt 0.2 0.19999999999999996
vt 0.4 0.4
vt 0.2 0.4
vt 0.2 0.19999999999999996
vt 0.4 0.19999999999999996
vt 0.4 0.4
vt 0.2 0.19999999999999996
vt 0.4 0.4
vt 0.2 0.4
vt 0.2 0.19999999999999996
vt 0.4 0.19999999999999996
vt 0.4 0.4
vt 0.2 0.19999999999999996
vt 0.4 0.4
vt 0.2 0.4
vt 0.2 0.19999999999999996
vt 0.4 0.19999999999999996
vt 0.4 0.4
vt 0.2 0.19999999999999996
vt 0.4 0.4
vt 0.2 0.4
vt 0.2 0.19999999999999996
vt 0.4 0.19999999999999996
vt 0.4 0.4
vt 0.2 0.19999999999999996
vt 0.4 0.4
vt 0.2 0.4
vt 0.2 0.19999999999999996
vt 0.4 0.19999999999999996
vt 0.4 0.4
vt 0.2 0.19999999999999996
vt 0.4 0.4
vt 0.2 0.4
vt 0.2 0.19999999999999996
vt 0.4 0.19999999999999996
vt 0.4 0.4
vt 0.2 0.19999999999999996
vt 0.4 0.4
vt 0.2 0.4
vt 0.2 0.19999999999999996
vt 0.4 0.19999999999999996
vt 0.4 0.4
vn 0.3333925856484052 0.6666518505100325 0.6666518537034304
vn 0.0000999899998081756 0.9999999950009999 -3.3326666437197177e-13
vn -0.8164829737855135 0.4082618959054039 0.4082618986264697
vn 0.3333925856484052 0.6666518505100325 0.6666518537034304
vn 0.0000999899998081756 0.9999999950009999 -1.6663333218598588e-13
vn 0.0000999899998081756 0.9999999950009999 -3.3326666437197177e-13
vn 0.0000999899998081756 0.9999999950009999 -1.6663333218598588e-13
vn 0.0000999899998081756 0.9999999950009999 0
vn 0.0000999899998081756 0.9999999950009999 -3.3326666437197177e-13
vn 0.0000999899998081756 0.9999999950009999 -1.6663333218598588e-13
vn 0.0000999899998081756 0.9999999950009999 0
vn 0.0000999899998081756 0.9999999950009999 0
vn 0.0000999899998081756 0.9999999950009999 0
vn -0.7070714289412477 0.7071421316644779 3.9281745071417777e-10
vn 0.0000999899998081756 0.9999999950009999 0
vn 0.0000999899998081756 0.9999999950009999 0
vn 0.7071421319590471 0.7070714286466493 -3.9277813092206056e-10
vn -0.7070714289412477 0.7071421316644779 3.9281745071417777e-10
vn 0.7071421319590471 0.7070714286466493 -3.9277813092206056e-10
vn 0.0000999899998081756 0.9999999950009999 0
vn -0.7070714289412477 0.7071421316644779 3.9281745071417777e-10
vn 0.7071421319590471 0.7070714286466493 -3.9277813092206056e-10
vn 0.0000999899998081756 0.9999999950009999 0
vn 0.0000999899998081756 0.9999999950009999 0
vn 0.0000999899998081756 0.9999999950009999 0
vn 0.0000999899998081756 0.9999999950009999 0
vn 0.0000999899998081756 0.9999999950009999 0
vn 0.0000999899998081756 0.9999999950009999 0
vn 0.0000999899998081756 0.9999999950009999 0
vn 0.0000999899998081756 0.9999999950009999 0
vn 0.0000999899998081756 0.9999999950009999 0
vn -0.7070714289412477 0.7071421316644779 0
vn 0.0000999899998081756 0.9999999950009999 0
vn 0.0000999899998081756 0.9999999950009999 0
vn 0.7071421316644562 0.7070714289412697 0
vn -0.7070714289412477 0.7071421316644779 0
vn 0.7071421316644562 0.7070714289412697 0
vn 0.0000999899998081756 0.9999999950009999 0
vn -0.7070714289412477 0.7071421316644779 0
vn 0.7071421316644562 0.7070714289412697 0
vn 0.0000999899998081756 0.9999999950009999 0
vn 0.0000999899998081756 0.9999999950009999 0
vn 0.0000999899998081756 0.9999999950009999 0
vn 0.0000999899998081756 0.9999999950009999 0
vn 0.0000999899998081756 0.9999999950009999 0
vn 0.0000999899998081756 0.9999999950009999 0
vn 0.0000999899998081756 0.9999999950009999 0
vn 0.0000999899998081756 0.9999999950009999 0
vn 0.0000999899998081756 0.9999999950009999 0
vn -0.7070714289412477 0.7071421316644779 0
vn 0.0000999899998081756 0.9999999950009999 0
vn 0.0000999899998081756 0.9999999950009999 0
vn 0.7071421316644562 0.7070714289412697 0
vn -0.7070714289412477 0.7071421316644779 0
vn 0.7071421316644562 0.7070714289412697 0
vn 0.0000999899998081756 0.9999999950009999 0
vn -0.7070714289412477 0.7071421316644779 0
vn 0.7071421316644562 0.7070714289412697 0
vn 0.0000999899998081756 0.9999999950009999 0
vn 0.0000999899998081756 0.9999999950009999 0
vn 0.0000999899998081756 0.9999999950009999 0
vn 0.0000999899998081756 0.9999999950009999 0
vn 0.0000999899998081756 0.9999999950009999 0
vn 0.0000999899998081756 0.9999999950009999 0
vn 0.0000999899998081756 0.9999999950009999 0
vn 0.0000999899998081756 0.9999999950009999 0
vn 0.0000999899998081756 0.9999999950009999 0
vn -0.7070714289412477 0.707142131664478 5.233903207748628e-17
vn 0.0000999899998081756 0.9999999950009999 0
vn 0.0000999899998081756 0.9999999950009999 0
vn 0.7071421316644562 0.7070714289412697 0
vn -0.7070714289412477 0.707142131664478 5.233903207748628e-17
vn 0.7071421316644562 0.7070714289412697 0
vn 0.0000999899998081756 0.9999999950009999 1.6663333218598588e-13
vn -0.7070714289412477 0.707142131664478 5.233903207748628e-17
vn 0.7071421316644562 0.7070714289412697 0
vn 0.0000999899998081756 0.9999999950009999 3.3326666437197177e-13
vn 0.0000999899998081756 0.9999999950009999 1.6663333218598588e-13
vn 0.0000999899998081756 0.9999999950009999 -1.6663333218598588e-13
vn -0.33327407885824706 0.66668147692938 -0.666681480679078
vn 0.0000999899998081756 0.9999999950009999 1.6663333218598588e-13
vn 0.0000999899998081756 0.9999999950009999 -1.6663333218598588e-13
vn 0.8165101875029811 0.4082346830382453 -0.4082346840587043
vn -0.33327407885824706 0.66668147692938 -0.666681480679078
vn 0.0000999899998081756 0.9999999950009999 3.3326666437197177e-13
vn 0.0000999899998081756 0.9999999950009999 1.6663333218598588e-13
vn 0.0000999899998081756 0.9999999950009999 1.6663333218598588e-13
vn 0.0000999899998081756 0.9999999950009999 3.3326666437197177e-13
vn 0.0000999899998081756 0.9999999950009999 -1.6663333218598588e-13
vn 0.0000999899998081756 0.9999999950009999 1.6663333218598588e-13
vn -0.8164897772148305 -0.408244889117696 -0.4082652988106585
vn -0.7070714289412477 0.707142131664478 5.233903207748628e-17
vn -0.33327407885824706 0.66668147692938 -0.666681480679078
vn -0.8164897772148305 -0.408244889117696 -0.4082652988106585
vn -0.7070949974975212 -0.7071185645810146 -0.000011784130919894137
vn -0.7070714289412477 0.707142131664478 5.233903207748628e-17
vn -0.7070949974975212 -0.7071185645810146 -0.000011784130919894137
vn -0.7070714289412477 0.7071421316644779 0
vn -0.7070714289412477 0.707142131664478 5.233903207748628e-17
vn -0.7070949974975212 -0.7071185645810146 -0.000011784130919894137
vn -0.7070949974975212 -0.7071185645810146 -0.000011784130919946473
vn -0.7070714289412477 0.7071421316644779 0
vn -0.7070949974975212 -0.7071185645810146 -0.000011784130919946473
vn -0.7070714289412477 0.7071421316644779 0
vn -0.7070714289412477 0.7071421316644779 0
vn -0.7070949974975212 -0.7071185645810146 -0.000011784130919946473
vn -0.7070949974975212 -0.7071185645810146 -0.000011784130919946473
vn -0.7070714289412477 0.7071421316644779 0
vn -0.7070949974975212 -0.7071185645810146 -0.000011784130919946473
vn -0.7070714289412477 0.7071421316644779 3.9281745071417777e-10
vn -0.7070714289412477 0.7071421316644779 0
vn -0.7070949974975212 -0.7071185645810146 -0.000011784130919946473
vn -0.7070949977921204 -0.7071185642864317 -0.00001178373812049857
vn -0.7070714289412477 0.7071421316644779 3.9281745071417777e-10
vn -0.7070949977921204 -0.7071185642864317 -0.00001178373812049857
vn -0.8164829737855135 0.4082618959054039 0.4082618986264697
vn -0.7070714289412477 0.7071421316644779 3.9281745071417777e-10
vn -0.7070949977921204 -0.7071185642864317 -0.00001178373812049857
vn -0.3333037068210217 -0.6666740714663827 0.6666740743825297
vn -0.8164829737855135 0.4082618959054039 0.4082618986264697
vn 0.8165033846973112 -0.40825169183844295 0.4082312811249079
vn 0.7071421319590471 0.7070714286466493 -3.9277813092206056e-10
vn 0.3333925856484052 0.6666518505100325 0.6666518537034304
vn 0.8165033846973112 -0.40825169183844295 0.4082312811249079
vn 0.707118566250236 -0.707094995828251 -0.000011783738293918653
vn 0.7071421319590471 0.7070714286466493 -3.9277813092206056e-10
vn 0.707118566250236 -0.707094995828251 -0.000011783738293918653
vn 0.7071421316644562 0.7070714289412697 0
vn 0.7071421319590471 0.7070714286466493 -3.9277813092206056e-10
vn 0.707118566250236 -0.707094995828251 -0.000011783738293918653
vn 0.707118566250236 -0.707094995828251 -0.000011783738293962267
vn 0.7071421316644562 0.7070714289412697 0
vn 0.707118566250236 -0.707094995828251 -0.000011783738293962267
vn 0.7071421316644562 0.7070714289412697 0
vn 0.7071421316644562 0.7070714289412697 0
vn 0.707118566250236 -0.707094995828251 -0.000011783738293962267
vn 0.707118566250236 -0.707094995828251 -0.000011783738293962267
vn 0.7071421316644562 0.7070714289412697 0
vn 0.707118566250236 -0.707094995828251 -0.000011783738293962267
vn 0.7071421316644562 0.7070714289412697 0
vn 0.7071421316644562 0.7070714289412697 0
vn 0.707118566250236 -0.707094995828251 -0.000011783738293962267
vn 0.707118566250236 -0.707094995828251 -0.000011783738293962267
vn 0.7071421316644562 0.7070714289412697 0
vn 0.707118566250236 -0.707094995828251 -0.000011783738293962267
vn 0.8165101875029811 0.4082346830382453 -0.4082346840587043
vn 0.7071421316644562 0.7070714289412697 0
vn 0.707118566250236 -0.707094995828251 -0.000011783738293962267
vn 0.33336296015420663 -0.6666592581330092 -0.6666592610492789
vn 0.8165101875029811 0.4082346830382453 -0.4082346840587043
vn 0 0 1
vn 0.3333925856484052 0.6666518505100325 0.6666518537034304
vn -0.8164829737855135 0.4082618959054039 0.4082618986264697
vn 0 0 1
vn 0 0 1
vn 0.3333925856484052 0.6666518505100325 0.6666518537034304
vn -0.3333037068210217 -0.6666740714663827 0.6666740743825297
vn 0 0 1
vn 0 0 1
vn -0.3333037068210217 -0.6666740714663827 0.6666740743825297
vn 0.8165033846973112 -0.40825169183844295 0.4082312811249079
vn 0 0 1
vn 0 0 -1
vn -0.33327407885824706 0.66668147692938 -0.666681480679078
vn 0.8165101875029811 0.4082346830382453 -0.4082346840587043
vn 0 0 -1
vn 0 0 -1
vn -0.33327407885824706 0.66668147692938 -0.666681480679078
vn 0.33336296015420663 -0.6666592581330092 -0.6666592610492789
vn 0 0 -1
vn 0 0 -1
vn 0.33336296015420663 -0.6666592581330092 -0.6666592610492789
vn -0.8164897772148305 -0.408244889117696 -0.4082652988106585
vn 0 0 -1
vn 0.00006665999996005363 -0.999999997778222 -1.6662498778611377e-13
vn 0.33336296015420663 -0.6666592581330092 -0.6666592610492789
vn 0.00009998999979429089 -0.9999999948621389 0.00001666499986851378
vn 0.00006665999996005363 -0.999999997778222 -1.6662498778611377e-13
vn -0.8164897772148305 -0.408244889117696 -0.4082652988106585
vn 0.33336296015420663 -0.6666592581330092 -0.6666592610492789
vn 0.0000999899997942909 -0.9999999948621389 0.000016665000035147074
vn 0.00009998999979429089 -0.9999999948621389 0.00001666499986851378
vn 0.00006665999996005363 -0.999999997778222 8.305440408290402e-18
vn 0.0000999899997942909 -0.9999999948621389 0.000016665000035147074
vn 0.00006665999996005363 -0.999999997778222 -1.6662498778611377e-13
vn 0.00009998999979429089 -0.9999999948621389 0.00001666499986851378
vn -0.7070949974975212 -0.7071185645810146 -0.000011784130919894137
vn 0.00006665999996005363 -0.999999997778222 8.305440408290402e-18
vn 0.707118566250236 -0.707094995828251 -0.000011783738293962267
vn -0.7070949974975212 -0.7071185645810146 -0.000011784130919894137
vn 0.0000999899997942909 -0.9999999948621389 0.000016665000035147074
vn 0.00006665999996005363 -0.999999997778222 8.305440408290402e-18
vn 0.00006665999996005363 -0.999999997778222 -1.6662498552735925e-13
vn 0.707118566250236 -0.707094995828251 -0.000011783738293962267
vn 0.00009998999979429089 -0.9999999948621389 0.00001666499986851378
vn 0.00006665999996005363 -0.999999997778222 -1.6662498552735925e-13
vn -0.7070949974975212 -0.7071185645810146 -0.000011784130919894137
vn 0.707118566250236 -0.707094995828251 -0.000011783738293962267
vn 0.0000999899997942909 -0.9999999948621389 0.000016665000035147074
vn 0.00009998999979429089 -0.9999999948621389 0.00001666499986851378
vn 0.00006665999996005363 -0.999999997778222 8.305440408290402e-18
vn 0.0000999899997942909 -0.9999999948621389 0.000016665000035147074
vn 0.00006665999996005363 -0.999999997778222 -1.6662498552735925e-13
vn 0.00009998999979429089 -0.9999999948621389 0.00001666499986851378
vn -0.7070949974975212 -0.7071185645810146 -0.000011784130919946473
vn 0.00006665999996005363 -0.999999997778222 8.305440408290402e-18
vn 0.707118566250236 -0.707094995828251 -0.000011783738293962267
vn -0.7070949974975212 -0.7071185645810146 -0.000011784130919946473
vn 0.0000999899997942909 -0.9999999948621389 0.000016665000035147074
vn 0.00006665999996005363 -0.999999997778222 8.305440408290402e-18
vn 0.00006665999996005363 -0.999999997778222 -1.6662498552735925e-13
vn 0.707118566250236 -0.707094995828251 -0.000011783738293962267
vn 0.00009998999979429089 -0.9999999948621389 0.00001666499986851378
vn 0.00006665999996005363 -0.999999997778222 -1.6662498552735925e-13
vn -0.7070949974975212 -0.7071185645810146 -0.000011784130919946473
vn 0.707118566250236 -0.707094995828251 -0.000011783738293962267
vn 0.0000999899997942909 -0.9999999948621389 0.000016665000035147074
vn 0.00009998999979429089 -0.9999999948621389 0.00001666499986851378
vn 0.00006665999996005363 -0.999999997778222 8.305440408290402e-18
vn 0.0000999899997942909 -0.9999999948621389 0.000016665000035147074
vn 0.00006665999996005363 -0.999999997778222 -1.6662498552735925e-13
vn 0.00009998999979429089 -0.9999999948621389 0.00001666499986851378
vn -0.7070949974975212 -0.7071185645810146 -0.000011784130919946473
vn 0.00006665999996005363 -0.999999997778222 8.305440408290402e-18
vn 0.707118566250236 -0.707094995828251 -0.000011783738293962267
vn -0.7070949974975212 -0.7071185645810146 -0.000011784130919946473
vn 0.0000999899997942909 -0.9999999948621389 0.000016665000035147074
vn 0.00006665999996005363 -0.999999997778222 8.305440408290402e-18
vn 0.00006665999996005363 -0.999999997778222 -1.6662498552735925e-13
vn 0.707118566250236 -0.707094995828251 -0.000011783738293962267
vn 0.00009998999979429089 -0.9999999948621389 0.00001666499986851378
vn 0.00006665999996005363 -0.999999997778222 -1.6662498552735925e-13
vn -0.7070949974975212 -0.7071185645810146 -0.000011784130919946473
vn 0.707118566250236 -0.707094995828251 -0.000011783738293962267
vn 0.0000999899997942909 -0.9999999948621389 0.000016665000035147074
vn 0.00009998999979429089 -0.9999999948621389 0.00001666499986851378
vn 0.00006665999996005363 -0.999999997778222 8.305440408290402e-18
vn 0.0000999899997942909 -0.9999999948621389 0.000016665000035147074
vn 0.00006665999996005363 -0.999999997778222 -1.6662498552735925e-13
vn 0.00009998999979429089 -0.9999999948621389 0.00001666499986851378
vn -0.7070949977921204 -0.7071185642864317 -0.00001178373812049857
vn 0.00006665999996005363 -0.999999997778222 8.305440408290402e-18
vn 0.707118566250236 -0.707094995828251 -0.000011783738293918653
vn -0.7070949977921204 -0.7071185642864317 -0.00001178373812049857
vn 0.0000999899997942909 -0.9999999948621389 0.000016665000035147074
vn 0.00006665999996005363 -0.999999997778222 8.305440408290402e-18
vn 0.00006665999996005363 -0.999999997778222 -1.6662498552735925e-13
vn 0.707118566250236 -0.707094995828251 -0.000011783738293918653
vn 0.00009998999979429089 -0.9999999948621389 0.00001666499986851378
vn 0.00006665999996005363 -0.999999997778222 -1.6662498552735925e-13
vn -0.7070949977921204 -0.7071185642864317 -0.00001178373812049857
vn 0.707118566250236 -0.707094995828251 -0.000011783738293918653
vn 0.0000999899997942909 -0.9999999948621389 0.000016665000035147074
vn 0.00009998999979429089 -0.9999999948621389 0.00001666499986851378
vn 0.00006665999996005363 -0.999999997778222 8.307699162820804e-18
vn 0.0000999899997942909 -0.9999999948621389 0.000016665000035147074
vn 0.00006665999996005363 -0.999999997778222 -1.6662498552735925e-13
vn 0.00009998999979429089 -0.9999999948621389 0.00001666499986851378
vn -0.3333037068210217 -0.6666740714663827 0.6666740743825297
vn 0.00006665999996005363 -0.999999997778222 8.307699162820804e-18
vn 0.8165033846973112 -0.40825169183844295 0.4082312811249079
vn -0.3333037068210217 -0.6666740714663827 0.6666740743825297
vn 0.0000999899997942909 -0.9999999948621389 0.000016665000035147074
vn 0.00006665999996005363 -0.999999997778222 8.307699162820804e-18
g Scene
f 1/1/1 3/2/2 2/3/3
f 1/4/4 4/5/5 3/6/6
f 4/7/7 5/8/8 3/9/9
f 4/10/10 6/11/11 5/12/12
f 6/13/13 7/14/14 5/15/15
f 6/16/16 8/17/17 7/18/18
f 8/19/19 9/20/20 7/21/21
f 8/22/22 10/23/23 9/24/24
f 10/25/25 11/26/26 9/27/27
f 10/28/28 12/29/29 11/30/30
f 12/31/31 13/32/32 11/33/33
f 12/34/34 14/35/35 13/36/36
f 14/37/37 15/38/38 13/39/39
f 14/40/40 16/41/41 15/42/42
f 16/43/43 17/44/44 15/45/45
f 16/46/46 18/47/47 17/48/48
f 18/49/49 19/50/50 17/51/51
f 18/52/52 20/53/53 19/54/54
f 20/55/55 21/56/56 19/57/57
f 20/58/58 22/59/59 21/60/60
f 22/61/61 23/62/62 21/63/63
f 22/64/64 24/65/65 23/66/66
f 24/67/67 25/68/68 23/69/69
f 24/70/70 26/71/71 25/72/72
f 26/73/73 27/74/74 25/75/75
f 26/76/76 28/77/77 27/78/78
f 29/79/79 31/80/80 30/81/81
f 29/82/82 32/83/83 31/84/84
f 28/85/85 30/86/86 27/87/87
f 28/88/88 29/89/89 30/90/90
f 33/91/91 25/92/92 31/93/93
f 33/94/94 34/95/95 25/96/96
f 34/97/97 19/98/98 25/99/99
f 34/100/100 35/101/101 19/102/102
f 35/103/103 13/104/104 19/105/105
f 35/106/106 36/107/107 13/108/108
f 36/109/109 7/110/110 13/111/111
f 36/112/112 37/113/113 7/114/114
f 37/115/115 2/116/116 7/117/117
f 37/118/118 38/119/119 2/120/120
f 39/121/121 8/122/122 1/123/123
f 39/124/124 40/125/125 8/126/126
f 40/127/127 14/128/128 8/129/129
f 40/130/130 41/131/131 14/132/132
f 41/133/133 20/134/134 14/135/135
f 41/136/136 42/137/137 20/138/138
f 42/139/139 26/140/140 20/141/141
f 42/142/142 43/143/143 26/144/144
f 43/145/145 32/146/146 26/147/147
f 43/148/148 44/149/149 32/150/150
f 45/151/151 1/152/152 2/153/153
f 45/154/154 46/155/155 1/156/156
f 38/157/157 46/158/158 45/159/159
f 38/160/160 39/161/161 46/162/162
f 47/163/163 31/164/164 32/165/165
f 47/166/166 48/167/167 31/168/168
f 44/169/169 48/170/170 47/171/171
f 44/172/172 33/173/173 48/174/174
f 49/175/175 44/176/176 50/177/177
f 49/178/178 33/179/179 44/180/180
f 51/181/181 50/182/182 52/183/183
f 51/184/184 49/185/185 50/186/186
f 34/187/187 52/188/188 43/189/189
f 34/190/190 51/191/191 52/192/192
f 53/193/193 43/194/194 54/195/195
f 53/196/196 34/197/197 43/198/198
f 55/199/199 54/200/200 56/201/201
f 55/202/202 53/203/203 54/204/204
f 35/205/205 56/206/206 42/207/207
f 35/208/208 55/209/209 56/210/210
f 57/211/211 42/212/212 58/213/213
f 57/214/214 35/215/215 42/216/216
f 59/217/217 58/218/218 60/219/219
f 59/220/220 57/221/221 58/222/222
f 36/223/223 60/224/224 41/225/225
f 36/226/226 59/227/227 60/228/228
f 61/229/229 41/230/230 62/231/231
f 61/232/232 36/233/233 41/234/234
f 63/235/235 62/236/236 64/237/237
f 63/238/238 61/239/239 62/240/240
f 37/241/241 64/242/242 40/243/243
f 37/244/244 63/245/245 64/246/246
f 65/247/247 40/248/248 66/249/249
f 65/250/250 37/251/251 40/252/252
f 67/253/253 66/254/254 68/255/255
f 67/256/256 65/257/257 66/258/258
f 38/259/259 68/260/260 39/261/261
f 38/262/262 67/263/263 68/264/264
