o Default
v -1 2 0
v -1 3 0
v 0 3 0
v 0 2 0
v 1 2 0
v 1 3 0
v 2 3 0
v 2 2 0
v -1 0 0
v -1 1 0
v 0 1 0
v 0 0 0
v 1 0 0
v 1 1 0
v 2 1 0
v 2 0 0
v 0 3 -2
v -1 3 -2
v -1 3 -3
v 0 3 -3
v 2 3 -2
v 1 3 -2
v 1 3 -3
v 2 3 -3
v 1 3 -1
v 2 3 -1
v -1 3 -1
v 0 3 -1
v -1 1 -1
v -1 2 -1
v -1 0 -2
v -1 1 -2
v -1 0 -1
v -1 1 -3
v -1 2 -3
v -1 2 -2
v -1 0 -3
v 2 1 -1
v 2 2 -1
v 2 2 -2
v 2 1 -2
v 1 1 -3
v 1 2 -3
v 0 2 -3
v 0 1 -3
v 2 0 -3
v 2 1 -3
v 1 0 -3
v 2 2 -3
v 0 0 -3
v 2 0 -2
v 2 0 -1
v 1 0 -1
v 0 0 -1
v 1 0 -2
v 0 0 -2
vt 0 0.25
vt 0.25 0.5
vt 0 0.5
vt 0 0.25
vt 0.25 0.25
vt 0.25 0.5
vt 0.25 0.25
vt 0.5 0.5
vt 0.25 0.5
vt 0.25 0.25
vt 0.5 0.25
vt 0.5 0.5
vt 0.5 0.25
vt 0.75 0.5
vt 0.5 0.5
vt 0.5 0.25
vt 0.75 0.25
vt 0.75 0.5
vt 0 0
vt 0.25 0.25
vt 0 0.25
vt 0 0
vt 0.25 0
vt 0.25 0.25
vt 0.25 0
vt 0.5 0.25
vt 0.25 0.25
vt 0.25 0
vt 0.5 0
vt 0.5 0.25
vt 0.5 0
vt 0.75 0.25
vt 0.5 0.25
vt 0.5 0
vt 0.75 0
vt 0.75 0.25
vt 0.75 0
vt 0.5 0.25
vt 0.5 0
vt 0.75 0
vt 0.75 0.25
vt 0.5 0.25
vt 0.5 0.25
vt 0.75 0
vt 0.75 0.25
vt 0.5 0.25
vt 0.5 0
vt 0.75 0
vt 0.25 0.25
vt 0.5 0
vt 0.5 0.25
vt 0.25 0.25
vt 0.25 0
vt 0.5 0
vt 0.25 0
vt 0.5 0.25
vt 0.25 0.25
vt 0.25 0
vt 0.5 0
vt 0.5 0.25
vt 0.5 0
vt 0.25 0.25
vt 0.25 0
vt 0.5 0
vt 0.5 0.25
vt 0.25 0.25
vt 0.5 0.25
vt 0.25 0
vt 0.5 0
vt 0.5 0.25
vt 0.25 0.25
vt 0.25 0
vt 0.75 0.5
vt 0.5 0.25
vt 0.75 0.25
vt 0.75 0.5
vt 0.5 0.5
vt 0.5 0.25
vt 0.5 0.5
vt 0.75 0.25
vt 0.75 0.5
vt 0.5 0.5
vt 0.5 0.25
vt 0.75 0.25
vt 0.5 0.25
vt 0.75 0.5
vt 0.5 0.5
vt 0.5 0.25
vt 0.75 0.25
vt 0.75 0.5
vt 0.75 0.25
vt 0.5 0.5
vt 0.5 0.25
vt 0.75 0.25
vt 0.75 0.5
vt 0.5 0.5
vt 0.75 0.25
vt 0.5 0.5
vt 0.5 0.25
vt 0.75 0.25
vt 0.75 0.5
vt 0.5 0.5
vt 0.75 0.5
vt 0.5 0.25
vt 0.75 0.25
vt 0.75 0.5
vt 0.5 0.5
vt 0.5 0.25
vt 0.5 0.5
vt 0.75 0.25
vt 0.75 0.5
vt 0.5 0.5
vt 0.5 0.25
vt 0.75 0.25
vt 0.5 0.25
vt 0.75 0.5
vt 0.5 0.5
vt 0.5 0.25
vt 0.75 0.25
vt 0.75 0.5
vt 0.25 0.25
vt 0.5 0.5
vt 0.25 0.5
vt 0.25 0.25
vt 0.5 0.25
vt 0.5 0.5
vt 0.5 0.25
vt 0.25 0.5
vt 0.25 0.25
vt 0.5 0.25
vt 0.5 0.5
vt 0.25 0.5
vt 0.5 0.5
vt 0.25 0.25
vt 0.5 0.25
vt 0.5 0.5
vt 0.25 0.5
vt 0.25 0.25
vt 0.25 0.5
vt 0.5 0.25
vt 0.5 0.5
vt 0.25 0.5
vt 0.25 0.25
vt 0.5 0.25
vt 0.5 1
vt 0.75 0.75
vt 0.75 1
vt 0.5 1
vt 0.5 0.75
vt 0.75 0.75
vt 0.5 1
vt 0.75 0.75
vt 0.75 1
vt 0.5 1
vt 0.5 0.75
vt 0.75 0.75
vt 0.5 1
vt 0.75 0.75
vt 0.75 1
vt 0.5 1
vt 0.5 0.75
vt 0.75 0.75
vt 0.5 1
vt 0.75 0.75
vt 0.75 1
vt 0.5 1
vt 0.5 0.75
vt 0.75 0.75
vt 0.5 1
vt 0.75 0.75
vt 0.75 1
vt 0.5 1
vt 0.5 0.75
vt 0.75 0.75
vt 0 0.5
vt 0.25 0.25
vt 0.25 0.5
vt 0 0.5
vt 0 0.25
vt 0.25 0.25
vt 0 0.25
vt 0.25 0.5
vt 0 0.5
vt 0 0.25
vt 0.25 0.25
vt 0.25 0.5
vt 0.25 0.25
vt 0 0.5
vt 0 0.25
vt 0.25 0.25
vt 0.25 0.5
vt 0 0.5
vt 0.25 0.5
vt 0 0.25
vt 0.25 0.25
vt 0.25 0.5
vt 0 0.5
vt 0 0.25
vt 0.25 0.5
vt 0 0.25
vt 0.25 0.25
vt 0.25 0.5
vt 0 0.5
vt 0 0.25
vt 0 0.5
vt 0.25 0.25
vt 0.25 0.5
vt 0 0.5
vt 0 0.25
vt 0.25 0.25
vt 0 0.25
vt 0.25 0.5
vt 0 0.5
vt 0 0.25
vt 0.25 0.25
vt 0.25 0.5
vt 0.25 0.25
vt 0 0.5
vt 0 0.25
vt 0.25 0.25
vt 0.25 0.5
vt 0 0.5
vt 0.75 0.25
vt 0.5 0.5
vt 0.5 0.25
vt 0.75 0.25
vt 0.75 0.5
vt 0.5 0.5
vt 0.75 0.5
vt 0.5 0.25
vt 0.75 0.25
vt 0.75 0.5
vt 0.5 0.5
vt 0.5 0.25
vt 0.5 0.5
vt 0.75 0.25
vt 0.75 0.5
vt 0.5 0.5
vt 0.5 0.25
vt 0.75 0.25
vt 0.5 0.25
vt 0.75 0.5
vt 0.5 0.5
vt 0.5 0.25
vt 0.75 0.25
vt 0.75 0.5
vt 0.5 0.25
vt 0.75 0.5
vt 0.5 0.5
vt 0.5 0.25
vt 0.75 0.25
vt 0.75 0.5
vt 0.75 0.25
vt 0.5 0.5
vt 0.5 0.25
vt 0.75 0.25
vt 0.75 0.5
vt 0.5 0.5
vt 0.75 0.5
vt 0.5 0.25
vt 0.75 0.25
vt 0.75 0.5
vt 0.5 0.5
vt 0.5 0.25
vt 0.5 0.5
vt 0.75 0.25
vt 0.75 0.5
vt 0.5 0.5
vt 0.5 0.25
vt 0.75 0.25
vt 0.5 0.5
vt 0.75 0.25
vt 0.75 0.5
vt 0.5 0.5
vt 0.5 0.25
vt 0.75 0.25
vt 0.5 0.25
vt 0.75 0.5
vt 0.5 0.5
vt 0.5 0.25
vt 0.75 0.25
vt 0.75 0.5
vt 0.75 0.25
vt 0.5 0.5
vt 0.5 0.25
vt 0.75 0.25
vt 0.75 0.5
vt 0.5 0.5
vt 0.75 0.5
vt 0.5 0.25
vt 0.75 0.25
vt 0.75 0.5
vt 0.5 0.5
vt 0.5 0.25
vt 0.75 1
vt 0.5 0.75
vt 0.75 0.75
vt 0.75 1
vt 0.5 1
vt 0.5 0.75
vt 0.5 0.5
vt 0.25 0.25
vt 0.5 0.25
vt 0.5 0.5
vt 0.25 0.5
vt 0.25 0.25
vt 0.25 0.5
vt 0.5 0.25
vt 0.5 0.5
vt 0.25 0.5
vt 0.25 0.25
vt 0.5 0.25
vt 0.25 0.25
vt 0.5 0.5
vt 0.25 0.5
vt 0.25 0.25
vt 0.5 0.25
vt 0.5 0.5
vt 0.5 0.25
vt 0.25 0.5
vt 0.25 0.25
vt 0.5 0.25
vt 0.5 0.5
vt 0.25 0.5
vn -0.7071067811865476 0 0.7071067811865476
vn 0.000023568065350185026 0.707112671950993 0.7071008899802586
vn -0.8164897775549695 0.4082448872468217 0.4082653000011957
vn -0.7071067811865476 0 0.7071067811865476
vn 0 0 1
vn 0.000023568065350185026 0.707112671950993 0.7071008899802586
vn 0 0 1
vn 0.33336296024683093 0.66665925873487 0.6666592604011015
vn -0.000023567672591647006 0.707100888016456 0.7071126739147758
vn 0 0 1
vn 0.7071067814811458 5.892261752121841e-10 0.7071067808919492
vn 0.33336296024683093 0.66665925873487 0.6666592604011015
vn 0 0 1
vn -0.000023567672591647006 0.707100888016456 0.7071126739147758
vn 0.000023568065350185026 0.707112671950993 0.7071008899802586
vn 0 0 1
vn 0 0 1
vn -0.000023567672591647006 0.707100888016456 0.7071126739147758
vn -0.3333444432871068 -0.6666555562963379 0.6666722218518103
vn 0 0 1
vn -0.7071067811865476 -2.6168207644729587e-17 0.7071067811865476
vn -0.3333444432871068 -0.6666555562963379 0.6666722218518103
vn 0.000023567672591648975 -0.7071008880165149 0.7071126739147169
vn 0 0 1
vn -0.000011784130873314296 -0.7071185647283001 0.7070949973502307
vn 0.7071067811865476 0 0.7071067811865476
vn 0 0 1
vn -0.000011784130873314296 -0.7071185647283001 0.7070949973502307
vn 0.8164965809277261 -0.4082482904638631 0.4082482904638631
vn 0.7071067811865476 0 0.7071067811865476
vn 0.000023567672591648975 -0.7071008880165149 0.7071126739147169
vn 0 0 1
vn 0 0 1
vn 0.000023567672591648975 -0.7071008880165149 0.7071126739147169
vn -0.000011784130873314296 -0.7071185647283001 0.7070949973502307
vn 0 0 1
vn -0.7071067811865476 -2.6168207644729587e-17 0.7071067811865476
vn 0 0 1
vn -0.7071067811865476 0 0.7071067811865476
vn -0.7071067811865476 -2.6168207644729587e-17 0.7071067811865476
vn 0 0 1
vn 0 0 1
vn 0 0 1
vn 0.7071067814811458 5.892261752121841e-10 0.7071067808919492
vn 0 0 1
vn 0 0 1
vn 0.7071067811865476 0 0.7071067811865476
vn 0.7071067814811458 5.892261752121841e-10 0.7071067808919492
vn 4.5175090746059636e-21 1 -1.6663333301898594e-13
vn -0.3332740793210951 0.666681477438658 -0.6666814799384219
vn -0.7070714282047407 0.7071421324009115 1.1785961985791364e-13
vn 4.5175090746059636e-21 1 -1.6663333301898594e-13
vn -0.000023567869024098718 0.7071067792228137 -0.7071067827575227
vn -0.3332740793210951 0.666681477438658 -0.6666814799384219
vn 0.7071421324009408 0.7070714282047114 -1.178216688623905e-13
vn 0.000023567869024094798 0.7071067792226959 -0.7071067827576406
vn 4.5175090746059636e-21 1 1.666333293186126e-13
vn 0.7071421324009408 0.7070714282047114 -1.178216688623905e-13
vn 0.8165101871628336 0.4082346818476699 -0.40823468592960827
vn 0.000023567869024094798 0.7071067792226959 -0.7071067827576406
vn 0.33336296024683093 0.66665925873487 0.6666592604011015
vn -0.00001666500004497377 0.9999999998264235 0.000008332499970410847
vn -0.000023567672591647006 0.707100888016456 0.7071126739147758
vn 0.33336296024683093 0.66665925873487 0.6666592604011015
vn 0.7071421316153209 0.7070714288922351 -0.000011782756025391354
vn -0.00001666500004497377 0.9999999998264235 0.000008332499970410847
vn 0.000023568065350185026 0.707112671950993 0.7071008899802586
vn -0.7070832139067627 0.7071303476808808 -5.891280132979426e-10
vn -0.8164897775549695 0.4082448872468217 0.4082653000011957
vn 0.000023568065350185026 0.707112671950993 0.7071008899802586
vn 0.000016665000044973777 0.9999999998264237 -0.000008332499970410849
vn -0.7070832139067627 0.7071303476808808 -5.891280132979426e-10
vn 0.7071421316153209 0.7070714288922351 -0.000011782756025391354
vn 4.5175090746059636e-21 1 1.666333293186126e-13
vn -0.00001666500004497377 0.9999999998264235 0.000008332499970410847
vn 0.7071421316153209 0.7070714288922351 -0.000011782756025391354
vn 0.7071421324009408 0.7070714282047114 -1.178216688623905e-13
vn 4.5175090746059636e-21 1 1.666333293186126e-13
vn -0.000023567672591647006 0.707100888016456 0.7071126739147758
vn 0.000016665000044973777 0.9999999998264237 -0.000008332499970410849
vn 0.000023568065350185026 0.707112671950993 0.7071008899802586
vn -0.000023567672591647006 0.707100888016456 0.7071126739147758
vn -0.00001666500004497377 0.9999999998264235 0.000008332499970410847
vn 0.000016665000044973777 0.9999999998264237 -0.000008332499970410849
vn 0.000016665000044973777 0.9999999998264237 -0.000008332499970410849
vn -0.7070714282047407 0.7071421324009115 1.1785961985791364e-13
vn -0.7070832139067627 0.7071303476808808 -5.891280132979426e-10
vn 0.000016665000044973777 0.9999999998264237 -0.000008332499970410849
vn 4.5175090746059636e-21 1 -1.6663333301898594e-13
vn -0.7070714282047407 0.7071421324009115 1.1785961985791364e-13
vn 4.5175090746059636e-21 1 1.666333293186126e-13
vn -0.000023567869024098718 0.7071067792228137 -0.7071067827575227
vn 4.5175090746059636e-21 1 -1.6663333301898594e-13
vn 4.5175090746059636e-21 1 1.666333293186126e-13
vn 0.000023567869024094798 0.7071067792226959 -0.7071067827576406
vn -0.000023567869024098718 0.7071067792228137 -0.7071067827575227
vn -1 -3.700743415417188e-17 1.850371707708594e-17
vn -0.7071067811865476 0 0.7071067811865476
vn -1 -8.332083127726913e-10 4.1660412863077003e-10
vn -1 -3.700743415417188e-17 1.850371707708594e-17
vn -0.7071067811865476 -2.6168207644729587e-17 0.7071067811865476
vn -0.7071067811865476 0 0.7071067811865476
vn -0.7071185652192288 -0.7070949968592926 -0.000011783738114751378
vn -1 -3.700743415417188e-17 1.850371707708594e-17
vn -1 3.700743415417188e-17 -1.850371707708594e-17
vn -0.7071185652192288 -0.7070949968592926 -0.000011783738114751378
vn -0.7071244568674361 -0.7070891050638055 -5.891230730636297e-14
vn -1 -3.700743415417188e-17 1.850371707708594e-17
vn -0.7071067811865476 2.6168207644729587e-17 -0.7071067811865476
vn -1 4.166041656400543e-10 -8.332499875270589e-10
vn -0.7071067817757443 -2.6166899428970855e-17 -0.7071067805973508
vn -0.7071067811865476 2.6168207644729587e-17 -0.7071067811865476
vn -1 3.700743415417188e-17 -1.850371707708594e-17
vn -1 4.166041656400543e-10 -8.332499875270589e-10
vn -1 4.166041656400543e-10 -8.332499875270589e-10
vn -0.7070832139067627 0.7071303476808808 -5.891280132979426e-10
vn -0.7070714282047407 0.7071421324009115 1.1785961985791364e-13
vn -1 4.166041656400543e-10 -8.332499875270589e-10
vn -1 -8.332083127726913e-10 4.1660412863077003e-10
vn -0.7070832139067627 0.7071303476808808 -5.891280132979426e-10
vn -1 -8.332083127726913e-10 4.1660412863077003e-10
vn -0.8164897775549695 0.4082448872468217 0.4082653000011957
vn -0.7070832139067627 0.7071303476808808 -5.891280132979426e-10
vn -1 -8.332083127726913e-10 4.1660412863077003e-10
vn -0.7071067811865476 0 0.7071067811865476
vn -0.8164897775549695 0.4082448872468217 0.4082653000011957
vn -0.7071244568674361 -0.7070891050638055 -5.891230730636297e-14
vn -0.7071067811865476 -2.6168207644729587e-17 0.7071067811865476
vn -1 -3.700743415417188e-17 1.850371707708594e-17
vn -0.7071244568674361 -0.7070891050638055 -5.891230730636297e-14
vn -0.3333444432871068 -0.6666555562963379 0.6666722218518103
vn -0.7071067811865476 -2.6168207644729587e-17 0.7071067811865476
vn -0.8164965809277261 -0.4082482904638631 -0.4082482904638631
vn -1 3.700743415417188e-17 -1.850371707708594e-17
vn -0.7071067811865476 2.6168207644729587e-17 -0.7071067811865476
vn -0.8164965809277261 -0.4082482904638631 -0.4082482904638631
vn -0.7071185652192288 -0.7070949968592926 -0.000011783738114751378
vn -1 3.700743415417188e-17 -1.850371707708594e-17
vn -0.7071067817757443 -2.6166899428970855e-17 -0.7071067805973508
vn -0.7070714282047407 0.7071421324009115 1.1785961985791364e-13
vn -0.3332740793210951 0.666681477438658 -0.6666814799384219
vn -0.7071067817757443 -2.6166899428970855e-17 -0.7071067805973508
vn -1 4.166041656400543e-10 -8.332499875270589e-10
vn -0.7070714282047407 0.7071421324009115 1.1785961985791364e-13
vn -0.00001666500004497377 0.9999999998264235 0.000008332499970410847
vn 4.5175090746059636e-21 1 -1.6663333301898594e-13
vn 0.000016665000044973777 0.9999999998264237 -0.000008332499970410849
vn -0.00001666500004497377 0.9999999998264235 0.000008332499970410847
vn 4.5175090746059636e-21 1 1.666333293186126e-13
vn 4.5175090746059636e-21 1 -1.6663333301898594e-13
vn -1 3.700743415417188e-17 -1.850371707708594e-17
vn -1 -8.332083127726913e-10 4.1660412863077003e-10
vn -1 4.166041656400543e-10 -8.332499875270589e-10
vn -1 3.700743415417188e-17 -1.850371707708594e-17
vn -1 -3.700743415417188e-17 1.850371707708594e-17
vn -1 -8.332083127726913e-10 4.1660412863077003e-10
vn 0 0 1
vn 0 0 1
vn 0 0 1
vn 0 0 1
vn 0 0 1
vn 0 0 1
vn 1 0 0
vn 1 -4.166457499529942e-10 -8.332499505196248e-10
vn 1 4.1664586098084747e-10 8.332499505196248e-10
vn 1 0 0
vn 1 0 0
vn 1 -4.166457499529942e-10 -8.332499505196248e-10
vn 0 0 -1
vn 0 0 -1
vn 0 0 -1
vn 0 0 -1
vn 0 0 -1
vn 0 0 -1
vn 0.3333444432870327 -0.6666555562963563 -0.6666722218518287
vn 0 0 -1
vn 0.7071067811865476 0 -0.7071067811865476
vn 0.3333444432870327 -0.6666555562963563 -0.6666722218518287
vn 0 -0.7070891050638204 -0.7071244568674214
vn 0 0 -1
vn 0.7071067811865476 5.892261749666978e-10 -0.7071067811865476
vn 0.000023567869024094798 0.7071067792226959 -0.7071067827576406
vn 0.8165101871628336 0.4082346818476699 -0.40823468592960827
vn 0.7071067811865476 5.892261749666978e-10 -0.7071067811865476
vn 0 0 -1
vn 0.000023567869024094798 0.7071067792226959 -0.7071067827576406
vn 0 0 -1
vn -0.3332740793210951 0.666681477438658 -0.6666814799384219
vn -0.000023567869024098718 0.7071067792228137 -0.7071067827575227
vn 0 0 -1
vn -0.7071067817757443 -2.6166899428970855e-17 -0.7071067805973508
vn -0.3332740793210951 0.666681477438658 -0.6666814799384219
vn -0.0000117837381147773 -0.7070949968592777 -0.7071185652192433
vn -0.7071067811865476 2.6168207644729587e-17 -0.7071067811865476
vn 0 0 -1
vn -0.0000117837381147773 -0.7070949968592777 -0.7071185652192433
vn -0.8164965809277261 -0.4082482904638631 -0.4082482904638631
vn -0.7071067811865476 2.6168207644729587e-17 -0.7071067811865476
vn 0.7071126739147316 -0.7071008880165003 0.000023567672591648487
vn 0.7071067811865476 0 -0.7071067811865476
vn 1 0 0
vn 0.7071126739147316 -0.7071008880165003 0.000023567672591648487
vn 0.3333444432870327 -0.6666555562963563 -0.6666722218518287
vn 0.7071067811865476 0 -0.7071067811865476
vn 0.8164965809277261 -0.4082482904638631 0.4082482904638631
vn 1 0 0
vn 0.7071067811865476 0 0.7071067811865476
vn 0.8164965809277261 -0.4082482904638631 0.4082482904638631
vn 0.7070949973502455 -0.7071185647282855 -0.000011784130873314052
vn 1 0 0
vn 0.7071067814811458 5.892261752121841e-10 0.7071067808919492
vn 0.7071421316153209 0.7070714288922351 -0.000011782756025391354
vn 0.33336296024683093 0.66665925873487 0.6666592604011015
vn 0.7071067814811458 5.892261752121841e-10 0.7071067808919492
vn 1 4.1664586098084747e-10 8.332499505196248e-10
vn 0.7071421316153209 0.7070714288922351 -0.000011782756025391354
vn 1 -4.166457499529942e-10 -8.332499505196248e-10
vn 0.8165101871628336 0.4082346818476699 -0.40823468592960827
vn 0.7071421324009408 0.7070714282047114 -1.178216688623905e-13
vn 1 -4.166457499529942e-10 -8.332499505196248e-10
vn 0.7071067811865476 5.892261749666978e-10 -0.7071067811865476
vn 0.8165101871628336 0.4082346818476699 -0.40823468592960827
vn 0 0 -1
vn -0.7071067817757443 -2.6166899428970855e-17 -0.7071067805973508
vn 0 0 -1
vn 0 0 -1
vn -0.7071067811865476 2.6168207644729587e-17 -0.7071067811865476
vn -0.7071067817757443 -2.6166899428970855e-17 -0.7071067805973508
vn 0 -0.7070891050638204 -0.7071244568674214
vn 0 0 -1
vn 0 0 -1
vn 0 -0.7070891050638204 -0.7071244568674214
vn -0.0000117837381147773 -0.7070949968592777 -0.7071185652192433
vn 0 0 -1
vn 0.7071067811865476 0 -0.7071067811865476
vn 0 0 -1
vn 0.7071067811865476 5.892261749666978e-10 -0.7071067811865476
vn 0.7071067811865476 0 -0.7071067811865476
vn 0 0 -1
vn 0 0 -1
vn 0 0 -1
vn -0.000023567869024098718 0.7071067792228137 -0.7071067827575227
vn 0.000023567869024094798 0.7071067792226959 -0.7071067827576406
vn 0 0 -1
vn 0 0 -1
vn -0.000023567869024098718 0.7071067792228137 -0.7071067827575227
vn 1 4.1664586098084747e-10 8.332499505196248e-10
vn 0.7071421324009408 0.7070714282047114 -1.178216688623905e-13
vn 0.7071421316153209 0.7070714288922351 -0.000011782756025391354
vn 1 4.1664586098084747e-10 8.332499505196248e-10
vn 1 -4.166457499529942e-10 -8.332499505196248e-10
vn 0.7071421324009408 0.7070714282047114 -1.178216688623905e-13
vn 1 0 0
vn 0.7071067811865476 5.892261749666978e-10 -0.7071067811865476
vn 1 -4.166457499529942e-10 -8.332499505196248e-10
vn 1 0 0
vn 0.7071067811865476 0 -0.7071067811865476
vn 0.7071067811865476 5.892261749666978e-10 -0.7071067811865476
vn 0.7070949973502455 -0.7071185647282855 -0.000011784130873314052
vn 1 0 0
vn 1 0 0
vn 0.7070949973502455 -0.7071185647282855 -0.000011784130873314052
vn 0.7071126739147316 -0.7071008880165003 0.000023567672591648487
vn 1 0 0
vn 0.7071067811865476 0 0.7071067811865476
vn 1 4.1664586098084747e-10 8.332499505196248e-10
vn 0.7071067814811458 5.892261752121841e-10 0.7071067808919492
vn 0.7071067811865476 0 0.7071067811865476
vn 1 0 0
vn 1 4.1664586098084747e-10 8.332499505196248e-10
vn 0.000023567672591648975 -0.7071008880165149 0.7071126739147169
vn 0.000024997499905185045 -0.9999999993751251 0.000024997499863526718
vn -0.000011784130873314296 -0.7071185647283001 0.7070949973502307
vn 0.000023567672591648975 -0.7071008880165149 0.7071126739147169
vn 0.000016664999803722544 -0.9999999993056945 0.0000333299998781972
vn 0.000024997499905185045 -0.9999999993751251 0.000024997499863526718
vn 0.000024997499905185045 -0.9999999993751251 0.000024997499863526718
vn 0.7071126739147316 -0.7071008880165003 0.000023567672591648487
vn 0.7070949973502455 -0.7071185647282855 -0.000011784130873314052
vn 0.000024997499905185045 -0.9999999993751251 0.000024997499863526718
vn 0.000033329999919855526 -0.9999999993056945 0.000016664999845380885
vn 0.7071126739147316 -0.7071008880165003 0.000023567672591648487
vn -0.000024997500030143388 -0.999999999375125 -0.000024997500071801718
vn 0 -0.7070891050638204 -0.7071244568674214
vn 0.000033329999919855526 -0.9999999993056945 0.000016664999845380885
vn -0.000024997500030143388 -0.999999999375125 -0.000024997500071801718
vn -0.0000117837381147773 -0.7070949968592777 -0.7071185652192433
vn 0 -0.7070891050638204 -0.7071244568674214
vn -0.7071244568674361 -0.7070891050638055 -5.891230730636297e-14
vn -0.000024997500030143388 -0.999999999375125 -0.000024997500071801718
vn 0.000016664999803722544 -0.9999999993056945 0.0000333299998781972
vn -0.7071244568674361 -0.7070891050638055 -5.891230730636297e-14
vn -0.7071185652192288 -0.7070949968592926 -0.000011783738114751378
vn -0.000024997500030143388 -0.999999999375125 -0.000024997500071801718
vn 0.000016664999803722544 -0.9999999993056945 0.0000333299998781972
vn 0.000033329999919855526 -0.9999999993056945 0.000016664999845380885
vn 0.000024997499905185045 -0.9999999993751251 0.000024997499863526718
vn 0.000016664999803722544 -0.9999999993056945 0.0000333299998781972
vn -0.000024997500030143388 -0.999999999375125 -0.000024997500071801718
vn 0.000033329999919855526 -0.9999999993056945 0.000016664999845380885
vn -0.3333444432871068 -0.6666555562963379 0.6666722218518103
vn 0.000016664999803722544 -0.9999999993056945 0.0000333299998781972
vn 0.000023567672591648975 -0.7071008880165149 0.7071126739147169
vn -0.3333444432871068 -0.6666555562963379 0.6666722218518103
vn -0.7071244568674361 -0.7070891050638055 -5.891230730636297e-14
vn 0.000016664999803722544 -0.9999999993056945 0.0000333299998781972
vn -0.000011784130873314296 -0.7071185647283001 0.7070949973502307
vn 0.7070949973502455 -0.7071185647282855 -0.000011784130873314052
vn 0.8164965809277261 -0.4082482904638631 0.4082482904638631
vn -0.000011784130873314296 -0.7071185647283001 0.7070949973502307
vn 0.000024997499905185045 -0.9999999993751251 0.000024997499863526718
vn 0.7070949973502455 -0.7071185647282855 -0.000011784130873314052
vn 0.000033329999919855526 -0.9999999993056945 0.000016664999845380885
vn 0.3333444432870327 -0.6666555562963563 -0.6666722218518287
vn 0.7071126739147316 -0.7071008880165003 0.000023567672591648487
vn 0.000033329999919855526 -0.9999999993056945 0.000016664999845380885
vn 0 -0.7070891050638204 -0.7071244568674214
vn 0.3333444432870327 -0.6666555562963563 -0.6666722218518287
vn -0.7071185652192288 -0.7070949968592926 -0.000011783738114751378
vn -0.0000117837381147773 -0.7070949968592777 -0.7071185652192433
vn -0.000024997500030143388 -0.999999999375125 -0.000024997500071801718
vn -0.7071185652192288 -0.7070949968592926 -0.000011783738114751378
vn -0.8164965809277261 -0.4082482904638631 -0.4082482904638631
vn -0.0000117837381147773 -0.7070949968592777 -0.7071185652192433
g Scene
f 1/1/1 3/2/2 2/3/3
f 1/4/4 4/5/5 3/6/6
f 5/7/7 7/8/8 6/9/9
f 5/10/10 8/11/11 7/12/12
f 4/13/13 6/14/14 3/15/15
f 4/16/16 5/17/17 6/18/18
f 9/19/19 11/20/20 10/21/21
f 9/22/22 12/23/23 11/24/24
f 13/25/25 15/26/26 14/27/27
f 13/28/28 16/29/29 15/30/30
f 12/31/31 14/32/32 11/33/33
f 12/34/34 13/35/35 14/36/36
f 10/37/37 4/38/38 1/39/39
f 10/40/40 11/41/41 4/42/42
f 14/43/43 8/44/44 5/45/45
f 14/46/46 15/47/47 8/48/48
f 17/49/49 19/50/50 18/51/51
f 17/52/52 20/53/53 19/54/54
f 21/55/55 23/56/56 22/57/57
f 21/58/58 24/59/59 23/60/60
f 7/61/61 25/62/62 6/63/63
f 7/64/64 26/65/65 25/66/66
f 3/67/67 27/68/68 2/69/69
f 3/70/70 28/71/71 27/72/72
f 26/73/73 22/74/74 25/75/75
f 26/76/76 21/77/77 22/78/78
f 6/79/79 28/80/80 3/81/81
f 6/82/82 25/83/83 28/84/84
f 28/85/85 18/86/86 27/87/87
f 28/88/88 17/89/89 18/90/90
f 22/91/91 20/92/92 17/93/93
f 22/94/94 23/95/95 20/96/96
f 29/97/97 1/98/98 30/99/99
f 29/100/100 10/101/101 1/102/102
f 31/103/103 29/104/104 32/105/105
f 31/106/106 33/107/107 29/108/108
f 34/109/109 36/110/110 35/111/111
f 34/112/112 32/113/113 36/114/114
f 36/115/115 27/116/116 18/117/117
f 36/118/118 30/119/119 27/120/120
f 30/121/121 2/122/122 27/123/123
f 30/124/124 1/125/125 2/126/126
f 33/127/127 10/128/128 29/129/129
f 33/130/130 9/131/131 10/132/132
f 37/133/133 32/134/134 34/135/135
f 37/136/136 31/137/137 32/138/138
f 35/139/139 18/140/140 19/141/141
f 35/142/142 36/143/143 18/144/144
f 25/145/145 17/146/146 28/147/147
f 25/148/148 22/149/149 17/150/150
f 32/151/151 30/152/152 36/153/153
f 32/154/154 29/155/155 30/156/156
f 11/157/157 5/158/158 4/159/159
f 11/160/160 14/161/161 5/162/162
f 38/163/163 40/164/164 39/165/165
f 38/166/166 41/167/167 40/168/168
f 42/169/169 44/170/170 43/171/171
f 42/172/172 45/173/173 44/174/174
f 46/175/175 42/176/176 47/177/177
f 46/178/178 48/179/179 42/180/180
f 49/181/181 23/182/182 24/183/183
f 49/184/184 43/185/185 23/186/186
f 44/187/187 19/188/188 20/189/189
f 44/190/190 35/191/191 19/192/192
f 50/193/193 34/194/194 45/195/195
f 50/196/196 37/197/197 34/198/198
f 51/199/199 47/200/200 41/201/201
f 51/202/202 46/203/203 47/204/204
f 16/205/205 38/206/206 15/207/207
f 16/208/208 52/209/209 38/210/210
f 8/211/211 26/212/212 7/213/213
f 8/214/214 39/215/215 26/216/216
f 40/217/217 24/218/218 21/219/219
f 40/220/220 49/221/221 24/222/222
f 45/223/223 35/224/224 44/225/225
f 45/226/226 34/227/227 35/228/228
f 48/229/229 45/230/230 42/231/231
f 48/232/232 50/233/233 45/234/234
f 47/235/235 43/236/236 49/237/237
f 47/238/238 42/239/239 43/240/240
f 43/241/241 20/242/242 23/243/243
f 43/244/244 44/245/245 20/246/246
f 39/247/247 21/248/248 26/249/249
f 39/250/250 40/251/251 21/252/252
f 41/253/253 49/254/254 40/255/255
f 41/256/256 47/257/257 49/258/258
f 52/259/259 41/260/260 38/261/261
f 52/262/262 51/263/263 41/264/264
f 15/265/265 39/266/266 8/267/267
f 15/268/268 38/269/269 39/270/270
f 12/271/271 53/272/272 13/273/273
f 12/274/274 54/275/275 53/276/276
f 53/277/277 51/278/278 52/279/279
f 53/280/280 55/281/281 51/282/282
f 56/283/283 48/284/284 55/285/285
f 56/286/286 50/287/287 48/288/288
f 33/289/289 56/290/290 54/291/291
f 33/292/292 31/293/293 56/294/294
f 54/295/295 55/296/296 53/297/297
f 54/298/298 56/299/299 55/300/300
f 9/301/301 54/302/302 12/303/303
f 9/304/304 33/305/305 54/306/306
f 13/307/307 52/308/308 16/309/309
f 13/310/310 53/311/311 52/312/312
f 55/313/313 46/314/314 51/315/315
f 55/316/316 48/317/317 46/318/318
f 31/319/319 50/320/320 56/321/321
f 31/322/322 37/323/323 50/324/324
