o Default
v -1 1 0
v -1 2 0
v 0 2 0
v 0 1 0
v 1 1 0
v 1 2 0
v 2 2 0
v 2 1 0
v -1 0 0
v 0 0 0
v 1 0 0
v 2 0 0
v 0 2 -2
v -1 2 -2
v -1 2 -3
v 0 2 -3
v 2 2 -2
v 1 2 -2
v 1 2 -3
v 2 2 -3
v 1 2 -1
v 2 2 -1
v -1 2 -1
v 0 2 -1
v -1 0 -2
v -1 1 -2
v -1 1 -1
v -1 0 -1
v -1 0 -3
v -1 1 -3
v 2 0 -3
v 2 1 -3
v 1 1 -3
v 1 0 -3
v 0 1 -3
v 0 0 -3
v 2 0 -2
v 2 1 -2
v 2 1 -1
v 2 0 -1
v 1 0 -1
v 0 0 -1
v 1 0 -2
v 0 0 -2
vt 0 0.25
vt 0.25 0.5
vt 0 0.5
vt 0 0.25
vt 0.25 0.25
vt 0.25 0.5
vt 0.25 0.25
vt 0.5 0.5
vt 0.25 0.5
vt 0.25 0.25
vt 0.5 0.25
vt 0.5 0.5
vt 0.5 0.25
vt 0.75 0.5
vt 0.5 0.5
vt 0.5 0.25
vt 0.75 0.25
vt 0.75 0.5
vt 0 0
vt 0.25 0.25
vt 0 0.25
vt 0 0
vt 0.25 0
vt 0.25 0.25
vt 0.25 0
vt 0.5 0.25
vt 0.25 0.25
vt 0.25 0
vt 0.5 0
vt 0.5 0.25
vt 0.5 0
vt 0.75 0.25
vt 0.5 0.25
vt 0.5 0
vt 0.75 0
vt 0.75 0.25
vt 0.25 0.25
vt 0.5 0
vt 0.5 0.25
vt 0.25 0.25
vt 0.25 0
vt 0.5 0
vt 0.25 0
vt 0.5 0.25
vt 0.25 0.25
vt 0.25 0
vt 0.5 0
vt 0.5 0.25
vt 0.5 0
vt 0.25 0.25
vt 0.25 0
vt 0.5 0
vt 0.5 0.25
vt 0.25 0.25
vt 0.5 0.25
vt 0.25 0
vt 0.5 0
vt 0.5 0.25
vt 0.25 0.25
vt 0.25 0
vt 0.75 0.5
vt 0.5 0.25
vt 0.75 0.25
vt 0.75 0.5
vt 0.5 0.5
vt 0.5 0.25
vt 0.5 0.5
vt 0.75 0.25
vt 0.75 0.5
vt 0.5 0.5
vt 0.5 0.25
vt 0.75 0.25
vt 0.5 0.25
vt 0.75 0.5
vt 0.5 0.5
vt 0.5 0.25
vt 0.75 0.25
vt 0.75 0.5
vt 0.75 0.25
vt 0.5 0.5
vt 0.5 0.25
vt 0.75 0.25
vt 0.75 0.5
vt 0.5 0.5
vt 0.75 0.5
vt 0.5 0.25
vt 0.75 0.25
vt 0.75 0.5
vt 0.5 0.5
vt 0.5 0.25
vt 0.5 0.25
vt 0.75 0.5
vt 0.5 0.5
vt 0.5 0.25
vt 0.75 0.25
vt 0.75 0.5
vt 0.25 0.25
vt 0.5 0.5
vt 0.25 0.5
vt 0.25 0.25
vt 0.5 0.25
vt 0.5 0.5
vt 0.5 0.25
vt 0.25 0.5
vt 0.25 0.25
vt 0.5 0.25
vt 0.5 0.5
vt 0.25 0.5
vt 0.5 0.5
vt 0.25 0.25
vt 0.5 0.25
vt 0.5 0.5
vt 0.25 0.5
vt 0.25 0.25
vt 0.25 0.5
vt 0.5 0.25
vt 0.5 0.5
vt 0.25 0.5
vt 0.25 0.25
vt 0.5 0.25
vt 0.5 1
vt 0.75 0.75
vt 0.75 1
vt 0.5 1
vt 0.5 0.75
vt 0.75 0.75
vt 0 0.5
vt 0.25 0.25
vt 0.25 0.5
vt 0 0.5
vt 0 0.25
vt 0.25 0.25
vt 0.25 0.25
vt 0 0.5
vt 0 0.25
vt 0.25 0.25
vt 0.25 0.5
vt 0 0.5
vt 0.25 0.5
vt 0 0.25
vt 0.25 0.25
vt 0.25 0.5
vt 0 0.5
vt 0 0.25
vt 0.25 0.5
vt 0 0.25
vt 0.25 0.25
vt 0.25 0.5
vt 0 0.5
vt 0 0.25
vt 0 0.5
vt 0.25 0.25
vt 0.25 0.5
vt 0 0.5
vt 0 0.25
vt 0.25 0.25
vt 0 0.25
vt 0.25 0.5
vt 0 0.5
vt 0 0.25
vt 0.25 0.25
vt 0.25 0.5
vt 0.25 0.25
vt 0 0.5
vt 0 0.25
vt 0.25 0.25
vt 0.25 0.5
vt 0 0.5
vt 0.75 0.5
vt 0.5 0.25
vt 0.75 0.25
vt 0.75 0.5
vt 0.5 0.5
vt 0.5 0.25
vt 0.5 0.25
vt 0.75 0.5
vt 0.5 0.5
vt 0.5 0.25
vt 0.75 0.25
vt 0.75 0.5
vt 0.5 0.25
vt 0.75 0.5
vt 0.5 0.5
vt 0.5 0.25
vt 0.75 0.25
vt 0.75 0.5
vt 0.75 0.5
vt 0.5 0.25
vt 0.75 0.25
vt 0.75 0.5
vt 0.5 0.5
vt 0.5 0.25
vt 0.5 0.5
vt 0.75 0.25
vt 0.75 0.5
vt 0.5 0.5
vt 0.5 0.25
vt 0.75 0.25
vt 0.5 0.25
vt 0.75 0.5
vt 0.5 0.5
vt 0.5 0.25
vt 0.75 0.25
vt 0.75 0.5
vt 0.75 0.25
vt 0.5 0.5
vt 0.5 0.25
vt 0.75 0.25
vt 0.75 0.5
vt 0.5 0.5
vt 0.75 0.5
vt 0.5 0.25
vt 0.75 0.25
vt 0.75 0.5
vt 0.5 0.5
vt 0.5 0.25
vt 0.75 1
vt 0.5 0.75
vt 0.75 0.75
vt 0.75 1
vt 0.5 1
vt 0.5 0.75
vt 0.5 0.5
vt 0.25 0.25
vt 0.5 0.25
vt 0.5 0.5
vt 0.25 0.5
vt 0.25 0.25
vt 0.25 0.5
vt 0.5 0.25
vt 0.5 0.5
vt 0.25 0.5
vt 0.25 0.25
vt 0.5 0.25
vt 0.25 0.25
vt 0.5 0.5
vt 0.25 0.5
vt 0.25 0.25
vt 0.5 0.25
vt 0.5 0.5
vt 0.5 0.25
vt 0.25 0.5
vt 0.25 0.25
vt 0.5 0.25
vt 0.5 0.5
vt 0.25 0.5
vt 0 0.25
vt 0.25 0.5
vt 0 0.5
vt 0 0.25
vt 0.25 0.25
vt 0.25 0.5
vn -0.7071067811865476 0 0.7071067811865476
vn 0.000023568065350185026 0.707112671950993 0.7071008899802586
vn -0.8164897775549695 0.4082448872468216 0.4082653000011956
vn -0.7071067811865476 0 0.7071067811865476
vn 0 0 1
vn 0.000023568065350185026 0.707112671950993 0.7071008899802586
vn 0 0 1
vn 0.33336296024683093 0.66665925873487 0.6666592604011015
vn -0.000023567672591647006 0.707100888016456 0.7071126739147758
vn 0 0 1
vn 0.7071067814811458 5.892261752121841e-10 0.7071067808919492
vn 0.33336296024683093 0.66665925873487 0.6666592604011015
vn 0 0 1
vn -0.000023567672591647006 0.707100888016456 0.7071126739147758
vn 0.000023568065350185026 0.707112671950993 0.7071008899802586
vn 0 0 1
vn 0 0 1
vn -0.000023567672591647006 0.707100888016456 0.7071126739147758
vn -0.3333444432871068 -0.6666555562963379 0.6666722218518103
vn 0 0 1
vn -0.7071067811865476 0 0.7071067811865476
vn -0.3333444432871068 -0.6666555562963379 0.6666722218518103
vn 0.000023567672591648975 -0.7071008880165149 0.7071126739147169
vn 0 0 1
vn -0.000011784130873314296 -0.7071185647283001 0.7070949973502307
vn 0.7071067814811458 5.892261752121841e-10 0.7071067808919492
vn 0 0 1
vn -0.000011784130873314296 -0.7071185647283001 0.7070949973502307
vn 0.8164965809277261 -0.4082482904638631 0.4082482904638631
vn 0.7071067814811458 5.892261752121841e-10 0.7071067808919492
vn 0.000023567672591648975 -0.7071008880165149 0.7071126739147169
vn 0 0 1
vn 0 0 1
vn 0.000023567672591648975 -0.7071008880165149 0.7071126739147169
vn -0.000011784130873314296 -0.7071185647283001 0.7070949973502307
vn 0 0 1
vn 4.5175090746059636e-21 1 -1.6663333301898594e-13
vn -0.3332740793210951 0.666681477438658 -0.6666814799384219
vn -0.7070714282047407 0.7071421324009115 1.1783345034190215e-13
vn 4.5175090746059636e-21 1 -1.6663333301898594e-13
vn -0.000023567869024098718 0.7071067792228137 -0.7071067827575227
vn -0.3332740793210951 0.666681477438658 -0.6666814799384219
vn 0.7071421324009408 0.7070714282047114 -1.178216688623905e-13
vn 0.000023567869024094798 0.7071067792226959 -0.7071067827576406
vn 4.5175090746059636e-21 1 1.666333293186126e-13
vn 0.7071421324009408 0.7070714282047114 -1.178216688623905e-13
vn 0.8165101871628336 0.4082346818476699 -0.40823468592960827
vn 0.000023567869024094798 0.7071067792226959 -0.7071067827576406
vn 0.33336296024683093 0.66665925873487 0.6666592604011015
vn -0.00001666500004497377 0.9999999998264235 0.000008332499970410847
vn -0.000023567672591647006 0.707100888016456 0.7071126739147758
vn 0.33336296024683093 0.66665925873487 0.6666592604011015
vn 0.7071421316153209 0.7070714288922351 -0.000011782756025391354
vn -0.00001666500004497377 0.9999999998264235 0.000008332499970410847
vn 0.000023568065350185026 0.707112671950993 0.7071008899802586
vn -0.7070832139067627 0.7071303476808808 -5.891279609610909e-10
vn -0.8164897775549695 0.4082448872468216 0.4082653000011956
vn 0.000023568065350185026 0.707112671950993 0.7071008899802586
vn 0.000016665000044973777 0.9999999998264237 -0.000008332499970410849
vn -0.7070832139067627 0.7071303476808808 -5.891279609610909e-10
vn 0.7071421316153209 0.7070714288922351 -0.000011782756025391354
vn 4.5175090746059636e-21 1 1.666333293186126e-13
vn -0.00001666500004497377 0.9999999998264235 0.000008332499970410847
vn 0.7071421316153209 0.7070714288922351 -0.000011782756025391354
vn 0.7071421324009408 0.7070714282047114 -1.178216688623905e-13
vn 4.5175090746059636e-21 1 1.666333293186126e-13
vn -0.000023567672591647006 0.707100888016456 0.7071126739147758
vn 0.000016665000044973777 0.9999999998264237 -0.000008332499970410849
vn 0.000023568065350185026 0.707112671950993 0.7071008899802586
vn -0.000023567672591647006 0.707100888016456 0.7071126739147758
vn -0.00001666500004497377 0.9999999998264235 0.000008332499970410847
vn 0.000016665000044973777 0.9999999998264237 -0.000008332499970410849
vn 0.000016665000044973777 0.9999999998264237 -0.000008332499970410849
vn -0.7070714282047407 0.7071421324009115 1.1783345034190215e-13
vn -0.7070832139067627 0.7071303476808808 -5.891279609610909e-10
vn 0.000016665000044973777 0.9999999998264237 -0.000008332499970410849
vn 4.5175090746059636e-21 1 -1.6663333301898594e-13
vn -0.7070714282047407 0.7071421324009115 1.1783345034190215e-13
vn 4.5175090746059636e-21 1 1.666333293186126e-13
vn -0.000023567869024098718 0.7071067792228137 -0.7071067827575227
vn 4.5175090746059636e-21 1 -1.6663333301898594e-13
vn 4.5175090746059636e-21 1 1.666333293186126e-13
vn 0.000023567869024094798 0.7071067792226959 -0.7071067827576406
vn -0.000023567869024098718 0.7071067792228137 -0.7071067827575227
vn -0.7071185652192288 -0.7070949968592926 -0.00001178373811472521
vn -1 -8.332083682819925e-10 4.1660418414099627e-10
vn -1 4.166041471354121e-10 -8.332499505196248e-10
vn -0.7071185652192288 -0.7070949968592926 -0.00001178373811472521
vn -0.7071244568674361 -0.7070891050638054 -5.893847485989246e-14
vn -1 -8.332083682819925e-10 4.1660418414099627e-10
vn -1 4.166041471354121e-10 -8.332499505196248e-10
vn -0.7070832139067627 0.7071303476808808 -5.891279609610909e-10
vn -0.7070714282047407 0.7071421324009115 1.1783345034190215e-13
vn -1 4.166041471354121e-10 -8.332499505196248e-10
vn -1 -8.332083682819925e-10 4.1660418414099627e-10
vn -0.7070832139067627 0.7071303476808808 -5.891279609610909e-10
vn -1 -8.332083682819925e-10 4.1660418414099627e-10
vn -0.8164897775549695 0.4082448872468216 0.4082653000011956
vn -0.7070832139067627 0.7071303476808808 -5.891279609610909e-10
vn -1 -8.332083682819925e-10 4.1660418414099627e-10
vn -0.7071067811865476 0 0.7071067811865476
vn -0.8164897775549695 0.4082448872468216 0.4082653000011956
vn -0.7071244568674361 -0.7070891050638054 -5.893847485989246e-14
vn -0.7071067811865476 0 0.7071067811865476
vn -1 -8.332083682819925e-10 4.1660418414099627e-10
vn -0.7071244568674361 -0.7070891050638054 -5.893847485989246e-14
vn -0.3333444432871068 -0.6666555562963379 0.6666722218518103
vn -0.7071067811865476 0 0.7071067811865476
vn -0.8164965809277261 -0.4082482904638631 -0.4082482904638631
vn -1 4.166041471354121e-10 -8.332499505196248e-10
vn -0.7071067817757442 0 -0.7071067805973507
vn -0.8164965809277261 -0.4082482904638631 -0.4082482904638631
vn -0.7071185652192288 -0.7070949968592926 -0.00001178373811472521
vn -1 4.166041471354121e-10 -8.332499505196248e-10
vn -0.7071067817757442 0 -0.7071067805973507
vn -0.7070714282047407 0.7071421324009115 1.1783345034190215e-13
vn -0.3332740793210951 0.666681477438658 -0.6666814799384219
vn -0.7071067817757442 0 -0.7071067805973507
vn -1 4.166041471354121e-10 -8.332499505196248e-10
vn -0.7070714282047407 0.7071421324009115 1.1783345034190215e-13
vn -0.00001666500004497377 0.9999999998264235 0.000008332499970410847
vn 4.5175090746059636e-21 1 -1.6663333301898594e-13
vn 0.000016665000044973777 0.9999999998264237 -0.000008332499970410849
vn -0.00001666500004497377 0.9999999998264235 0.000008332499970410847
vn 4.5175090746059636e-21 1 1.666333293186126e-13
vn 4.5175090746059636e-21 1 -1.6663333301898594e-13
vn 0.3333444432870327 -0.6666555562963563 -0.6666722218518287
vn 0 0 -1
vn 0.7071067811865476 5.892261749666978e-10 -0.7071067811865476
vn 0.3333444432870327 -0.6666555562963563 -0.6666722218518287
vn 0 -0.7070891050638204 -0.7071244568674214
vn 0 0 -1
vn 0 0 -1
vn -0.3332740793210951 0.666681477438658 -0.6666814799384219
vn -0.000023567869024098718 0.7071067792228137 -0.7071067827575227
vn 0 0 -1
vn -0.7071067817757442 0 -0.7071067805973507
vn -0.3332740793210951 0.666681477438658 -0.6666814799384219
vn -0.0000117837381147773 -0.7070949968592777 -0.7071185652192433
vn -0.7071067817757442 0 -0.7071067805973507
vn 0 0 -1
vn -0.0000117837381147773 -0.7070949968592777 -0.7071185652192433
vn -0.8164965809277261 -0.4082482904638631 -0.4082482904638631
vn -0.7071067817757442 0 -0.7071067805973507
vn 0.7071126739147316 -0.7071008880165003 0.000023567672591648487
vn 0.7071067811865476 5.892261749666978e-10 -0.7071067811865476
vn 1 -4.166457499529942e-10 -8.332499505196248e-10
vn 0.7071126739147316 -0.7071008880165003 0.000023567672591648487
vn 0.3333444432870327 -0.6666555562963563 -0.6666722218518287
vn 0.7071067811865476 5.892261749666978e-10 -0.7071067811865476
vn 0.8164965809277261 -0.4082482904638631 0.4082482904638631
vn 1 4.1664586098084747e-10 8.332499505196248e-10
vn 0.7071067814811458 5.892261752121841e-10 0.7071067808919492
vn 0.8164965809277261 -0.4082482904638631 0.4082482904638631
vn 0.7070949973502455 -0.7071185647282855 -0.000011784130873314052
vn 1 4.1664586098084747e-10 8.332499505196248e-10
vn 0.7071067814811458 5.892261752121841e-10 0.7071067808919492
vn 0.7071421316153209 0.7070714288922351 -0.000011782756025391354
vn 0.33336296024683093 0.66665925873487 0.6666592604011015
vn 0.7071067814811458 5.892261752121841e-10 0.7071067808919492
vn 1 4.1664586098084747e-10 8.332499505196248e-10
vn 0.7071421316153209 0.7070714288922351 -0.000011782756025391354
vn 1 -4.166457499529942e-10 -8.332499505196248e-10
vn 0.8165101871628336 0.4082346818476699 -0.40823468592960827
vn 0.7071421324009408 0.7070714282047114 -1.178216688623905e-13
vn 1 -4.166457499529942e-10 -8.332499505196248e-10
vn 0.7071067811865476 5.892261749666978e-10 -0.7071067811865476
vn 0.8165101871628336 0.4082346818476699 -0.40823468592960827
vn 0 -0.7070891050638204 -0.7071244568674214
vn 0 0 -1
vn 0 0 -1
vn 0 -0.7070891050638204 -0.7071244568674214
vn -0.0000117837381147773 -0.7070949968592777 -0.7071185652192433
vn 0 0 -1
vn 0 0 -1
vn -0.000023567869024098718 0.7071067792228137 -0.7071067827575227
vn 0.000023567869024094798 0.7071067792226959 -0.7071067827576406
vn 0 0 -1
vn 0 0 -1
vn -0.000023567869024098718 0.7071067792228137 -0.7071067827575227
vn 1 4.1664586098084747e-10 8.332499505196248e-10
vn 0.7071421324009408 0.7070714282047114 -1.178216688623905e-13
vn 0.7071421316153209 0.7070714288922351 -0.000011782756025391354
vn 1 4.1664586098084747e-10 8.332499505196248e-10
vn 1 -4.166457499529942e-10 -8.332499505196248e-10
vn 0.7071421324009408 0.7070714282047114 -1.178216688623905e-13
vn 0.7070949973502455 -0.7071185647282855 -0.000011784130873314052
vn 1 -4.166457499529942e-10 -8.332499505196248e-10
vn 1 4.1664586098084747e-10 8.332499505196248e-10
vn 0.7070949973502455 -0.7071185647282855 -0.000011784130873314052
vn 0.7071126739147316 -0.7071008880165003 0.000023567672591648487
vn 1 -4.166457499529942e-10 -8.332499505196248e-10
vn 0.000023567672591648975 -0.7071008880165149 0.7071126739147169
vn 0.000024997499905185045 -0.9999999993751251 0.000024997499863526718
vn -0.000011784130873314296 -0.7071185647283001 0.7070949973502307
vn 0.000023567672591648975 -0.7071008880165149 0.7071126739147169
vn 0.000016664999803722544 -0.9999999993056945 0.0000333299998781972
vn 0.000024997499905185045 -0.9999999993751251 0.000024997499863526718
vn 0.000024997499905185045 -0.9999999993751251 0.000024997499863526718
vn 0.7071126739147316 -0.7071008880165003 0.000023567672591648487
vn 0.7070949973502455 -0.7071185647282855 -0.000011784130873314052
vn 0.000024997499905185045 -0.9999999993751251 0.000024997499863526718
vn 0.000033329999919855526 -0.9999999993056945 0.000016664999845380885
vn 0.7071126739147316 -0.7071008880165003 0.000023567672591648487
vn -0.000024997500030143388 -0.999999999375125 -0.000024997500071801718
vn 0 -0.7070891050638204 -0.7071244568674214
vn 0.000033329999919855526 -0.9999999993056945 0.000016664999845380885
vn -0.000024997500030143388 -0.999999999375125 -0.000024997500071801718
vn -0.0000117837381147773 -0.7070949968592777 -0.7071185652192433
vn 0 -0.7070891050638204 -0.7071244568674214
vn -0.7071244568674361 -0.7070891050638054 -5.893847485989246e-14
vn -0.000024997500030143388 -0.999999999375125 -0.000024997500071801718
vn 0.000016664999803722544 -0.9999999993056945 0.0000333299998781972
vn -0.7071244568674361 -0.7070891050638054 -5.893847485989246e-14
vn -0.7071185652192288 -0.7070949968592926 -0.00001178373811472521
vn -0.000024997500030143388 -0.999999999375125 -0.000024997500071801718
vn 0.000016664999803722544 -0.9999999993056945 0.0000333299998781972
vn 0.000033329999919855526 -0.9999999993056945 0.000016664999845380885
vn 0.000024997499905185045 -0.9999999993751251 0.000024997499863526718
vn 0.000016664999803722544 -0.9999999993056945 0.0000333299998781972
vn -0.000024997500030143388 -0.999999999375125 -0.000024997500071801718
vn 0.000033329999919855526 -0.9999999993056945 0.000016664999845380885
vn -0.3333444432871068 -0.6666555562963379 0.6666722218518103
vn 0.000016664999803722544 -0.9999999993056945 0.0000333299998781972
vn 0.000023567672591648975 -0.7071008880165149 0.7071126739147169
vn -0.3333444432871068 -0.6666555562963379 0.6666722218518103
vn -0.7071244568674361 -0.7070891050638054 -5.893847485989246e-14
vn 0.000016664999803722544 -0.9999999993056945 0.0000333299998781972
vn -0.000011784130873314296 -0.7071185647283001 0.7070949973502307
vn 0.7070949973502455 -0.7071185647282855 -0.000011784130873314052
vn 0.8164965809277261 -0.4082482904638631 0.4082482904638631
vn -0.000011784130873314296 -0.7071185647283001 0.7070949973502307
vn 0.000024997499905185045 -0.9999999993751251 0.000024997499863526718
vn 0.7070949973502455 -0.7071185647282855 -0.000011784130873314052
vn 0.000033329999919855526 -0.9999999993056945 0.000016664999845380885
vn 0.3333444432870327 -0.6666555562963563 -0.6666722218518287
vn 0.7071126739147316 -0.7071008880165003 0.000023567672591648487
vn 0.000033329999919855526 -0.9999999993056945 0.000016664999845380885
vn 0 -0.7070891050638204 -0.7071244568674214
vn 0.3333444432870327 -0.6666555562963563 -0.6666722218518287
vn -0.7071185652192288 -0.7070949968592926 -0.00001178373811472521
vn -0.0000117837381147773 -0.7070949968592777 -0.7071185652192433
vn -0.000024997500030143388 -0.999999999375125 -0.000024997500071801718
vn -0.7071185652192288 -0.7070949968592926 -0.00001178373811472521
vn -0.8164965809277261 -0.4082482904638631 -0.4082482904638631
vn -0.0000117837381147773 -0.7070949968592777 -0.7071185652192433
vn 0.7071067811865476 5.892261749666978e-10 -0.7071067811865476
vn 0.000023567869024094798 0.7071067792226959 -0.7071067827576406
vn 0.8165101871628336 0.4082346818476699 -0.40823468592960827
vn 0.7071067811865476 5.892261749666978e-10 -0.7071067811865476
vn 0 0 -1
vn 0.000023567869024094798 0.7071067792226959 -0.7071067827576406
g Scene
f 1/1/1 3/2/2 2/3/3
f 1/4/4 4/5/5 3/6/6
f 5/7/7 7/8/8 6/9/9
f 5/10/10 8/11/11 7/12/12
f 4/13/13 6/14/14 3/15/15
f 4/16/16 5/17/17 6/18/18
f 9/19/19 4/20/20 1/21/21
f 9/22/22 10/23/23 4/24/24
f 11/25/25 8/26/26 5/27/27
f 11/28/28 12/29/29 8/30/30
f 10/31/31 5/32/32 4/33/33
f 10/34/34 11/35/35 5/36/36
f 13/37/37 15/38/38 14/39/39
f 13/40/40 16/41/41 15/42/42
f 17/43/43 19/44/44 18/45/45
f 17/46/46 20/47/47 19/48/48
f 7/49/49 21/50/50 6/51/51
f 7/52/52 22/53/53 21/54/54
f 3/55/55 23/56/56 2/57/57
f 3/58/58 24/59/59 23/60/60
f 22/61/61 18/62/62 21/63/63
f 22/64/64 17/65/65 18/66/66
f 6/67/67 24/68/68 3/69/69
f 6/70/70 21/71/71 24/72/72
f 24/73/73 14/74/74 23/75/75
f 24/76/76 13/77/77 14/78/78
f 18/79/79 16/80/80 13/81/81
f 18/82/82 19/83/83 16/84/84
f 25/85/85 27/86/86 26/87/87
f 25/88/88 28/89/89 27/90/90
f 26/91/91 23/92/92 14/93/93
f 26/94/94 27/95/95 23/96/96
f 27/97/97 2/98/98 23/99/99
f 27/100/100 1/101/101 2/102/102
f 28/103/103 1/104/104 27/105/105
f 28/106/106 9/107/107 1/108/108
f 29/109/109 26/110/110 30/111/111
f 29/112/112 25/113/113 26/114/114
f 30/115/115 14/116/116 15/117/117
f 30/118/118 26/119/119 14/120/120
f 21/121/121 13/122/122 24/123/123
f 21/124/124 18/125/125 13/126/126
f 31/127/127 33/128/128 32/129/129
f 31/130/130 34/131/131 33/132/132
f 35/133/133 15/134/134 16/135/135
f 35/136/136 30/137/137 15/138/138
f 36/139/139 30/140/140 35/141/141
f 36/142/142 29/143/143 30/144/144
f 37/145/145 32/146/146 38/147/147
f 37/148/148 31/149/149 32/150/150
f 12/151/151 39/152/152 8/153/153
f 12/154/154 40/155/155 39/156/156
f 8/157/157 22/158/158 7/159/159
f 8/160/160 39/161/161 22/162/162
f 38/163/163 20/164/164 17/165/165
f 38/166/166 32/167/167 20/168/168
f 34/169/169 35/170/170 33/171/171
f 34/172/172 36/173/173 35/174/174
f 33/175/175 16/176/176 19/177/177
f 33/178/178 35/179/179 16/180/180
f 39/181/181 17/182/182 22/183/183
f 39/184/184 38/185/185 17/186/186
f 40/187/187 38/188/188 39/189/189
f 40/190/190 37/191/191 38/192/192
f 10/193/193 41/194/194 11/195/195
f 10/196/196 42/197/197 41/198/198
f 41/199/199 37/200/200 40/201/201
f 41/202/202 43/203/203 37/204/204
f 44/205/205 34/206/206 43/207/207
f 44/208/208 36/209/209 34/210/210
f 28/211/211 44/212/212 42/213/213
f 28/214/214 25/215/215 44/216/216
f 42/217/217 43/218/218 41/219/219
f 42/220/220 44/221/221 43/222/222
f 9/223/223 42/224/224 10/225/225
f 9/226/226 28/227/227 42/228/228
f 11/229/229 40/230/230 12/231/231
f 11/232/232 41/233/233 40/234/234
f 43/235/235 31/236/236 37/237/237
f 43/238/238 34/239/239 31/240/240
f 25/241/241 36/242/242 44/243/243
f 25/244/244 29/245/245 36/246/246
f 32/247/247 19/248/248 20/249/249
f 32/250/250 33/251/251 19/252/252
