o Default
v -2 1 1
v -2 2 1
v -1 2 1
v -1 1 1
v -2 0 1
v -1 0 1
v 1 0 1
v 1 1 1
v 2 1 1
v 2 0 1
v 1 2 1
v 2 2 1
v 0 2 1
v 0 1 1
v 0 0 1
v 0 2 0
v 1 2 0
v -1 2 0
v -2 2 0
v 2 2 0
v 1 2 -1
v 2 2 -1
v 0 2 -1
v -1 2 -1
v -2 2 -1
v -2 0 -1
v 2 0 -1
v -1 1 -1
v -2 1 -1
v 2 1 -1
v 1 1 -1
v 1 0 -1
v -1 0 -1
v 0 1 -1
v 0 0 -1
v -1 0 0
v -2 0 0
v 2 0 0
v 1 0 0
v 0 0 0
vt 0 0.25
vt 0.25 0.5
vt 0 0.5
vt 0 0.25
vt 0.25 0.25
vt 0.25 0.5
vt 0 0
vt 0.25 0.25
vt 0 0.25
vt 0 0
vt 0.25 0
vt 0.25 0.25
vt 0.25 0
vt 0.5 0.25
vt 0.25 0.25
vt 0.25 0
vt 0.5 0
vt 0.5 0.25
vt 0.25 0.25
vt 0.5 0.5
vt 0.25 0.5
vt 0.25 0.25
vt 0.5 0.25
vt 0.5 0.5
vt 0.5 0.25
vt 0.75 0.5
vt 0.5 0.5
vt 0.5 0.25
vt 0.75 0.25
vt 0.75 0.5
vt 0.5 0.25
vt 0.75 0.5
vt 0.5 0.5
vt 0.5 0.25
vt 0.75 0.25
vt 0.75 0.5
vt 0.5 0
vt 0.75 0.25
vt 0.5 0.25
vt 0.5 0
vt 0.75 0
vt 0.75 0.25
vt 0.5 0
vt 0.75 0.25
vt 0.5 0.25
vt 0.5 0
vt 0.75 0
vt 0.75 0.25
vt 0.75 0.5
vt 0.5 0.75
vt 0.5 0.5
vt 0.75 0.5
vt 0.75 0.75
vt 0.5 0.75
vt 0.75 0.5
vt 0.5 0.75
vt 0.5 0.5
vt 0.75 0.5
vt 0.75 0.75
vt 0.5 0.75
vt 0.25 0.5
vt 0 0.75
vt 0 0.5
vt 0.25 0.5
vt 0.25 0.75
vt 0 0.75
vt 0.5 0.5
vt 0.25 0.75
vt 0.25 0.5
vt 0.5 0.5
vt 0.5 0.75
vt 0.25 0.75
vt 0.5 0.75
vt 0.25 1
vt 0.25 0.75
vt 0.5 0.75
vt 0.5 1
vt 0.25 1
vt 0.5 0.75
vt 0.75 0.5
vt 0.75 0.75
vt 0.5 0.75
vt 0.5 0.5
vt 0.75 0.5
vt 0.5 0.75
vt 0.75 0.5
vt 0.75 0.75
vt 0.5 0.75
vt 0.5 0.5
vt 0.75 0.5
vt 0.25 0.75
vt 0 1
vt 0 0.75
vt 0.25 0.75
vt 0.25 1
vt 0 1
vt 0.5 0
vt 0 0.5
vt 0 0
vt 0.5 0
vt 0.5 0.5
vt 0 0.5
vt 0.5 0
vt 0 0.5
vt 0 0
vt 0.5 0
vt 0.5 0.5
vt 0 0.5
vt 0.25 0.25
vt 0 0.5
vt 0 0.25
vt 0.25 0.25
vt 0.25 0.5
vt 0 0.5
vt 0.25 0
vt 0 0.25
vt 0 0
vt 0.25 0
vt 0.25 0.25
vt 0 0.25
vt 0.5 0
vt 0.25 0.25
vt 0.25 0
vt 0.5 0
vt 0.5 0.25
vt 0.25 0.25
vt 0.5 0.25
vt 0.25 0.5
vt 0.25 0.25
vt 0.5 0.25
vt 0.5 0.5
vt 0.25 0.5
vt 0.75 0.5
vt 0.5 0.25
vt 0.75 0.25
vt 0.75 0.5
vt 0.5 0.5
vt 0.5 0.25
vt 0.75 0.5
vt 0.5 0.25
vt 0.75 0.25
vt 0.75 0.5
vt 0.5 0.5
vt 0.5 0.25
vt 0.75 0.25
vt 0.5 0
vt 0.75 0
vt 0.75 0.25
vt 0.5 0.25
vt 0.5 0
vt 0.75 0.25
vt 0.5 0
vt 0.75 0
vt 0.75 0.25
vt 0.5 0.25
vt 0.5 0
vt 0 1
vt 0.25 0.75
vt 0.25 1
vt 0 1
vt 0 0.75
vt 0.25 0.75
vt 0.25 1
vt 0.5 0.75
vt 0.5 1
vt 0.25 1
vt 0.25 0.75
vt 0.5 0.75
vt 0.25 0.75
vt 0.5 0.5
vt 0.5 0.75
vt 0.25 0.75
vt 0.25 0.5
vt 0.5 0.5
vt 0 0.75
vt 0.25 0.5
vt 0.25 0.75
vt 0 0.75
vt 0 0.5
vt 0.25 0.5
vt 0.5 0.75
vt 0.75 0.5
vt 0.75 0.75
vt 0.5 0.75
vt 0.5 0.5
vt 0.75 0.5
vt 0.5 0.75
vt 0.75 0.5
vt 0.75 0.75
vt 0.5 0.75
vt 0.5 0.5
vt 0.75 0.5
vt 0.75 0.5
vt 0.5 0.75
vt 0.5 0.5
vt 0.75 0.5
vt 0.75 0.75
vt 0.5 0.75
vt 0.75 0.5
vt 0.5 0.75
vt 0.5 0.5
vt 0.75 0.5
vt 0.75 0.75
vt 0.5 0.75
vn 0 0 1
vn 0 0.7070891050638204 0.7071244568674214
vn -0.816489777554978 0.4082448877570427 0.40826529949098306
vn 0 0 1
vn 0 0 1
vn 0 0.7070891050638204 0.7071244568674214
vn -0.3333037067284839 -0.6666740716979079 0.666674074197269
vn 0 0 1
vn 0 0 1
vn -0.3333037067284839 -0.6666740716979079 0.666674074197269
vn 0 -0.7071244568674214 0.7070891050638203
vn 0 0 1
vn 0.000023567672591648975 -0.7071008880165149 0.7071126739147169
vn 0 0 1
vn 0 0 1
vn 0.000023567672591648975 -0.7071008880165149 0.7071126739147169
vn 0.816503384810712 -0.4082516913848671 0.4082312813516934
vn 0 0 1
vn 0 0 1
vn 0.33334074033947175 0.6666814798457584 0.6666481495216217
vn 0.000023568065350185026 0.707112671950993 0.7071008899802586
vn 0 0 1
vn 0 0 1
vn 0.33334074033947175 0.6666814798457584 0.6666481495216217
vn 0 0 1
vn 0 0.7070891050638204 0.7071244568674214
vn 0 0.7070891050638204 0.7071244568674214
vn 0 0 1
vn 0 0 1
vn 0 0.7070891050638204 0.7071244568674214
vn 0 0 1
vn 0.000023568065350185026 0.707112671950993 0.7071008899802586
vn 0 0.7070891050638204 0.7071244568674214
vn 0 0 1
vn 0 0 1
vn 0.000023568065350185026 0.707112671950993 0.7071008899802586
vn -0.000023568065468013567 -0.7071126719509929 0.7071008899802583
vn 0 0 1
vn 0 0 1
vn -0.000023568065468013567 -0.7071126719509929 0.7071008899802583
vn 0.000023567672591648975 -0.7071008880165149 0.7071126739147169
vn 0 0 1
vn 0 -0.7071244568674214 0.7070891050638203
vn 0 0 1
vn 0 0 1
vn 0 -0.7071244568674214 0.7070891050638203
vn -0.000023568065468013567 -0.7071126719509929 0.7071008899802583
vn 0 0 1
vn 0.000023568065350185026 0.707112671950993 0.7071008899802586
vn 0.0000333299999719274 0.9999999994098402 0.000008332500029425088
vn 0 0.7070891050638204 0.7071244568674214
vn 0.000023568065350185026 0.707112671950993 0.7071008899802586
vn 0.0000333300000274663 0.9999999994098403 0.0000083324999183473
vn 0.0000333299999719274 0.9999999994098402 0.000008332500029425088
vn 0 0.7070891050638204 0.7071244568674214
vn 0 0.9999999996875626 0.00002499750005357594
vn 0 0.7070891050638204 0.7071244568674214
vn 0 0.7070891050638204 0.7071244568674214
vn 0.0000333299999719274 0.9999999994098402 0.000008332500029425088
vn 0 0.9999999996875626 0.00002499750005357594
vn 0 0.7070891050638204 0.7071244568674214
vn 0 0.9999999994445554 0.00003333000007027752
vn -0.816489777554978 0.4082448877570427 0.40826529949098306
vn 0 0.7070891050638204 0.7071244568674214
vn 0 0.9999999996875626 0.00002499750005357594
vn 0 0.9999999994445554 0.00003333000007027752
vn 0.33334074033947175 0.6666814798457584 0.6666481495216217
vn 0.0000333300000274663 0.9999999994098403 0.0000083324999183473
vn 0.000023568065350185026 0.707112671950993 0.7071008899802586
vn 0.33334074033947175 0.6666814798457584 0.6666481495216217
vn 0.000033330000037879836 0.9999999993056945 0.00001666499995645866
vn 0.0000333300000274663 0.9999999994098403 0.0000083324999183473
vn 0.000033330000037879836 0.9999999993056945 0.00001666499995645866
vn 0.000023568654554263518 0.7071303474845113 -0.7070832137103474
vn 0.0000333300000274663 0.9999999994098403 0.0000083324999183473
vn 0.000033330000037879836 0.9999999993056945 0.00001666499995645866
vn 0.8165101875030534 0.40823468252802625 -0.40823468456877865
vn 0.000023568654554263518 0.7071303474845113 -0.7070832137103474
vn 0.0000333300000274663 0.9999999994098403 0.0000083324999183473
vn 0.000023568261766270693 0.7071185638445763 -0.7070949979394006
vn 0.0000333299999719274 0.9999999994098402 0.000008332500029425088
vn 0.0000333300000274663 0.9999999994098403 0.0000083324999183473
vn 0.000023568654554263518 0.7071303474845113 -0.7070832137103474
vn 0.000023568261766270693 0.7071185638445763 -0.7070949979394006
vn 0.0000333299999719274 0.9999999994098402 0.000008332500029425088
vn 0 0.7071067811865476 -0.7071067811865476
vn 0 0.9999999996875626 0.00002499750005357594
vn 0.0000333299999719274 0.9999999994098402 0.000008332500029425088
vn 0.000023568261766270693 0.7071185638445763 -0.7070949979394006
vn 0 0.7071067811865476 -0.7071067811865476
vn 0 0.9999999996875626 0.00002499750005357594
vn -0.33333333351849537 0.6666666666203762 -0.6666666666203761
vn 0 0.9999999994445554 0.00003333000007027752
vn 0 0.9999999996875626 0.00002499750005357594
vn 0 0.7071067811865476 -0.7071067811865476
vn -0.33333333351849537 0.6666666666203762 -0.6666666666203761
vn -0.816489777554995 -0.40824488877753573 -0.40826529847050697
vn -0.816489777554978 0.4082448877570427 0.40826529949098306
vn -0.33333333351849537 0.6666666666203762 -0.6666666666203761
vn -0.816489777554995 -0.40824488877753573 -0.40826529847050697
vn -0.3333037067284839 -0.6666740716979079 0.666674074197269
vn -0.816489777554978 0.4082448877570427 0.40826529949098306
vn 0.816503384810712 -0.4082516913848671 0.4082312813516934
vn 0.8165101875030534 0.40823468252802625 -0.40823468456877865
vn 0.33334074033947175 0.6666814798457584 0.6666481495216217
vn 0.816503384810712 -0.4082516913848671 0.4082312813516934
vn 0.33336296015424377 -0.6666592581330832 -0.6666592610491863
vn 0.8165101875030534 0.40823468252802625 -0.40823468456877865
vn 0 0 -1
vn -0.33333333351849537 0.6666666666203762 -0.6666666666203761
vn 0 0.7071067811865476 -0.7071067811865476
vn 0 0 -1
vn 0 0 -1
vn -0.33333333351849537 0.6666666666203762 -0.6666666666203761
vn 0 0 -1
vn 0.000023568654554263518 0.7071303474845113 -0.7070832137103474
vn 0.8165101875030534 0.40823468252802625 -0.40823468456877865
vn 0 0 -1
vn 0 0 -1
vn 0.000023568654554263518 0.7071303474845113 -0.7070832137103474
vn 0.33336296015424377 -0.6666592581330832 -0.6666592610491863
vn 0 0 -1
vn 0 0 -1
vn 0.33336296015424377 -0.6666592581330832 -0.6666592610491863
vn -0.00002356767270947359 -0.7071008880164561 -0.7071126739147758
vn 0 0 -1
vn 0.000023568065350185033 -0.707112671950993 -0.7071008899802586
vn 0 0 -1
vn 0 0 -1
vn 0.000023568065350185033 -0.707112671950993 -0.7071008899802586
vn -0.816489777554995 -0.40824488877753573 -0.40826529847050697
vn 0 0 -1
vn -0.00002356767270947359 -0.7071008880164561 -0.7071126739147758
vn 0 0 -1
vn 0 0 -1
vn -0.00002356767270947359 -0.7071008880164561 -0.7071126739147758
vn 0 -0.7071244568674214 -0.7070891050638203
vn 0 0 -1
vn 0 -0.7071244568674214 -0.7070891050638203
vn 0 0 -1
vn 0 0 -1
vn 0 -0.7071244568674214 -0.7070891050638203
vn 0.000023568065350185033 -0.707112671950993 -0.7071008899802586
vn 0 0 -1
vn 0 0 -1
vn 0.000023568261766270693 0.7071185638445763 -0.7070949979394006
vn 0.000023568654554263518 0.7071303474845113 -0.7070832137103474
vn 0 0 -1
vn 0 0 -1
vn 0.000023568261766270693 0.7071185638445763 -0.7070949979394006
vn 0 0 -1
vn 0 0.7071067811865476 -0.7071067811865476
vn 0.000023568261766270693 0.7071185638445763 -0.7070949979394006
vn 0 0 -1
vn 0 0 -1
vn 0 0.7071067811865476 -0.7071067811865476
vn -0.3333037067284839 -0.6666740716979079 0.666674074197269
vn 0.00003332999996845623 -0.9999999993056945 0.000016664999984228115
vn 0 -0.7071244568674214 0.7070891050638203
vn -0.3333037067284839 -0.6666740716979079 0.666674074197269
vn 0.00006665999993691246 -0.999999997639361 0.00001666499990091978
vn 0.00003332999996845623 -0.9999999993056945 0.000016664999984228115
vn 0.000023567672591648975 -0.7071008880165149 0.7071126739147169
vn 0.00006665999993691243 -0.999999997639361 0.000016664999900919785
vn 0.816503384810712 -0.4082516913848671 0.4082312813516934
vn 0.000023567672591648975 -0.7071008880165149 0.7071126739147169
vn -1.6663333658249709e-13 -1 -8.331666151498494e-14
vn 0.00006665999993691243 -0.999999997639361 0.000016664999900919785
vn -1.6663333658249709e-13 -1 -8.331666151498494e-14
vn 0.33336296015424377 -0.6666592581330832 -0.6666592610491863
vn 0.00006665999993691243 -0.999999997639361 0.000016664999900919785
vn -1.6663333658249709e-13 -1 -8.331666151498494e-14
vn -0.00002356767270947359 -0.7071008880164561 -0.7071126739147758
vn 0.33336296015424377 -0.6666592581330832 -0.6666592610491863
vn 0.00006665999993691246 -0.999999997639361 0.00001666499990091978
vn 0.000023568065350185033 -0.707112671950993 -0.7071008899802586
vn 0.00003332999996845623 -0.9999999993056945 0.000016664999984228115
vn 0.00006665999993691246 -0.999999997639361 0.00001666499990091978
vn -0.816489777554995 -0.40824488877753573 -0.40826529847050697
vn 0.000023568065350185033 -0.707112671950993 -0.7071008899802586
vn 0.00003332999996845623 -0.9999999993056945 0.000016664999984228115
vn 0 -0.7071244568674214 -0.7070891050638203
vn -0.00003333000013508955 -0.9999999993056943 -0.000016665000067544773
vn 0.00003332999996845623 -0.9999999993056945 0.000016664999984228115
vn 0.000023568065350185033 -0.707112671950993 -0.7071008899802586
vn 0 -0.7071244568674214 -0.7070891050638203
vn -0.00003333000013508955 -0.9999999993056943 -0.000016665000067544773
vn -0.00002356767270947359 -0.7071008880164561 -0.7071126739147758
vn -1.6663333658249709e-13 -1 -8.331666151498494e-14
vn -0.00003333000013508955 -0.9999999993056943 -0.000016665000067544773
vn 0 -0.7071244568674214 -0.7070891050638203
vn -0.00002356767270947359 -0.7071008880164561 -0.7071126739147758
vn 0 -0.7071244568674214 0.7070891050638203
vn -0.00003333000013508955 -0.9999999993056943 -0.000016665000067544773
vn -0.000023568065468013567 -0.7071126719509929 0.7071008899802583
vn 0 -0.7071244568674214 0.7070891050638203
vn 0.00003332999996845623 -0.9999999993056945 0.000016664999984228115
vn -0.00003333000013508955 -0.9999999993056943 -0.000016665000067544773
vn -0.000023568065468013567 -0.7071126719509929 0.7071008899802583
vn -1.6663333658249709e-13 -1 -8.331666151498494e-14
vn 0.000023567672591648975 -0.7071008880165149 0.7071126739147169
vn -0.000023568065468013567 -0.7071126719509929 0.7071008899802583
vn -0.00003333000013508955 -0.9999999993056943 -0.000016665000067544773
vn -1.6663333658249709e-13 -1 -8.331666151498494e-14
g Scene
f 1/1/1 3/2/2 2/3/3
f 1/4/4 4/5/5 3/6/6
f 5/7/7 4/8/8 1/9/9
f 5/10/10 6/11/11 4/12/12
f 7/13/13 9/14/14 8/15/15
f 7/16/16 10/17/17 9/18/18
f 8/19/19 12/20/20 11/21/21
f 8/22/22 9/23/23 12/24/24
f 4/25/25 13/26/26 3/27/27
f 4/28/28 14/29/29 13/30/30
f 14/31/31 11/32/32 13/33/33
f 14/34/34 8/35/35 11/36/36
f 15/37/37 8/38/38 14/39/39
f 15/40/40 7/41/41 8/42/42
f 6/43/43 14/44/44 4/45/45
f 6/46/46 15/47/47 14/48/48
f 11/49/49 16/50/50 13/51/51
f 11/52/52 17/53/53 16/54/54
f 13/55/55 18/56/56 3/57/57
f 13/58/58 16/59/59 18/60/60
f 3/61/61 19/62/62 2/63/63
f 3/64/64 18/65/65 19/66/66
f 12/67/67 17/68/68 11/69/69
f 12/70/70 20/71/71 17/72/72
f 20/73/73 21/74/74 17/75/75
f 20/76/76 22/77/77 21/78/78
f 17/79/79 23/80/80 16/81/81
f 17/82/82 21/83/83 23/84/84
f 16/85/85 24/86/86 18/87/87
f 16/88/88 23/89/89 24/90/90
f 18/91/91 25/92/92 19/93/93
f 18/94/94 24/95/95 25/96/96
f 26/97/97 2/98/98 25/99/99
f 26/100/100 5/101/101 2/102/102
f 10/103/103 22/104/104 12/105/105
f 10/106/106 27/107/107 22/108/108
f 28/109/109 25/110/110 24/111/111
f 28/112/112 29/113/113 25/114/114
f 30/115/115 21/116/116 22/117/117
f 30/118/118 31/119/119 21/120/120
f 27/121/121 31/122/122 30/123/123
f 27/124/124 32/125/125 31/126/126
f 33/127/127 29/128/128 28/129/129
f 33/130/130 26/131/131 29/132/132
f 32/133/133 34/134/134 31/135/135
f 32/136/136 35/137/137 34/138/138
f 35/139/139 28/140/140 34/141/141
f 35/142/142 33/143/143 28/144/144
f 31/145/145 23/146/146 21/147/147
f 31/148/148 34/149/149 23/150/150
f 34/151/151 24/152/152 23/153/153
f 34/154/154 28/155/155 24/156/156
f 5/157/157 36/158/158 6/159/159
f 5/160/160 37/161/161 36/162/162
f 7/163/163 38/164/164 10/165/165
f 7/166/166 39/167/167 38/168/168
f 39/169/169 27/170/170 38/171/171
f 39/172/172 32/173/173 27/174/174
f 37/175/175 33/176/176 36/177/177
f 37/178/178 26/179/179 33/180/180
f 36/181/181 35/182/182 40/183/183
f 36/184/184 33/185/185 35/186/186
f 40/187/187 32/188/188 39/189/189
f 40/190/190 35/191/191 32/192/192
f 6/193/193 40/194/194 15/195/195
f 6/196/196 36/197/197 40/198/198
f 15/199/199 39/200/200 7/201/201
f 15/202/202 40/203/203 39/204/204
