o Default
v 1 1 0
v 0 1 0
v 0 1 -1
v 1 1 -1
v 2 0.5 0
v 2 0.5 -1
v -1 1 0
v -1 1 -1
v -2 1 0
v -2 1.5 -1
v -3 1.5 0
v -3 1.5 -1
v -4 1.5 0
v -4 1.5 -1
v -1 1 -2
v 0 0 -2
v -2 1 -2
v -3 1 -2
v -4 1 -2
v -3 1 1
v -4 1 1
v -2 1 1
v -1 0 1
v -3 0 2
v -4 0 2
v -2 0 2
v -1 0 2
v 0 0 1
v 1 0 1
v 2 0 1
v 3 0 1
v 3 0 0
v 3 0 -1
v 2 0 -2
v 3 0 -2
v 1 0 -2
v -1 0 -3
v 0 0 -3
v -3 0 -3
v -2 0 -3
v -4 0 -3
vt 0.3333333333333333 0.5
vt 0 1
vt 0 0.5
vt 0.3333333333333333 0.5
vt 0.3333333333333333 1
vt 0 1
vt 0.3333333333333333 0.5
vt 0 1
vt 0 0.5
vt 0.3333333333333333 0.5
vt 0.3333333333333333 1
vt 0 1
vt 0.3333333333333333 0.5
vt 0 1
vt 0 0.5
vt 0.3333333333333333 0.5
vt 0.3333333333333333 1
vt 0 1
vt 0.3333333333333333 0.5
vt 0 1
vt 0 0.5
vt 0.3333333333333333 0.5
vt 0.3333333333333333 1
vt 0 1
vt 0.3333333333333333 0.5
vt 0 1
vt 0 0.5
vt 0.3333333333333333 0.5
vt 0.3333333333333333 1
vt 0 1
vt 0.3333333333333333 0.5
vt 0 1
vt 0 0.5
vt 0.3333333333333333 0.5
vt 0.3333333333333333 1
vt 0 1
vt 0.3333333333333333 0.5
vt 0 1
vt 0 0.5
vt 0.3333333333333333 0.5
vt 0.3333333333333333 1
vt 0 1
vt 0.3333333333333333 0.5
vt 0 1
vt 0 0.5
vt 0.3333333333333333 0.5
vt 0.3333333333333333 1
vt 0 1
vt 0.3333333333333333 0.5
vt 0 1
vt 0 0.5
vt 0.3333333333333333 0.5
vt 0.3333333333333333 1
vt 0 1
vt 0.3333333333333333 0.5
vt 0 1
vt 0 0.5
vt 0.3333333333333333 0.5
vt 0.3333333333333333 1
vt 0 1
vt 0.3333333333333333 0.5
vt 0 1
vt 0 0.5
vt 0.3333333333333333 0.5
vt 0.3333333333333333 1
vt 0 1
vt 0.3333333333333333 0.5
vt 0 1
vt 0 0.5
vt 0.3333333333333333 0.5
vt 0.3333333333333333 1
vt 0 1
vt 0.3333333333333333 0.5
vt 0 1
vt 0 0.5
vt 0.3333333333333333 0.5
vt 0.3333333333333333 1
vt 0 1
vt 0.6666666666666666 0
vt 0.3333333333333333 0.5
vt 0.3333333333333333 0
vt 0.6666666666666666 0
vt 0.6666666666666666 0.5
vt 0.3333333333333333 0.5
vt 0.3333333333333333 1
vt 0.6666666666666666 0.5
vt 0.6666666666666666 1
vt 0.3333333333333333 1
vt 0.3333333333333333 0.5
vt 0.6666666666666666 0.5
vt 1 0
vt 0.6666666666666666 0.5
vt 0.6666666666666666 0
vt 1 0
vt 1 0.5
vt 0.6666666666666666 0.5
vt 0.6666666666666666 0
vt 0.3333333333333333 0.5
vt 0.3333333333333333 0
vt 0.6666666666666666 0
vt 0.6666666666666666 0.5
vt 0.3333333333333333 0.5
vt 0.3333333333333333 1
vt 0.6666666666666666 0.5
vt 0.6666666666666666 1
vt 0.3333333333333333 1
vt 0.3333333333333333 0.5
vt 0.6666666666666666 0.5
vt 0.3333333333333333 1
vt 0.6666666666666666 0.5
vt 0.6666666666666666 1
vt 0.3333333333333333 1
vt 0.3333333333333333 0.5
vt 0.6666666666666666 0.5
vt 0 0
vt 0.3333333333333333 0.5
vt 0 0.5
vt 0 0
vt 0.3333333333333333 0
vt 0.3333333333333333 0.5
vt 0.6666666666666666 0
vt 1 0.5
vt 0.6666666666666666 0.5
vt 0.6666666666666666 0
vt 1 0
vt 1 0.5
vt 0.6666666666666666 1
vt 0.3333333333333333 0.5
vt 0.6666666666666666 0.5
vt 0.6666666666666666 1
vt 0.3333333333333333 1
vt 0.3333333333333333 0.5
vt 0.6666666666666666 0.5
vt 0.3333333333333333 1
vt 0.3333333333333333 0.5
vt 0.6666666666666666 0.5
vt 0.6666666666666666 1
vt 0.3333333333333333 1
vt 0.6666666666666666 0.5
vt 0.3333333333333333 1
vt 0.3333333333333333 0.5
vt 0.6666666666666666 0.5
vt 0.6666666666666666 1
vt 0.3333333333333333 1
vt 1 0.5
vt 0.6666666666666666 1
vt 0.6666666666666666 0.5
vt 1 0.5
vt 1 1
vt 0.6666666666666666 1
vt 0.3333333333333333 0.5
vt 0.6666666666666666 0
vt 0.6666666666666666 0.5
vt 0.3333333333333333 0.5
vt 0.3333333333333333 0
vt 0.6666666666666666 0
vt 0.3333333333333333 0.5
vt 0.6666666666666666 0
vt 0.6666666666666666 0.5
vt 0.3333333333333333 0.5
vt 0.3333333333333333 0
vt 0.6666666666666666 0
vt 0.6666666666666666 0.5
vt 0.3333333333333333 1
vt 0.3333333333333333 0.5
vt 0.6666666666666666 0.5
vt 0.6666666666666666 1
vt 0.3333333333333333 1
vn 0.15540629534044023 0.9307564450958903 0.33097027552488906
vn 0.10562366128611236 0.9662691600092732 -0.2348777396678756
vn 0.00003079311737407414 0.9238731548003996 0.38269882791947657
vn 0.15540629534044023 0.9307564450958903 0.33097027552488906
vn 0.22587046007793804 0.8958042146081067 -0.3827758408710431
vn 0.10562366128611236 0.9662691600092732 -0.2348777396678756
vn 0.3794389724222411 0.913345250613543 0.1477380092895462
vn 0.22587046007793804 0.8958042146081067 -0.3827758408710431
vn 0.15540629534044023 0.9307564450958903 0.33097027552488906
vn 0.3794389724222411 0.913345250613543 0.1477380092895462
vn 0.3667283962140678 0.890915013467208 -0.2679192456487261
vn 0.22587046007793804 0.8958042146081067 -0.3827758408710431
vn 0.00003079311737407414 0.9238731548003996 0.38269882791947657
vn 0.14777234189483257 0.9865040091292964 -0.07052074122371152
vn 0.08044309652565938 0.8832046524705657 0.46203728212743955
vn 0.00003079311737407414 0.9238731548003996 0.38269882791947657
vn 0.10562366128611236 0.9662691600092732 -0.2348777396678756
vn 0.14777234189483257 0.9865040091292964 -0.07052074122371152
vn 0.08044309652565938 0.8832046524705657 0.46203728212743955
vn 0.15921773646678047 0.9843151579175393 -0.0759827762599163
vn 0.29215839429524476 0.9106404923383039 0.29219405599134896
vn 0.08044309652565938 0.8832046524705657 0.46203728212743955
vn 0.14777234189483257 0.9865040091292964 -0.07052074122371152
vn 0.15921773646678047 0.9843151579175393 -0.0759827762599163
vn 0.29215839429524476 0.9106404923383039 0.29219405599134896
vn 0.08039422694999811 0.9837092259587226 -0.16078845430192715
vn 0.15638738378488345 0.9752298471906452 0.15642803885950385
vn 0.29215839429524476 0.9106404923383039 0.29219405599134896
vn 0.15921773646678047 0.9843151579175393 -0.0759827762599163
vn 0.08039422694999811 0.9837092259587226 -0.16078845430192715
vn 0.15638738378488345 0.9752298471906452 0.15642803885950385
vn 0 0.9882731152012093 -0.15269659384052192
vn 0.00003053639220454291 0.9522180955147648 0.30541888880971885
vn 0.15638738378488345 0.9752298471906452 0.15642803885950385
vn 0.08039422694999811 0.9837092259587226 -0.16078845430192715
vn 0 0.9882731152012093 -0.15269659384052192
vn 0.10562366128611236 0.9662691600092732 -0.2348777396678756
vn 0.21513744042781158 0.8512471200629838 -0.47863788223525106
vn 0.14777234189483257 0.9865040091292964 -0.07052074122371152
vn 0.10562366128611236 0.9662691600092732 -0.2348777396678756
vn 0.25401597909139484 0.7849851241842923 -0.5650435710417484
vn 0.21513744042781158 0.8512471200629838 -0.47863788223525106
vn 0.14777234189483257 0.9865040091292964 -0.07052074122371152
vn 0.07175839357018865 0.8492110568596181 -0.5231551527602464
vn 0.15921773646678047 0.9843151579175393 -0.0759827762599163
vn 0.14777234189483257 0.9865040091292964 -0.07052074122371152
vn 0.21513744042781158 0.8512471200629838 -0.47863788223525106
vn 0.07175839357018865 0.8492110568596181 -0.5231551527602464
vn 0.15921773646678047 0.9843151579175393 -0.0759827762599163
vn 0 0.8112421851755609 -0.5847102846637648
vn 0.08039422694999811 0.9837092259587226 -0.16078845430192715
vn 0.15921773646678047 0.9843151579175393 -0.0759827762599163
vn 0.07175839357018865 0.8492110568596181 -0.5231551527602464
vn 0 0.8112421851755609 -0.5847102846637648
vn 0.08039422694999811 0.9837092259587226 -0.16078845430192715
vn 0 0.8416402353763344 -0.5400386228740205
vn 0 0.9882731152012093 -0.15269659384052192
vn 0.08039422694999811 0.9837092259587226 -0.16078845430192715
vn 0 0.8112421851755609 -0.5847102846637648
vn 0 0.8416402353763344 -0.5400386228740205
vn 0.000027038585073081685 0.811226594441701 0.5847319144184239
vn 0.00003053639220454291 0.9522180955147648 0.30541888880971885
vn 0.00007783977856544524 0.7784756308196298 0.6276748251769767
vn 0.000027038585073081685 0.811226594441701 0.5847319144184239
vn 0.15638738378488345 0.9752298471906452 0.15642803885950385
vn 0.00003053639220454291 0.9522180955147648 0.30541888880971885
vn 0.35021888807655227 0.8687133743305757 0.35026247828394097
vn 0.15638738378488345 0.9752298471906452 0.15642803885950385
vn 0.000027038585073081685 0.811226594441701 0.5847319144184239
vn 0.35021888807655227 0.8687133743305757 0.35026247828394097
vn 0.29215839429524476 0.9106404923383039 0.29219405599134896
vn 0.15638738378488345 0.9752298471906452 0.15642803885950385
vn 0.40824828986863276 0.8164761703843673 0.4082891095949224
vn 0.29215839429524476 0.9106404923383039 0.29219405599134896
vn 0.35021888807655227 0.8687133743305757 0.35026247828394097
vn 0.40824828986863276 0.8164761703843673 0.4082891095949224
vn 0.08044309652565938 0.8832046524705657 0.46203728212743955
vn 0.29215839429524476 0.9106404923383039 0.29219405599134896
vn 0.00004713573808746545 0.7071067804010306 0.7071067804010306
vn 0.00007783977856544524 0.7784756308196298 0.6276748251769767
vn 0.00007070360709192624 0.7071067794191341 0.7071067794191341
vn 0.00004713573808746545 0.7071067804010306 0.7071067804010306
vn 0.000027038585073081685 0.811226594441701 0.5847319144184239
vn 0.00007783977856544524 0.7784756308196298 0.6276748251769767
vn 0 0.7071067811865476 0.7071067811865476
vn 0.000027038585073081685 0.811226594441701 0.5847319144184239
vn 0.00004713573808746545 0.7071067804010306 0.7071067804010306
vn 0 0.7071067811865476 0.7071067811865476
vn 0.35021888807655227 0.8687133743305757 0.35026247828394097
vn 0.000027038585073081685 0.811226594441701 0.5847319144184239
vn 0.408248290463863 0.816496580927726 0.408248290463863
vn 0.35021888807655227 0.8687133743305757 0.35026247828394097
vn 0 0.7071067811865476 0.7071067811865476
vn 0.408248290463863 0.816496580927726 0.408248290463863
vn 0.40824828986863276 0.8164761703843673 0.4082891095949224
vn 0.35021888807655227 0.8687133743305757 0.35026247828394097
vn 0 0.7070714302666641 0.7071421303391943
vn 0.08044309652565938 0.8832046524705657 0.46203728212743955
vn 0.40824828986863276 0.8164761703843673 0.4082891095949224
vn 0 0.7070714302666641 0.7071421303391943
vn 0.00003079311737407414 0.9238731548003996 0.38269882791947657
vn 0.08044309652565938 0.8832046524705657 0.46203728212743955
vn 0.000023567869050277386 0.707094997546557 0.70711856423742
vn 0.00003079311737407414 0.9238731548003996 0.38269882791947657
vn 0 0.7070714302666641 0.7071421303391943
vn 0.000023567869050277386 0.707094997546557 0.70711856423742
vn 0.15540629534044023 0.9307564450958903 0.33097027552488906
vn 0.00003079311737407414 0.9238731548003996 0.38269882791947657
vn 0.1403988267487282 0.8315739725794663 0.5373759369156619
vn 0.15540629534044023 0.9307564450958903 0.33097027552488906
vn 0.000023567869050277386 0.707094997546557 0.70711856423742
vn 0.1403988267487282 0.8315739725794663 0.5373759369156619
vn 0.3794389724222411 0.913345250613543 0.1477380092895462
vn 0.15540629534044023 0.9307564450958903 0.33097027552488906
vn 0.23570226145606987 0.9428090415820634 0.23570225933496186
vn 0.3794389724222411 0.913345250613543 0.1477380092895462
vn 0.1403988267487282 0.8315739725794663 0.5373759369156619
vn 0.23570226145606987 0.9428090415820634 0.23570225933496186
vn 0.447213596096183 0.8944271907018033 -7.452814215865683e-10
vn 0.3794389724222411 0.913345250613543 0.1477380092895462
vn 0.2979115041892258 0.9439535197333698 -0.142128421699163
vn 0.1421924504391552 0.9439711774261539 -0.2978249875796003
vn 0.3667283962140678 0.890915013467208 -0.2679192456487261
vn 0.2979115041892258 0.9439535197333698 -0.142128421699163
vn 0.00009998999980817562 0.9999999950010001 -4.998999521534777e-13
vn 0.1421924504391552 0.9439711774261539 -0.2978249875796003
vn 0.447213596096183 0.8944271907018033 -7.452814215865683e-10
vn 0.3667283962140678 0.890915013467208 -0.2679192456487261
vn 0.3794389724222411 0.913345250613543 0.1477380092895462
vn 0.447213596096183 0.8944271907018033 -7.452814215865683e-10
vn 0.2979115041892258 0.9439535197333698 -0.142128421699163
vn 0.3667283962140678 0.890915013467208 -0.2679192456487261
vn 0.3667283962140678 0.890915013467208 -0.2679192456487261
vn 0.11383388486517283 0.7747585895202452 -0.6219252162608484
vn 0.22587046007793804 0.8958042146081067 -0.3827758408710431
vn 0.3667283962140678 0.890915013467208 -0.2679192456487261
vn 0.1421924504391552 0.9439711774261539 -0.2978249875796003
vn 0.11383388486517283 0.7747585895202452 -0.6219252162608484
vn 0.22587046007793804 0.8958042146081067 -0.3827758408710431
vn 0.25401597909139484 0.7849851241842923 -0.5650435710417484
vn 0.10562366128611236 0.9662691600092732 -0.2348777396678756
vn 0.22587046007793804 0.8958042146081067 -0.3827758408710431
vn 0.11383388486517283 0.7747585895202452 -0.6219252162608484
vn 0.25401597909139484 0.7849851241842923 -0.5650435710417484
vn 0.25401597909139484 0.7849851241842923 -0.5650435710417484
vn 0.21516338522488565 0.851250457370008 -0.47862028423993863
vn 0.21513744042781158 0.8512471200629838 -0.47863788223525106
vn 0.25401597909139484 0.7849851241842923 -0.5650435710417484
vn 0.00009998999980817563 0.9999999950010001 0
vn 0.21516338522488565 0.851250457370008 -0.47862028423993863
vn 0.07175839357018865 0.8492110568596181 -0.5231551527602464
vn 0.000023566690804120583 0.707094997546606 -0.7071185642374102
vn 0 0.8112421851755609 -0.5847102846637648
vn 0.07175839357018865 0.8492110568596181 -0.5231551527602464
vn -1.1782461568052293e-9 0.7070832141029685 -0.7071303474846881
vn 0.000023566690804120583 0.707094997546606 -0.7071185642374102
vn 0 0.8112421851755609 -0.5847102846637648
vn 0 0.7071067811865476 -0.7071067811865476
vn 0 0.8416402353763344 -0.5400386228740205
vn 0 0.8112421851755609 -0.5847102846637648
vn 0.000023566690804120583 0.707094997546606 -0.7071185642374102
vn 0 0.7071067811865476 -0.7071067811865476
vn 0.21513744042781158 0.8512471200629838 -0.47863788223525106
vn -1.1782461568052293e-9 0.7070832141029685 -0.7071303474846881
vn 0.07175839357018865 0.8492110568596181 -0.5231551527602464
vn 0.21513744042781158 0.8512471200629838 -0.47863788223525106
vn 0.21516338522488565 0.851250457370008 -0.47862028423993863
vn -1.1782461568052293e-9 0.7070832141029685 -0.7071303474846881
g Scene
f 1/1/1 3/2/2 2/3/3
f 1/4/4 4/5/5 3/6/6
f 5/7/7 4/8/8 1/9/9
f 5/10/10 6/11/11 4/12/12
f 2/13/13 8/14/14 7/15/15
f 2/16/16 3/17/17 8/18/18
f 7/19/19 10/20/20 9/21/21
f 7/22/22 8/23/23 10/24/24
f 9/25/25 12/26/26 11/27/27
f 9/28/28 10/29/29 12/30/30
f 11/31/31 14/32/32 13/33/33
f 11/34/34 12/35/35 14/36/36
f 3/37/37 15/38/38 8/39/39
f 3/40/40 16/41/41 15/42/42
f 8/43/43 17/44/44 10/45/45
f 8/46/46 15/47/47 17/48/48
f 10/49/49 18/50/50 12/51/51
f 10/52/52 17/53/53 18/54/54
f 12/55/55 19/56/56 14/57/57
f 12/58/58 18/59/59 19/60/60
f 20/61/61 13/62/62 21/63/63
f 20/64/64 11/65/65 13/66/66
f 22/67/67 11/68/68 20/69/69
f 22/70/70 9/71/71 11/72/72
f 23/73/73 9/74/74 22/75/75
f 23/76/76 7/77/77 9/78/78
f 24/79/79 21/80/80 25/81/81
f 24/82/82 20/83/83 21/84/84
f 26/85/85 20/86/86 24/87/87
f 26/88/88 22/89/89 20/90/90
f 27/91/91 22/92/92 26/93/93
f 27/94/94 23/95/95 22/96/96
f 28/97/97 7/98/98 23/99/99
f 28/100/100 2/101/101 7/102/102
f 29/103/103 2/104/104 28/105/105
f 29/106/106 1/107/107 2/108/108
f 30/109/109 1/110/110 29/111/111
f 30/112/112 5/113/113 1/114/114
f 31/115/115 5/116/116 30/117/117
f 31/118/118 32/119/119 5/120/120
f 33/121/121 34/122/122 6/123/123
f 33/124/124 35/125/125 34/126/126
f 32/127/127 6/128/128 5/129/129
f 32/130/130 33/131/131 6/132/132
f 6/133/133 36/134/134 4/135/135
f 6/136/136 34/137/137 36/138/138
f 4/139/139 16/140/140 3/141/141
f 4/142/142 36/143/143 16/144/144
f 16/145/145 37/146/146 15/147/147
f 16/148/148 38/149/149 37/150/150
f 17/151/151 39/152/152 18/153/153
f 17/154/154 40/155/155 39/156/156
f 18/157/157 41/158/158 19/159/159
f 18/160/160 39/161/161 41/162/162
f 15/163/163 40/164/164 17/165/165
f 15/166/166 37/167/167 40/168/168
