o Default
v 1 0 1
v 0 0.5 1
v 0 0.5 0
v 1 0 0
v 0 0.5 -1
v 1 0 -1
v 1 0 2
v 0 0 2
v 0 0 -2
v 1 0 -2
v -1 0.5 0
v -1 0.5 -1
v -1 0.5 1
v -1 0 -2
v -1 0 2
vt 0.3333333333333333 0
vt 0.6666666666666666 0.5
vt 0.3333333333333333 0.5
vt 0.3333333333333333 0
vt 0.6666666666666666 0
vt 0.6666666666666666 0.5
vt 0.3333333333333333 0
vt 0.6666666666666666 0.5
vt 0.3333333333333333 0.5
vt 0.3333333333333333 0
vt 0.6666666666666666 0
vt 0.6666666666666666 0.5
vt 0 0
vt 0.3333333333333333 0.5
vt 0 0.5
vt 0 0
vt 0.3333333333333333 0
vt 0.3333333333333333 0.5
vt 0.6666666666666666 0
vt 1 0.5
vt 0.6666666666666666 0.5
vt 0.6666666666666666 0
vt 1 0
vt 1 0.5
vt 0 0.5
vt 0.3333333333333333 1
vt 0 1
vt 0 0.5
vt 0.3333333333333333 0.5
vt 0.3333333333333333 1
vt 0 0.5
vt 0.3333333333333333 1
vt 0 1
vt 0 0.5
vt 0.3333333333333333 0.5
vt 0.3333333333333333 1
vt 0.6666666666666666 0.5
vt 1 1
vt 0.6666666666666666 1
vt 0.6666666666666666 0.5
vt 1 0.5
vt 1 1
vt 0.3333333333333333 0
vt 0 0.5
vt 0 0
vt 0.3333333333333333 0
vt 0.3333333333333333 0.5
vt 0 0.5
vn 0.44728513822764887 0.8943914160593632 -1.4908013433969092e-9
vn 0.22979184487339485 0.9732397998590488 -7.658962074983046e-10
vn 0.15642803925043217 0.9752298471906392 0.15638738339389063
vn 0.44728513822764887 0.8943914160593632 -1.4908013433969092e-9
vn 0.44728513822764887 0.8943914160593632 -7.454006716984546e-10
vn 0.22979184487339485 0.9732397998590488 -7.658962074983046e-10
vn 0.44728513822764887 0.8943914160593632 -7.454006716984546e-10
vn 0.22857368627586844 0.9463224404369134 -0.22853426147469746
vn 0.22979184487339485 0.9732397998590488 -7.658962074983046e-10
vn 0.44728513822764887 0.8943914160593632 -7.454006716984546e-10
vn 0.2979595048446204 0.9439352181556938 -0.14214934891905454
vn 0.22857368627586844 0.9463224404369134 -0.22853426147469746
vn 0.2357865784188468 0.9427880892721151 0.23570173559854743
vn 0.15642803925043217 0.9752298471906392 0.15638738339389063
vn 0.000029811258275135108 0.8944271906024722 0.4472135953012361
vn 0.2357865784188468 0.9427880892721151 0.23570173559854743
vn 0.44728513822764887 0.8943914160593632 -1.4908013433969092e-9
vn 0.15642803925043217 0.9752298471906392 0.15638738339389063
vn 0.2979595048446204 0.9439352181556938 -0.14214934891905454
vn 0.1422133768605277 0.9439528783607144 -0.2978729911832354
vn 0.22857368627586844 0.9463224404369134 -0.22853426147469746
vn 0.2979595048446204 0.9439352181556938 -0.14214934891905454
vn 0.00009998999980817563 0.9999999950010001 0
vn 0.1422133768605277 0.9439528783607144 -0.2978729911832354
vn 0.22979184487339485 0.9732397998590488 -7.658962074983046e-10
vn 0 0.9882731152012093 -0.15269659384052192
vn 0 1 0
vn 0.22979184487339485 0.9732397998590488 -7.658962074983046e-10
vn 0.22857368627586844 0.9463224404369134 -0.22853426147469746
vn 0 0.9882731152012093 -0.15269659384052192
vn 0.15642803925043217 0.9752298471906392 0.15638738339389063
vn 0 1 0
vn 0 0.9522263391221704 0.30539318768104384
vn 0.15642803925043217 0.9752298471906392 0.15638738339389063
vn 0.22979184487339485 0.9732397998590488 -7.658962074983046e-10
vn 0 1 0
vn 0.22857368627586844 0.9463224404369134 -0.22853426147469746
vn 0 0.8944271909999161 -0.44721359549995804
vn 0 0.9882731152012093 -0.15269659384052192
vn 0.22857368627586844 0.9463224404369134 -0.22853426147469746
vn 0.1422133768605277 0.9439528783607144 -0.2978729911832354
vn 0 0.8944271909999161 -0.44721359549995804
vn 0.000029811258275135108 0.8944271906024722 0.4472135953012361
vn 0 0.9522263391221704 0.30539318768104384
vn 0 0.8944271909999161 0.44721359549995804
vn 0.000029811258275135108 0.8944271906024722 0.4472135953012361
vn 0.15642803925043217 0.9752298471906392 0.15638738339389063
vn 0 0.9522263391221704 0.30539318768104384
g Scene
f 1/1/1 3/2/2 2/3/3
f 1/4/4 4/5/5 3/6/6
f 4/7/7 5/8/8 3/9/9
f 4/10/10 6/11/11 5/12/12
f 7/13/13 2/14/14 8/15/15
f 7/16/16 1/17/17 2/18/18
f 6/19/19 9/20/20 5/21/21
f 6/22/22 10/23/23 9/24/24
f 3/25/25 12/26/26 11/27/27
f 3/28/28 5/29/29 12/30/30
f 2/31/31 11/32/32 13/33/33
f 2/34/34 3/35/35 11/36/36
f 5/37/37 14/38/38 12/39/39
f 5/40/40 9/41/41 14/42/42
f 8/43/43 13/44/44 15/45/45
f 8/46/46 2/47/47 13/48/48
